<?xml version="1.0" encoding="UTF-8"?>
<svg xmlns="http://www.w3.org/2000/svg" width="1024" height="1024" viewBox="0 0 1024 1024">
  <rect width="1024" height="1024" fill="#1e1b4b"/><rect x="500" y="80" width="24" height="430" fill="#ef4444" opacity="0.23" transform="rotate(0 512 512)"/><rect x="500" y="80" width="24" height="430" fill="#22c55e" opacity="0.23" transform="rotate(12.857142857142858 512 512)"/><rect x="500" y="80" width="24" height="430" fill="#ef4444" opacity="0.23" transform="rotate(25.714285714285715 512 512)"/><rect x="500" y="80" width="24" height="430" fill="#22c55e" opacity="0.23" transform="rotate(38.57142857142857 512 512)"/><rect x="500" y="80" width="24" height="430" fill="#ef4444" opacity="0.23" transform="rotate(51.42857142857143 512 512)"/><rect x="500" y="80" width="24" height="430" fill="#22c55e" opacity="0.23" transform="rotate(64.28571428571429 512 512)"/><rect x="500" y="80" width="24" height="430" fill="#ef4444" opacity="0.23" transform="rotate(77.14285714285714 512 512)"/><rect x="500" y="80" width="24" height="430" fill="#22c55e" opacity="0.23" transform="rotate(90 512 512)"/><rect x="500" y="80" width="24" height="430" fill="#ef4444" opacity="0.23" transform="rotate(102.85714285714286 512 512)"/><rect x="500" y="80" width="24" height="430" fill="#22c55e" opacity="0.23" transform="rotate(115.71428571428572 512 512)"/><rect x="500" y="80" width="24" height="430" fill="#ef4444" opacity="0.23" transform="rotate(128.57142857142858 512 512)"/><rect x="500" y="80" width="24" height="430" fill="#22c55e" opacity="0.23" transform="rotate(141.42857142857144 512 512)"/><rect x="500" y="80" width="24" height="430" fill="#ef4444" opacity="0.23" transform="rotate(154.28571428571428 512 512)"/><rect x="500" y="80" width="24" height="430" fill="#22c55e" opacity="0.23" transform="rotate(167.14285714285714 512 512)"/><rect x="500" y="80" width="24" height="430" fill="#ef4444" opacity="0.23" transform="rotate(180 512 512)"/><rect x="500" y="80" width="24" height="430" fill="#22c55e" opacity="0.23" transform="rotate(192.85714285714286 512 512)"/><rect x="500" y="80" width="24" height="430" fill="#ef4444" opacity="0.23" transform="rotate(205.71428571428572 512 512)"/><rect x="500" y="80" width="24" height="430" fill="#22c55e" opacity="0.23" transform="rotate(218.57142857142858 512 512)"/><rect x="500" y="80" width="24" height="430" fill="#ef4444" opacity="0.23" transform="rotate(231.42857142857144 512 512)"/><rect x="500" y="80" width="24" height="430" fill="#22c55e" opacity="0.23" transform="rotate(244.2857142857143 512 512)"/><rect x="500" y="80" width="24" height="430" fill="#ef4444" opacity="0.23" transform="rotate(257.14285714285717 512 512)"/><rect x="500" y="80" width="24" height="430" fill="#22c55e" opacity="0.23" transform="rotate(270 512 512)"/><rect x="500" y="80" width="24" height="430" fill="#ef4444" opacity="0.23" transform="rotate(282.8571428571429 512 512)"/><rect x="500" y="80" width="24" height="430" fill="#22c55e" opacity="0.23" transform="rotate(295.7142857142857 512 512)"/><rect x="500" y="80" width="24" height="430" fill="#ef4444" opacity="0.23" transform="rotate(308.57142857142856 512 512)"/><rect x="500" y="80" width="24" height="430" fill="#22c55e" opacity="0.23" transform="rotate(321.42857142857144 512 512)"/><rect x="500" y="80" width="24" height="430" fill="#ef4444" opacity="0.23" transform="rotate(334.2857142857143 512 512)"/><rect x="500" y="80" width="24" height="430" fill="#22c55e" opacity="0.23" transform="rotate(347.14285714285717 512 512)"/><circle cx="512" cy="512" r="190" fill="#f1f5f9" opacity="0.2"/>
  <polygon points="512,170 780,330 780,690 512,850 244,690 244,330" fill="#f1f5f9" stroke="#fef2f2" stroke-width="6"/>

  <g transform="translate(512 515) rotate(306)">
    <circle cx="0" cy="0" r="148" fill="#f1f5f9" opacity="0.22"/>
    <path d="M0 -138 A 138 138 0 1 1 0 138 A 69 69 0 1 0 0 -138" fill="#ef4444"/>
    <path d="M0 138 A 138 138 0 1 1 0 -138 A 69 69 0 1 0 0 138" fill="#22c55e"/>
  </g>

  <g opacity="0.94">
    <g transform="rotate(-23 512 512)"><rect x="315" y="280" width="118" height="14" rx="5" fill="#111827"/><rect x="315" y="316" width="118" height="14" rx="5" fill="#111827"/><rect x="315" y="352" width="118" height="14" rx="5" fill="#111827"/></g>
    <g transform="translate(380 0) rotate(23 512 512)"><rect x="315" y="280" width="118" height="14" rx="5" fill="#111827"/><rect x="315" y="316" width="118" height="14" rx="5" fill="#111827"/><rect x="315" y="352" width="118" height="14" rx="5" fill="#111827"/></g>
    <g transform="translate(0 380) rotate(23 512 512)"><rect x="331" y="312" width="130" height="14" rx="5" fill="#111827"/><rect x="331" y="348" width="55" height="14" rx="5" fill="#111827"/><rect x="406" y="348" width="55" height="14" rx="5" fill="#111827"/><rect x="331" y="384" width="55" height="14" rx="5" fill="#111827"/><rect x="406" y="384" width="55" height="14" rx="5" fill="#111827"/></g>
    <g transform="translate(380 380) rotate(-23 512 512)"><rect x="323" y="304" width="61" height="14" rx="5" fill="#111827"/><rect x="404" y="304" width="61" height="14" rx="5" fill="#111827"/><rect x="323" y="340" width="142" height="14" rx="5" fill="#111827"/><rect x="323" y="376" width="61" height="14" rx="5" fill="#111827"/><rect x="404" y="376" width="61" height="14" rx="5" fill="#111827"/></g>
  </g>

  <text x="860.5" y="530.3" text-anchor="middle" dominant-baseline="middle" font-size="28" fill="#ef4444" opacity="0.75">⬟</text><text x="776.7" y="731.7" text-anchor="middle" dominant-baseline="middle" font-size="48" fill="#22c55e" opacity="0.75">⬢</text><text x="701.2" y="786.1" text-anchor="middle" dominant-baseline="middle" font-size="43" fill="#ef4444" opacity="0.75">✪</text><text x="550.5" y="828.7" text-anchor="middle" dominant-baseline="middle" font-size="33" fill="#22c55e" opacity="0.75">✺</text><text x="355.0" y="810.2" text-anchor="middle" dominant-baseline="middle" font-size="36" fill="#ef4444" opacity="0.75">⟡</text><text x="249.5" y="673.1" text-anchor="middle" dominant-baseline="middle" font-size="39" fill="#22c55e" opacity="0.75">⬟</text><text x="164.5" y="492.9" text-anchor="middle" dominant-baseline="middle" font-size="29" fill="#ef4444" opacity="0.75">⬢</text><text x="222.7" y="339.2" text-anchor="middle" dominant-baseline="middle" font-size="33" fill="#22c55e" opacity="0.75">✪</text><text x="301.6" y="256.5" text-anchor="middle" dominant-baseline="middle" font-size="28" fill="#ef4444" opacity="0.75">✺</text><text x="474.2" y="193.2" text-anchor="middle" dominant-baseline="middle" font-size="27" fill="#22c55e" opacity="0.75">⟡</text><text x="589.0" y="201.4" text-anchor="middle" dominant-baseline="middle" font-size="27" fill="#ef4444" opacity="0.75">⬟</text><text x="763.9" y="282.1" text-anchor="middle" dominant-baseline="middle" font-size="31" fill="#22c55e" opacity="0.75">⬢</text><text x="792.5" y="371.0" text-anchor="middle" dominant-baseline="middle" font-size="41" fill="#ef4444" opacity="0.75">✪</text>

  <text x="512" y="900" text-anchor="middle" font-size="38" font-family="Inter, Arial, sans-serif" fill="#f1f5f9">March 1st Spirit #1</text>
  <text x="512" y="942" text-anchor="middle" font-size="22" font-family="Inter, Arial, sans-serif" fill="#fef2f2">대한독립 만세 · Unique Edition</text>
</svg>