<?xml version="1.0" encoding="UTF-8"?>
<svg xmlns="http://www.w3.org/2000/svg" width="1024" height="1024" viewBox="0 0 1024 1024">
  <rect width="1024" height="1024" fill="#111827"/><line x1="0" y1="0" x2="0" y2="1024" stroke="#2563eb" opacity="0.18"/><line x1="0" y1="0" x2="1024" y2="0" stroke="#e5e7eb" opacity="0.14"/><line x1="64" y1="0" x2="64" y2="1024" stroke="#2563eb" opacity="0.18"/><line x1="0" y1="64" x2="1024" y2="64" stroke="#e5e7eb" opacity="0.14"/><line x1="128" y1="0" x2="128" y2="1024" stroke="#2563eb" opacity="0.18"/><line x1="0" y1="128" x2="1024" y2="128" stroke="#e5e7eb" opacity="0.14"/><line x1="192" y1="0" x2="192" y2="1024" stroke="#2563eb" opacity="0.18"/><line x1="0" y1="192" x2="1024" y2="192" stroke="#e5e7eb" opacity="0.14"/><line x1="256" y1="0" x2="256" y2="1024" stroke="#2563eb" opacity="0.18"/><line x1="0" y1="256" x2="1024" y2="256" stroke="#e5e7eb" opacity="0.14"/><line x1="320" y1="0" x2="320" y2="1024" stroke="#2563eb" opacity="0.18"/><line x1="0" y1="320" x2="1024" y2="320" stroke="#e5e7eb" opacity="0.14"/><line x1="384" y1="0" x2="384" y2="1024" stroke="#2563eb" opacity="0.18"/><line x1="0" y1="384" x2="1024" y2="384" stroke="#e5e7eb" opacity="0.14"/><line x1="448" y1="0" x2="448" y2="1024" stroke="#2563eb" opacity="0.18"/><line x1="0" y1="448" x2="1024" y2="448" stroke="#e5e7eb" opacity="0.14"/><line x1="512" y1="0" x2="512" y2="1024" stroke="#2563eb" opacity="0.18"/><line x1="0" y1="512" x2="1024" y2="512" stroke="#e5e7eb" opacity="0.14"/><line x1="576" y1="0" x2="576" y2="1024" stroke="#2563eb" opacity="0.18"/><line x1="0" y1="576" x2="1024" y2="576" stroke="#e5e7eb" opacity="0.14"/><line x1="640" y1="0" x2="640" y2="1024" stroke="#2563eb" opacity="0.18"/><line x1="0" y1="640" x2="1024" y2="640" stroke="#e5e7eb" opacity="0.14"/><line x1="704" y1="0" x2="704" y2="1024" stroke="#2563eb" opacity="0.18"/><line x1="0" y1="704" x2="1024" y2="704" stroke="#e5e7eb" opacity="0.14"/><line x1="768" y1="0" x2="768" y2="1024" stroke="#2563eb" opacity="0.18"/><line x1="0" y1="768" x2="1024" y2="768" stroke="#e5e7eb" opacity="0.14"/><line x1="832" y1="0" x2="832" y2="1024" stroke="#2563eb" opacity="0.18"/><line x1="0" y1="832" x2="1024" y2="832" stroke="#e5e7eb" opacity="0.14"/><line x1="896" y1="0" x2="896" y2="1024" stroke="#2563eb" opacity="0.18"/><line x1="0" y1="896" x2="1024" y2="896" stroke="#e5e7eb" opacity="0.14"/><line x1="960" y1="0" x2="960" y2="1024" stroke="#2563eb" opacity="0.18"/><line x1="0" y1="960" x2="1024" y2="960" stroke="#e5e7eb" opacity="0.14"/><line x1="1024" y1="0" x2="1024" y2="1024" stroke="#2563eb" opacity="0.18"/><line x1="0" y1="1024" x2="1024" y2="1024" stroke="#e5e7eb" opacity="0.14"/>
  <polygon points="512,170 780,330 780,690 512,850 244,690 244,330" fill="#fef3c7" stroke="#e5e7eb" stroke-width="6"/>

  <g transform="translate(512 514) rotate(104)">
    <circle cx="0" cy="0" r="152" fill="#fef3c7" opacity="0.22"/>
    <path d="M0 -142 A 142 142 0 1 1 0 142 A 71 71 0 1 0 0 -142" fill="#fb7185"/>
    <path d="M0 142 A 142 142 0 1 1 0 -142 A 71 71 0 1 0 0 142" fill="#2563eb"/>
  </g>

  <g opacity="0.94">
    <g transform="rotate(-23 512 512)"><rect x="331" y="312" width="118" height="14" rx="5" fill="#111827"/><rect x="331" y="348" width="118" height="14" rx="5" fill="#111827"/><rect x="331" y="384" width="118" height="14" rx="5" fill="#111827"/></g>
    <g transform="translate(380 0) rotate(23 512 512)"><rect x="331" y="288" width="49" height="14" rx="5" fill="#111827"/><rect x="400" y="288" width="49" height="14" rx="5" fill="#111827"/><rect x="331" y="324" width="118" height="14" rx="5" fill="#111827"/><rect x="331" y="360" width="118" height="14" rx="5" fill="#111827"/></g>
    <g transform="translate(0 380) rotate(23 512 512)"><rect x="315" y="304" width="130" height="14" rx="5" fill="#111827"/><rect x="315" y="340" width="55" height="14" rx="5" fill="#111827"/><rect x="390" y="340" width="55" height="14" rx="5" fill="#111827"/><rect x="315" y="376" width="130" height="14" rx="5" fill="#111827"/></g>
    <g transform="translate(380 380) rotate(-23 512 512)"><rect x="347" y="280" width="49" height="14" rx="5" fill="#111827"/><rect x="416" y="280" width="49" height="14" rx="5" fill="#111827"/><rect x="347" y="316" width="118" height="14" rx="5" fill="#111827"/><rect x="347" y="352" width="118" height="14" rx="5" fill="#111827"/></g>
  </g>

  <text x="763.1" y="579.3" text-anchor="middle" dominant-baseline="middle" font-size="32" fill="#fb7185" opacity="0.75">▲</text><text x="706.0" y="680.6" text-anchor="middle" dominant-baseline="middle" font-size="41" fill="#2563eb" opacity="0.75">◆</text><text x="512.0" y="777.0" text-anchor="middle" dominant-baseline="middle" font-size="38" fill="#fb7185" opacity="0.75">●</text><text x="376.3" y="729.1" text-anchor="middle" dominant-baseline="middle" font-size="42" fill="#2563eb" opacity="0.75">■</text><text x="266.7" y="577.7" text-anchor="middle" dominant-baseline="middle" font-size="33" fill="#fb7185" opacity="0.75">⬢</text><text x="298.4" y="356.8" text-anchor="middle" dominant-baseline="middle" font-size="25" fill="#2563eb" opacity="0.75">▲</text><text x="427.0" y="250.5" text-anchor="middle" dominant-baseline="middle" font-size="22" fill="#fb7185" opacity="0.75">◆</text><text x="582.0" y="267.8" text-anchor="middle" dominant-baseline="middle" font-size="23" fill="#2563eb" opacity="0.75">●</text><text x="751.3" y="410.4" text-anchor="middle" dominant-baseline="middle" font-size="23" fill="#fb7185" opacity="0.75">■</text>

  <text x="512" y="900" text-anchor="middle" font-size="38" font-family="Inter, Arial, sans-serif" fill="#fef3c7">March 1st Spirit #10</text>
  <text x="512" y="942" text-anchor="middle" font-size="22" font-family="Inter, Arial, sans-serif" fill="#e5e7eb">대한독립 만세 · Unique Edition</text>
</svg>