<?xml version="1.0" encoding="UTF-8"?>
<svg xmlns="http://www.w3.org/2000/svg" width="1024" height="1024" viewBox="0 0 1024 1024">
  <rect width="1024" height="1024" fill="#172554"/><rect x="500" y="80" width="24" height="430" fill="#dc2626" opacity="0.23" transform="rotate(0 512 512)"/><rect x="500" y="80" width="24" height="430" fill="#38bdf8" opacity="0.23" transform="rotate(12.857142857142858 512 512)"/><rect x="500" y="80" width="24" height="430" fill="#dc2626" opacity="0.23" transform="rotate(25.714285714285715 512 512)"/><rect x="500" y="80" width="24" height="430" fill="#38bdf8" opacity="0.23" transform="rotate(38.57142857142857 512 512)"/><rect x="500" y="80" width="24" height="430" fill="#dc2626" opacity="0.23" transform="rotate(51.42857142857143 512 512)"/><rect x="500" y="80" width="24" height="430" fill="#38bdf8" opacity="0.23" transform="rotate(64.28571428571429 512 512)"/><rect x="500" y="80" width="24" height="430" fill="#dc2626" opacity="0.23" transform="rotate(77.14285714285714 512 512)"/><rect x="500" y="80" width="24" height="430" fill="#38bdf8" opacity="0.23" transform="rotate(90 512 512)"/><rect x="500" y="80" width="24" height="430" fill="#dc2626" opacity="0.23" transform="rotate(102.85714285714286 512 512)"/><rect x="500" y="80" width="24" height="430" fill="#38bdf8" opacity="0.23" transform="rotate(115.71428571428572 512 512)"/><rect x="500" y="80" width="24" height="430" fill="#dc2626" opacity="0.23" transform="rotate(128.57142857142858 512 512)"/><rect x="500" y="80" width="24" height="430" fill="#38bdf8" opacity="0.23" transform="rotate(141.42857142857144 512 512)"/><rect x="500" y="80" width="24" height="430" fill="#dc2626" opacity="0.23" transform="rotate(154.28571428571428 512 512)"/><rect x="500" y="80" width="24" height="430" fill="#38bdf8" opacity="0.23" transform="rotate(167.14285714285714 512 512)"/><rect x="500" y="80" width="24" height="430" fill="#dc2626" opacity="0.23" transform="rotate(180 512 512)"/><rect x="500" y="80" width="24" height="430" fill="#38bdf8" opacity="0.23" transform="rotate(192.85714285714286 512 512)"/><rect x="500" y="80" width="24" height="430" fill="#dc2626" opacity="0.23" transform="rotate(205.71428571428572 512 512)"/><rect x="500" y="80" width="24" height="430" fill="#38bdf8" opacity="0.23" transform="rotate(218.57142857142858 512 512)"/><rect x="500" y="80" width="24" height="430" fill="#dc2626" opacity="0.23" transform="rotate(231.42857142857144 512 512)"/><rect x="500" y="80" width="24" height="430" fill="#38bdf8" opacity="0.23" transform="rotate(244.2857142857143 512 512)"/><rect x="500" y="80" width="24" height="430" fill="#dc2626" opacity="0.23" transform="rotate(257.14285714285717 512 512)"/><rect x="500" y="80" width="24" height="430" fill="#38bdf8" opacity="0.23" transform="rotate(270 512 512)"/><rect x="500" y="80" width="24" height="430" fill="#dc2626" opacity="0.23" transform="rotate(282.8571428571429 512 512)"/><rect x="500" y="80" width="24" height="430" fill="#38bdf8" opacity="0.23" transform="rotate(295.7142857142857 512 512)"/><rect x="500" y="80" width="24" height="430" fill="#dc2626" opacity="0.23" transform="rotate(308.57142857142856 512 512)"/><rect x="500" y="80" width="24" height="430" fill="#38bdf8" opacity="0.23" transform="rotate(321.42857142857144 512 512)"/><rect x="500" y="80" width="24" height="430" fill="#dc2626" opacity="0.23" transform="rotate(334.2857142857143 512 512)"/><rect x="500" y="80" width="24" height="430" fill="#38bdf8" opacity="0.23" transform="rotate(347.14285714285717 512 512)"/><circle cx="512" cy="512" r="190" fill="#ffffff" opacity="0.2"/>
  <g><circle cx="512" cy="512" r="310" fill="#ffffff" stroke="#e2e8f0" stroke-width="6"/><circle cx="512" cy="512" r="265" fill="none" stroke="#38bdf8" opacity="0.35" stroke-width="8"/></g>

  <g transform="translate(512 507) rotate(249)">
    <circle cx="0" cy="0" r="154" fill="#ffffff" opacity="0.22"/>
    <path d="M0 -144 A 144 144 0 1 1 0 144 A 72 72 0 1 0 0 -144" fill="#dc2626"/>
    <path d="M0 144 A 144 144 0 1 1 0 -144 A 72 72 0 1 0 0 144" fill="#38bdf8"/>
  </g>

  <g opacity="0.94">
    <g transform="rotate(-23 512 512)"><rect x="315" y="296" width="49" height="14" rx="5" fill="#111827"/><rect x="384" y="296" width="49" height="14" rx="5" fill="#111827"/><rect x="315" y="332" width="118" height="14" rx="5" fill="#111827"/><rect x="315" y="368" width="118" height="14" rx="5" fill="#111827"/></g>
    <g transform="translate(380 0) rotate(23 512 512)"><rect x="347" y="304" width="118" height="14" rx="5" fill="#111827"/><rect x="347" y="340" width="118" height="14" rx="5" fill="#111827"/><rect x="347" y="376" width="118" height="14" rx="5" fill="#111827"/></g>
    <g transform="translate(0 380) rotate(23 512 512)"><rect x="331" y="288" width="49" height="14" rx="5" fill="#111827"/><rect x="400" y="288" width="49" height="14" rx="5" fill="#111827"/><rect x="331" y="324" width="118" height="14" rx="5" fill="#111827"/><rect x="331" y="360" width="118" height="14" rx="5" fill="#111827"/></g>
    <g transform="translate(380 380) rotate(-23 512 512)"><rect x="347" y="312" width="67" height="14" rx="5" fill="#111827"/><rect x="434" y="312" width="67" height="14" rx="5" fill="#111827"/><rect x="347" y="348" width="67" height="14" rx="5" fill="#111827"/><rect x="434" y="348" width="67" height="14" rx="5" fill="#111827"/><rect x="347" y="384" width="67" height="14" rx="5" fill="#111827"/><rect x="434" y="384" width="67" height="14" rx="5" fill="#111827"/></g>
  </g>

  <text x="749.6" y="575.7" text-anchor="middle" dominant-baseline="middle" font-size="20" fill="#dc2626" opacity="0.75">☼</text><text x="734.8" y="668.0" text-anchor="middle" dominant-baseline="middle" font-size="36" fill="#38bdf8" opacity="0.75">☾</text><text x="649.5" y="740.9" text-anchor="middle" dominant-baseline="middle" font-size="23" fill="#dc2626" opacity="0.75">✸</text><text x="546.1" y="754.6" text-anchor="middle" dominant-baseline="middle" font-size="39" fill="#38bdf8" opacity="0.75">✹</text><text x="474.3" y="750.0" text-anchor="middle" dominant-baseline="middle" font-size="41" fill="#dc2626" opacity="0.75">✦</text><text x="334.0" y="709.7" text-anchor="middle" dominant-baseline="middle" font-size="28" fill="#38bdf8" opacity="0.75">☼</text><text x="257.7" y="599.6" text-anchor="middle" dominant-baseline="middle" font-size="20" fill="#dc2626" opacity="0.75">☾</text><text x="278.2" y="561.7" text-anchor="middle" dominant-baseline="middle" font-size="25" fill="#38bdf8" opacity="0.75">✸</text><text x="275.0" y="391.2" text-anchor="middle" dominant-baseline="middle" font-size="41" fill="#dc2626" opacity="0.75">✹</text><text x="325.5" y="344.0" text-anchor="middle" dominant-baseline="middle" font-size="46" fill="#38bdf8" opacity="0.75">✦</text><text x="407.5" y="277.2" text-anchor="middle" dominant-baseline="middle" font-size="47" fill="#dc2626" opacity="0.75">☼</text><text x="559.1" y="245.1" text-anchor="middle" dominant-baseline="middle" font-size="33" fill="#38bdf8" opacity="0.75">☾</text><text x="665.2" y="284.8" text-anchor="middle" dominant-baseline="middle" font-size="36" fill="#dc2626" opacity="0.75">✸</text><text x="717.6" y="373.3" text-anchor="middle" dominant-baseline="middle" font-size="25" fill="#38bdf8" opacity="0.75">✹</text><text x="764.1" y="444.4" text-anchor="middle" dominant-baseline="middle" font-size="49" fill="#dc2626" opacity="0.75">✦</text>

  <text x="512" y="900" text-anchor="middle" font-size="38" font-family="Inter, Arial, sans-serif" fill="#ffffff">March 1st Spirit #100</text>
  <text x="512" y="942" text-anchor="middle" font-size="22" font-family="Inter, Arial, sans-serif" fill="#e2e8f0">대한독립 만세 · Unique Edition</text>
</svg>