<?xml version="1.0" encoding="UTF-8"?>
<svg xmlns="http://www.w3.org/2000/svg" width="1024" height="1024" viewBox="0 0 1024 1024">
  <rect width="1024" height="1024" fill="#020617"/><rect x="500" y="80" width="24" height="430" fill="#f43f5e" opacity="0.23" transform="rotate(0 512 512)"/><rect x="500" y="80" width="24" height="430" fill="#6366f1" opacity="0.23" transform="rotate(12.857142857142858 512 512)"/><rect x="500" y="80" width="24" height="430" fill="#f43f5e" opacity="0.23" transform="rotate(25.714285714285715 512 512)"/><rect x="500" y="80" width="24" height="430" fill="#6366f1" opacity="0.23" transform="rotate(38.57142857142857 512 512)"/><rect x="500" y="80" width="24" height="430" fill="#f43f5e" opacity="0.23" transform="rotate(51.42857142857143 512 512)"/><rect x="500" y="80" width="24" height="430" fill="#6366f1" opacity="0.23" transform="rotate(64.28571428571429 512 512)"/><rect x="500" y="80" width="24" height="430" fill="#f43f5e" opacity="0.23" transform="rotate(77.14285714285714 512 512)"/><rect x="500" y="80" width="24" height="430" fill="#6366f1" opacity="0.23" transform="rotate(90 512 512)"/><rect x="500" y="80" width="24" height="430" fill="#f43f5e" opacity="0.23" transform="rotate(102.85714285714286 512 512)"/><rect x="500" y="80" width="24" height="430" fill="#6366f1" opacity="0.23" transform="rotate(115.71428571428572 512 512)"/><rect x="500" y="80" width="24" height="430" fill="#f43f5e" opacity="0.23" transform="rotate(128.57142857142858 512 512)"/><rect x="500" y="80" width="24" height="430" fill="#6366f1" opacity="0.23" transform="rotate(141.42857142857144 512 512)"/><rect x="500" y="80" width="24" height="430" fill="#f43f5e" opacity="0.23" transform="rotate(154.28571428571428 512 512)"/><rect x="500" y="80" width="24" height="430" fill="#6366f1" opacity="0.23" transform="rotate(167.14285714285714 512 512)"/><rect x="500" y="80" width="24" height="430" fill="#f43f5e" opacity="0.23" transform="rotate(180 512 512)"/><rect x="500" y="80" width="24" height="430" fill="#6366f1" opacity="0.23" transform="rotate(192.85714285714286 512 512)"/><rect x="500" y="80" width="24" height="430" fill="#f43f5e" opacity="0.23" transform="rotate(205.71428571428572 512 512)"/><rect x="500" y="80" width="24" height="430" fill="#6366f1" opacity="0.23" transform="rotate(218.57142857142858 512 512)"/><rect x="500" y="80" width="24" height="430" fill="#f43f5e" opacity="0.23" transform="rotate(231.42857142857144 512 512)"/><rect x="500" y="80" width="24" height="430" fill="#6366f1" opacity="0.23" transform="rotate(244.2857142857143 512 512)"/><rect x="500" y="80" width="24" height="430" fill="#f43f5e" opacity="0.23" transform="rotate(257.14285714285717 512 512)"/><rect x="500" y="80" width="24" height="430" fill="#6366f1" opacity="0.23" transform="rotate(270 512 512)"/><rect x="500" y="80" width="24" height="430" fill="#f43f5e" opacity="0.23" transform="rotate(282.8571428571429 512 512)"/><rect x="500" y="80" width="24" height="430" fill="#6366f1" opacity="0.23" transform="rotate(295.7142857142857 512 512)"/><rect x="500" y="80" width="24" height="430" fill="#f43f5e" opacity="0.23" transform="rotate(308.57142857142856 512 512)"/><rect x="500" y="80" width="24" height="430" fill="#6366f1" opacity="0.23" transform="rotate(321.42857142857144 512 512)"/><rect x="500" y="80" width="24" height="430" fill="#f43f5e" opacity="0.23" transform="rotate(334.2857142857143 512 512)"/><rect x="500" y="80" width="24" height="430" fill="#6366f1" opacity="0.23" transform="rotate(347.14285714285717 512 512)"/><circle cx="512" cy="512" r="190" fill="#f8fafc" opacity="0.2"/>
  <polygon points="512,170 820,512 512,854 204,512" fill="#f8fafc" stroke="#cbd5e1" stroke-width="6"/>

  <g transform="translate(512 507) rotate(163)">
    <circle cx="0" cy="0" r="136" fill="#f8fafc" opacity="0.22"/>
    <path d="M0 -126 A 126 126 0 1 1 0 126 A 63 63 0 1 0 0 -126" fill="#f43f5e"/>
    <path d="M0 126 A 126 126 0 1 1 0 -126 A 63 63 0 1 0 0 126" fill="#6366f1"/>
  </g>

  <g opacity="0.94">
    <g transform="rotate(-23 512 512)"><rect x="323" y="288" width="154" height="14" rx="5" fill="#111827"/><rect x="323" y="324" width="154" height="14" rx="5" fill="#111827"/><rect x="323" y="360" width="67" height="14" rx="5" fill="#111827"/><rect x="410" y="360" width="67" height="14" rx="5" fill="#111827"/></g>
    <g transform="translate(380 0) rotate(23 512 512)"><rect x="331" y="312" width="130" height="14" rx="5" fill="#111827"/><rect x="331" y="348" width="55" height="14" rx="5" fill="#111827"/><rect x="406" y="348" width="55" height="14" rx="5" fill="#111827"/><rect x="331" y="384" width="55" height="14" rx="5" fill="#111827"/><rect x="406" y="384" width="55" height="14" rx="5" fill="#111827"/></g>
    <g transform="translate(0 380) rotate(23 512 512)"><rect x="331" y="296" width="130" height="14" rx="5" fill="#111827"/><rect x="331" y="332" width="55" height="14" rx="5" fill="#111827"/><rect x="406" y="332" width="55" height="14" rx="5" fill="#111827"/><rect x="331" y="368" width="130" height="14" rx="5" fill="#111827"/></g>
    <g transform="translate(380 380) rotate(-23 512 512)"><rect x="315" y="280" width="130" height="14" rx="5" fill="#111827"/><rect x="315" y="316" width="55" height="14" rx="5" fill="#111827"/><rect x="390" y="316" width="55" height="14" rx="5" fill="#111827"/><rect x="315" y="352" width="55" height="14" rx="5" fill="#111827"/><rect x="390" y="352" width="55" height="14" rx="5" fill="#111827"/></g>
  </g>

  <text x="768.0" y="512.0" text-anchor="middle" dominant-baseline="middle" font-size="24" fill="#f43f5e" opacity="0.75">⬟</text><text x="672.7" y="717.7" text-anchor="middle" dominant-baseline="middle" font-size="46" fill="#6366f1" opacity="0.75">⬢</text><text x="494.6" y="760.4" text-anchor="middle" dominant-baseline="middle" font-size="45" fill="#f43f5e" opacity="0.75">✪</text><text x="362.1" y="734.2" text-anchor="middle" dominant-baseline="middle" font-size="47" fill="#6366f1" opacity="0.75">✺</text><text x="242.6" y="549.9" text-anchor="middle" dominant-baseline="middle" font-size="44" fill="#f43f5e" opacity="0.75">⟡</text><text x="280.0" y="408.7" text-anchor="middle" dominant-baseline="middle" font-size="23" fill="#6366f1" opacity="0.75">⬟</text><text x="432.8" y="252.8" text-anchor="middle" dominant-baseline="middle" font-size="30" fill="#f43f5e" opacity="0.75">⬢</text><text x="567.1" y="252.8" text-anchor="middle" dominant-baseline="middle" font-size="41" fill="#6366f1" opacity="0.75">✪</text><text x="706.6" y="359.9" text-anchor="middle" dominant-baseline="middle" font-size="49" fill="#f43f5e" opacity="0.75">✺</text>

  <text x="512" y="900" text-anchor="middle" font-size="38" font-family="Inter, Arial, sans-serif" fill="#f8fafc">March 1st Spirit #11</text>
  <text x="512" y="942" text-anchor="middle" font-size="22" font-family="Inter, Arial, sans-serif" fill="#cbd5e1">대한독립 만세 · Unique Edition</text>
</svg>