<?xml version="1.0" encoding="UTF-8"?>
<svg xmlns="http://www.w3.org/2000/svg" width="1024" height="1024" viewBox="0 0 1024 1024">
  <rect width="1024" height="1024" fill="#172554"/><line x1="0" y1="0" x2="0" y2="1024" stroke="#38bdf8" opacity="0.18"/><line x1="0" y1="0" x2="1024" y2="0" stroke="#e2e8f0" opacity="0.14"/><line x1="64" y1="0" x2="64" y2="1024" stroke="#38bdf8" opacity="0.18"/><line x1="0" y1="64" x2="1024" y2="64" stroke="#e2e8f0" opacity="0.14"/><line x1="128" y1="0" x2="128" y2="1024" stroke="#38bdf8" opacity="0.18"/><line x1="0" y1="128" x2="1024" y2="128" stroke="#e2e8f0" opacity="0.14"/><line x1="192" y1="0" x2="192" y2="1024" stroke="#38bdf8" opacity="0.18"/><line x1="0" y1="192" x2="1024" y2="192" stroke="#e2e8f0" opacity="0.14"/><line x1="256" y1="0" x2="256" y2="1024" stroke="#38bdf8" opacity="0.18"/><line x1="0" y1="256" x2="1024" y2="256" stroke="#e2e8f0" opacity="0.14"/><line x1="320" y1="0" x2="320" y2="1024" stroke="#38bdf8" opacity="0.18"/><line x1="0" y1="320" x2="1024" y2="320" stroke="#e2e8f0" opacity="0.14"/><line x1="384" y1="0" x2="384" y2="1024" stroke="#38bdf8" opacity="0.18"/><line x1="0" y1="384" x2="1024" y2="384" stroke="#e2e8f0" opacity="0.14"/><line x1="448" y1="0" x2="448" y2="1024" stroke="#38bdf8" opacity="0.18"/><line x1="0" y1="448" x2="1024" y2="448" stroke="#e2e8f0" opacity="0.14"/><line x1="512" y1="0" x2="512" y2="1024" stroke="#38bdf8" opacity="0.18"/><line x1="0" y1="512" x2="1024" y2="512" stroke="#e2e8f0" opacity="0.14"/><line x1="576" y1="0" x2="576" y2="1024" stroke="#38bdf8" opacity="0.18"/><line x1="0" y1="576" x2="1024" y2="576" stroke="#e2e8f0" opacity="0.14"/><line x1="640" y1="0" x2="640" y2="1024" stroke="#38bdf8" opacity="0.18"/><line x1="0" y1="640" x2="1024" y2="640" stroke="#e2e8f0" opacity="0.14"/><line x1="704" y1="0" x2="704" y2="1024" stroke="#38bdf8" opacity="0.18"/><line x1="0" y1="704" x2="1024" y2="704" stroke="#e2e8f0" opacity="0.14"/><line x1="768" y1="0" x2="768" y2="1024" stroke="#38bdf8" opacity="0.18"/><line x1="0" y1="768" x2="1024" y2="768" stroke="#e2e8f0" opacity="0.14"/><line x1="832" y1="0" x2="832" y2="1024" stroke="#38bdf8" opacity="0.18"/><line x1="0" y1="832" x2="1024" y2="832" stroke="#e2e8f0" opacity="0.14"/><line x1="896" y1="0" x2="896" y2="1024" stroke="#38bdf8" opacity="0.18"/><line x1="0" y1="896" x2="1024" y2="896" stroke="#e2e8f0" opacity="0.14"/><line x1="960" y1="0" x2="960" y2="1024" stroke="#38bdf8" opacity="0.18"/><line x1="0" y1="960" x2="1024" y2="960" stroke="#e2e8f0" opacity="0.14"/><line x1="1024" y1="0" x2="1024" y2="1024" stroke="#38bdf8" opacity="0.18"/><line x1="0" y1="1024" x2="1024" y2="1024" stroke="#e2e8f0" opacity="0.14"/>
  <circle cx="512" cy="512" r="330" fill="#ffffff" stroke="#e2e8f0" stroke-width="6"/>

  <g transform="translate(512 507) rotate(38)">
    <circle cx="0" cy="0" r="175" fill="#ffffff" opacity="0.22"/>
    <path d="M0 -165 A 165 165 0 1 1 0 165 A 82.5 82.5 0 1 0 0 -165" fill="#dc2626"/>
    <path d="M0 165 A 165 165 0 1 1 0 -165 A 82.5 82.5 0 1 0 0 165" fill="#38bdf8"/>
  </g>

  <g opacity="0.94">
    <g transform="rotate(-23 512 512)"><rect x="315" y="288" width="67" height="14" rx="5" fill="#111827"/><rect x="402" y="288" width="67" height="14" rx="5" fill="#111827"/><rect x="315" y="324" width="67" height="14" rx="5" fill="#111827"/><rect x="402" y="324" width="67" height="14" rx="5" fill="#111827"/><rect x="315" y="360" width="67" height="14" rx="5" fill="#111827"/><rect x="402" y="360" width="67" height="14" rx="5" fill="#111827"/></g>
    <g transform="translate(380 0) rotate(23 512 512)"><rect x="315" y="280" width="130" height="14" rx="5" fill="#111827"/><rect x="315" y="316" width="55" height="14" rx="5" fill="#111827"/><rect x="390" y="316" width="55" height="14" rx="5" fill="#111827"/><rect x="315" y="352" width="55" height="14" rx="5" fill="#111827"/><rect x="390" y="352" width="55" height="14" rx="5" fill="#111827"/></g>
    <g transform="translate(0 380) rotate(23 512 512)"><rect x="347" y="296" width="154" height="14" rx="5" fill="#111827"/><rect x="347" y="332" width="154" height="14" rx="5" fill="#111827"/><rect x="347" y="368" width="67" height="14" rx="5" fill="#111827"/><rect x="434" y="368" width="67" height="14" rx="5" fill="#111827"/></g>
    <g transform="translate(380 380) rotate(-23 512 512)"><rect x="331" y="288" width="49" height="14" rx="5" fill="#111827"/><rect x="400" y="288" width="49" height="14" rx="5" fill="#111827"/><rect x="331" y="324" width="118" height="14" rx="5" fill="#111827"/><rect x="331" y="360" width="118" height="14" rx="5" fill="#111827"/></g>
  </g>

  <text x="826.0" y="512.0" text-anchor="middle" dominant-baseline="middle" font-size="21" fill="#dc2626" opacity="0.75">●</text><text x="800.5" y="699.4" text-anchor="middle" dominant-baseline="middle" font-size="22" fill="#38bdf8" opacity="0.75">■</text><text x="671.7" y="777.7" text-anchor="middle" dominant-baseline="middle" font-size="44" fill="#dc2626" opacity="0.75">⬢</text><text x="586.7" y="835.5" text-anchor="middle" dominant-baseline="middle" font-size="35" fill="#38bdf8" opacity="0.75">▲</text><text x="454.3" y="839.0" text-anchor="middle" dominant-baseline="middle" font-size="29" fill="#dc2626" opacity="0.75">◆</text><text x="287.5" y="721.4" text-anchor="middle" dominant-baseline="middle" font-size="22" fill="#38bdf8" opacity="0.75">●</text><text x="217.1" y="668.8" text-anchor="middle" dominant-baseline="middle" font-size="44" fill="#dc2626" opacity="0.75">■</text><text x="198.1" y="556.1" text-anchor="middle" dominant-baseline="middle" font-size="47" fill="#38bdf8" opacity="0.75">⬢</text><text x="206.0" y="375.7" text-anchor="middle" dominant-baseline="middle" font-size="25" fill="#dc2626" opacity="0.75">▲</text><text x="312.6" y="282.6" text-anchor="middle" dominant-baseline="middle" font-size="22" fill="#38bdf8" opacity="0.75">◆</text><text x="438.7" y="194.4" text-anchor="middle" dominant-baseline="middle" font-size="24" fill="#dc2626" opacity="0.75">●</text><text x="482.1" y="170.3" text-anchor="middle" dominant-baseline="middle" font-size="33" fill="#38bdf8" opacity="0.75">■</text><text x="662.8" y="240.0" text-anchor="middle" dominant-baseline="middle" font-size="39" fill="#dc2626" opacity="0.75">⬢</text><text x="739.7" y="284.3" text-anchor="middle" dominant-baseline="middle" font-size="47" fill="#38bdf8" opacity="0.75">▲</text><text x="847.8" y="458.8" text-anchor="middle" dominant-baseline="middle" font-size="41" fill="#dc2626" opacity="0.75">◆</text>

  <text x="512" y="900" text-anchor="middle" font-size="38" font-family="Inter, Arial, sans-serif" fill="#ffffff">March 1st Spirit #12</text>
  <text x="512" y="942" text-anchor="middle" font-size="22" font-family="Inter, Arial, sans-serif" fill="#e2e8f0">대한독립 만세 · Unique Edition</text>
</svg>