<?xml version="1.0" encoding="UTF-8"?>
<svg xmlns="http://www.w3.org/2000/svg" width="1024" height="1024" viewBox="0 0 1024 1024">
  <rect width="1024" height="1024" fill="#0b1020"/><path d="M-40 120 Q 256 86 512 120 T 1064 120" stroke="#ef4444" stroke-width="10" fill="none" opacity="0.35"/><path d="M-40 212 Q 256 170 512 212 T 1064 212" stroke="#1d4ed8" stroke-width="12" fill="none" opacity="0.35"/><path d="M-40 304 Q 256 274 512 304 T 1064 304" stroke="#ef4444" stroke-width="14" fill="none" opacity="0.35"/><path d="M-40 396 Q 256 349 512 396 T 1064 396" stroke="#1d4ed8" stroke-width="10" fill="none" opacity="0.35"/><path d="M-40 488 Q 256 462 512 488 T 1064 488" stroke="#ef4444" stroke-width="12" fill="none" opacity="0.35"/><path d="M-40 580 Q 256 542 512 580 T 1064 580" stroke="#1d4ed8" stroke-width="14" fill="none" opacity="0.35"/><path d="M-40 672 Q 256 643 512 672 T 1064 672" stroke="#ef4444" stroke-width="10" fill="none" opacity="0.35"/><path d="M-40 764 Q 256 722 512 764 T 1064 764" stroke="#1d4ed8" stroke-width="12" fill="none" opacity="0.35"/><path d="M-40 856 Q 256 824 512 856 T 1064 856" stroke="#ef4444" stroke-width="14" fill="none" opacity="0.35"/><path d="M-40 948 Q 256 926 512 948 T 1064 948" stroke="#1d4ed8" stroke-width="10" fill="none" opacity="0.35"/>
  <polygon points="512,170 780,330 780,690 512,850 244,690 244,330" fill="#f8fafc" stroke="#111827" stroke-width="6"/>

  <g transform="translate(512 520) rotate(16)">
    <circle cx="0" cy="0" r="170" fill="#f8fafc" opacity="0.22"/>
    <path d="M0 -160 A 160 160 0 1 1 0 160 A 80 80 0 1 0 0 -160" fill="#ef4444"/>
    <path d="M0 160 A 160 160 0 1 1 0 -160 A 80 80 0 1 0 0 160" fill="#1d4ed8"/>
  </g>

  <g opacity="0.94">
    <g transform="rotate(-23 512 512)"><rect x="347" y="312" width="67" height="14" rx="5" fill="#111827"/><rect x="434" y="312" width="67" height="14" rx="5" fill="#111827"/><rect x="347" y="348" width="67" height="14" rx="5" fill="#111827"/><rect x="434" y="348" width="67" height="14" rx="5" fill="#111827"/><rect x="347" y="384" width="67" height="14" rx="5" fill="#111827"/><rect x="434" y="384" width="67" height="14" rx="5" fill="#111827"/></g>
    <g transform="translate(380 0) rotate(23 512 512)"><rect x="347" y="288" width="130" height="14" rx="5" fill="#111827"/><rect x="347" y="324" width="55" height="14" rx="5" fill="#111827"/><rect x="422" y="324" width="55" height="14" rx="5" fill="#111827"/><rect x="347" y="360" width="130" height="14" rx="5" fill="#111827"/></g>
    <g transform="translate(0 380) rotate(23 512 512)"><rect x="347" y="288" width="130" height="14" rx="5" fill="#111827"/><rect x="347" y="324" width="55" height="14" rx="5" fill="#111827"/><rect x="422" y="324" width="55" height="14" rx="5" fill="#111827"/><rect x="347" y="360" width="130" height="14" rx="5" fill="#111827"/></g>
    <g transform="translate(380 380) rotate(-23 512 512)"><rect x="347" y="312" width="67" height="14" rx="5" fill="#111827"/><rect x="434" y="312" width="67" height="14" rx="5" fill="#111827"/><rect x="347" y="348" width="67" height="14" rx="5" fill="#111827"/><rect x="434" y="348" width="67" height="14" rx="5" fill="#111827"/><rect x="347" y="384" width="67" height="14" rx="5" fill="#111827"/><rect x="434" y="384" width="67" height="14" rx="5" fill="#111827"/></g>
  </g>

  <text x="803.5" y="568.7" text-anchor="middle" dominant-baseline="middle" font-size="47" fill="#ef4444" opacity="0.75">⬢</text><text x="734.9" y="699.1" text-anchor="middle" dominant-baseline="middle" font-size="42" fill="#1d4ed8" opacity="0.75">▲</text><text x="557.5" y="799.4" text-anchor="middle" dominant-baseline="middle" font-size="23" fill="#ef4444" opacity="0.75">◆</text><text x="321.3" y="723.8" text-anchor="middle" dominant-baseline="middle" font-size="32" fill="#1d4ed8" opacity="0.75">●</text><text x="247.0" y="608.4" text-anchor="middle" dominant-baseline="middle" font-size="24" fill="#ef4444" opacity="0.75">■</text><text x="244.4" y="357.5" text-anchor="middle" dominant-baseline="middle" font-size="41" fill="#1d4ed8" opacity="0.75">⬢</text><text x="354.0" y="238.3" text-anchor="middle" dominant-baseline="middle" font-size="47" fill="#ef4444" opacity="0.75">▲</text><text x="636.9" y="231.5" text-anchor="middle" dominant-baseline="middle" font-size="25" fill="#1d4ed8" opacity="0.75">◆</text><text x="793.4" y="386.7" text-anchor="middle" dominant-baseline="middle" font-size="31" fill="#ef4444" opacity="0.75">●</text>

  <text x="512" y="900" text-anchor="middle" font-size="38" font-family="Inter, Arial, sans-serif" fill="#f8fafc">March 1st Spirit #14</text>
  <text x="512" y="942" text-anchor="middle" font-size="22" font-family="Inter, Arial, sans-serif" fill="#111827">대한독립 만세 · Unique Edition</text>
</svg>