<?xml version="1.0" encoding="UTF-8"?>
<svg xmlns="http://www.w3.org/2000/svg" width="1024" height="1024" viewBox="0 0 1024 1024">
  <rect width="1024" height="1024" fill="#111827"/><rect x="500" y="80" width="24" height="430" fill="#fb7185" opacity="0.23" transform="rotate(0 512 512)"/><rect x="500" y="80" width="24" height="430" fill="#2563eb" opacity="0.23" transform="rotate(12.857142857142858 512 512)"/><rect x="500" y="80" width="24" height="430" fill="#fb7185" opacity="0.23" transform="rotate(25.714285714285715 512 512)"/><rect x="500" y="80" width="24" height="430" fill="#2563eb" opacity="0.23" transform="rotate(38.57142857142857 512 512)"/><rect x="500" y="80" width="24" height="430" fill="#fb7185" opacity="0.23" transform="rotate(51.42857142857143 512 512)"/><rect x="500" y="80" width="24" height="430" fill="#2563eb" opacity="0.23" transform="rotate(64.28571428571429 512 512)"/><rect x="500" y="80" width="24" height="430" fill="#fb7185" opacity="0.23" transform="rotate(77.14285714285714 512 512)"/><rect x="500" y="80" width="24" height="430" fill="#2563eb" opacity="0.23" transform="rotate(90 512 512)"/><rect x="500" y="80" width="24" height="430" fill="#fb7185" opacity="0.23" transform="rotate(102.85714285714286 512 512)"/><rect x="500" y="80" width="24" height="430" fill="#2563eb" opacity="0.23" transform="rotate(115.71428571428572 512 512)"/><rect x="500" y="80" width="24" height="430" fill="#fb7185" opacity="0.23" transform="rotate(128.57142857142858 512 512)"/><rect x="500" y="80" width="24" height="430" fill="#2563eb" opacity="0.23" transform="rotate(141.42857142857144 512 512)"/><rect x="500" y="80" width="24" height="430" fill="#fb7185" opacity="0.23" transform="rotate(154.28571428571428 512 512)"/><rect x="500" y="80" width="24" height="430" fill="#2563eb" opacity="0.23" transform="rotate(167.14285714285714 512 512)"/><rect x="500" y="80" width="24" height="430" fill="#fb7185" opacity="0.23" transform="rotate(180 512 512)"/><rect x="500" y="80" width="24" height="430" fill="#2563eb" opacity="0.23" transform="rotate(192.85714285714286 512 512)"/><rect x="500" y="80" width="24" height="430" fill="#fb7185" opacity="0.23" transform="rotate(205.71428571428572 512 512)"/><rect x="500" y="80" width="24" height="430" fill="#2563eb" opacity="0.23" transform="rotate(218.57142857142858 512 512)"/><rect x="500" y="80" width="24" height="430" fill="#fb7185" opacity="0.23" transform="rotate(231.42857142857144 512 512)"/><rect x="500" y="80" width="24" height="430" fill="#2563eb" opacity="0.23" transform="rotate(244.2857142857143 512 512)"/><rect x="500" y="80" width="24" height="430" fill="#fb7185" opacity="0.23" transform="rotate(257.14285714285717 512 512)"/><rect x="500" y="80" width="24" height="430" fill="#2563eb" opacity="0.23" transform="rotate(270 512 512)"/><rect x="500" y="80" width="24" height="430" fill="#fb7185" opacity="0.23" transform="rotate(282.8571428571429 512 512)"/><rect x="500" y="80" width="24" height="430" fill="#2563eb" opacity="0.23" transform="rotate(295.7142857142857 512 512)"/><rect x="500" y="80" width="24" height="430" fill="#fb7185" opacity="0.23" transform="rotate(308.57142857142856 512 512)"/><rect x="500" y="80" width="24" height="430" fill="#2563eb" opacity="0.23" transform="rotate(321.42857142857144 512 512)"/><rect x="500" y="80" width="24" height="430" fill="#fb7185" opacity="0.23" transform="rotate(334.2857142857143 512 512)"/><rect x="500" y="80" width="24" height="430" fill="#2563eb" opacity="0.23" transform="rotate(347.14285714285717 512 512)"/><circle cx="512" cy="512" r="190" fill="#fef3c7" opacity="0.2"/>
  <g><circle cx="512" cy="512" r="310" fill="#fef3c7" stroke="#e5e7eb" stroke-width="6"/><circle cx="512" cy="512" r="265" fill="none" stroke="#2563eb" opacity="0.35" stroke-width="8"/></g>

  <g transform="translate(512 505) rotate(193)">
    <circle cx="0" cy="0" r="131" fill="#fef3c7" opacity="0.22"/>
    <path d="M0 -121 A 121 121 0 1 1 0 121 A 60.5 60.5 0 1 0 0 -121" fill="#fb7185"/>
    <path d="M0 121 A 121 121 0 1 1 0 -121 A 60.5 60.5 0 1 0 0 121" fill="#2563eb"/>
  </g>

  <g opacity="0.94">
    <g transform="rotate(-23 512 512)"><rect x="347" y="304" width="118" height="14" rx="5" fill="#111827"/><rect x="347" y="340" width="118" height="14" rx="5" fill="#111827"/><rect x="347" y="376" width="118" height="14" rx="5" fill="#111827"/></g>
    <g transform="translate(380 0) rotate(23 512 512)"><rect x="331" y="304" width="154" height="14" rx="5" fill="#111827"/><rect x="331" y="340" width="154" height="14" rx="5" fill="#111827"/><rect x="331" y="376" width="67" height="14" rx="5" fill="#111827"/><rect x="418" y="376" width="67" height="14" rx="5" fill="#111827"/></g>
    <g transform="translate(0 380) rotate(23 512 512)"><rect x="331" y="280" width="61" height="14" rx="5" fill="#111827"/><rect x="412" y="280" width="61" height="14" rx="5" fill="#111827"/><rect x="331" y="316" width="142" height="14" rx="5" fill="#111827"/><rect x="331" y="352" width="61" height="14" rx="5" fill="#111827"/><rect x="412" y="352" width="61" height="14" rx="5" fill="#111827"/></g>
    <g transform="translate(380 380) rotate(-23 512 512)"><rect x="347" y="304" width="130" height="14" rx="5" fill="#111827"/><rect x="347" y="340" width="55" height="14" rx="5" fill="#111827"/><rect x="422" y="340" width="55" height="14" rx="5" fill="#111827"/><rect x="347" y="376" width="55" height="14" rx="5" fill="#111827"/><rect x="422" y="376" width="55" height="14" rx="5" fill="#111827"/></g>
  </g>

  <text x="787.7" y="560.6" text-anchor="middle" dominant-baseline="middle" font-size="30" fill="#fb7185" opacity="0.75">▲</text><text x="698.4" y="690.3" text-anchor="middle" dominant-baseline="middle" font-size="36" fill="#2563eb" opacity="0.75">◆</text><text x="580.6" y="743.0" text-anchor="middle" dominant-baseline="middle" font-size="41" fill="#fb7185" opacity="0.75">●</text><text x="434.9" y="761.4" text-anchor="middle" dominant-baseline="middle" font-size="40" fill="#2563eb" opacity="0.75">■</text><text x="337.5" y="675.3" text-anchor="middle" dominant-baseline="middle" font-size="48" fill="#fb7185" opacity="0.75">⬢</text><text x="249.7" y="584.1" text-anchor="middle" dominant-baseline="middle" font-size="37" fill="#2563eb" opacity="0.75">▲</text><text x="285.8" y="441.3" text-anchor="middle" dominant-baseline="middle" font-size="22" fill="#fb7185" opacity="0.75">◆</text><text x="354.1" y="301.7" text-anchor="middle" dominant-baseline="middle" font-size="23" fill="#2563eb" opacity="0.75">●</text><text x="530.0" y="241.6" text-anchor="middle" dominant-baseline="middle" font-size="41" fill="#fb7185" opacity="0.75">■</text><text x="683.4" y="296.9" text-anchor="middle" dominant-baseline="middle" font-size="38" fill="#2563eb" opacity="0.75">⬢</text><text x="758.1" y="382.7" text-anchor="middle" dominant-baseline="middle" font-size="27" fill="#fb7185" opacity="0.75">▲</text>

  <text x="512" y="900" text-anchor="middle" font-size="38" font-family="Inter, Arial, sans-serif" fill="#fef3c7">March 1st Spirit #15</text>
  <text x="512" y="942" text-anchor="middle" font-size="22" font-family="Inter, Arial, sans-serif" fill="#e5e7eb">대한독립 만세 · Unique Edition</text>
</svg>