<?xml version="1.0" encoding="UTF-8"?>
<svg xmlns="http://www.w3.org/2000/svg" width="1024" height="1024" viewBox="0 0 1024 1024">
  <rect width="1024" height="1024" fill="#1e1b4b"/><rect x="-256" y="-80" width="36" height="1200" transform="rotate(20 512 512)" fill="#fef2f2" opacity="0.28"/><rect x="-192" y="-80" width="36" height="1200" transform="rotate(20 512 512)" fill="#22c55e" opacity="0.28"/><rect x="-128" y="-80" width="36" height="1200" transform="rotate(20 512 512)" fill="#fef2f2" opacity="0.28"/><rect x="-64" y="-80" width="36" height="1200" transform="rotate(20 512 512)" fill="#22c55e" opacity="0.28"/><rect x="0" y="-80" width="36" height="1200" transform="rotate(20 512 512)" fill="#fef2f2" opacity="0.28"/><rect x="64" y="-80" width="36" height="1200" transform="rotate(20 512 512)" fill="#22c55e" opacity="0.28"/><rect x="128" y="-80" width="36" height="1200" transform="rotate(20 512 512)" fill="#fef2f2" opacity="0.28"/><rect x="192" y="-80" width="36" height="1200" transform="rotate(20 512 512)" fill="#22c55e" opacity="0.28"/><rect x="256" y="-80" width="36" height="1200" transform="rotate(20 512 512)" fill="#fef2f2" opacity="0.28"/><rect x="320" y="-80" width="36" height="1200" transform="rotate(20 512 512)" fill="#22c55e" opacity="0.28"/><rect x="384" y="-80" width="36" height="1200" transform="rotate(20 512 512)" fill="#fef2f2" opacity="0.28"/><rect x="448" y="-80" width="36" height="1200" transform="rotate(20 512 512)" fill="#22c55e" opacity="0.28"/><rect x="512" y="-80" width="36" height="1200" transform="rotate(20 512 512)" fill="#fef2f2" opacity="0.28"/><rect x="576" y="-80" width="36" height="1200" transform="rotate(20 512 512)" fill="#22c55e" opacity="0.28"/><rect x="640" y="-80" width="36" height="1200" transform="rotate(20 512 512)" fill="#fef2f2" opacity="0.28"/><rect x="704" y="-80" width="36" height="1200" transform="rotate(20 512 512)" fill="#22c55e" opacity="0.28"/><rect x="768" y="-80" width="36" height="1200" transform="rotate(20 512 512)" fill="#fef2f2" opacity="0.28"/><rect x="832" y="-80" width="36" height="1200" transform="rotate(20 512 512)" fill="#22c55e" opacity="0.28"/><rect x="896" y="-80" width="36" height="1200" transform="rotate(20 512 512)" fill="#fef2f2" opacity="0.28"/><rect x="960" y="-80" width="36" height="1200" transform="rotate(20 512 512)" fill="#22c55e" opacity="0.28"/><rect x="1024" y="-80" width="36" height="1200" transform="rotate(20 512 512)" fill="#fef2f2" opacity="0.28"/><rect x="1088" y="-80" width="36" height="1200" transform="rotate(20 512 512)" fill="#22c55e" opacity="0.28"/><rect x="1152" y="-80" width="36" height="1200" transform="rotate(20 512 512)" fill="#fef2f2" opacity="0.28"/><rect x="1216" y="-80" width="36" height="1200" transform="rotate(20 512 512)" fill="#22c55e" opacity="0.28"/><rect x="1280" y="-80" width="36" height="1200" transform="rotate(20 512 512)" fill="#fef2f2" opacity="0.28"/><rect x="1344" y="-80" width="36" height="1200" transform="rotate(20 512 512)" fill="#22c55e" opacity="0.28"/><rect x="1408" y="-80" width="36" height="1200" transform="rotate(20 512 512)" fill="#fef2f2" opacity="0.28"/><rect x="1472" y="-80" width="36" height="1200" transform="rotate(20 512 512)" fill="#22c55e" opacity="0.28"/>
  <path d="M512 170 L790 300 L735 650 Q700 790 512 860 Q324 790 289 650 L234 300 Z" fill="#f1f5f9" stroke="#fef2f2" stroke-width="6"/>

  <g transform="translate(512 511) rotate(326)">
    <circle cx="0" cy="0" r="128" fill="#f1f5f9" opacity="0.22"/>
    <path d="M0 -118 A 118 118 0 1 1 0 118 A 59 59 0 1 0 0 -118" fill="#ef4444"/>
    <path d="M0 118 A 118 118 0 1 1 0 -118 A 59 59 0 1 0 0 118" fill="#22c55e"/>
  </g>

  <g opacity="0.94">
    <g transform="rotate(-23 512 512)"><rect x="315" y="288" width="67" height="14" rx="5" fill="#111827"/><rect x="402" y="288" width="67" height="14" rx="5" fill="#111827"/><rect x="315" y="324" width="67" height="14" rx="5" fill="#111827"/><rect x="402" y="324" width="67" height="14" rx="5" fill="#111827"/><rect x="315" y="360" width="67" height="14" rx="5" fill="#111827"/><rect x="402" y="360" width="67" height="14" rx="5" fill="#111827"/></g>
    <g transform="translate(380 0) rotate(23 512 512)"><rect x="339" y="288" width="130" height="14" rx="5" fill="#111827"/><rect x="339" y="324" width="55" height="14" rx="5" fill="#111827"/><rect x="414" y="324" width="55" height="14" rx="5" fill="#111827"/><rect x="339" y="360" width="55" height="14" rx="5" fill="#111827"/><rect x="414" y="360" width="55" height="14" rx="5" fill="#111827"/></g>
    <g transform="translate(0 380) rotate(23 512 512)"><rect x="339" y="296" width="67" height="14" rx="5" fill="#111827"/><rect x="426" y="296" width="67" height="14" rx="5" fill="#111827"/><rect x="339" y="332" width="67" height="14" rx="5" fill="#111827"/><rect x="426" y="332" width="67" height="14" rx="5" fill="#111827"/><rect x="339" y="368" width="67" height="14" rx="5" fill="#111827"/><rect x="426" y="368" width="67" height="14" rx="5" fill="#111827"/></g>
    <g transform="translate(380 380) rotate(-23 512 512)"><rect x="339" y="296" width="61" height="14" rx="5" fill="#111827"/><rect x="420" y="296" width="61" height="14" rx="5" fill="#111827"/><rect x="339" y="332" width="142" height="14" rx="5" fill="#111827"/><rect x="339" y="368" width="61" height="14" rx="5" fill="#111827"/><rect x="420" y="368" width="61" height="14" rx="5" fill="#111827"/></g>
  </g>

  <text x="768.2" y="561.8" text-anchor="middle" dominant-baseline="middle" font-size="20" fill="#ef4444" opacity="0.75">☾</text><text x="643.0" y="758.3" text-anchor="middle" dominant-baseline="middle" font-size="22" fill="#22c55e" opacity="0.75">✸</text><text x="439.5" y="749.2" text-anchor="middle" dominant-baseline="middle" font-size="21" fill="#ef4444" opacity="0.75">✹</text><text x="289.5" y="630.3" text-anchor="middle" dominant-baseline="middle" font-size="24" fill="#22c55e" opacity="0.75">✦</text><text x="266.0" y="507.7" text-anchor="middle" dominant-baseline="middle" font-size="46" fill="#ef4444" opacity="0.75">☼</text><text x="394.2" y="299.5" text-anchor="middle" dominant-baseline="middle" font-size="28" fill="#22c55e" opacity="0.75">☾</text><text x="547.9" y="256.5" text-anchor="middle" dominant-baseline="middle" font-size="23" fill="#ef4444" opacity="0.75">✸</text><text x="712.7" y="343.6" text-anchor="middle" dominant-baseline="middle" font-size="25" fill="#22c55e" opacity="0.75">✹</text>

  <text x="512" y="900" text-anchor="middle" font-size="38" font-family="Inter, Arial, sans-serif" fill="#f1f5f9">March 1st Spirit #16</text>
  <text x="512" y="942" text-anchor="middle" font-size="22" font-family="Inter, Arial, sans-serif" fill="#fef2f2">대한독립 만세 · Unique Edition</text>
</svg>