<?xml version="1.0" encoding="UTF-8"?>
<svg xmlns="http://www.w3.org/2000/svg" width="1024" height="1024" viewBox="0 0 1024 1024">
  
      <defs>
        <radialGradient id="g" cx="50%" cy="45%" r="70%">
          <stop offset="0%" stop-color="#ffffff"/>
          <stop offset="65%" stop-color="#38bdf8"/>
          <stop offset="100%" stop-color="#172554"/>
        </radialGradient>
      </defs>
      <rect width="1024" height="1024" fill="url(#g)"/>
    
  <polygon points="512,170 780,330 780,690 512,850 244,690 244,330" fill="#ffffff" stroke="#e2e8f0" stroke-width="6"/>

  <g transform="translate(512 503) rotate(37)">
    <circle cx="0" cy="0" r="146" fill="#ffffff" opacity="0.22"/>
    <path d="M0 -136 A 136 136 0 1 1 0 136 A 68 68 0 1 0 0 -136" fill="#dc2626"/>
    <path d="M0 136 A 136 136 0 1 1 0 -136 A 68 68 0 1 0 0 136" fill="#38bdf8"/>
  </g>

  <g opacity="0.94">
    <g transform="rotate(-23 512 512)"><rect x="315" y="296" width="49" height="14" rx="5" fill="#111827"/><rect x="384" y="296" width="49" height="14" rx="5" fill="#111827"/><rect x="315" y="332" width="118" height="14" rx="5" fill="#111827"/><rect x="315" y="368" width="118" height="14" rx="5" fill="#111827"/></g>
    <g transform="translate(380 0) rotate(23 512 512)"><rect x="339" y="280" width="154" height="14" rx="5" fill="#111827"/><rect x="339" y="316" width="154" height="14" rx="5" fill="#111827"/><rect x="339" y="352" width="67" height="14" rx="5" fill="#111827"/><rect x="426" y="352" width="67" height="14" rx="5" fill="#111827"/></g>
    <g transform="translate(0 380) rotate(23 512 512)"><rect x="347" y="312" width="67" height="14" rx="5" fill="#111827"/><rect x="434" y="312" width="67" height="14" rx="5" fill="#111827"/><rect x="347" y="348" width="67" height="14" rx="5" fill="#111827"/><rect x="434" y="348" width="67" height="14" rx="5" fill="#111827"/><rect x="347" y="384" width="67" height="14" rx="5" fill="#111827"/><rect x="434" y="384" width="67" height="14" rx="5" fill="#111827"/></g>
    <g transform="translate(380 380) rotate(-23 512 512)"><rect x="339" y="280" width="154" height="14" rx="5" fill="#111827"/><rect x="339" y="316" width="154" height="14" rx="5" fill="#111827"/><rect x="339" y="352" width="67" height="14" rx="5" fill="#111827"/><rect x="426" y="352" width="67" height="14" rx="5" fill="#111827"/></g>
  </g>

  <text x="848.9" y="517.9" text-anchor="middle" dominant-baseline="middle" font-size="25" fill="#dc2626" opacity="0.75">●</text><text x="795.7" y="680.5" text-anchor="middle" dominant-baseline="middle" font-size="24" fill="#38bdf8" opacity="0.75">■</text><text x="672.4" y="794.7" text-anchor="middle" dominant-baseline="middle" font-size="24" fill="#dc2626" opacity="0.75">⬢</text><text x="517.1" y="852.0" text-anchor="middle" dominant-baseline="middle" font-size="25" fill="#38bdf8" opacity="0.75">▲</text><text x="396.2" y="832.7" text-anchor="middle" dominant-baseline="middle" font-size="43" fill="#dc2626" opacity="0.75">◆</text><text x="306.2" y="770.0" text-anchor="middle" dominant-baseline="middle" font-size="40" fill="#38bdf8" opacity="0.75">●</text><text x="209.3" y="591.5" text-anchor="middle" dominant-baseline="middle" font-size="42" fill="#dc2626" opacity="0.75">■</text><text x="197.0" y="445.1" text-anchor="middle" dominant-baseline="middle" font-size="23" fill="#38bdf8" opacity="0.75">⬢</text><text x="243.6" y="339.6" text-anchor="middle" dominant-baseline="middle" font-size="31" fill="#dc2626" opacity="0.75">▲</text><text x="390.3" y="219.3" text-anchor="middle" dominant-baseline="middle" font-size="25" fill="#38bdf8" opacity="0.75">◆</text><text x="478.8" y="188.7" text-anchor="middle" dominant-baseline="middle" font-size="46" fill="#dc2626" opacity="0.75">●</text><text x="664.2" y="211.4" text-anchor="middle" dominant-baseline="middle" font-size="41" fill="#38bdf8" opacity="0.75">■</text><text x="736.4" y="299.6" text-anchor="middle" dominant-baseline="middle" font-size="24" fill="#dc2626" opacity="0.75">⬢</text><text x="836.7" y="414.5" text-anchor="middle" dominant-baseline="middle" font-size="35" fill="#38bdf8" opacity="0.75">▲</text>

  <text x="512" y="900" text-anchor="middle" font-size="38" font-family="Inter, Arial, sans-serif" fill="#ffffff">March 1st Spirit #17</text>
  <text x="512" y="942" text-anchor="middle" font-size="22" font-family="Inter, Arial, sans-serif" fill="#e2e8f0">대한독립 만세 · Unique Edition</text>
</svg>