<?xml version="1.0" encoding="UTF-8"?>
<svg xmlns="http://www.w3.org/2000/svg" width="1024" height="1024" viewBox="0 0 1024 1024">
  <rect width="1024" height="1024" fill="#0b1020"/><rect x="500" y="80" width="24" height="430" fill="#ef4444" opacity="0.23" transform="rotate(0 512 512)"/><rect x="500" y="80" width="24" height="430" fill="#1d4ed8" opacity="0.23" transform="rotate(12.857142857142858 512 512)"/><rect x="500" y="80" width="24" height="430" fill="#ef4444" opacity="0.23" transform="rotate(25.714285714285715 512 512)"/><rect x="500" y="80" width="24" height="430" fill="#1d4ed8" opacity="0.23" transform="rotate(38.57142857142857 512 512)"/><rect x="500" y="80" width="24" height="430" fill="#ef4444" opacity="0.23" transform="rotate(51.42857142857143 512 512)"/><rect x="500" y="80" width="24" height="430" fill="#1d4ed8" opacity="0.23" transform="rotate(64.28571428571429 512 512)"/><rect x="500" y="80" width="24" height="430" fill="#ef4444" opacity="0.23" transform="rotate(77.14285714285714 512 512)"/><rect x="500" y="80" width="24" height="430" fill="#1d4ed8" opacity="0.23" transform="rotate(90 512 512)"/><rect x="500" y="80" width="24" height="430" fill="#ef4444" opacity="0.23" transform="rotate(102.85714285714286 512 512)"/><rect x="500" y="80" width="24" height="430" fill="#1d4ed8" opacity="0.23" transform="rotate(115.71428571428572 512 512)"/><rect x="500" y="80" width="24" height="430" fill="#ef4444" opacity="0.23" transform="rotate(128.57142857142858 512 512)"/><rect x="500" y="80" width="24" height="430" fill="#1d4ed8" opacity="0.23" transform="rotate(141.42857142857144 512 512)"/><rect x="500" y="80" width="24" height="430" fill="#ef4444" opacity="0.23" transform="rotate(154.28571428571428 512 512)"/><rect x="500" y="80" width="24" height="430" fill="#1d4ed8" opacity="0.23" transform="rotate(167.14285714285714 512 512)"/><rect x="500" y="80" width="24" height="430" fill="#ef4444" opacity="0.23" transform="rotate(180 512 512)"/><rect x="500" y="80" width="24" height="430" fill="#1d4ed8" opacity="0.23" transform="rotate(192.85714285714286 512 512)"/><rect x="500" y="80" width="24" height="430" fill="#ef4444" opacity="0.23" transform="rotate(205.71428571428572 512 512)"/><rect x="500" y="80" width="24" height="430" fill="#1d4ed8" opacity="0.23" transform="rotate(218.57142857142858 512 512)"/><rect x="500" y="80" width="24" height="430" fill="#ef4444" opacity="0.23" transform="rotate(231.42857142857144 512 512)"/><rect x="500" y="80" width="24" height="430" fill="#1d4ed8" opacity="0.23" transform="rotate(244.2857142857143 512 512)"/><rect x="500" y="80" width="24" height="430" fill="#ef4444" opacity="0.23" transform="rotate(257.14285714285717 512 512)"/><rect x="500" y="80" width="24" height="430" fill="#1d4ed8" opacity="0.23" transform="rotate(270 512 512)"/><rect x="500" y="80" width="24" height="430" fill="#ef4444" opacity="0.23" transform="rotate(282.8571428571429 512 512)"/><rect x="500" y="80" width="24" height="430" fill="#1d4ed8" opacity="0.23" transform="rotate(295.7142857142857 512 512)"/><rect x="500" y="80" width="24" height="430" fill="#ef4444" opacity="0.23" transform="rotate(308.57142857142856 512 512)"/><rect x="500" y="80" width="24" height="430" fill="#1d4ed8" opacity="0.23" transform="rotate(321.42857142857144 512 512)"/><rect x="500" y="80" width="24" height="430" fill="#ef4444" opacity="0.23" transform="rotate(334.2857142857143 512 512)"/><rect x="500" y="80" width="24" height="430" fill="#1d4ed8" opacity="0.23" transform="rotate(347.14285714285717 512 512)"/><circle cx="512" cy="512" r="190" fill="#f8fafc" opacity="0.2"/>
  <g><circle cx="512" cy="512" r="310" fill="#f8fafc" stroke="#111827" stroke-width="6"/><circle cx="512" cy="512" r="265" fill="none" stroke="#1d4ed8" opacity="0.35" stroke-width="8"/></g>

  <g transform="translate(512 512) rotate(237)">
    <circle cx="0" cy="0" r="134" fill="#f8fafc" opacity="0.22"/>
    <path d="M0 -124 A 124 124 0 1 1 0 124 A 62 62 0 1 0 0 -124" fill="#ef4444"/>
    <path d="M0 124 A 124 124 0 1 1 0 -124 A 62 62 0 1 0 0 124" fill="#1d4ed8"/>
  </g>

  <g opacity="0.94">
    <g transform="rotate(-23 512 512)"><rect x="339" y="288" width="118" height="14" rx="5" fill="#111827"/><rect x="339" y="324" width="118" height="14" rx="5" fill="#111827"/><rect x="339" y="360" width="118" height="14" rx="5" fill="#111827"/></g>
    <g transform="translate(380 0) rotate(23 512 512)"><rect x="323" y="280" width="61" height="14" rx="5" fill="#111827"/><rect x="404" y="280" width="61" height="14" rx="5" fill="#111827"/><rect x="323" y="316" width="61" height="14" rx="5" fill="#111827"/><rect x="404" y="316" width="61" height="14" rx="5" fill="#111827"/><rect x="323" y="352" width="142" height="14" rx="5" fill="#111827"/></g>
    <g transform="translate(0 380) rotate(23 512 512)"><rect x="323" y="304" width="61" height="14" rx="5" fill="#111827"/><rect x="404" y="304" width="61" height="14" rx="5" fill="#111827"/><rect x="323" y="340" width="142" height="14" rx="5" fill="#111827"/><rect x="323" y="376" width="61" height="14" rx="5" fill="#111827"/><rect x="404" y="376" width="61" height="14" rx="5" fill="#111827"/></g>
    <g transform="translate(380 380) rotate(-23 512 512)"><rect x="323" y="304" width="67" height="14" rx="5" fill="#111827"/><rect x="410" y="304" width="67" height="14" rx="5" fill="#111827"/><rect x="323" y="340" width="67" height="14" rx="5" fill="#111827"/><rect x="410" y="340" width="67" height="14" rx="5" fill="#111827"/><rect x="323" y="376" width="67" height="14" rx="5" fill="#111827"/><rect x="410" y="376" width="67" height="14" rx="5" fill="#111827"/></g>
  </g>

  <text x="799.4" y="557.5" text-anchor="middle" dominant-baseline="middle" font-size="28" fill="#ef4444" opacity="0.75">✹</text><text x="804.1" y="654.5" text-anchor="middle" dominant-baseline="middle" font-size="41" fill="#1d4ed8" opacity="0.75">✦</text><text x="637.5" y="781.2" text-anchor="middle" dominant-baseline="middle" font-size="26" fill="#ef4444" opacity="0.75">☼</text><text x="542.7" y="804.4" text-anchor="middle" dominant-baseline="middle" font-size="47" fill="#1d4ed8" opacity="0.75">☾</text><text x="455.4" y="833.0" text-anchor="middle" dominant-baseline="middle" font-size="21" fill="#ef4444" opacity="0.75">✸</text><text x="299.1" y="717.6" text-anchor="middle" dominant-baseline="middle" font-size="31" fill="#1d4ed8" opacity="0.75">✹</text><text x="256.6" y="665.5" text-anchor="middle" dominant-baseline="middle" font-size="46" fill="#ef4444" opacity="0.75">✦</text><text x="216.6" y="574.8" text-anchor="middle" dominant-baseline="middle" font-size="27" fill="#1d4ed8" opacity="0.75">☼</text><text x="215.5" y="432.5" text-anchor="middle" dominant-baseline="middle" font-size="24" fill="#ef4444" opacity="0.75">☾</text><text x="266.1" y="305.7" text-anchor="middle" dominant-baseline="middle" font-size="33" fill="#1d4ed8" opacity="0.75">✸</text><text x="374.4" y="253.3" text-anchor="middle" dominant-baseline="middle" font-size="38" fill="#ef4444" opacity="0.75">✹</text><text x="517.0" y="223.0" text-anchor="middle" dominant-baseline="middle" font-size="26" fill="#1d4ed8" opacity="0.75">✦</text><text x="630.3" y="203.9" text-anchor="middle" dominant-baseline="middle" font-size="44" fill="#ef4444" opacity="0.75">☼</text><text x="740.9" y="298.5" text-anchor="middle" dominant-baseline="middle" font-size="48" fill="#1d4ed8" opacity="0.75">☾</text><text x="801.4" y="466.2" text-anchor="middle" dominant-baseline="middle" font-size="39" fill="#ef4444" opacity="0.75">✸</text>

  <text x="512" y="900" text-anchor="middle" font-size="38" font-family="Inter, Arial, sans-serif" fill="#f8fafc">March 1st Spirit #18</text>
  <text x="512" y="942" text-anchor="middle" font-size="22" font-family="Inter, Arial, sans-serif" fill="#111827">대한독립 만세 · Unique Edition</text>
</svg>