<?xml version="1.0" encoding="UTF-8"?>
<svg xmlns="http://www.w3.org/2000/svg" width="1024" height="1024" viewBox="0 0 1024 1024">
  
      <defs>
        <radialGradient id="g" cx="50%" cy="45%" r="70%">
          <stop offset="0%" stop-color="#ffffff"/>
          <stop offset="65%" stop-color="#38bdf8"/>
          <stop offset="100%" stop-color="#172554"/>
        </radialGradient>
      </defs>
      <rect width="1024" height="1024" fill="url(#g)"/>
    
  <circle cx="512" cy="512" r="330" fill="#ffffff" stroke="#e2e8f0" stroke-width="6"/>

  <g transform="translate(512 507) rotate(206)">
    <circle cx="0" cy="0" r="133" fill="#ffffff" opacity="0.22"/>
    <path d="M0 -123 A 123 123 0 1 1 0 123 A 61.5 61.5 0 1 0 0 -123" fill="#dc2626"/>
    <path d="M0 123 A 123 123 0 1 1 0 -123 A 61.5 61.5 0 1 0 0 123" fill="#38bdf8"/>
  </g>

  <g opacity="0.94">
    <g transform="rotate(-23 512 512)"><rect x="347" y="312" width="61" height="14" rx="5" fill="#111827"/><rect x="428" y="312" width="61" height="14" rx="5" fill="#111827"/><rect x="347" y="348" width="142" height="14" rx="5" fill="#111827"/><rect x="347" y="384" width="61" height="14" rx="5" fill="#111827"/><rect x="428" y="384" width="61" height="14" rx="5" fill="#111827"/></g>
    <g transform="translate(380 0) rotate(23 512 512)"><rect x="347" y="280" width="49" height="14" rx="5" fill="#111827"/><rect x="416" y="280" width="49" height="14" rx="5" fill="#111827"/><rect x="347" y="316" width="118" height="14" rx="5" fill="#111827"/><rect x="347" y="352" width="118" height="14" rx="5" fill="#111827"/></g>
    <g transform="translate(0 380) rotate(23 512 512)"><rect x="347" y="296" width="154" height="14" rx="5" fill="#111827"/><rect x="347" y="332" width="154" height="14" rx="5" fill="#111827"/><rect x="347" y="368" width="67" height="14" rx="5" fill="#111827"/><rect x="434" y="368" width="67" height="14" rx="5" fill="#111827"/></g>
    <g transform="translate(380 380) rotate(-23 512 512)"><rect x="315" y="312" width="154" height="14" rx="5" fill="#111827"/><rect x="315" y="348" width="154" height="14" rx="5" fill="#111827"/><rect x="315" y="384" width="67" height="14" rx="5" fill="#111827"/><rect x="402" y="384" width="67" height="14" rx="5" fill="#111827"/></g>
  </g>

  <text x="837.8" y="523.4" text-anchor="middle" dominant-baseline="middle" font-size="46" fill="#dc2626" opacity="0.75">✸</text><text x="800.4" y="690.1" text-anchor="middle" dominant-baseline="middle" font-size="32" fill="#38bdf8" opacity="0.75">✹</text><text x="659.8" y="771.9" text-anchor="middle" dominant-baseline="middle" font-size="26" fill="#dc2626" opacity="0.75">✦</text><text x="538.5" y="819.9" text-anchor="middle" dominant-baseline="middle" font-size="44" fill="#38bdf8" opacity="0.75">☼</text><text x="320.3" y="778.1" text-anchor="middle" dominant-baseline="middle" font-size="43" fill="#dc2626" opacity="0.75">☾</text><text x="267.3" y="680.4" text-anchor="middle" dominant-baseline="middle" font-size="20" fill="#38bdf8" opacity="0.75">✸</text><text x="182.0" y="516.9" text-anchor="middle" dominant-baseline="middle" font-size="29" fill="#dc2626" opacity="0.75">✹</text><text x="241.6" y="386.8" text-anchor="middle" dominant-baseline="middle" font-size="47" fill="#38bdf8" opacity="0.75">✦</text><text x="316.9" y="275.0" text-anchor="middle" dominant-baseline="middle" font-size="39" fill="#dc2626" opacity="0.75">☼</text><text x="484.7" y="185.1" text-anchor="middle" dominant-baseline="middle" font-size="25" fill="#38bdf8" opacity="0.75">☾</text><text x="574.3" y="189.0" text-anchor="middle" dominant-baseline="middle" font-size="26" fill="#dc2626" opacity="0.75">✸</text><text x="735.8" y="260.1" text-anchor="middle" dominant-baseline="middle" font-size="47" fill="#38bdf8" opacity="0.75">✹</text><text x="810.4" y="411.0" text-anchor="middle" dominant-baseline="middle" font-size="34" fill="#dc2626" opacity="0.75">✦</text>

  <text x="512" y="900" text-anchor="middle" font-size="38" font-family="Inter, Arial, sans-serif" fill="#ffffff">March 1st Spirit #2</text>
  <text x="512" y="942" text-anchor="middle" font-size="22" font-family="Inter, Arial, sans-serif" fill="#e2e8f0">대한독립 만세 · Unique Edition</text>
</svg>