<?xml version="1.0" encoding="UTF-8"?>
<svg xmlns="http://www.w3.org/2000/svg" width="1024" height="1024" viewBox="0 0 1024 1024">
  <rect width="1024" height="1024" fill="#172554"/><rect x="-256" y="-80" width="36" height="1200" transform="rotate(20 512 512)" fill="#e2e8f0" opacity="0.28"/><rect x="-192" y="-80" width="36" height="1200" transform="rotate(20 512 512)" fill="#38bdf8" opacity="0.28"/><rect x="-128" y="-80" width="36" height="1200" transform="rotate(20 512 512)" fill="#e2e8f0" opacity="0.28"/><rect x="-64" y="-80" width="36" height="1200" transform="rotate(20 512 512)" fill="#38bdf8" opacity="0.28"/><rect x="0" y="-80" width="36" height="1200" transform="rotate(20 512 512)" fill="#e2e8f0" opacity="0.28"/><rect x="64" y="-80" width="36" height="1200" transform="rotate(20 512 512)" fill="#38bdf8" opacity="0.28"/><rect x="128" y="-80" width="36" height="1200" transform="rotate(20 512 512)" fill="#e2e8f0" opacity="0.28"/><rect x="192" y="-80" width="36" height="1200" transform="rotate(20 512 512)" fill="#38bdf8" opacity="0.28"/><rect x="256" y="-80" width="36" height="1200" transform="rotate(20 512 512)" fill="#e2e8f0" opacity="0.28"/><rect x="320" y="-80" width="36" height="1200" transform="rotate(20 512 512)" fill="#38bdf8" opacity="0.28"/><rect x="384" y="-80" width="36" height="1200" transform="rotate(20 512 512)" fill="#e2e8f0" opacity="0.28"/><rect x="448" y="-80" width="36" height="1200" transform="rotate(20 512 512)" fill="#38bdf8" opacity="0.28"/><rect x="512" y="-80" width="36" height="1200" transform="rotate(20 512 512)" fill="#e2e8f0" opacity="0.28"/><rect x="576" y="-80" width="36" height="1200" transform="rotate(20 512 512)" fill="#38bdf8" opacity="0.28"/><rect x="640" y="-80" width="36" height="1200" transform="rotate(20 512 512)" fill="#e2e8f0" opacity="0.28"/><rect x="704" y="-80" width="36" height="1200" transform="rotate(20 512 512)" fill="#38bdf8" opacity="0.28"/><rect x="768" y="-80" width="36" height="1200" transform="rotate(20 512 512)" fill="#e2e8f0" opacity="0.28"/><rect x="832" y="-80" width="36" height="1200" transform="rotate(20 512 512)" fill="#38bdf8" opacity="0.28"/><rect x="896" y="-80" width="36" height="1200" transform="rotate(20 512 512)" fill="#e2e8f0" opacity="0.28"/><rect x="960" y="-80" width="36" height="1200" transform="rotate(20 512 512)" fill="#38bdf8" opacity="0.28"/><rect x="1024" y="-80" width="36" height="1200" transform="rotate(20 512 512)" fill="#e2e8f0" opacity="0.28"/><rect x="1088" y="-80" width="36" height="1200" transform="rotate(20 512 512)" fill="#38bdf8" opacity="0.28"/><rect x="1152" y="-80" width="36" height="1200" transform="rotate(20 512 512)" fill="#e2e8f0" opacity="0.28"/><rect x="1216" y="-80" width="36" height="1200" transform="rotate(20 512 512)" fill="#38bdf8" opacity="0.28"/><rect x="1280" y="-80" width="36" height="1200" transform="rotate(20 512 512)" fill="#e2e8f0" opacity="0.28"/><rect x="1344" y="-80" width="36" height="1200" transform="rotate(20 512 512)" fill="#38bdf8" opacity="0.28"/><rect x="1408" y="-80" width="36" height="1200" transform="rotate(20 512 512)" fill="#e2e8f0" opacity="0.28"/><rect x="1472" y="-80" width="36" height="1200" transform="rotate(20 512 512)" fill="#38bdf8" opacity="0.28"/>
  <polygon points="512,170 820,512 512,854 204,512" fill="#ffffff" stroke="#e2e8f0" stroke-width="6"/>

  <g transform="translate(512 502) rotate(158)">
    <circle cx="0" cy="0" r="160" fill="#ffffff" opacity="0.22"/>
    <path d="M0 -150 A 150 150 0 1 1 0 150 A 75 75 0 1 0 0 -150" fill="#dc2626"/>
    <path d="M0 150 A 150 150 0 1 1 0 -150 A 75 75 0 1 0 0 150" fill="#38bdf8"/>
  </g>

  <g opacity="0.94">
    <g transform="rotate(-23 512 512)"><rect x="315" y="288" width="61" height="14" rx="5" fill="#111827"/><rect x="396" y="288" width="61" height="14" rx="5" fill="#111827"/><rect x="315" y="324" width="142" height="14" rx="5" fill="#111827"/><rect x="315" y="360" width="61" height="14" rx="5" fill="#111827"/><rect x="396" y="360" width="61" height="14" rx="5" fill="#111827"/></g>
    <g transform="translate(380 0) rotate(23 512 512)"><rect x="339" y="288" width="118" height="14" rx="5" fill="#111827"/><rect x="339" y="324" width="118" height="14" rx="5" fill="#111827"/><rect x="339" y="360" width="118" height="14" rx="5" fill="#111827"/></g>
    <g transform="translate(0 380) rotate(23 512 512)"><rect x="323" y="296" width="130" height="14" rx="5" fill="#111827"/><rect x="323" y="332" width="55" height="14" rx="5" fill="#111827"/><rect x="398" y="332" width="55" height="14" rx="5" fill="#111827"/><rect x="323" y="368" width="55" height="14" rx="5" fill="#111827"/><rect x="398" y="368" width="55" height="14" rx="5" fill="#111827"/></g>
    <g transform="translate(380 380) rotate(-23 512 512)"><rect x="331" y="296" width="130" height="14" rx="5" fill="#111827"/><rect x="331" y="332" width="55" height="14" rx="5" fill="#111827"/><rect x="406" y="332" width="55" height="14" rx="5" fill="#111827"/><rect x="331" y="368" width="130" height="14" rx="5" fill="#111827"/></g>
  </g>

  <text x="753.6" y="546.0" text-anchor="middle" dominant-baseline="middle" font-size="34" fill="#dc2626" opacity="0.75">⟡</text><text x="735.6" y="680.5" text-anchor="middle" dominant-baseline="middle" font-size="34" fill="#38bdf8" opacity="0.75">⬟</text><text x="623.2" y="730.3" text-anchor="middle" dominant-baseline="middle" font-size="33" fill="#dc2626" opacity="0.75">⬢</text><text x="488.0" y="786.0" text-anchor="middle" dominant-baseline="middle" font-size="39" fill="#38bdf8" opacity="0.75">✪</text><text x="376.3" y="729.1" text-anchor="middle" dominant-baseline="middle" font-size="43" fill="#dc2626" opacity="0.75">✺</text><text x="273.3" y="589.6" text-anchor="middle" dominant-baseline="middle" font-size="41" fill="#38bdf8" opacity="0.75">⟡</text><text x="243.0" y="479.0" text-anchor="middle" dominant-baseline="middle" font-size="40" fill="#dc2626" opacity="0.75">⬟</text><text x="315.0" y="358.1" text-anchor="middle" dominant-baseline="middle" font-size="46" fill="#38bdf8" opacity="0.75">⬢</text><text x="410.9" y="261.7" text-anchor="middle" dominant-baseline="middle" font-size="26" fill="#dc2626" opacity="0.75">✪</text><text x="573.9" y="244.0" text-anchor="middle" dominant-baseline="middle" font-size="21" fill="#38bdf8" opacity="0.75">✺</text><text x="668.0" y="289.2" text-anchor="middle" dominant-baseline="middle" font-size="39" fill="#dc2626" opacity="0.75">⟡</text><text x="758.8" y="386.2" text-anchor="middle" dominant-baseline="middle" font-size="49" fill="#38bdf8" opacity="0.75">⬟</text>

  <text x="512" y="900" text-anchor="middle" font-size="38" font-family="Inter, Arial, sans-serif" fill="#ffffff">March 1st Spirit #20</text>
  <text x="512" y="942" text-anchor="middle" font-size="22" font-family="Inter, Arial, sans-serif" fill="#e2e8f0">대한독립 만세 · Unique Edition</text>
</svg>