<?xml version="1.0" encoding="UTF-8"?>
<svg xmlns="http://www.w3.org/2000/svg" width="1024" height="1024" viewBox="0 0 1024 1024">
  <rect width="1024" height="1024" fill="#0f172a"/><line x1="0" y1="0" x2="0" y2="1024" stroke="#0ea5e9" opacity="0.18"/><line x1="0" y1="0" x2="1024" y2="0" stroke="#f8fafc" opacity="0.14"/><line x1="64" y1="0" x2="64" y2="1024" stroke="#0ea5e9" opacity="0.18"/><line x1="0" y1="64" x2="1024" y2="64" stroke="#f8fafc" opacity="0.14"/><line x1="128" y1="0" x2="128" y2="1024" stroke="#0ea5e9" opacity="0.18"/><line x1="0" y1="128" x2="1024" y2="128" stroke="#f8fafc" opacity="0.14"/><line x1="192" y1="0" x2="192" y2="1024" stroke="#0ea5e9" opacity="0.18"/><line x1="0" y1="192" x2="1024" y2="192" stroke="#f8fafc" opacity="0.14"/><line x1="256" y1="0" x2="256" y2="1024" stroke="#0ea5e9" opacity="0.18"/><line x1="0" y1="256" x2="1024" y2="256" stroke="#f8fafc" opacity="0.14"/><line x1="320" y1="0" x2="320" y2="1024" stroke="#0ea5e9" opacity="0.18"/><line x1="0" y1="320" x2="1024" y2="320" stroke="#f8fafc" opacity="0.14"/><line x1="384" y1="0" x2="384" y2="1024" stroke="#0ea5e9" opacity="0.18"/><line x1="0" y1="384" x2="1024" y2="384" stroke="#f8fafc" opacity="0.14"/><line x1="448" y1="0" x2="448" y2="1024" stroke="#0ea5e9" opacity="0.18"/><line x1="0" y1="448" x2="1024" y2="448" stroke="#f8fafc" opacity="0.14"/><line x1="512" y1="0" x2="512" y2="1024" stroke="#0ea5e9" opacity="0.18"/><line x1="0" y1="512" x2="1024" y2="512" stroke="#f8fafc" opacity="0.14"/><line x1="576" y1="0" x2="576" y2="1024" stroke="#0ea5e9" opacity="0.18"/><line x1="0" y1="576" x2="1024" y2="576" stroke="#f8fafc" opacity="0.14"/><line x1="640" y1="0" x2="640" y2="1024" stroke="#0ea5e9" opacity="0.18"/><line x1="0" y1="640" x2="1024" y2="640" stroke="#f8fafc" opacity="0.14"/><line x1="704" y1="0" x2="704" y2="1024" stroke="#0ea5e9" opacity="0.18"/><line x1="0" y1="704" x2="1024" y2="704" stroke="#f8fafc" opacity="0.14"/><line x1="768" y1="0" x2="768" y2="1024" stroke="#0ea5e9" opacity="0.18"/><line x1="0" y1="768" x2="1024" y2="768" stroke="#f8fafc" opacity="0.14"/><line x1="832" y1="0" x2="832" y2="1024" stroke="#0ea5e9" opacity="0.18"/><line x1="0" y1="832" x2="1024" y2="832" stroke="#f8fafc" opacity="0.14"/><line x1="896" y1="0" x2="896" y2="1024" stroke="#0ea5e9" opacity="0.18"/><line x1="0" y1="896" x2="1024" y2="896" stroke="#f8fafc" opacity="0.14"/><line x1="960" y1="0" x2="960" y2="1024" stroke="#0ea5e9" opacity="0.18"/><line x1="0" y1="960" x2="1024" y2="960" stroke="#f8fafc" opacity="0.14"/><line x1="1024" y1="0" x2="1024" y2="1024" stroke="#0ea5e9" opacity="0.18"/><line x1="0" y1="1024" x2="1024" y2="1024" stroke="#f8fafc" opacity="0.14"/>
  <g><circle cx="512" cy="512" r="310" fill="#ecfeff" stroke="#f8fafc" stroke-width="6"/><circle cx="512" cy="512" r="265" fill="none" stroke="#0ea5e9" opacity="0.35" stroke-width="8"/></g>

  <g transform="translate(512 511) rotate(187)">
    <circle cx="0" cy="0" r="139" fill="#ecfeff" opacity="0.22"/>
    <path d="M0 -129 A 129 129 0 1 1 0 129 A 64.5 64.5 0 1 0 0 -129" fill="#f97316"/>
    <path d="M0 129 A 129 129 0 1 1 0 -129 A 64.5 64.5 0 1 0 0 129" fill="#0ea5e9"/>
  </g>

  <g opacity="0.94">
    <g transform="rotate(-23 512 512)"><rect x="331" y="296" width="61" height="14" rx="5" fill="#111827"/><rect x="412" y="296" width="61" height="14" rx="5" fill="#111827"/><rect x="331" y="332" width="61" height="14" rx="5" fill="#111827"/><rect x="412" y="332" width="61" height="14" rx="5" fill="#111827"/><rect x="331" y="368" width="142" height="14" rx="5" fill="#111827"/></g>
    <g transform="translate(380 0) rotate(23 512 512)"><rect x="315" y="304" width="130" height="14" rx="5" fill="#111827"/><rect x="315" y="340" width="55" height="14" rx="5" fill="#111827"/><rect x="390" y="340" width="55" height="14" rx="5" fill="#111827"/><rect x="315" y="376" width="130" height="14" rx="5" fill="#111827"/></g>
    <g transform="translate(0 380) rotate(23 512 512)"><rect x="323" y="296" width="130" height="14" rx="5" fill="#111827"/><rect x="323" y="332" width="55" height="14" rx="5" fill="#111827"/><rect x="398" y="332" width="55" height="14" rx="5" fill="#111827"/><rect x="323" y="368" width="55" height="14" rx="5" fill="#111827"/><rect x="398" y="368" width="55" height="14" rx="5" fill="#111827"/></g>
    <g transform="translate(380 380) rotate(-23 512 512)"><rect x="339" y="288" width="118" height="14" rx="5" fill="#111827"/><rect x="339" y="324" width="118" height="14" rx="5" fill="#111827"/><rect x="339" y="360" width="118" height="14" rx="5" fill="#111827"/></g>
  </g>

  <text x="778.6" y="526.0" text-anchor="middle" dominant-baseline="middle" font-size="35" fill="#f97316" opacity="0.75">☾</text><text x="741.3" y="697.6" text-anchor="middle" dominant-baseline="middle" font-size="27" fill="#0ea5e9" opacity="0.75">✸</text><text x="640.0" y="774.4" text-anchor="middle" dominant-baseline="middle" font-size="25" fill="#f97316" opacity="0.75">✹</text><text x="585.6" y="768.7" text-anchor="middle" dominant-baseline="middle" font-size="41" fill="#0ea5e9" opacity="0.75">✦</text><text x="434.2" y="766.4" text-anchor="middle" dominant-baseline="middle" font-size="33" fill="#f97316" opacity="0.75">☼</text><text x="327.9" y="702.6" text-anchor="middle" dominant-baseline="middle" font-size="29" fill="#0ea5e9" opacity="0.75">☾</text><text x="286.7" y="669.7" text-anchor="middle" dominant-baseline="middle" font-size="41" fill="#f97316" opacity="0.75">✸</text><text x="250.3" y="553.5" text-anchor="middle" dominant-baseline="middle" font-size="46" fill="#0ea5e9" opacity="0.75">✹</text><text x="268.2" y="413.5" text-anchor="middle" dominant-baseline="middle" font-size="44" fill="#f97316" opacity="0.75">✦</text><text x="328.6" y="322.1" text-anchor="middle" dominant-baseline="middle" font-size="40" fill="#0ea5e9" opacity="0.75">☼</text><text x="415.7" y="273.7" text-anchor="middle" dominant-baseline="middle" font-size="45" fill="#f97316" opacity="0.75">☾</text><text x="558.9" y="246.1" text-anchor="middle" dominant-baseline="middle" font-size="43" fill="#0ea5e9" opacity="0.75">✸</text><text x="672.1" y="265.4" text-anchor="middle" dominant-baseline="middle" font-size="23" fill="#f97316" opacity="0.75">✹</text><text x="711.9" y="344.2" text-anchor="middle" dominant-baseline="middle" font-size="22" fill="#0ea5e9" opacity="0.75">✦</text><text x="786.8" y="463.6" text-anchor="middle" dominant-baseline="middle" font-size="22" fill="#f97316" opacity="0.75">☼</text>

  <text x="512" y="900" text-anchor="middle" font-size="38" font-family="Inter, Arial, sans-serif" fill="#ecfeff">March 1st Spirit #21</text>
  <text x="512" y="942" text-anchor="middle" font-size="22" font-family="Inter, Arial, sans-serif" fill="#f8fafc">대한독립 만세 · Unique Edition</text>
</svg>