<?xml version="1.0" encoding="UTF-8"?>
<svg xmlns="http://www.w3.org/2000/svg" width="1024" height="1024" viewBox="0 0 1024 1024">
  <rect width="1024" height="1024" fill="#172554"/><rect x="-256" y="-80" width="36" height="1200" transform="rotate(20 512 512)" fill="#e2e8f0" opacity="0.28"/><rect x="-192" y="-80" width="36" height="1200" transform="rotate(20 512 512)" fill="#38bdf8" opacity="0.28"/><rect x="-128" y="-80" width="36" height="1200" transform="rotate(20 512 512)" fill="#e2e8f0" opacity="0.28"/><rect x="-64" y="-80" width="36" height="1200" transform="rotate(20 512 512)" fill="#38bdf8" opacity="0.28"/><rect x="0" y="-80" width="36" height="1200" transform="rotate(20 512 512)" fill="#e2e8f0" opacity="0.28"/><rect x="64" y="-80" width="36" height="1200" transform="rotate(20 512 512)" fill="#38bdf8" opacity="0.28"/><rect x="128" y="-80" width="36" height="1200" transform="rotate(20 512 512)" fill="#e2e8f0" opacity="0.28"/><rect x="192" y="-80" width="36" height="1200" transform="rotate(20 512 512)" fill="#38bdf8" opacity="0.28"/><rect x="256" y="-80" width="36" height="1200" transform="rotate(20 512 512)" fill="#e2e8f0" opacity="0.28"/><rect x="320" y="-80" width="36" height="1200" transform="rotate(20 512 512)" fill="#38bdf8" opacity="0.28"/><rect x="384" y="-80" width="36" height="1200" transform="rotate(20 512 512)" fill="#e2e8f0" opacity="0.28"/><rect x="448" y="-80" width="36" height="1200" transform="rotate(20 512 512)" fill="#38bdf8" opacity="0.28"/><rect x="512" y="-80" width="36" height="1200" transform="rotate(20 512 512)" fill="#e2e8f0" opacity="0.28"/><rect x="576" y="-80" width="36" height="1200" transform="rotate(20 512 512)" fill="#38bdf8" opacity="0.28"/><rect x="640" y="-80" width="36" height="1200" transform="rotate(20 512 512)" fill="#e2e8f0" opacity="0.28"/><rect x="704" y="-80" width="36" height="1200" transform="rotate(20 512 512)" fill="#38bdf8" opacity="0.28"/><rect x="768" y="-80" width="36" height="1200" transform="rotate(20 512 512)" fill="#e2e8f0" opacity="0.28"/><rect x="832" y="-80" width="36" height="1200" transform="rotate(20 512 512)" fill="#38bdf8" opacity="0.28"/><rect x="896" y="-80" width="36" height="1200" transform="rotate(20 512 512)" fill="#e2e8f0" opacity="0.28"/><rect x="960" y="-80" width="36" height="1200" transform="rotate(20 512 512)" fill="#38bdf8" opacity="0.28"/><rect x="1024" y="-80" width="36" height="1200" transform="rotate(20 512 512)" fill="#e2e8f0" opacity="0.28"/><rect x="1088" y="-80" width="36" height="1200" transform="rotate(20 512 512)" fill="#38bdf8" opacity="0.28"/><rect x="1152" y="-80" width="36" height="1200" transform="rotate(20 512 512)" fill="#e2e8f0" opacity="0.28"/><rect x="1216" y="-80" width="36" height="1200" transform="rotate(20 512 512)" fill="#38bdf8" opacity="0.28"/><rect x="1280" y="-80" width="36" height="1200" transform="rotate(20 512 512)" fill="#e2e8f0" opacity="0.28"/><rect x="1344" y="-80" width="36" height="1200" transform="rotate(20 512 512)" fill="#38bdf8" opacity="0.28"/><rect x="1408" y="-80" width="36" height="1200" transform="rotate(20 512 512)" fill="#e2e8f0" opacity="0.28"/><rect x="1472" y="-80" width="36" height="1200" transform="rotate(20 512 512)" fill="#38bdf8" opacity="0.28"/>
  <circle cx="512" cy="512" r="330" fill="#ffffff" stroke="#e2e8f0" stroke-width="6"/>

  <g transform="translate(512 518) rotate(164)">
    <circle cx="0" cy="0" r="145" fill="#ffffff" opacity="0.22"/>
    <path d="M0 -135 A 135 135 0 1 1 0 135 A 67.5 67.5 0 1 0 0 -135" fill="#dc2626"/>
    <path d="M0 135 A 135 135 0 1 1 0 -135 A 67.5 67.5 0 1 0 0 135" fill="#38bdf8"/>
  </g>

  <g opacity="0.94">
    <g transform="rotate(-23 512 512)"><rect x="347" y="304" width="118" height="14" rx="5" fill="#111827"/><rect x="347" y="340" width="118" height="14" rx="5" fill="#111827"/><rect x="347" y="376" width="118" height="14" rx="5" fill="#111827"/></g>
    <g transform="translate(380 0) rotate(23 512 512)"><rect x="315" y="312" width="154" height="14" rx="5" fill="#111827"/><rect x="315" y="348" width="154" height="14" rx="5" fill="#111827"/><rect x="315" y="384" width="67" height="14" rx="5" fill="#111827"/><rect x="402" y="384" width="67" height="14" rx="5" fill="#111827"/></g>
    <g transform="translate(0 380) rotate(23 512 512)"><rect x="331" y="280" width="67" height="14" rx="5" fill="#111827"/><rect x="418" y="280" width="67" height="14" rx="5" fill="#111827"/><rect x="331" y="316" width="67" height="14" rx="5" fill="#111827"/><rect x="418" y="316" width="67" height="14" rx="5" fill="#111827"/><rect x="331" y="352" width="67" height="14" rx="5" fill="#111827"/><rect x="418" y="352" width="67" height="14" rx="5" fill="#111827"/></g>
    <g transform="translate(380 380) rotate(-23 512 512)"><rect x="339" y="288" width="130" height="14" rx="5" fill="#111827"/><rect x="339" y="324" width="55" height="14" rx="5" fill="#111827"/><rect x="414" y="324" width="55" height="14" rx="5" fill="#111827"/><rect x="339" y="360" width="55" height="14" rx="5" fill="#111827"/><rect x="414" y="360" width="55" height="14" rx="5" fill="#111827"/></g>
  </g>

  <text x="850.4" y="609.0" text-anchor="middle" dominant-baseline="middle" font-size="27" fill="#dc2626" opacity="0.75">✺</text><text x="767.2" y="755.8" text-anchor="middle" dominant-baseline="middle" font-size="44" fill="#38bdf8" opacity="0.75">✹</text><text x="679.1" y="818.4" text-anchor="middle" dominant-baseline="middle" font-size="32" fill="#dc2626" opacity="0.75">✷</text><text x="535.8" y="859.2" text-anchor="middle" dominant-baseline="middle" font-size="46" fill="#38bdf8" opacity="0.75">✦</text><text x="314.2" y="767.3" text-anchor="middle" dominant-baseline="middle" font-size="32" fill="#dc2626" opacity="0.75">✶</text><text x="254.4" y="724.6" text-anchor="middle" dominant-baseline="middle" font-size="27" fill="#38bdf8" opacity="0.75">✺</text><text x="166.0" y="517.1" text-anchor="middle" dominant-baseline="middle" font-size="43" fill="#dc2626" opacity="0.75">✹</text><text x="215.0" y="392.9" text-anchor="middle" dominant-baseline="middle" font-size="38" fill="#38bdf8" opacity="0.75">✷</text><text x="284.9" y="255.0" text-anchor="middle" dominant-baseline="middle" font-size="21" fill="#dc2626" opacity="0.75">✦</text><text x="426.1" y="186.1" text-anchor="middle" dominant-baseline="middle" font-size="41" fill="#38bdf8" opacity="0.75">✶</text><text x="601.6" y="175.7" text-anchor="middle" dominant-baseline="middle" font-size="29" fill="#dc2626" opacity="0.75">✺</text><text x="704.1" y="253.5" text-anchor="middle" dominant-baseline="middle" font-size="40" fill="#38bdf8" opacity="0.75">✹</text><text x="799.7" y="367.4" text-anchor="middle" dominant-baseline="middle" font-size="24" fill="#dc2626" opacity="0.75">✷</text>

  <text x="512" y="900" text-anchor="middle" font-size="38" font-family="Inter, Arial, sans-serif" fill="#ffffff">March 1st Spirit #22</text>
  <text x="512" y="942" text-anchor="middle" font-size="22" font-family="Inter, Arial, sans-serif" fill="#e2e8f0">대한독립 만세 · Unique Edition</text>
</svg>