<?xml version="1.0" encoding="UTF-8"?>
<svg xmlns="http://www.w3.org/2000/svg" width="1024" height="1024" viewBox="0 0 1024 1024">
  <rect width="1024" height="1024" fill="#020617"/><rect x="500" y="80" width="24" height="430" fill="#f43f5e" opacity="0.23" transform="rotate(0 512 512)"/><rect x="500" y="80" width="24" height="430" fill="#6366f1" opacity="0.23" transform="rotate(12.857142857142858 512 512)"/><rect x="500" y="80" width="24" height="430" fill="#f43f5e" opacity="0.23" transform="rotate(25.714285714285715 512 512)"/><rect x="500" y="80" width="24" height="430" fill="#6366f1" opacity="0.23" transform="rotate(38.57142857142857 512 512)"/><rect x="500" y="80" width="24" height="430" fill="#f43f5e" opacity="0.23" transform="rotate(51.42857142857143 512 512)"/><rect x="500" y="80" width="24" height="430" fill="#6366f1" opacity="0.23" transform="rotate(64.28571428571429 512 512)"/><rect x="500" y="80" width="24" height="430" fill="#f43f5e" opacity="0.23" transform="rotate(77.14285714285714 512 512)"/><rect x="500" y="80" width="24" height="430" fill="#6366f1" opacity="0.23" transform="rotate(90 512 512)"/><rect x="500" y="80" width="24" height="430" fill="#f43f5e" opacity="0.23" transform="rotate(102.85714285714286 512 512)"/><rect x="500" y="80" width="24" height="430" fill="#6366f1" opacity="0.23" transform="rotate(115.71428571428572 512 512)"/><rect x="500" y="80" width="24" height="430" fill="#f43f5e" opacity="0.23" transform="rotate(128.57142857142858 512 512)"/><rect x="500" y="80" width="24" height="430" fill="#6366f1" opacity="0.23" transform="rotate(141.42857142857144 512 512)"/><rect x="500" y="80" width="24" height="430" fill="#f43f5e" opacity="0.23" transform="rotate(154.28571428571428 512 512)"/><rect x="500" y="80" width="24" height="430" fill="#6366f1" opacity="0.23" transform="rotate(167.14285714285714 512 512)"/><rect x="500" y="80" width="24" height="430" fill="#f43f5e" opacity="0.23" transform="rotate(180 512 512)"/><rect x="500" y="80" width="24" height="430" fill="#6366f1" opacity="0.23" transform="rotate(192.85714285714286 512 512)"/><rect x="500" y="80" width="24" height="430" fill="#f43f5e" opacity="0.23" transform="rotate(205.71428571428572 512 512)"/><rect x="500" y="80" width="24" height="430" fill="#6366f1" opacity="0.23" transform="rotate(218.57142857142858 512 512)"/><rect x="500" y="80" width="24" height="430" fill="#f43f5e" opacity="0.23" transform="rotate(231.42857142857144 512 512)"/><rect x="500" y="80" width="24" height="430" fill="#6366f1" opacity="0.23" transform="rotate(244.2857142857143 512 512)"/><rect x="500" y="80" width="24" height="430" fill="#f43f5e" opacity="0.23" transform="rotate(257.14285714285717 512 512)"/><rect x="500" y="80" width="24" height="430" fill="#6366f1" opacity="0.23" transform="rotate(270 512 512)"/><rect x="500" y="80" width="24" height="430" fill="#f43f5e" opacity="0.23" transform="rotate(282.8571428571429 512 512)"/><rect x="500" y="80" width="24" height="430" fill="#6366f1" opacity="0.23" transform="rotate(295.7142857142857 512 512)"/><rect x="500" y="80" width="24" height="430" fill="#f43f5e" opacity="0.23" transform="rotate(308.57142857142856 512 512)"/><rect x="500" y="80" width="24" height="430" fill="#6366f1" opacity="0.23" transform="rotate(321.42857142857144 512 512)"/><rect x="500" y="80" width="24" height="430" fill="#f43f5e" opacity="0.23" transform="rotate(334.2857142857143 512 512)"/><rect x="500" y="80" width="24" height="430" fill="#6366f1" opacity="0.23" transform="rotate(347.14285714285717 512 512)"/><circle cx="512" cy="512" r="190" fill="#f8fafc" opacity="0.2"/>
  <polygon points="512,170 820,512 512,854 204,512" fill="#f8fafc" stroke="#cbd5e1" stroke-width="6"/>

  <g transform="translate(512 502) rotate(322)">
    <circle cx="0" cy="0" r="154" fill="#f8fafc" opacity="0.22"/>
    <path d="M0 -144 A 144 144 0 1 1 0 144 A 72 72 0 1 0 0 -144" fill="#f43f5e"/>
    <path d="M0 144 A 144 144 0 1 1 0 -144 A 72 72 0 1 0 0 144" fill="#6366f1"/>
  </g>

  <g opacity="0.94">
    <g transform="rotate(-23 512 512)"><rect x="331" y="296" width="130" height="14" rx="5" fill="#111827"/><rect x="331" y="332" width="55" height="14" rx="5" fill="#111827"/><rect x="406" y="332" width="55" height="14" rx="5" fill="#111827"/><rect x="331" y="368" width="130" height="14" rx="5" fill="#111827"/></g>
    <g transform="translate(380 0) rotate(23 512 512)"><rect x="323" y="280" width="130" height="14" rx="5" fill="#111827"/><rect x="323" y="316" width="55" height="14" rx="5" fill="#111827"/><rect x="398" y="316" width="55" height="14" rx="5" fill="#111827"/><rect x="323" y="352" width="130" height="14" rx="5" fill="#111827"/></g>
    <g transform="translate(0 380) rotate(23 512 512)"><rect x="331" y="288" width="49" height="14" rx="5" fill="#111827"/><rect x="400" y="288" width="49" height="14" rx="5" fill="#111827"/><rect x="331" y="324" width="118" height="14" rx="5" fill="#111827"/><rect x="331" y="360" width="118" height="14" rx="5" fill="#111827"/></g>
    <g transform="translate(380 380) rotate(-23 512 512)"><rect x="339" y="280" width="154" height="14" rx="5" fill="#111827"/><rect x="339" y="316" width="154" height="14" rx="5" fill="#111827"/><rect x="339" y="352" width="67" height="14" rx="5" fill="#111827"/><rect x="426" y="352" width="67" height="14" rx="5" fill="#111827"/></g>
  </g>

  <text x="824.2" y="572.7" text-anchor="middle" dominant-baseline="middle" font-size="29" fill="#f43f5e" opacity="0.75">✪</text><text x="772.6" y="699.4" text-anchor="middle" dominant-baseline="middle" font-size="37" fill="#6366f1" opacity="0.75">✺</text><text x="712.7" y="792.6" text-anchor="middle" dominant-baseline="middle" font-size="42" fill="#f43f5e" opacity="0.75">⟡</text><text x="579.4" y="833.0" text-anchor="middle" dominant-baseline="middle" font-size="24" fill="#6366f1" opacity="0.75">⬟</text><text x="408.5" y="853.7" text-anchor="middle" dominant-baseline="middle" font-size="41" fill="#f43f5e" opacity="0.75">⬢</text><text x="264.3" y="763.5" text-anchor="middle" dominant-baseline="middle" font-size="34" fill="#6366f1" opacity="0.75">✪</text><text x="171.5" y="601.4" text-anchor="middle" dominant-baseline="middle" font-size="42" fill="#f43f5e" opacity="0.75">✺</text><text x="177.1" y="506.2" text-anchor="middle" dominant-baseline="middle" font-size="20" fill="#6366f1" opacity="0.75">⟡</text><text x="202.8" y="335.5" text-anchor="middle" dominant-baseline="middle" font-size="21" fill="#f43f5e" opacity="0.75">⬟</text><text x="322.0" y="214.5" text-anchor="middle" dominant-baseline="middle" font-size="21" fill="#6366f1" opacity="0.75">⬢</text><text x="469.6" y="159.5" text-anchor="middle" dominant-baseline="middle" font-size="38" fill="#f43f5e" opacity="0.75">✪</text><text x="633.7" y="208.5" text-anchor="middle" dominant-baseline="middle" font-size="48" fill="#6366f1" opacity="0.75">✺</text><text x="743.6" y="250.9" text-anchor="middle" dominant-baseline="middle" font-size="23" fill="#f43f5e" opacity="0.75">⟡</text><text x="825.4" y="452.7" text-anchor="middle" dominant-baseline="middle" font-size="29" fill="#6366f1" opacity="0.75">⬟</text>

  <text x="512" y="900" text-anchor="middle" font-size="38" font-family="Inter, Arial, sans-serif" fill="#f8fafc">March 1st Spirit #23</text>
  <text x="512" y="942" text-anchor="middle" font-size="22" font-family="Inter, Arial, sans-serif" fill="#cbd5e1">대한독립 만세 · Unique Edition</text>
</svg>