<?xml version="1.0" encoding="UTF-8"?>
<svg xmlns="http://www.w3.org/2000/svg" width="1024" height="1024" viewBox="0 0 1024 1024">
  <rect width="1024" height="1024" fill="#020617"/><path d="M-40 120 Q 256 96 512 120 T 1064 120" stroke="#f43f5e" stroke-width="10" fill="none" opacity="0.35"/><path d="M-40 212 Q 256 187 512 212 T 1064 212" stroke="#6366f1" stroke-width="12" fill="none" opacity="0.35"/><path d="M-40 304 Q 256 268 512 304 T 1064 304" stroke="#f43f5e" stroke-width="14" fill="none" opacity="0.35"/><path d="M-40 396 Q 256 352 512 396 T 1064 396" stroke="#6366f1" stroke-width="10" fill="none" opacity="0.35"/><path d="M-40 488 Q 256 452 512 488 T 1064 488" stroke="#f43f5e" stroke-width="12" fill="none" opacity="0.35"/><path d="M-40 580 Q 256 537 512 580 T 1064 580" stroke="#6366f1" stroke-width="14" fill="none" opacity="0.35"/><path d="M-40 672 Q 256 625 512 672 T 1064 672" stroke="#f43f5e" stroke-width="10" fill="none" opacity="0.35"/><path d="M-40 764 Q 256 730 512 764 T 1064 764" stroke="#6366f1" stroke-width="12" fill="none" opacity="0.35"/><path d="M-40 856 Q 256 818 512 856 T 1064 856" stroke="#f43f5e" stroke-width="14" fill="none" opacity="0.35"/><path d="M-40 948 Q 256 929 512 948 T 1064 948" stroke="#6366f1" stroke-width="10" fill="none" opacity="0.35"/>
  <path d="M512 170 L790 300 L735 650 Q700 790 512 860 Q324 790 289 650 L234 300 Z" fill="#f8fafc" stroke="#cbd5e1" stroke-width="6"/>

  <g transform="translate(512 521) rotate(320)">
    <circle cx="0" cy="0" r="149" fill="#f8fafc" opacity="0.22"/>
    <path d="M0 -139 A 139 139 0 1 1 0 139 A 69.5 69.5 0 1 0 0 -139" fill="#f43f5e"/>
    <path d="M0 139 A 139 139 0 1 1 0 -139 A 69.5 69.5 0 1 0 0 139" fill="#6366f1"/>
  </g>

  <g opacity="0.94">
    <g transform="rotate(-23 512 512)"><rect x="331" y="296" width="130" height="14" rx="5" fill="#111827"/><rect x="331" y="332" width="55" height="14" rx="5" fill="#111827"/><rect x="406" y="332" width="55" height="14" rx="5" fill="#111827"/><rect x="331" y="368" width="130" height="14" rx="5" fill="#111827"/></g>
    <g transform="translate(380 0) rotate(23 512 512)"><rect x="347" y="304" width="118" height="14" rx="5" fill="#111827"/><rect x="347" y="340" width="118" height="14" rx="5" fill="#111827"/><rect x="347" y="376" width="118" height="14" rx="5" fill="#111827"/></g>
    <g transform="translate(0 380) rotate(23 512 512)"><rect x="339" y="312" width="61" height="14" rx="5" fill="#111827"/><rect x="420" y="312" width="61" height="14" rx="5" fill="#111827"/><rect x="339" y="348" width="61" height="14" rx="5" fill="#111827"/><rect x="420" y="348" width="61" height="14" rx="5" fill="#111827"/><rect x="339" y="384" width="142" height="14" rx="5" fill="#111827"/></g>
    <g transform="translate(380 380) rotate(-23 512 512)"><rect x="339" y="296" width="67" height="14" rx="5" fill="#111827"/><rect x="426" y="296" width="67" height="14" rx="5" fill="#111827"/><rect x="339" y="332" width="67" height="14" rx="5" fill="#111827"/><rect x="426" y="332" width="67" height="14" rx="5" fill="#111827"/><rect x="339" y="368" width="67" height="14" rx="5" fill="#111827"/><rect x="426" y="368" width="67" height="14" rx="5" fill="#111827"/></g>
  </g>

  <text x="807.6" y="527.5" text-anchor="middle" dominant-baseline="middle" font-size="37" fill="#f43f5e" opacity="0.75">▧</text><text x="780.0" y="677.5" text-anchor="middle" dominant-baseline="middle" font-size="27" fill="#6366f1" opacity="0.75">▣</text><text x="668.9" y="777.1" text-anchor="middle" dominant-baseline="middle" font-size="40" fill="#f43f5e" opacity="0.75">▤</text><text x="495.0" y="828.5" text-anchor="middle" dominant-baseline="middle" font-size="43" fill="#6366f1" opacity="0.75">▥</text><text x="343.7" y="794.7" text-anchor="middle" dominant-baseline="middle" font-size="49" fill="#f43f5e" opacity="0.75">▦</text><text x="258.6" y="713.9" text-anchor="middle" dominant-baseline="middle" font-size="49" fill="#6366f1" opacity="0.75">▧</text><text x="213.8" y="553.1" text-anchor="middle" dominant-baseline="middle" font-size="42" fill="#f43f5e" opacity="0.75">▣</text><text x="237.0" y="354.2" text-anchor="middle" dominant-baseline="middle" font-size="46" fill="#6366f1" opacity="0.75">▤</text><text x="319.4" y="241.6" text-anchor="middle" dominant-baseline="middle" font-size="26" fill="#f43f5e" opacity="0.75">▥</text><text x="467.5" y="223.4" text-anchor="middle" dominant-baseline="middle" font-size="21" fill="#6366f1" opacity="0.75">▦</text><text x="566.8" y="198.8" text-anchor="middle" dominant-baseline="middle" font-size="46" fill="#f43f5e" opacity="0.75">▧</text><text x="757.3" y="317.6" text-anchor="middle" dominant-baseline="middle" font-size="28" fill="#6366f1" opacity="0.75">▣</text><text x="813.2" y="398.2" text-anchor="middle" dominant-baseline="middle" font-size="40" fill="#f43f5e" opacity="0.75">▤</text>

  <text x="512" y="900" text-anchor="middle" font-size="38" font-family="Inter, Arial, sans-serif" fill="#f8fafc">March 1st Spirit #24</text>
  <text x="512" y="942" text-anchor="middle" font-size="22" font-family="Inter, Arial, sans-serif" fill="#cbd5e1">대한독립 만세 · Unique Edition</text>
</svg>