<?xml version="1.0" encoding="UTF-8"?>
<svg xmlns="http://www.w3.org/2000/svg" width="1024" height="1024" viewBox="0 0 1024 1024">
  <rect width="1024" height="1024" fill="#020617"/><line x1="0" y1="0" x2="0" y2="1024" stroke="#6366f1" opacity="0.18"/><line x1="0" y1="0" x2="1024" y2="0" stroke="#cbd5e1" opacity="0.14"/><line x1="64" y1="0" x2="64" y2="1024" stroke="#6366f1" opacity="0.18"/><line x1="0" y1="64" x2="1024" y2="64" stroke="#cbd5e1" opacity="0.14"/><line x1="128" y1="0" x2="128" y2="1024" stroke="#6366f1" opacity="0.18"/><line x1="0" y1="128" x2="1024" y2="128" stroke="#cbd5e1" opacity="0.14"/><line x1="192" y1="0" x2="192" y2="1024" stroke="#6366f1" opacity="0.18"/><line x1="0" y1="192" x2="1024" y2="192" stroke="#cbd5e1" opacity="0.14"/><line x1="256" y1="0" x2="256" y2="1024" stroke="#6366f1" opacity="0.18"/><line x1="0" y1="256" x2="1024" y2="256" stroke="#cbd5e1" opacity="0.14"/><line x1="320" y1="0" x2="320" y2="1024" stroke="#6366f1" opacity="0.18"/><line x1="0" y1="320" x2="1024" y2="320" stroke="#cbd5e1" opacity="0.14"/><line x1="384" y1="0" x2="384" y2="1024" stroke="#6366f1" opacity="0.18"/><line x1="0" y1="384" x2="1024" y2="384" stroke="#cbd5e1" opacity="0.14"/><line x1="448" y1="0" x2="448" y2="1024" stroke="#6366f1" opacity="0.18"/><line x1="0" y1="448" x2="1024" y2="448" stroke="#cbd5e1" opacity="0.14"/><line x1="512" y1="0" x2="512" y2="1024" stroke="#6366f1" opacity="0.18"/><line x1="0" y1="512" x2="1024" y2="512" stroke="#cbd5e1" opacity="0.14"/><line x1="576" y1="0" x2="576" y2="1024" stroke="#6366f1" opacity="0.18"/><line x1="0" y1="576" x2="1024" y2="576" stroke="#cbd5e1" opacity="0.14"/><line x1="640" y1="0" x2="640" y2="1024" stroke="#6366f1" opacity="0.18"/><line x1="0" y1="640" x2="1024" y2="640" stroke="#cbd5e1" opacity="0.14"/><line x1="704" y1="0" x2="704" y2="1024" stroke="#6366f1" opacity="0.18"/><line x1="0" y1="704" x2="1024" y2="704" stroke="#cbd5e1" opacity="0.14"/><line x1="768" y1="0" x2="768" y2="1024" stroke="#6366f1" opacity="0.18"/><line x1="0" y1="768" x2="1024" y2="768" stroke="#cbd5e1" opacity="0.14"/><line x1="832" y1="0" x2="832" y2="1024" stroke="#6366f1" opacity="0.18"/><line x1="0" y1="832" x2="1024" y2="832" stroke="#cbd5e1" opacity="0.14"/><line x1="896" y1="0" x2="896" y2="1024" stroke="#6366f1" opacity="0.18"/><line x1="0" y1="896" x2="1024" y2="896" stroke="#cbd5e1" opacity="0.14"/><line x1="960" y1="0" x2="960" y2="1024" stroke="#6366f1" opacity="0.18"/><line x1="0" y1="960" x2="1024" y2="960" stroke="#cbd5e1" opacity="0.14"/><line x1="1024" y1="0" x2="1024" y2="1024" stroke="#6366f1" opacity="0.18"/><line x1="0" y1="1024" x2="1024" y2="1024" stroke="#cbd5e1" opacity="0.14"/>
  <path d="M512 170 L790 300 L735 650 Q700 790 512 860 Q324 790 289 650 L234 300 Z" fill="#f8fafc" stroke="#cbd5e1" stroke-width="6"/>

  <g transform="translate(512 505) rotate(10)">
    <circle cx="0" cy="0" r="169" fill="#f8fafc" opacity="0.22"/>
    <path d="M0 -159 A 159 159 0 1 1 0 159 A 79.5 79.5 0 1 0 0 -159" fill="#f43f5e"/>
    <path d="M0 159 A 159 159 0 1 1 0 -159 A 79.5 79.5 0 1 0 0 159" fill="#6366f1"/>
  </g>

  <g opacity="0.94">
    <g transform="rotate(-23 512 512)"><rect x="331" y="312" width="118" height="14" rx="5" fill="#111827"/><rect x="331" y="348" width="118" height="14" rx="5" fill="#111827"/><rect x="331" y="384" width="118" height="14" rx="5" fill="#111827"/></g>
    <g transform="translate(380 0) rotate(23 512 512)"><rect x="339" y="288" width="118" height="14" rx="5" fill="#111827"/><rect x="339" y="324" width="118" height="14" rx="5" fill="#111827"/><rect x="339" y="360" width="118" height="14" rx="5" fill="#111827"/></g>
    <g transform="translate(0 380) rotate(23 512 512)"><rect x="315" y="312" width="154" height="14" rx="5" fill="#111827"/><rect x="315" y="348" width="154" height="14" rx="5" fill="#111827"/><rect x="315" y="384" width="67" height="14" rx="5" fill="#111827"/><rect x="402" y="384" width="67" height="14" rx="5" fill="#111827"/></g>
    <g transform="translate(380 380) rotate(-23 512 512)"><rect x="315" y="280" width="118" height="14" rx="5" fill="#111827"/><rect x="315" y="316" width="118" height="14" rx="5" fill="#111827"/><rect x="315" y="352" width="118" height="14" rx="5" fill="#111827"/></g>
  </g>

  <text x="836.8" y="557.6" text-anchor="middle" dominant-baseline="middle" font-size="42" fill="#f43f5e" opacity="0.75">✦</text><text x="773.7" y="681.9" text-anchor="middle" dominant-baseline="middle" font-size="40" fill="#6366f1" opacity="0.75">✶</text><text x="733.5" y="758.0" text-anchor="middle" dominant-baseline="middle" font-size="40" fill="#f43f5e" opacity="0.75">✺</text><text x="542.7" y="804.4" text-anchor="middle" dominant-baseline="middle" font-size="44" fill="#6366f1" opacity="0.75">✹</text><text x="450.2" y="830.0" text-anchor="middle" dominant-baseline="middle" font-size="32" fill="#f43f5e" opacity="0.75">✷</text><text x="343.1" y="762.4" text-anchor="middle" dominant-baseline="middle" font-size="44" fill="#6366f1" opacity="0.75">✦</text><text x="200.0" y="625.6" text-anchor="middle" dominant-baseline="middle" font-size="44" fill="#f43f5e" opacity="0.75">✶</text><text x="219.1" y="537.6" text-anchor="middle" dominant-baseline="middle" font-size="42" fill="#6366f1" opacity="0.75">✺</text><text x="199.0" y="445.5" text-anchor="middle" dominant-baseline="middle" font-size="48" fill="#f43f5e" opacity="0.75">✹</text><text x="285.6" y="269.2" text-anchor="middle" dominant-baseline="middle" font-size="20" fill="#6366f1" opacity="0.75">✷</text><text x="446.3" y="227.5" text-anchor="middle" dominant-baseline="middle" font-size="48" fill="#f43f5e" opacity="0.75">✦</text><text x="555.4" y="203.0" text-anchor="middle" dominant-baseline="middle" font-size="33" fill="#6366f1" opacity="0.75">✶</text><text x="629.9" y="204.9" text-anchor="middle" dominant-baseline="middle" font-size="38" fill="#f43f5e" opacity="0.75">✺</text><text x="729.4" y="286.8" text-anchor="middle" dominant-baseline="middle" font-size="36" fill="#6366f1" opacity="0.75">✹</text><text x="809.2" y="443.4" text-anchor="middle" dominant-baseline="middle" font-size="28" fill="#f43f5e" opacity="0.75">✷</text>

  <text x="512" y="900" text-anchor="middle" font-size="38" font-family="Inter, Arial, sans-serif" fill="#f8fafc">March 1st Spirit #25</text>
  <text x="512" y="942" text-anchor="middle" font-size="22" font-family="Inter, Arial, sans-serif" fill="#cbd5e1">대한독립 만세 · Unique Edition</text>
</svg>