<?xml version="1.0" encoding="UTF-8"?>
<svg xmlns="http://www.w3.org/2000/svg" width="1024" height="1024" viewBox="0 0 1024 1024">
  
      <defs>
        <radialGradient id="g" cx="50%" cy="45%" r="70%">
          <stop offset="0%" stop-color="#ecfeff"/>
          <stop offset="65%" stop-color="#0ea5e9"/>
          <stop offset="100%" stop-color="#0f172a"/>
        </radialGradient>
      </defs>
      <rect width="1024" height="1024" fill="url(#g)"/>
    
  <path d="M512 170 L790 300 L735 650 Q700 790 512 860 Q324 790 289 650 L234 300 Z" fill="#ecfeff" stroke="#f8fafc" stroke-width="6"/>

  <g transform="translate(512 513) rotate(184)">
    <circle cx="0" cy="0" r="164" fill="#ecfeff" opacity="0.22"/>
    <path d="M0 -154 A 154 154 0 1 1 0 154 A 77 77 0 1 0 0 -154" fill="#f97316"/>
    <path d="M0 154 A 154 154 0 1 1 0 -154 A 77 77 0 1 0 0 154" fill="#0ea5e9"/>
  </g>

  <g opacity="0.94">
    <g transform="rotate(-23 512 512)"><rect x="331" y="304" width="154" height="14" rx="5" fill="#111827"/><rect x="331" y="340" width="154" height="14" rx="5" fill="#111827"/><rect x="331" y="376" width="67" height="14" rx="5" fill="#111827"/><rect x="418" y="376" width="67" height="14" rx="5" fill="#111827"/></g>
    <g transform="translate(380 0) rotate(23 512 512)"><rect x="331" y="296" width="61" height="14" rx="5" fill="#111827"/><rect x="412" y="296" width="61" height="14" rx="5" fill="#111827"/><rect x="331" y="332" width="61" height="14" rx="5" fill="#111827"/><rect x="412" y="332" width="61" height="14" rx="5" fill="#111827"/><rect x="331" y="368" width="142" height="14" rx="5" fill="#111827"/></g>
    <g transform="translate(0 380) rotate(23 512 512)"><rect x="331" y="296" width="61" height="14" rx="5" fill="#111827"/><rect x="412" y="296" width="61" height="14" rx="5" fill="#111827"/><rect x="331" y="332" width="61" height="14" rx="5" fill="#111827"/><rect x="412" y="332" width="61" height="14" rx="5" fill="#111827"/><rect x="331" y="368" width="142" height="14" rx="5" fill="#111827"/></g>
    <g transform="translate(380 380) rotate(-23 512 512)"><rect x="339" y="312" width="61" height="14" rx="5" fill="#111827"/><rect x="420" y="312" width="61" height="14" rx="5" fill="#111827"/><rect x="339" y="348" width="61" height="14" rx="5" fill="#111827"/><rect x="420" y="348" width="61" height="14" rx="5" fill="#111827"/><rect x="339" y="384" width="142" height="14" rx="5" fill="#111827"/></g>
  </g>

  <text x="794.6" y="577.2" text-anchor="middle" dominant-baseline="middle" font-size="31" fill="#f97316" opacity="0.75">⬟</text><text x="675.3" y="754.1" text-anchor="middle" dominant-baseline="middle" font-size="40" fill="#0ea5e9" opacity="0.75">⬢</text><text x="548.9" y="774.4" text-anchor="middle" dominant-baseline="middle" font-size="41" fill="#f97316" opacity="0.75">✪</text><text x="343.4" y="752.8" text-anchor="middle" dominant-baseline="middle" font-size="28" fill="#0ea5e9" opacity="0.75">✺</text><text x="228.4" y="526.9" text-anchor="middle" dominant-baseline="middle" font-size="37" fill="#f97316" opacity="0.75">⟡</text><text x="242.9" y="374.9" text-anchor="middle" dominant-baseline="middle" font-size="27" fill="#0ea5e9" opacity="0.75">⬟</text><text x="372.9" y="261.0" text-anchor="middle" dominant-baseline="middle" font-size="25" fill="#f97316" opacity="0.75">⬢</text><text x="585.5" y="237.7" text-anchor="middle" dominant-baseline="middle" font-size="20" fill="#0ea5e9" opacity="0.75">✪</text><text x="773.0" y="390.3" text-anchor="middle" dominant-baseline="middle" font-size="27" fill="#f97316" opacity="0.75">✺</text>

  <text x="512" y="900" text-anchor="middle" font-size="38" font-family="Inter, Arial, sans-serif" fill="#ecfeff">March 1st Spirit #26</text>
  <text x="512" y="942" text-anchor="middle" font-size="22" font-family="Inter, Arial, sans-serif" fill="#f8fafc">대한독립 만세 · Unique Edition</text>
</svg>