<?xml version="1.0" encoding="UTF-8"?>
<svg xmlns="http://www.w3.org/2000/svg" width="1024" height="1024" viewBox="0 0 1024 1024">
  
      <defs>
        <radialGradient id="g" cx="50%" cy="45%" r="70%">
          <stop offset="0%" stop-color="#fef3c7"/>
          <stop offset="65%" stop-color="#2563eb"/>
          <stop offset="100%" stop-color="#111827"/>
        </radialGradient>
      </defs>
      <rect width="1024" height="1024" fill="url(#g)"/>
    
  <g><circle cx="512" cy="512" r="310" fill="#fef3c7" stroke="#e5e7eb" stroke-width="6"/><circle cx="512" cy="512" r="265" fill="none" stroke="#2563eb" opacity="0.35" stroke-width="8"/></g>

  <g transform="translate(512 516) rotate(99)">
    <circle cx="0" cy="0" r="132" fill="#fef3c7" opacity="0.22"/>
    <path d="M0 -122 A 122 122 0 1 1 0 122 A 61 61 0 1 0 0 -122" fill="#fb7185"/>
    <path d="M0 122 A 122 122 0 1 1 0 -122 A 61 61 0 1 0 0 122" fill="#2563eb"/>
  </g>

  <g opacity="0.94">
    <g transform="rotate(-23 512 512)"><rect x="339" y="288" width="130" height="14" rx="5" fill="#111827"/><rect x="339" y="324" width="55" height="14" rx="5" fill="#111827"/><rect x="414" y="324" width="55" height="14" rx="5" fill="#111827"/><rect x="339" y="360" width="55" height="14" rx="5" fill="#111827"/><rect x="414" y="360" width="55" height="14" rx="5" fill="#111827"/></g>
    <g transform="translate(380 0) rotate(23 512 512)"><rect x="339" y="288" width="118" height="14" rx="5" fill="#111827"/><rect x="339" y="324" width="118" height="14" rx="5" fill="#111827"/><rect x="339" y="360" width="118" height="14" rx="5" fill="#111827"/></g>
    <g transform="translate(0 380) rotate(23 512 512)"><rect x="331" y="296" width="61" height="14" rx="5" fill="#111827"/><rect x="412" y="296" width="61" height="14" rx="5" fill="#111827"/><rect x="331" y="332" width="61" height="14" rx="5" fill="#111827"/><rect x="412" y="332" width="61" height="14" rx="5" fill="#111827"/><rect x="331" y="368" width="142" height="14" rx="5" fill="#111827"/></g>
    <g transform="translate(380 380) rotate(-23 512 512)"><rect x="339" y="280" width="154" height="14" rx="5" fill="#111827"/><rect x="339" y="316" width="154" height="14" rx="5" fill="#111827"/><rect x="339" y="352" width="67" height="14" rx="5" fill="#111827"/><rect x="426" y="352" width="67" height="14" rx="5" fill="#111827"/></g>
  </g>

  <text x="762.5" y="547.2" text-anchor="middle" dominant-baseline="middle" font-size="22" fill="#fb7185" opacity="0.75">⬢</text><text x="689.9" y="739.7" text-anchor="middle" dominant-baseline="middle" font-size="38" fill="#2563eb" opacity="0.75">✪</text><text x="496.8" y="802.6" text-anchor="middle" dominant-baseline="middle" font-size="37" fill="#fb7185" opacity="0.75">✺</text><text x="264.5" y="649.2" text-anchor="middle" dominant-baseline="middle" font-size="35" fill="#2563eb" opacity="0.75">⟡</text><text x="221.2" y="476.3" text-anchor="middle" dominant-baseline="middle" font-size="22" fill="#fb7185" opacity="0.75">⬟</text><text x="336.4" y="295.2" text-anchor="middle" dominant-baseline="middle" font-size="48" fill="#2563eb" opacity="0.75">⬢</text><text x="597.7" y="231.8" text-anchor="middle" dominant-baseline="middle" font-size="30" fill="#fb7185" opacity="0.75">✪</text><text x="711.2" y="332.7" text-anchor="middle" dominant-baseline="middle" font-size="25" fill="#2563eb" opacity="0.75">✺</text>

  <text x="512" y="900" text-anchor="middle" font-size="38" font-family="Inter, Arial, sans-serif" fill="#fef3c7">March 1st Spirit #27</text>
  <text x="512" y="942" text-anchor="middle" font-size="22" font-family="Inter, Arial, sans-serif" fill="#e5e7eb">대한독립 만세 · Unique Edition</text>
</svg>