<?xml version="1.0" encoding="UTF-8"?>
<svg xmlns="http://www.w3.org/2000/svg" width="1024" height="1024" viewBox="0 0 1024 1024">
  <rect width="1024" height="1024" fill="#172554"/><line x1="0" y1="0" x2="0" y2="1024" stroke="#38bdf8" opacity="0.18"/><line x1="0" y1="0" x2="1024" y2="0" stroke="#e2e8f0" opacity="0.14"/><line x1="64" y1="0" x2="64" y2="1024" stroke="#38bdf8" opacity="0.18"/><line x1="0" y1="64" x2="1024" y2="64" stroke="#e2e8f0" opacity="0.14"/><line x1="128" y1="0" x2="128" y2="1024" stroke="#38bdf8" opacity="0.18"/><line x1="0" y1="128" x2="1024" y2="128" stroke="#e2e8f0" opacity="0.14"/><line x1="192" y1="0" x2="192" y2="1024" stroke="#38bdf8" opacity="0.18"/><line x1="0" y1="192" x2="1024" y2="192" stroke="#e2e8f0" opacity="0.14"/><line x1="256" y1="0" x2="256" y2="1024" stroke="#38bdf8" opacity="0.18"/><line x1="0" y1="256" x2="1024" y2="256" stroke="#e2e8f0" opacity="0.14"/><line x1="320" y1="0" x2="320" y2="1024" stroke="#38bdf8" opacity="0.18"/><line x1="0" y1="320" x2="1024" y2="320" stroke="#e2e8f0" opacity="0.14"/><line x1="384" y1="0" x2="384" y2="1024" stroke="#38bdf8" opacity="0.18"/><line x1="0" y1="384" x2="1024" y2="384" stroke="#e2e8f0" opacity="0.14"/><line x1="448" y1="0" x2="448" y2="1024" stroke="#38bdf8" opacity="0.18"/><line x1="0" y1="448" x2="1024" y2="448" stroke="#e2e8f0" opacity="0.14"/><line x1="512" y1="0" x2="512" y2="1024" stroke="#38bdf8" opacity="0.18"/><line x1="0" y1="512" x2="1024" y2="512" stroke="#e2e8f0" opacity="0.14"/><line x1="576" y1="0" x2="576" y2="1024" stroke="#38bdf8" opacity="0.18"/><line x1="0" y1="576" x2="1024" y2="576" stroke="#e2e8f0" opacity="0.14"/><line x1="640" y1="0" x2="640" y2="1024" stroke="#38bdf8" opacity="0.18"/><line x1="0" y1="640" x2="1024" y2="640" stroke="#e2e8f0" opacity="0.14"/><line x1="704" y1="0" x2="704" y2="1024" stroke="#38bdf8" opacity="0.18"/><line x1="0" y1="704" x2="1024" y2="704" stroke="#e2e8f0" opacity="0.14"/><line x1="768" y1="0" x2="768" y2="1024" stroke="#38bdf8" opacity="0.18"/><line x1="0" y1="768" x2="1024" y2="768" stroke="#e2e8f0" opacity="0.14"/><line x1="832" y1="0" x2="832" y2="1024" stroke="#38bdf8" opacity="0.18"/><line x1="0" y1="832" x2="1024" y2="832" stroke="#e2e8f0" opacity="0.14"/><line x1="896" y1="0" x2="896" y2="1024" stroke="#38bdf8" opacity="0.18"/><line x1="0" y1="896" x2="1024" y2="896" stroke="#e2e8f0" opacity="0.14"/><line x1="960" y1="0" x2="960" y2="1024" stroke="#38bdf8" opacity="0.18"/><line x1="0" y1="960" x2="1024" y2="960" stroke="#e2e8f0" opacity="0.14"/><line x1="1024" y1="0" x2="1024" y2="1024" stroke="#38bdf8" opacity="0.18"/><line x1="0" y1="1024" x2="1024" y2="1024" stroke="#e2e8f0" opacity="0.14"/>
  <path d="M512 170 L790 300 L735 650 Q700 790 512 860 Q324 790 289 650 L234 300 Z" fill="#ffffff" stroke="#e2e8f0" stroke-width="6"/>

  <g transform="translate(512 502) rotate(157)">
    <circle cx="0" cy="0" r="132" fill="#ffffff" opacity="0.22"/>
    <path d="M0 -122 A 122 122 0 1 1 0 122 A 61 61 0 1 0 0 -122" fill="#dc2626"/>
    <path d="M0 122 A 122 122 0 1 1 0 -122 A 61 61 0 1 0 0 122" fill="#38bdf8"/>
  </g>

  <g opacity="0.94">
    <g transform="rotate(-23 512 512)"><rect x="315" y="304" width="61" height="14" rx="5" fill="#111827"/><rect x="396" y="304" width="61" height="14" rx="5" fill="#111827"/><rect x="315" y="340" width="61" height="14" rx="5" fill="#111827"/><rect x="396" y="340" width="61" height="14" rx="5" fill="#111827"/><rect x="315" y="376" width="142" height="14" rx="5" fill="#111827"/></g>
    <g transform="translate(380 0) rotate(23 512 512)"><rect x="323" y="280" width="61" height="14" rx="5" fill="#111827"/><rect x="404" y="280" width="61" height="14" rx="5" fill="#111827"/><rect x="323" y="316" width="61" height="14" rx="5" fill="#111827"/><rect x="404" y="316" width="61" height="14" rx="5" fill="#111827"/><rect x="323" y="352" width="142" height="14" rx="5" fill="#111827"/></g>
    <g transform="translate(0 380) rotate(23 512 512)"><rect x="323" y="296" width="130" height="14" rx="5" fill="#111827"/><rect x="323" y="332" width="55" height="14" rx="5" fill="#111827"/><rect x="398" y="332" width="55" height="14" rx="5" fill="#111827"/><rect x="323" y="368" width="55" height="14" rx="5" fill="#111827"/><rect x="398" y="368" width="55" height="14" rx="5" fill="#111827"/></g>
    <g transform="translate(380 380) rotate(-23 512 512)"><rect x="339" y="296" width="61" height="14" rx="5" fill="#111827"/><rect x="420" y="296" width="61" height="14" rx="5" fill="#111827"/><rect x="339" y="332" width="142" height="14" rx="5" fill="#111827"/><rect x="339" y="368" width="61" height="14" rx="5" fill="#111827"/><rect x="420" y="368" width="61" height="14" rx="5" fill="#111827"/></g>
  </g>

  <text x="752.3" y="580.9" text-anchor="middle" dominant-baseline="middle" font-size="34" fill="#dc2626" opacity="0.75">✷</text><text x="690.3" y="708.1" text-anchor="middle" dominant-baseline="middle" font-size="44" fill="#38bdf8" opacity="0.75">✦</text><text x="602.3" y="781.3" text-anchor="middle" dominant-baseline="middle" font-size="46" fill="#dc2626" opacity="0.75">✶</text><text x="428.7" y="765.7" text-anchor="middle" dominant-baseline="middle" font-size="38" fill="#38bdf8" opacity="0.75">✺</text><text x="334.6" y="683.9" text-anchor="middle" dominant-baseline="middle" font-size="29" fill="#dc2626" opacity="0.75">✹</text><text x="235.5" y="567.6" text-anchor="middle" dominant-baseline="middle" font-size="47" fill="#38bdf8" opacity="0.75">✷</text><text x="274.8" y="424.0" text-anchor="middle" dominant-baseline="middle" font-size="34" fill="#dc2626" opacity="0.75">✦</text><text x="393.6" y="288.4" text-anchor="middle" dominant-baseline="middle" font-size="49" fill="#38bdf8" opacity="0.75">✶</text><text x="478.5" y="246.1" text-anchor="middle" dominant-baseline="middle" font-size="41" fill="#dc2626" opacity="0.75">✺</text><text x="640.6" y="265.5" text-anchor="middle" dominant-baseline="middle" font-size="27" fill="#38bdf8" opacity="0.75">✹</text><text x="718.1" y="379.5" text-anchor="middle" dominant-baseline="middle" font-size="34" fill="#dc2626" opacity="0.75">✷</text>

  <text x="512" y="900" text-anchor="middle" font-size="38" font-family="Inter, Arial, sans-serif" fill="#ffffff">March 1st Spirit #29</text>
  <text x="512" y="942" text-anchor="middle" font-size="22" font-family="Inter, Arial, sans-serif" fill="#e2e8f0">대한독립 만세 · Unique Edition</text>
</svg>