<?xml version="1.0" encoding="UTF-8"?>
<svg xmlns="http://www.w3.org/2000/svg" width="1024" height="1024" viewBox="0 0 1024 1024">
  
      <defs>
        <radialGradient id="g" cx="50%" cy="45%" r="70%">
          <stop offset="0%" stop-color="#f1f5f9"/>
          <stop offset="65%" stop-color="#22c55e"/>
          <stop offset="100%" stop-color="#1e1b4b"/>
        </radialGradient>
      </defs>
      <rect width="1024" height="1024" fill="url(#g)"/>
    
  <polygon points="512,170 820,512 512,854 204,512" fill="#f1f5f9" stroke="#fef2f2" stroke-width="6"/>

  <g transform="translate(512 516) rotate(63)">
    <circle cx="0" cy="0" r="155" fill="#f1f5f9" opacity="0.22"/>
    <path d="M0 -145 A 145 145 0 1 1 0 145 A 72.5 72.5 0 1 0 0 -145" fill="#ef4444"/>
    <path d="M0 145 A 145 145 0 1 1 0 -145 A 72.5 72.5 0 1 0 0 145" fill="#22c55e"/>
  </g>

  <g opacity="0.94">
    <g transform="rotate(-23 512 512)"><rect x="331" y="304" width="154" height="14" rx="5" fill="#111827"/><rect x="331" y="340" width="154" height="14" rx="5" fill="#111827"/><rect x="331" y="376" width="67" height="14" rx="5" fill="#111827"/><rect x="418" y="376" width="67" height="14" rx="5" fill="#111827"/></g>
    <g transform="translate(380 0) rotate(23 512 512)"><rect x="323" y="288" width="154" height="14" rx="5" fill="#111827"/><rect x="323" y="324" width="154" height="14" rx="5" fill="#111827"/><rect x="323" y="360" width="67" height="14" rx="5" fill="#111827"/><rect x="410" y="360" width="67" height="14" rx="5" fill="#111827"/></g>
    <g transform="translate(0 380) rotate(23 512 512)"><rect x="339" y="296" width="61" height="14" rx="5" fill="#111827"/><rect x="420" y="296" width="61" height="14" rx="5" fill="#111827"/><rect x="339" y="332" width="142" height="14" rx="5" fill="#111827"/><rect x="339" y="368" width="61" height="14" rx="5" fill="#111827"/><rect x="420" y="368" width="61" height="14" rx="5" fill="#111827"/></g>
    <g transform="translate(380 380) rotate(-23 512 512)"><rect x="331" y="280" width="67" height="14" rx="5" fill="#111827"/><rect x="418" y="280" width="67" height="14" rx="5" fill="#111827"/><rect x="331" y="316" width="67" height="14" rx="5" fill="#111827"/><rect x="418" y="316" width="67" height="14" rx="5" fill="#111827"/><rect x="331" y="352" width="67" height="14" rx="5" fill="#111827"/><rect x="418" y="352" width="67" height="14" rx="5" fill="#111827"/></g>
  </g>

  <text x="805.0" y="517.1" text-anchor="middle" dominant-baseline="middle" font-size="27" fill="#ef4444" opacity="0.75">✶</text><text x="720.9" y="718.9" text-anchor="middle" dominant-baseline="middle" font-size="26" fill="#22c55e" opacity="0.75">✺</text><text x="638.3" y="788.5" text-anchor="middle" dominant-baseline="middle" font-size="37" fill="#ef4444" opacity="0.75">✹</text><text x="439.2" y="799.9" text-anchor="middle" dominant-baseline="middle" font-size="23" fill="#22c55e" opacity="0.75">✷</text><text x="303.7" y="736.1" text-anchor="middle" dominant-baseline="middle" font-size="22" fill="#ef4444" opacity="0.75">✦</text><text x="235.9" y="582.7" text-anchor="middle" dominant-baseline="middle" font-size="45" fill="#22c55e" opacity="0.75">✶</text><text x="208.2" y="399.3" text-anchor="middle" dominant-baseline="middle" font-size="42" fill="#ef4444" opacity="0.75">✺</text><text x="391.1" y="251.7" text-anchor="middle" dominant-baseline="middle" font-size="35" fill="#22c55e" opacity="0.75">✹</text><text x="516.1" y="224.0" text-anchor="middle" dominant-baseline="middle" font-size="27" fill="#ef4444" opacity="0.75">✷</text><text x="721.3" y="267.3" text-anchor="middle" dominant-baseline="middle" font-size="39" fill="#22c55e" opacity="0.75">✦</text><text x="788.2" y="423.7" text-anchor="middle" dominant-baseline="middle" font-size="25" fill="#ef4444" opacity="0.75">✶</text>

  <text x="512" y="900" text-anchor="middle" font-size="38" font-family="Inter, Arial, sans-serif" fill="#f1f5f9">March 1st Spirit #31</text>
  <text x="512" y="942" text-anchor="middle" font-size="22" font-family="Inter, Arial, sans-serif" fill="#fef2f2">대한독립 만세 · Unique Edition</text>
</svg>