<?xml version="1.0" encoding="UTF-8"?>
<svg xmlns="http://www.w3.org/2000/svg" width="1024" height="1024" viewBox="0 0 1024 1024">
  <rect width="1024" height="1024" fill="#111827"/><rect x="500" y="80" width="24" height="430" fill="#fb7185" opacity="0.23" transform="rotate(0 512 512)"/><rect x="500" y="80" width="24" height="430" fill="#2563eb" opacity="0.23" transform="rotate(12.857142857142858 512 512)"/><rect x="500" y="80" width="24" height="430" fill="#fb7185" opacity="0.23" transform="rotate(25.714285714285715 512 512)"/><rect x="500" y="80" width="24" height="430" fill="#2563eb" opacity="0.23" transform="rotate(38.57142857142857 512 512)"/><rect x="500" y="80" width="24" height="430" fill="#fb7185" opacity="0.23" transform="rotate(51.42857142857143 512 512)"/><rect x="500" y="80" width="24" height="430" fill="#2563eb" opacity="0.23" transform="rotate(64.28571428571429 512 512)"/><rect x="500" y="80" width="24" height="430" fill="#fb7185" opacity="0.23" transform="rotate(77.14285714285714 512 512)"/><rect x="500" y="80" width="24" height="430" fill="#2563eb" opacity="0.23" transform="rotate(90 512 512)"/><rect x="500" y="80" width="24" height="430" fill="#fb7185" opacity="0.23" transform="rotate(102.85714285714286 512 512)"/><rect x="500" y="80" width="24" height="430" fill="#2563eb" opacity="0.23" transform="rotate(115.71428571428572 512 512)"/><rect x="500" y="80" width="24" height="430" fill="#fb7185" opacity="0.23" transform="rotate(128.57142857142858 512 512)"/><rect x="500" y="80" width="24" height="430" fill="#2563eb" opacity="0.23" transform="rotate(141.42857142857144 512 512)"/><rect x="500" y="80" width="24" height="430" fill="#fb7185" opacity="0.23" transform="rotate(154.28571428571428 512 512)"/><rect x="500" y="80" width="24" height="430" fill="#2563eb" opacity="0.23" transform="rotate(167.14285714285714 512 512)"/><rect x="500" y="80" width="24" height="430" fill="#fb7185" opacity="0.23" transform="rotate(180 512 512)"/><rect x="500" y="80" width="24" height="430" fill="#2563eb" opacity="0.23" transform="rotate(192.85714285714286 512 512)"/><rect x="500" y="80" width="24" height="430" fill="#fb7185" opacity="0.23" transform="rotate(205.71428571428572 512 512)"/><rect x="500" y="80" width="24" height="430" fill="#2563eb" opacity="0.23" transform="rotate(218.57142857142858 512 512)"/><rect x="500" y="80" width="24" height="430" fill="#fb7185" opacity="0.23" transform="rotate(231.42857142857144 512 512)"/><rect x="500" y="80" width="24" height="430" fill="#2563eb" opacity="0.23" transform="rotate(244.2857142857143 512 512)"/><rect x="500" y="80" width="24" height="430" fill="#fb7185" opacity="0.23" transform="rotate(257.14285714285717 512 512)"/><rect x="500" y="80" width="24" height="430" fill="#2563eb" opacity="0.23" transform="rotate(270 512 512)"/><rect x="500" y="80" width="24" height="430" fill="#fb7185" opacity="0.23" transform="rotate(282.8571428571429 512 512)"/><rect x="500" y="80" width="24" height="430" fill="#2563eb" opacity="0.23" transform="rotate(295.7142857142857 512 512)"/><rect x="500" y="80" width="24" height="430" fill="#fb7185" opacity="0.23" transform="rotate(308.57142857142856 512 512)"/><rect x="500" y="80" width="24" height="430" fill="#2563eb" opacity="0.23" transform="rotate(321.42857142857144 512 512)"/><rect x="500" y="80" width="24" height="430" fill="#fb7185" opacity="0.23" transform="rotate(334.2857142857143 512 512)"/><rect x="500" y="80" width="24" height="430" fill="#2563eb" opacity="0.23" transform="rotate(347.14285714285717 512 512)"/><circle cx="512" cy="512" r="190" fill="#fef3c7" opacity="0.2"/>
  <circle cx="512" cy="512" r="330" fill="#fef3c7" stroke="#e5e7eb" stroke-width="6"/>

  <g transform="translate(512 521) rotate(237)">
    <circle cx="0" cy="0" r="154" fill="#fef3c7" opacity="0.22"/>
    <path d="M0 -144 A 144 144 0 1 1 0 144 A 72 72 0 1 0 0 -144" fill="#fb7185"/>
    <path d="M0 144 A 144 144 0 1 1 0 -144 A 72 72 0 1 0 0 144" fill="#2563eb"/>
  </g>

  <g opacity="0.94">
    <g transform="rotate(-23 512 512)"><rect x="339" y="312" width="130" height="14" rx="5" fill="#111827"/><rect x="339" y="348" width="55" height="14" rx="5" fill="#111827"/><rect x="414" y="348" width="55" height="14" rx="5" fill="#111827"/><rect x="339" y="384" width="130" height="14" rx="5" fill="#111827"/></g>
    <g transform="translate(380 0) rotate(23 512 512)"><rect x="339" y="296" width="67" height="14" rx="5" fill="#111827"/><rect x="426" y="296" width="67" height="14" rx="5" fill="#111827"/><rect x="339" y="332" width="67" height="14" rx="5" fill="#111827"/><rect x="426" y="332" width="67" height="14" rx="5" fill="#111827"/><rect x="339" y="368" width="67" height="14" rx="5" fill="#111827"/><rect x="426" y="368" width="67" height="14" rx="5" fill="#111827"/></g>
    <g transform="translate(0 380) rotate(23 512 512)"><rect x="331" y="280" width="67" height="14" rx="5" fill="#111827"/><rect x="418" y="280" width="67" height="14" rx="5" fill="#111827"/><rect x="331" y="316" width="67" height="14" rx="5" fill="#111827"/><rect x="418" y="316" width="67" height="14" rx="5" fill="#111827"/><rect x="331" y="352" width="67" height="14" rx="5" fill="#111827"/><rect x="418" y="352" width="67" height="14" rx="5" fill="#111827"/></g>
    <g transform="translate(380 380) rotate(-23 512 512)"><rect x="315" y="296" width="49" height="14" rx="5" fill="#111827"/><rect x="384" y="296" width="49" height="14" rx="5" fill="#111827"/><rect x="315" y="332" width="118" height="14" rx="5" fill="#111827"/><rect x="315" y="368" width="118" height="14" rx="5" fill="#111827"/></g>
  </g>

  <text x="795.9" y="536.8" text-anchor="middle" dominant-baseline="middle" font-size="38" fill="#fb7185" opacity="0.75">●</text><text x="752.7" y="660.8" text-anchor="middle" dominant-baseline="middle" font-size="37" fill="#2563eb" opacity="0.75">■</text><text x="628.6" y="735.4" text-anchor="middle" dominant-baseline="middle" font-size="23" fill="#fb7185" opacity="0.75">⬢</text><text x="560.4" y="764.4" text-anchor="middle" dominant-baseline="middle" font-size="31" fill="#2563eb" opacity="0.75">▲</text><text x="415.5" y="765.2" text-anchor="middle" dominant-baseline="middle" font-size="29" fill="#fb7185" opacity="0.75">◆</text><text x="313.5" y="675.2" text-anchor="middle" dominant-baseline="middle" font-size="48" fill="#2563eb" opacity="0.75">●</text><text x="242.8" y="630.2" text-anchor="middle" dominant-baseline="middle" font-size="21" fill="#fb7185" opacity="0.75">■</text><text x="265.3" y="436.6" text-anchor="middle" dominant-baseline="middle" font-size="45" fill="#2563eb" opacity="0.75">⬢</text><text x="302.8" y="338.2" text-anchor="middle" dominant-baseline="middle" font-size="25" fill="#fb7185" opacity="0.75">▲</text><text x="348.0" y="282.6" text-anchor="middle" dominant-baseline="middle" font-size="24" fill="#2563eb" opacity="0.75">◆</text><text x="458.2" y="255.6" text-anchor="middle" dominant-baseline="middle" font-size="45" fill="#fb7185" opacity="0.75">●</text><text x="599.7" y="239.8" text-anchor="middle" dominant-baseline="middle" font-size="25" fill="#2563eb" opacity="0.75">■</text><text x="711.3" y="348.1" text-anchor="middle" dominant-baseline="middle" font-size="48" fill="#fb7185" opacity="0.75">⬢</text><text x="783.5" y="435.6" text-anchor="middle" dominant-baseline="middle" font-size="21" fill="#2563eb" opacity="0.75">▲</text>

  <text x="512" y="900" text-anchor="middle" font-size="38" font-family="Inter, Arial, sans-serif" fill="#fef3c7">March 1st Spirit #32</text>
  <text x="512" y="942" text-anchor="middle" font-size="22" font-family="Inter, Arial, sans-serif" fill="#e5e7eb">대한독립 만세 · Unique Edition</text>
</svg>