<?xml version="1.0" encoding="UTF-8"?>
<svg xmlns="http://www.w3.org/2000/svg" width="1024" height="1024" viewBox="0 0 1024 1024">
  <rect width="1024" height="1024" fill="#111827"/><rect x="-256" y="-80" width="36" height="1200" transform="rotate(20 512 512)" fill="#e5e7eb" opacity="0.28"/><rect x="-192" y="-80" width="36" height="1200" transform="rotate(20 512 512)" fill="#2563eb" opacity="0.28"/><rect x="-128" y="-80" width="36" height="1200" transform="rotate(20 512 512)" fill="#e5e7eb" opacity="0.28"/><rect x="-64" y="-80" width="36" height="1200" transform="rotate(20 512 512)" fill="#2563eb" opacity="0.28"/><rect x="0" y="-80" width="36" height="1200" transform="rotate(20 512 512)" fill="#e5e7eb" opacity="0.28"/><rect x="64" y="-80" width="36" height="1200" transform="rotate(20 512 512)" fill="#2563eb" opacity="0.28"/><rect x="128" y="-80" width="36" height="1200" transform="rotate(20 512 512)" fill="#e5e7eb" opacity="0.28"/><rect x="192" y="-80" width="36" height="1200" transform="rotate(20 512 512)" fill="#2563eb" opacity="0.28"/><rect x="256" y="-80" width="36" height="1200" transform="rotate(20 512 512)" fill="#e5e7eb" opacity="0.28"/><rect x="320" y="-80" width="36" height="1200" transform="rotate(20 512 512)" fill="#2563eb" opacity="0.28"/><rect x="384" y="-80" width="36" height="1200" transform="rotate(20 512 512)" fill="#e5e7eb" opacity="0.28"/><rect x="448" y="-80" width="36" height="1200" transform="rotate(20 512 512)" fill="#2563eb" opacity="0.28"/><rect x="512" y="-80" width="36" height="1200" transform="rotate(20 512 512)" fill="#e5e7eb" opacity="0.28"/><rect x="576" y="-80" width="36" height="1200" transform="rotate(20 512 512)" fill="#2563eb" opacity="0.28"/><rect x="640" y="-80" width="36" height="1200" transform="rotate(20 512 512)" fill="#e5e7eb" opacity="0.28"/><rect x="704" y="-80" width="36" height="1200" transform="rotate(20 512 512)" fill="#2563eb" opacity="0.28"/><rect x="768" y="-80" width="36" height="1200" transform="rotate(20 512 512)" fill="#e5e7eb" opacity="0.28"/><rect x="832" y="-80" width="36" height="1200" transform="rotate(20 512 512)" fill="#2563eb" opacity="0.28"/><rect x="896" y="-80" width="36" height="1200" transform="rotate(20 512 512)" fill="#e5e7eb" opacity="0.28"/><rect x="960" y="-80" width="36" height="1200" transform="rotate(20 512 512)" fill="#2563eb" opacity="0.28"/><rect x="1024" y="-80" width="36" height="1200" transform="rotate(20 512 512)" fill="#e5e7eb" opacity="0.28"/><rect x="1088" y="-80" width="36" height="1200" transform="rotate(20 512 512)" fill="#2563eb" opacity="0.28"/><rect x="1152" y="-80" width="36" height="1200" transform="rotate(20 512 512)" fill="#e5e7eb" opacity="0.28"/><rect x="1216" y="-80" width="36" height="1200" transform="rotate(20 512 512)" fill="#2563eb" opacity="0.28"/><rect x="1280" y="-80" width="36" height="1200" transform="rotate(20 512 512)" fill="#e5e7eb" opacity="0.28"/><rect x="1344" y="-80" width="36" height="1200" transform="rotate(20 512 512)" fill="#2563eb" opacity="0.28"/><rect x="1408" y="-80" width="36" height="1200" transform="rotate(20 512 512)" fill="#e5e7eb" opacity="0.28"/><rect x="1472" y="-80" width="36" height="1200" transform="rotate(20 512 512)" fill="#2563eb" opacity="0.28"/>
  <circle cx="512" cy="512" r="330" fill="#fef3c7" stroke="#e5e7eb" stroke-width="6"/>

  <g transform="translate(512 512) rotate(344)">
    <circle cx="0" cy="0" r="134" fill="#fef3c7" opacity="0.22"/>
    <path d="M0 -124 A 124 124 0 1 1 0 124 A 62 62 0 1 0 0 -124" fill="#fb7185"/>
    <path d="M0 124 A 124 124 0 1 1 0 -124 A 62 62 0 1 0 0 124" fill="#2563eb"/>
  </g>

  <g opacity="0.94">
    <g transform="rotate(-23 512 512)"><rect x="347" y="304" width="130" height="14" rx="5" fill="#111827"/><rect x="347" y="340" width="55" height="14" rx="5" fill="#111827"/><rect x="422" y="340" width="55" height="14" rx="5" fill="#111827"/><rect x="347" y="376" width="55" height="14" rx="5" fill="#111827"/><rect x="422" y="376" width="55" height="14" rx="5" fill="#111827"/></g>
    <g transform="translate(380 0) rotate(23 512 512)"><rect x="315" y="304" width="61" height="14" rx="5" fill="#111827"/><rect x="396" y="304" width="61" height="14" rx="5" fill="#111827"/><rect x="315" y="340" width="61" height="14" rx="5" fill="#111827"/><rect x="396" y="340" width="61" height="14" rx="5" fill="#111827"/><rect x="315" y="376" width="142" height="14" rx="5" fill="#111827"/></g>
    <g transform="translate(0 380) rotate(23 512 512)"><rect x="315" y="304" width="130" height="14" rx="5" fill="#111827"/><rect x="315" y="340" width="55" height="14" rx="5" fill="#111827"/><rect x="390" y="340" width="55" height="14" rx="5" fill="#111827"/><rect x="315" y="376" width="130" height="14" rx="5" fill="#111827"/></g>
    <g transform="translate(380 380) rotate(-23 512 512)"><rect x="323" y="288" width="154" height="14" rx="5" fill="#111827"/><rect x="323" y="324" width="154" height="14" rx="5" fill="#111827"/><rect x="323" y="360" width="67" height="14" rx="5" fill="#111827"/><rect x="410" y="360" width="67" height="14" rx="5" fill="#111827"/></g>
  </g>

  <text x="758.2" y="542.2" text-anchor="middle" dominant-baseline="middle" font-size="40" fill="#fb7185" opacity="0.75">▦</text><text x="705.2" y="680.0" text-anchor="middle" dominant-baseline="middle" font-size="33" fill="#2563eb" opacity="0.75">▧</text><text x="660.6" y="709.3" text-anchor="middle" dominant-baseline="middle" font-size="26" fill="#fb7185" opacity="0.75">▣</text><text x="549.2" y="747.1" text-anchor="middle" dominant-baseline="middle" font-size="40" fill="#2563eb" opacity="0.75">▤</text><text x="474.7" y="777.4" text-anchor="middle" dominant-baseline="middle" font-size="46" fill="#fb7185" opacity="0.75">▥</text><text x="386.5" y="729.4" text-anchor="middle" dominant-baseline="middle" font-size="44" fill="#2563eb" opacity="0.75">▦</text><text x="311.6" y="642.2" text-anchor="middle" dominant-baseline="middle" font-size="49" fill="#fb7185" opacity="0.75">▧</text><text x="251.0" y="558.0" text-anchor="middle" dominant-baseline="middle" font-size="44" fill="#2563eb" opacity="0.75">▣</text><text x="274.7" y="396.3" text-anchor="middle" dominant-baseline="middle" font-size="40" fill="#fb7185" opacity="0.75">▤</text><text x="339.7" y="333.6" text-anchor="middle" dominant-baseline="middle" font-size="48" fill="#2563eb" opacity="0.75">▥</text><text x="406.9" y="264.4" text-anchor="middle" dominant-baseline="middle" font-size="33" fill="#fb7185" opacity="0.75">▦</text><text x="516.2" y="270.0" text-anchor="middle" dominant-baseline="middle" font-size="42" fill="#2563eb" opacity="0.75">▧</text><text x="654.8" y="308.0" text-anchor="middle" dominant-baseline="middle" font-size="23" fill="#fb7185" opacity="0.75">▣</text><text x="708.1" y="347.4" text-anchor="middle" dominant-baseline="middle" font-size="30" fill="#2563eb" opacity="0.75">▤</text><text x="779.0" y="479.2" text-anchor="middle" dominant-baseline="middle" font-size="25" fill="#fb7185" opacity="0.75">▥</text>

  <text x="512" y="900" text-anchor="middle" font-size="38" font-family="Inter, Arial, sans-serif" fill="#fef3c7">March 1st Spirit #33</text>
  <text x="512" y="942" text-anchor="middle" font-size="22" font-family="Inter, Arial, sans-serif" fill="#e5e7eb">대한독립 만세 · Unique Edition</text>
</svg>