<?xml version="1.0" encoding="UTF-8"?>
<svg xmlns="http://www.w3.org/2000/svg" width="1024" height="1024" viewBox="0 0 1024 1024">
  <rect width="1024" height="1024" fill="#0b1020"/><rect x="-256" y="-80" width="36" height="1200" transform="rotate(20 512 512)" fill="#111827" opacity="0.28"/><rect x="-192" y="-80" width="36" height="1200" transform="rotate(20 512 512)" fill="#1d4ed8" opacity="0.28"/><rect x="-128" y="-80" width="36" height="1200" transform="rotate(20 512 512)" fill="#111827" opacity="0.28"/><rect x="-64" y="-80" width="36" height="1200" transform="rotate(20 512 512)" fill="#1d4ed8" opacity="0.28"/><rect x="0" y="-80" width="36" height="1200" transform="rotate(20 512 512)" fill="#111827" opacity="0.28"/><rect x="64" y="-80" width="36" height="1200" transform="rotate(20 512 512)" fill="#1d4ed8" opacity="0.28"/><rect x="128" y="-80" width="36" height="1200" transform="rotate(20 512 512)" fill="#111827" opacity="0.28"/><rect x="192" y="-80" width="36" height="1200" transform="rotate(20 512 512)" fill="#1d4ed8" opacity="0.28"/><rect x="256" y="-80" width="36" height="1200" transform="rotate(20 512 512)" fill="#111827" opacity="0.28"/><rect x="320" y="-80" width="36" height="1200" transform="rotate(20 512 512)" fill="#1d4ed8" opacity="0.28"/><rect x="384" y="-80" width="36" height="1200" transform="rotate(20 512 512)" fill="#111827" opacity="0.28"/><rect x="448" y="-80" width="36" height="1200" transform="rotate(20 512 512)" fill="#1d4ed8" opacity="0.28"/><rect x="512" y="-80" width="36" height="1200" transform="rotate(20 512 512)" fill="#111827" opacity="0.28"/><rect x="576" y="-80" width="36" height="1200" transform="rotate(20 512 512)" fill="#1d4ed8" opacity="0.28"/><rect x="640" y="-80" width="36" height="1200" transform="rotate(20 512 512)" fill="#111827" opacity="0.28"/><rect x="704" y="-80" width="36" height="1200" transform="rotate(20 512 512)" fill="#1d4ed8" opacity="0.28"/><rect x="768" y="-80" width="36" height="1200" transform="rotate(20 512 512)" fill="#111827" opacity="0.28"/><rect x="832" y="-80" width="36" height="1200" transform="rotate(20 512 512)" fill="#1d4ed8" opacity="0.28"/><rect x="896" y="-80" width="36" height="1200" transform="rotate(20 512 512)" fill="#111827" opacity="0.28"/><rect x="960" y="-80" width="36" height="1200" transform="rotate(20 512 512)" fill="#1d4ed8" opacity="0.28"/><rect x="1024" y="-80" width="36" height="1200" transform="rotate(20 512 512)" fill="#111827" opacity="0.28"/><rect x="1088" y="-80" width="36" height="1200" transform="rotate(20 512 512)" fill="#1d4ed8" opacity="0.28"/><rect x="1152" y="-80" width="36" height="1200" transform="rotate(20 512 512)" fill="#111827" opacity="0.28"/><rect x="1216" y="-80" width="36" height="1200" transform="rotate(20 512 512)" fill="#1d4ed8" opacity="0.28"/><rect x="1280" y="-80" width="36" height="1200" transform="rotate(20 512 512)" fill="#111827" opacity="0.28"/><rect x="1344" y="-80" width="36" height="1200" transform="rotate(20 512 512)" fill="#1d4ed8" opacity="0.28"/><rect x="1408" y="-80" width="36" height="1200" transform="rotate(20 512 512)" fill="#111827" opacity="0.28"/><rect x="1472" y="-80" width="36" height="1200" transform="rotate(20 512 512)" fill="#1d4ed8" opacity="0.28"/>
  <polygon points="512,170 820,512 512,854 204,512" fill="#f8fafc" stroke="#111827" stroke-width="6"/>

  <g transform="translate(512 512) rotate(249)">
    <circle cx="0" cy="0" r="130" fill="#f8fafc" opacity="0.22"/>
    <path d="M0 -120 A 120 120 0 1 1 0 120 A 60 60 0 1 0 0 -120" fill="#ef4444"/>
    <path d="M0 120 A 120 120 0 1 1 0 -120 A 60 60 0 1 0 0 120" fill="#1d4ed8"/>
  </g>

  <g opacity="0.94">
    <g transform="rotate(-23 512 512)"><rect x="339" y="288" width="130" height="14" rx="5" fill="#111827"/><rect x="339" y="324" width="55" height="14" rx="5" fill="#111827"/><rect x="414" y="324" width="55" height="14" rx="5" fill="#111827"/><rect x="339" y="360" width="55" height="14" rx="5" fill="#111827"/><rect x="414" y="360" width="55" height="14" rx="5" fill="#111827"/></g>
    <g transform="translate(380 0) rotate(23 512 512)"><rect x="347" y="304" width="130" height="14" rx="5" fill="#111827"/><rect x="347" y="340" width="55" height="14" rx="5" fill="#111827"/><rect x="422" y="340" width="55" height="14" rx="5" fill="#111827"/><rect x="347" y="376" width="55" height="14" rx="5" fill="#111827"/><rect x="422" y="376" width="55" height="14" rx="5" fill="#111827"/></g>
    <g transform="translate(0 380) rotate(23 512 512)"><rect x="315" y="288" width="67" height="14" rx="5" fill="#111827"/><rect x="402" y="288" width="67" height="14" rx="5" fill="#111827"/><rect x="315" y="324" width="67" height="14" rx="5" fill="#111827"/><rect x="402" y="324" width="67" height="14" rx="5" fill="#111827"/><rect x="315" y="360" width="67" height="14" rx="5" fill="#111827"/><rect x="402" y="360" width="67" height="14" rx="5" fill="#111827"/></g>
    <g transform="translate(380 380) rotate(-23 512 512)"><rect x="315" y="312" width="154" height="14" rx="5" fill="#111827"/><rect x="315" y="348" width="154" height="14" rx="5" fill="#111827"/><rect x="315" y="384" width="67" height="14" rx="5" fill="#111827"/><rect x="402" y="384" width="67" height="14" rx="5" fill="#111827"/></g>
  </g>

  <text x="853.4" y="553.9" text-anchor="middle" dominant-baseline="middle" font-size="32" fill="#ef4444" opacity="0.75">⬢</text><text x="796.3" y="694.7" text-anchor="middle" dominant-baseline="middle" font-size="26" fill="#1d4ed8" opacity="0.75">▲</text><text x="578.6" y="838.3" text-anchor="middle" dominant-baseline="middle" font-size="29" fill="#ef4444" opacity="0.75">◆</text><text x="460.6" y="829.9" text-anchor="middle" dominant-baseline="middle" font-size="30" fill="#1d4ed8" opacity="0.75">●</text><text x="273.9" y="734.7" text-anchor="middle" dominant-baseline="middle" font-size="42" fill="#ef4444" opacity="0.75">■</text><text x="166.5" y="544.4" text-anchor="middle" dominant-baseline="middle" font-size="24" fill="#1d4ed8" opacity="0.75">⬢</text><text x="177.1" y="413.7" text-anchor="middle" dominant-baseline="middle" font-size="45" fill="#ef4444" opacity="0.75">▲</text><text x="370.1" y="192.0" text-anchor="middle" dominant-baseline="middle" font-size="21" fill="#1d4ed8" opacity="0.75">◆</text><text x="551.7" y="180.4" text-anchor="middle" dominant-baseline="middle" font-size="22" fill="#ef4444" opacity="0.75">●</text><text x="680.7" y="226.1" text-anchor="middle" dominant-baseline="middle" font-size="44" fill="#1d4ed8" opacity="0.75">■</text><text x="778.7" y="340.6" text-anchor="middle" dominant-baseline="middle" font-size="24" fill="#ef4444" opacity="0.75">⬢</text>

  <text x="512" y="900" text-anchor="middle" font-size="38" font-family="Inter, Arial, sans-serif" fill="#f8fafc">March 1st Spirit #34</text>
  <text x="512" y="942" text-anchor="middle" font-size="22" font-family="Inter, Arial, sans-serif" fill="#111827">대한독립 만세 · Unique Edition</text>
</svg>