<?xml version="1.0" encoding="UTF-8"?>
<svg xmlns="http://www.w3.org/2000/svg" width="1024" height="1024" viewBox="0 0 1024 1024">
  <rect width="1024" height="1024" fill="#0f172a"/><rect x="-256" y="-80" width="36" height="1200" transform="rotate(20 512 512)" fill="#f8fafc" opacity="0.28"/><rect x="-192" y="-80" width="36" height="1200" transform="rotate(20 512 512)" fill="#0ea5e9" opacity="0.28"/><rect x="-128" y="-80" width="36" height="1200" transform="rotate(20 512 512)" fill="#f8fafc" opacity="0.28"/><rect x="-64" y="-80" width="36" height="1200" transform="rotate(20 512 512)" fill="#0ea5e9" opacity="0.28"/><rect x="0" y="-80" width="36" height="1200" transform="rotate(20 512 512)" fill="#f8fafc" opacity="0.28"/><rect x="64" y="-80" width="36" height="1200" transform="rotate(20 512 512)" fill="#0ea5e9" opacity="0.28"/><rect x="128" y="-80" width="36" height="1200" transform="rotate(20 512 512)" fill="#f8fafc" opacity="0.28"/><rect x="192" y="-80" width="36" height="1200" transform="rotate(20 512 512)" fill="#0ea5e9" opacity="0.28"/><rect x="256" y="-80" width="36" height="1200" transform="rotate(20 512 512)" fill="#f8fafc" opacity="0.28"/><rect x="320" y="-80" width="36" height="1200" transform="rotate(20 512 512)" fill="#0ea5e9" opacity="0.28"/><rect x="384" y="-80" width="36" height="1200" transform="rotate(20 512 512)" fill="#f8fafc" opacity="0.28"/><rect x="448" y="-80" width="36" height="1200" transform="rotate(20 512 512)" fill="#0ea5e9" opacity="0.28"/><rect x="512" y="-80" width="36" height="1200" transform="rotate(20 512 512)" fill="#f8fafc" opacity="0.28"/><rect x="576" y="-80" width="36" height="1200" transform="rotate(20 512 512)" fill="#0ea5e9" opacity="0.28"/><rect x="640" y="-80" width="36" height="1200" transform="rotate(20 512 512)" fill="#f8fafc" opacity="0.28"/><rect x="704" y="-80" width="36" height="1200" transform="rotate(20 512 512)" fill="#0ea5e9" opacity="0.28"/><rect x="768" y="-80" width="36" height="1200" transform="rotate(20 512 512)" fill="#f8fafc" opacity="0.28"/><rect x="832" y="-80" width="36" height="1200" transform="rotate(20 512 512)" fill="#0ea5e9" opacity="0.28"/><rect x="896" y="-80" width="36" height="1200" transform="rotate(20 512 512)" fill="#f8fafc" opacity="0.28"/><rect x="960" y="-80" width="36" height="1200" transform="rotate(20 512 512)" fill="#0ea5e9" opacity="0.28"/><rect x="1024" y="-80" width="36" height="1200" transform="rotate(20 512 512)" fill="#f8fafc" opacity="0.28"/><rect x="1088" y="-80" width="36" height="1200" transform="rotate(20 512 512)" fill="#0ea5e9" opacity="0.28"/><rect x="1152" y="-80" width="36" height="1200" transform="rotate(20 512 512)" fill="#f8fafc" opacity="0.28"/><rect x="1216" y="-80" width="36" height="1200" transform="rotate(20 512 512)" fill="#0ea5e9" opacity="0.28"/><rect x="1280" y="-80" width="36" height="1200" transform="rotate(20 512 512)" fill="#f8fafc" opacity="0.28"/><rect x="1344" y="-80" width="36" height="1200" transform="rotate(20 512 512)" fill="#0ea5e9" opacity="0.28"/><rect x="1408" y="-80" width="36" height="1200" transform="rotate(20 512 512)" fill="#f8fafc" opacity="0.28"/><rect x="1472" y="-80" width="36" height="1200" transform="rotate(20 512 512)" fill="#0ea5e9" opacity="0.28"/>
  <polygon points="512,170 780,330 780,690 512,850 244,690 244,330" fill="#ecfeff" stroke="#f8fafc" stroke-width="6"/>

  <g transform="translate(512 514) rotate(309)">
    <circle cx="0" cy="0" r="165" fill="#ecfeff" opacity="0.22"/>
    <path d="M0 -155 A 155 155 0 1 1 0 155 A 77.5 77.5 0 1 0 0 -155" fill="#f97316"/>
    <path d="M0 155 A 155 155 0 1 1 0 -155 A 77.5 77.5 0 1 0 0 155" fill="#0ea5e9"/>
  </g>

  <g opacity="0.94">
    <g transform="rotate(-23 512 512)"><rect x="315" y="288" width="61" height="14" rx="5" fill="#111827"/><rect x="396" y="288" width="61" height="14" rx="5" fill="#111827"/><rect x="315" y="324" width="142" height="14" rx="5" fill="#111827"/><rect x="315" y="360" width="61" height="14" rx="5" fill="#111827"/><rect x="396" y="360" width="61" height="14" rx="5" fill="#111827"/></g>
    <g transform="translate(380 0) rotate(23 512 512)"><rect x="347" y="296" width="154" height="14" rx="5" fill="#111827"/><rect x="347" y="332" width="154" height="14" rx="5" fill="#111827"/><rect x="347" y="368" width="67" height="14" rx="5" fill="#111827"/><rect x="434" y="368" width="67" height="14" rx="5" fill="#111827"/></g>
    <g transform="translate(0 380) rotate(23 512 512)"><rect x="347" y="280" width="49" height="14" rx="5" fill="#111827"/><rect x="416" y="280" width="49" height="14" rx="5" fill="#111827"/><rect x="347" y="316" width="118" height="14" rx="5" fill="#111827"/><rect x="347" y="352" width="118" height="14" rx="5" fill="#111827"/></g>
    <g transform="translate(380 380) rotate(-23 512 512)"><rect x="339" y="288" width="118" height="14" rx="5" fill="#111827"/><rect x="339" y="324" width="118" height="14" rx="5" fill="#111827"/><rect x="339" y="360" width="118" height="14" rx="5" fill="#111827"/></g>
  </g>

  <text x="837.8" y="557.8" text-anchor="middle" dominant-baseline="middle" font-size="43" fill="#f97316" opacity="0.75">◆</text><text x="795.0" y="723.0" text-anchor="middle" dominant-baseline="middle" font-size="23" fill="#0ea5e9" opacity="0.75">●</text><text x="668.1" y="824.1" text-anchor="middle" dominant-baseline="middle" font-size="46" fill="#f97316" opacity="0.75">■</text><text x="492.2" y="873.5" text-anchor="middle" dominant-baseline="middle" font-size="30" fill="#0ea5e9" opacity="0.75">⬢</text><text x="394.5" y="820.4" text-anchor="middle" dominant-baseline="middle" font-size="25" fill="#f97316" opacity="0.75">▲</text><text x="286.0" y="741.4" text-anchor="middle" dominant-baseline="middle" font-size="32" fill="#0ea5e9" opacity="0.75">◆</text><text x="188.9" y="579.0" text-anchor="middle" dominant-baseline="middle" font-size="27" fill="#f97316" opacity="0.75">●</text><text x="161.6" y="443.9" text-anchor="middle" dominant-baseline="middle" font-size="42" fill="#0ea5e9" opacity="0.75">■</text><text x="243.3" y="272.5" text-anchor="middle" dominant-baseline="middle" font-size="37" fill="#f97316" opacity="0.75">⬢</text><text x="296.3" y="221.3" text-anchor="middle" dominant-baseline="middle" font-size="34" fill="#0ea5e9" opacity="0.75">▲</text><text x="446.3" y="169.2" text-anchor="middle" dominant-baseline="middle" font-size="26" fill="#f97316" opacity="0.75">◆</text><text x="691.2" y="199.8" text-anchor="middle" dominant-baseline="middle" font-size="48" fill="#0ea5e9" opacity="0.75">●</text><text x="754.8" y="265.5" text-anchor="middle" dominant-baseline="middle" font-size="30" fill="#f97316" opacity="0.75">■</text><text x="844.1" y="461.1" text-anchor="middle" dominant-baseline="middle" font-size="27" fill="#0ea5e9" opacity="0.75">⬢</text>

  <text x="512" y="900" text-anchor="middle" font-size="38" font-family="Inter, Arial, sans-serif" fill="#ecfeff">March 1st Spirit #36</text>
  <text x="512" y="942" text-anchor="middle" font-size="22" font-family="Inter, Arial, sans-serif" fill="#f8fafc">대한독립 만세 · Unique Edition</text>
</svg>