<?xml version="1.0" encoding="UTF-8"?>
<svg xmlns="http://www.w3.org/2000/svg" width="1024" height="1024" viewBox="0 0 1024 1024">
  <rect width="1024" height="1024" fill="#1e1b4b"/><line x1="0" y1="0" x2="0" y2="1024" stroke="#22c55e" opacity="0.18"/><line x1="0" y1="0" x2="1024" y2="0" stroke="#fef2f2" opacity="0.14"/><line x1="64" y1="0" x2="64" y2="1024" stroke="#22c55e" opacity="0.18"/><line x1="0" y1="64" x2="1024" y2="64" stroke="#fef2f2" opacity="0.14"/><line x1="128" y1="0" x2="128" y2="1024" stroke="#22c55e" opacity="0.18"/><line x1="0" y1="128" x2="1024" y2="128" stroke="#fef2f2" opacity="0.14"/><line x1="192" y1="0" x2="192" y2="1024" stroke="#22c55e" opacity="0.18"/><line x1="0" y1="192" x2="1024" y2="192" stroke="#fef2f2" opacity="0.14"/><line x1="256" y1="0" x2="256" y2="1024" stroke="#22c55e" opacity="0.18"/><line x1="0" y1="256" x2="1024" y2="256" stroke="#fef2f2" opacity="0.14"/><line x1="320" y1="0" x2="320" y2="1024" stroke="#22c55e" opacity="0.18"/><line x1="0" y1="320" x2="1024" y2="320" stroke="#fef2f2" opacity="0.14"/><line x1="384" y1="0" x2="384" y2="1024" stroke="#22c55e" opacity="0.18"/><line x1="0" y1="384" x2="1024" y2="384" stroke="#fef2f2" opacity="0.14"/><line x1="448" y1="0" x2="448" y2="1024" stroke="#22c55e" opacity="0.18"/><line x1="0" y1="448" x2="1024" y2="448" stroke="#fef2f2" opacity="0.14"/><line x1="512" y1="0" x2="512" y2="1024" stroke="#22c55e" opacity="0.18"/><line x1="0" y1="512" x2="1024" y2="512" stroke="#fef2f2" opacity="0.14"/><line x1="576" y1="0" x2="576" y2="1024" stroke="#22c55e" opacity="0.18"/><line x1="0" y1="576" x2="1024" y2="576" stroke="#fef2f2" opacity="0.14"/><line x1="640" y1="0" x2="640" y2="1024" stroke="#22c55e" opacity="0.18"/><line x1="0" y1="640" x2="1024" y2="640" stroke="#fef2f2" opacity="0.14"/><line x1="704" y1="0" x2="704" y2="1024" stroke="#22c55e" opacity="0.18"/><line x1="0" y1="704" x2="1024" y2="704" stroke="#fef2f2" opacity="0.14"/><line x1="768" y1="0" x2="768" y2="1024" stroke="#22c55e" opacity="0.18"/><line x1="0" y1="768" x2="1024" y2="768" stroke="#fef2f2" opacity="0.14"/><line x1="832" y1="0" x2="832" y2="1024" stroke="#22c55e" opacity="0.18"/><line x1="0" y1="832" x2="1024" y2="832" stroke="#fef2f2" opacity="0.14"/><line x1="896" y1="0" x2="896" y2="1024" stroke="#22c55e" opacity="0.18"/><line x1="0" y1="896" x2="1024" y2="896" stroke="#fef2f2" opacity="0.14"/><line x1="960" y1="0" x2="960" y2="1024" stroke="#22c55e" opacity="0.18"/><line x1="0" y1="960" x2="1024" y2="960" stroke="#fef2f2" opacity="0.14"/><line x1="1024" y1="0" x2="1024" y2="1024" stroke="#22c55e" opacity="0.18"/><line x1="0" y1="1024" x2="1024" y2="1024" stroke="#fef2f2" opacity="0.14"/>
  <path d="M512 170 L790 300 L735 650 Q700 790 512 860 Q324 790 289 650 L234 300 Z" fill="#f1f5f9" stroke="#fef2f2" stroke-width="6"/>

  <g transform="translate(512 506) rotate(148)">
    <circle cx="0" cy="0" r="165" fill="#f1f5f9" opacity="0.22"/>
    <path d="M0 -155 A 155 155 0 1 1 0 155 A 77.5 77.5 0 1 0 0 -155" fill="#ef4444"/>
    <path d="M0 155 A 155 155 0 1 1 0 -155 A 77.5 77.5 0 1 0 0 155" fill="#22c55e"/>
  </g>

  <g opacity="0.94">
    <g transform="rotate(-23 512 512)"><rect x="339" y="312" width="61" height="14" rx="5" fill="#111827"/><rect x="420" y="312" width="61" height="14" rx="5" fill="#111827"/><rect x="339" y="348" width="61" height="14" rx="5" fill="#111827"/><rect x="420" y="348" width="61" height="14" rx="5" fill="#111827"/><rect x="339" y="384" width="142" height="14" rx="5" fill="#111827"/></g>
    <g transform="translate(380 0) rotate(23 512 512)"><rect x="339" y="312" width="61" height="14" rx="5" fill="#111827"/><rect x="420" y="312" width="61" height="14" rx="5" fill="#111827"/><rect x="339" y="348" width="61" height="14" rx="5" fill="#111827"/><rect x="420" y="348" width="61" height="14" rx="5" fill="#111827"/><rect x="339" y="384" width="142" height="14" rx="5" fill="#111827"/></g>
    <g transform="translate(0 380) rotate(23 512 512)"><rect x="339" y="288" width="118" height="14" rx="5" fill="#111827"/><rect x="339" y="324" width="118" height="14" rx="5" fill="#111827"/><rect x="339" y="360" width="118" height="14" rx="5" fill="#111827"/></g>
    <g transform="translate(380 380) rotate(-23 512 512)"><rect x="315" y="288" width="61" height="14" rx="5" fill="#111827"/><rect x="396" y="288" width="61" height="14" rx="5" fill="#111827"/><rect x="315" y="324" width="142" height="14" rx="5" fill="#111827"/><rect x="315" y="360" width="61" height="14" rx="5" fill="#111827"/><rect x="396" y="360" width="61" height="14" rx="5" fill="#111827"/></g>
  </g>

  <text x="811.8" y="586.8" text-anchor="middle" dominant-baseline="middle" font-size="22" fill="#ef4444" opacity="0.75">▥</text><text x="756.1" y="721.9" text-anchor="middle" dominant-baseline="middle" font-size="30" fill="#22c55e" opacity="0.75">▦</text><text x="662.2" y="765.9" text-anchor="middle" dominant-baseline="middle" font-size="33" fill="#ef4444" opacity="0.75">▧</text><text x="483.6" y="831.7" text-anchor="middle" dominant-baseline="middle" font-size="37" fill="#22c55e" opacity="0.75">▣</text><text x="360.6" y="799.6" text-anchor="middle" dominant-baseline="middle" font-size="49" fill="#ef4444" opacity="0.75">▤</text><text x="266.4" y="707.6" text-anchor="middle" dominant-baseline="middle" font-size="25" fill="#22c55e" opacity="0.75">▥</text><text x="210.2" y="500.6" text-anchor="middle" dominant-baseline="middle" font-size="23" fill="#ef4444" opacity="0.75">▦</text><text x="235.4" y="406.7" text-anchor="middle" dominant-baseline="middle" font-size="46" fill="#22c55e" opacity="0.75">▧</text><text x="291.7" y="309.9" text-anchor="middle" dominant-baseline="middle" font-size="28" fill="#ef4444" opacity="0.75">▣</text><text x="436.3" y="203.1" text-anchor="middle" dominant-baseline="middle" font-size="47" fill="#22c55e" opacity="0.75">▤</text><text x="622.0" y="224.3" text-anchor="middle" dominant-baseline="middle" font-size="27" fill="#ef4444" opacity="0.75">▥</text><text x="711.1" y="262.7" text-anchor="middle" dominant-baseline="middle" font-size="33" fill="#22c55e" opacity="0.75">▦</text><text x="830.3" y="446.1" text-anchor="middle" dominant-baseline="middle" font-size="37" fill="#ef4444" opacity="0.75">▧</text>

  <text x="512" y="900" text-anchor="middle" font-size="38" font-family="Inter, Arial, sans-serif" fill="#f1f5f9">March 1st Spirit #37</text>
  <text x="512" y="942" text-anchor="middle" font-size="22" font-family="Inter, Arial, sans-serif" fill="#fef2f2">대한독립 만세 · Unique Edition</text>
</svg>