<?xml version="1.0" encoding="UTF-8"?>
<svg xmlns="http://www.w3.org/2000/svg" width="1024" height="1024" viewBox="0 0 1024 1024">
  <rect width="1024" height="1024" fill="#0f172a"/><line x1="0" y1="0" x2="0" y2="1024" stroke="#0ea5e9" opacity="0.18"/><line x1="0" y1="0" x2="1024" y2="0" stroke="#f8fafc" opacity="0.14"/><line x1="64" y1="0" x2="64" y2="1024" stroke="#0ea5e9" opacity="0.18"/><line x1="0" y1="64" x2="1024" y2="64" stroke="#f8fafc" opacity="0.14"/><line x1="128" y1="0" x2="128" y2="1024" stroke="#0ea5e9" opacity="0.18"/><line x1="0" y1="128" x2="1024" y2="128" stroke="#f8fafc" opacity="0.14"/><line x1="192" y1="0" x2="192" y2="1024" stroke="#0ea5e9" opacity="0.18"/><line x1="0" y1="192" x2="1024" y2="192" stroke="#f8fafc" opacity="0.14"/><line x1="256" y1="0" x2="256" y2="1024" stroke="#0ea5e9" opacity="0.18"/><line x1="0" y1="256" x2="1024" y2="256" stroke="#f8fafc" opacity="0.14"/><line x1="320" y1="0" x2="320" y2="1024" stroke="#0ea5e9" opacity="0.18"/><line x1="0" y1="320" x2="1024" y2="320" stroke="#f8fafc" opacity="0.14"/><line x1="384" y1="0" x2="384" y2="1024" stroke="#0ea5e9" opacity="0.18"/><line x1="0" y1="384" x2="1024" y2="384" stroke="#f8fafc" opacity="0.14"/><line x1="448" y1="0" x2="448" y2="1024" stroke="#0ea5e9" opacity="0.18"/><line x1="0" y1="448" x2="1024" y2="448" stroke="#f8fafc" opacity="0.14"/><line x1="512" y1="0" x2="512" y2="1024" stroke="#0ea5e9" opacity="0.18"/><line x1="0" y1="512" x2="1024" y2="512" stroke="#f8fafc" opacity="0.14"/><line x1="576" y1="0" x2="576" y2="1024" stroke="#0ea5e9" opacity="0.18"/><line x1="0" y1="576" x2="1024" y2="576" stroke="#f8fafc" opacity="0.14"/><line x1="640" y1="0" x2="640" y2="1024" stroke="#0ea5e9" opacity="0.18"/><line x1="0" y1="640" x2="1024" y2="640" stroke="#f8fafc" opacity="0.14"/><line x1="704" y1="0" x2="704" y2="1024" stroke="#0ea5e9" opacity="0.18"/><line x1="0" y1="704" x2="1024" y2="704" stroke="#f8fafc" opacity="0.14"/><line x1="768" y1="0" x2="768" y2="1024" stroke="#0ea5e9" opacity="0.18"/><line x1="0" y1="768" x2="1024" y2="768" stroke="#f8fafc" opacity="0.14"/><line x1="832" y1="0" x2="832" y2="1024" stroke="#0ea5e9" opacity="0.18"/><line x1="0" y1="832" x2="1024" y2="832" stroke="#f8fafc" opacity="0.14"/><line x1="896" y1="0" x2="896" y2="1024" stroke="#0ea5e9" opacity="0.18"/><line x1="0" y1="896" x2="1024" y2="896" stroke="#f8fafc" opacity="0.14"/><line x1="960" y1="0" x2="960" y2="1024" stroke="#0ea5e9" opacity="0.18"/><line x1="0" y1="960" x2="1024" y2="960" stroke="#f8fafc" opacity="0.14"/><line x1="1024" y1="0" x2="1024" y2="1024" stroke="#0ea5e9" opacity="0.18"/><line x1="0" y1="1024" x2="1024" y2="1024" stroke="#f8fafc" opacity="0.14"/>
  <polygon points="512,170 780,330 780,690 512,850 244,690 244,330" fill="#ecfeff" stroke="#f8fafc" stroke-width="6"/>

  <g transform="translate(512 518) rotate(51)">
    <circle cx="0" cy="0" r="146" fill="#ecfeff" opacity="0.22"/>
    <path d="M0 -136 A 136 136 0 1 1 0 136 A 68 68 0 1 0 0 -136" fill="#f97316"/>
    <path d="M0 136 A 136 136 0 1 1 0 -136 A 68 68 0 1 0 0 136" fill="#0ea5e9"/>
  </g>

  <g opacity="0.94">
    <g transform="rotate(-23 512 512)"><rect x="331" y="296" width="130" height="14" rx="5" fill="#111827"/><rect x="331" y="332" width="55" height="14" rx="5" fill="#111827"/><rect x="406" y="332" width="55" height="14" rx="5" fill="#111827"/><rect x="331" y="368" width="130" height="14" rx="5" fill="#111827"/></g>
    <g transform="translate(380 0) rotate(23 512 512)"><rect x="331" y="288" width="49" height="14" rx="5" fill="#111827"/><rect x="400" y="288" width="49" height="14" rx="5" fill="#111827"/><rect x="331" y="324" width="118" height="14" rx="5" fill="#111827"/><rect x="331" y="360" width="118" height="14" rx="5" fill="#111827"/></g>
    <g transform="translate(0 380) rotate(23 512 512)"><rect x="323" y="280" width="61" height="14" rx="5" fill="#111827"/><rect x="404" y="280" width="61" height="14" rx="5" fill="#111827"/><rect x="323" y="316" width="61" height="14" rx="5" fill="#111827"/><rect x="404" y="316" width="61" height="14" rx="5" fill="#111827"/><rect x="323" y="352" width="142" height="14" rx="5" fill="#111827"/></g>
    <g transform="translate(380 380) rotate(-23 512 512)"><rect x="339" y="296" width="67" height="14" rx="5" fill="#111827"/><rect x="426" y="296" width="67" height="14" rx="5" fill="#111827"/><rect x="339" y="332" width="67" height="14" rx="5" fill="#111827"/><rect x="426" y="332" width="67" height="14" rx="5" fill="#111827"/><rect x="339" y="368" width="67" height="14" rx="5" fill="#111827"/><rect x="426" y="368" width="67" height="14" rx="5" fill="#111827"/></g>
  </g>

  <text x="817.6" y="528.0" text-anchor="middle" dominant-baseline="middle" font-size="25" fill="#f97316" opacity="0.75">▦</text><text x="717.3" y="682.6" text-anchor="middle" dominant-baseline="middle" font-size="41" fill="#0ea5e9" opacity="0.75">▧</text><text x="559.4" y="794.0" text-anchor="middle" dominant-baseline="middle" font-size="34" fill="#f97316" opacity="0.75">▣</text><text x="380.5" y="791.6" text-anchor="middle" dominant-baseline="middle" font-size="30" fill="#0ea5e9" opacity="0.75">▤</text><text x="298.8" y="725.9" text-anchor="middle" dominant-baseline="middle" font-size="23" fill="#f97316" opacity="0.75">▥</text><text x="221.0" y="508.8" text-anchor="middle" dominant-baseline="middle" font-size="25" fill="#0ea5e9" opacity="0.75">▦</text><text x="241.8" y="383.9" text-anchor="middle" dominant-baseline="middle" font-size="23" fill="#f97316" opacity="0.75">▧</text><text x="362.0" y="261.5" text-anchor="middle" dominant-baseline="middle" font-size="47" fill="#0ea5e9" opacity="0.75">▣</text><text x="481.6" y="231.6" text-anchor="middle" dominant-baseline="middle" font-size="48" fill="#f97316" opacity="0.75">▤</text><text x="644.3" y="247.2" text-anchor="middle" dominant-baseline="middle" font-size="49" fill="#0ea5e9" opacity="0.75">▥</text><text x="794.5" y="427.1" text-anchor="middle" dominant-baseline="middle" font-size="27" fill="#f97316" opacity="0.75">▦</text>

  <text x="512" y="900" text-anchor="middle" font-size="38" font-family="Inter, Arial, sans-serif" fill="#ecfeff">March 1st Spirit #38</text>
  <text x="512" y="942" text-anchor="middle" font-size="22" font-family="Inter, Arial, sans-serif" fill="#f8fafc">대한독립 만세 · Unique Edition</text>
</svg>