<?xml version="1.0" encoding="UTF-8"?>
<svg xmlns="http://www.w3.org/2000/svg" width="1024" height="1024" viewBox="0 0 1024 1024">
  
      <defs>
        <radialGradient id="g" cx="50%" cy="45%" r="70%">
          <stop offset="0%" stop-color="#fef3c7"/>
          <stop offset="65%" stop-color="#2563eb"/>
          <stop offset="100%" stop-color="#111827"/>
        </radialGradient>
      </defs>
      <rect width="1024" height="1024" fill="url(#g)"/>
    
  <polygon points="512,170 820,512 512,854 204,512" fill="#fef3c7" stroke="#e5e7eb" stroke-width="6"/>

  <g transform="translate(512 508) rotate(208)">
    <circle cx="0" cy="0" r="174" fill="#fef3c7" opacity="0.22"/>
    <path d="M0 -164 A 164 164 0 1 1 0 164 A 82 82 0 1 0 0 -164" fill="#fb7185"/>
    <path d="M0 164 A 164 164 0 1 1 0 -164 A 82 82 0 1 0 0 164" fill="#2563eb"/>
  </g>

  <g opacity="0.94">
    <g transform="rotate(-23 512 512)"><rect x="339" y="312" width="61" height="14" rx="5" fill="#111827"/><rect x="420" y="312" width="61" height="14" rx="5" fill="#111827"/><rect x="339" y="348" width="61" height="14" rx="5" fill="#111827"/><rect x="420" y="348" width="61" height="14" rx="5" fill="#111827"/><rect x="339" y="384" width="142" height="14" rx="5" fill="#111827"/></g>
    <g transform="translate(380 0) rotate(23 512 512)"><rect x="315" y="288" width="67" height="14" rx="5" fill="#111827"/><rect x="402" y="288" width="67" height="14" rx="5" fill="#111827"/><rect x="315" y="324" width="67" height="14" rx="5" fill="#111827"/><rect x="402" y="324" width="67" height="14" rx="5" fill="#111827"/><rect x="315" y="360" width="67" height="14" rx="5" fill="#111827"/><rect x="402" y="360" width="67" height="14" rx="5" fill="#111827"/></g>
    <g transform="translate(0 380) rotate(23 512 512)"><rect x="323" y="280" width="130" height="14" rx="5" fill="#111827"/><rect x="323" y="316" width="55" height="14" rx="5" fill="#111827"/><rect x="398" y="316" width="55" height="14" rx="5" fill="#111827"/><rect x="323" y="352" width="130" height="14" rx="5" fill="#111827"/></g>
    <g transform="translate(380 380) rotate(-23 512 512)"><rect x="331" y="296" width="61" height="14" rx="5" fill="#111827"/><rect x="412" y="296" width="61" height="14" rx="5" fill="#111827"/><rect x="331" y="332" width="61" height="14" rx="5" fill="#111827"/><rect x="412" y="332" width="61" height="14" rx="5" fill="#111827"/><rect x="331" y="368" width="142" height="14" rx="5" fill="#111827"/></g>
  </g>

  <text x="770.1" y="543.7" text-anchor="middle" dominant-baseline="middle" font-size="23" fill="#fb7185" opacity="0.75">✺</text><text x="634.6" y="716.0" text-anchor="middle" dominant-baseline="middle" font-size="40" fill="#2563eb" opacity="0.75">⟡</text><text x="479.7" y="775.0" text-anchor="middle" dominant-baseline="middle" font-size="21" fill="#fb7185" opacity="0.75">⬟</text><text x="328.9" y="695.1" text-anchor="middle" dominant-baseline="middle" font-size="45" fill="#2563eb" opacity="0.75">⬢</text><text x="267.0" y="507.7" text-anchor="middle" dominant-baseline="middle" font-size="20" fill="#fb7185" opacity="0.75">✪</text><text x="387.5" y="296.4" text-anchor="middle" dominant-baseline="middle" font-size="47" fill="#2563eb" opacity="0.75">✺</text><text x="547.8" y="257.5" text-anchor="middle" dominant-baseline="middle" font-size="38" fill="#fb7185" opacity="0.75">⟡</text><text x="705.4" y="371.5" text-anchor="middle" dominant-baseline="middle" font-size="23" fill="#2563eb" opacity="0.75">⬟</text>

  <text x="512" y="900" text-anchor="middle" font-size="38" font-family="Inter, Arial, sans-serif" fill="#fef3c7">March 1st Spirit #4</text>
  <text x="512" y="942" text-anchor="middle" font-size="22" font-family="Inter, Arial, sans-serif" fill="#e5e7eb">대한독립 만세 · Unique Edition</text>
</svg>