<?xml version="1.0" encoding="UTF-8"?>
<svg xmlns="http://www.w3.org/2000/svg" width="1024" height="1024" viewBox="0 0 1024 1024">
  <rect width="1024" height="1024" fill="#172554"/><path d="M-40 120 Q 256 81 512 120 T 1064 120" stroke="#dc2626" stroke-width="10" fill="none" opacity="0.35"/><path d="M-40 212 Q 256 178 512 212 T 1064 212" stroke="#38bdf8" stroke-width="12" fill="none" opacity="0.35"/><path d="M-40 304 Q 256 257 512 304 T 1064 304" stroke="#dc2626" stroke-width="14" fill="none" opacity="0.35"/><path d="M-40 396 Q 256 353 512 396 T 1064 396" stroke="#38bdf8" stroke-width="10" fill="none" opacity="0.35"/><path d="M-40 488 Q 256 463 512 488 T 1064 488" stroke="#dc2626" stroke-width="12" fill="none" opacity="0.35"/><path d="M-40 580 Q 256 543 512 580 T 1064 580" stroke="#38bdf8" stroke-width="14" fill="none" opacity="0.35"/><path d="M-40 672 Q 256 652 512 672 T 1064 672" stroke="#dc2626" stroke-width="10" fill="none" opacity="0.35"/><path d="M-40 764 Q 256 745 512 764 T 1064 764" stroke="#38bdf8" stroke-width="12" fill="none" opacity="0.35"/><path d="M-40 856 Q 256 832 512 856 T 1064 856" stroke="#dc2626" stroke-width="14" fill="none" opacity="0.35"/><path d="M-40 948 Q 256 908 512 948 T 1064 948" stroke="#38bdf8" stroke-width="10" fill="none" opacity="0.35"/>
  <path d="M512 170 L790 300 L735 650 Q700 790 512 860 Q324 790 289 650 L234 300 Z" fill="#ffffff" stroke="#e2e8f0" stroke-width="6"/>

  <g transform="translate(512 514) rotate(315)">
    <circle cx="0" cy="0" r="137" fill="#ffffff" opacity="0.22"/>
    <path d="M0 -127 A 127 127 0 1 1 0 127 A 63.5 63.5 0 1 0 0 -127" fill="#dc2626"/>
    <path d="M0 127 A 127 127 0 1 1 0 -127 A 63.5 63.5 0 1 0 0 127" fill="#38bdf8"/>
  </g>

  <g opacity="0.94">
    <g transform="rotate(-23 512 512)"><rect x="347" y="312" width="61" height="14" rx="5" fill="#111827"/><rect x="428" y="312" width="61" height="14" rx="5" fill="#111827"/><rect x="347" y="348" width="142" height="14" rx="5" fill="#111827"/><rect x="347" y="384" width="61" height="14" rx="5" fill="#111827"/><rect x="428" y="384" width="61" height="14" rx="5" fill="#111827"/></g>
    <g transform="translate(380 0) rotate(23 512 512)"><rect x="339" y="296" width="61" height="14" rx="5" fill="#111827"/><rect x="420" y="296" width="61" height="14" rx="5" fill="#111827"/><rect x="339" y="332" width="142" height="14" rx="5" fill="#111827"/><rect x="339" y="368" width="61" height="14" rx="5" fill="#111827"/><rect x="420" y="368" width="61" height="14" rx="5" fill="#111827"/></g>
    <g transform="translate(0 380) rotate(23 512 512)"><rect x="315" y="288" width="67" height="14" rx="5" fill="#111827"/><rect x="402" y="288" width="67" height="14" rx="5" fill="#111827"/><rect x="315" y="324" width="67" height="14" rx="5" fill="#111827"/><rect x="402" y="324" width="67" height="14" rx="5" fill="#111827"/><rect x="315" y="360" width="67" height="14" rx="5" fill="#111827"/><rect x="402" y="360" width="67" height="14" rx="5" fill="#111827"/></g>
    <g transform="translate(380 380) rotate(-23 512 512)"><rect x="323" y="288" width="154" height="14" rx="5" fill="#111827"/><rect x="323" y="324" width="154" height="14" rx="5" fill="#111827"/><rect x="323" y="360" width="67" height="14" rx="5" fill="#111827"/><rect x="410" y="360" width="67" height="14" rx="5" fill="#111827"/></g>
  </g>

  <text x="792.7" y="566.6" text-anchor="middle" dominant-baseline="middle" font-size="25" fill="#dc2626" opacity="0.75">◆</text><text x="754.7" y="706.4" text-anchor="middle" dominant-baseline="middle" font-size="27" fill="#38bdf8" opacity="0.75">●</text><text x="636.9" y="772.6" text-anchor="middle" dominant-baseline="middle" font-size="29" fill="#dc2626" opacity="0.75">■</text><text x="547.9" y="807.8" text-anchor="middle" dominant-baseline="middle" font-size="33" fill="#38bdf8" opacity="0.75">⬢</text><text x="329.6" y="765.1" text-anchor="middle" dominant-baseline="middle" font-size="24" fill="#dc2626" opacity="0.75">▲</text><text x="278.9" y="697.7" text-anchor="middle" dominant-baseline="middle" font-size="49" fill="#38bdf8" opacity="0.75">◆</text><text x="189.9" y="562.1" text-anchor="middle" dominant-baseline="middle" font-size="48" fill="#dc2626" opacity="0.75">●</text><text x="222.4" y="413.2" text-anchor="middle" dominant-baseline="middle" font-size="44" fill="#38bdf8" opacity="0.75">■</text><text x="343.2" y="275.0" text-anchor="middle" dominant-baseline="middle" font-size="43" fill="#dc2626" opacity="0.75">⬢</text><text x="485.7" y="197.1" text-anchor="middle" dominant-baseline="middle" font-size="43" fill="#38bdf8" opacity="0.75">▲</text><text x="581.8" y="207.9" text-anchor="middle" dominant-baseline="middle" font-size="42" fill="#dc2626" opacity="0.75">◆</text><text x="727.9" y="285.4" text-anchor="middle" dominant-baseline="middle" font-size="37" fill="#38bdf8" opacity="0.75">●</text><text x="793.5" y="411.2" text-anchor="middle" dominant-baseline="middle" font-size="41" fill="#dc2626" opacity="0.75">■</text>

  <text x="512" y="900" text-anchor="middle" font-size="38" font-family="Inter, Arial, sans-serif" fill="#ffffff">March 1st Spirit #41</text>
  <text x="512" y="942" text-anchor="middle" font-size="22" font-family="Inter, Arial, sans-serif" fill="#e2e8f0">대한독립 만세 · Unique Edition</text>
</svg>