<?xml version="1.0" encoding="UTF-8"?>
<svg xmlns="http://www.w3.org/2000/svg" width="1024" height="1024" viewBox="0 0 1024 1024">
  <rect width="1024" height="1024" fill="#111827"/><rect x="-256" y="-80" width="36" height="1200" transform="rotate(20 512 512)" fill="#e5e7eb" opacity="0.28"/><rect x="-192" y="-80" width="36" height="1200" transform="rotate(20 512 512)" fill="#2563eb" opacity="0.28"/><rect x="-128" y="-80" width="36" height="1200" transform="rotate(20 512 512)" fill="#e5e7eb" opacity="0.28"/><rect x="-64" y="-80" width="36" height="1200" transform="rotate(20 512 512)" fill="#2563eb" opacity="0.28"/><rect x="0" y="-80" width="36" height="1200" transform="rotate(20 512 512)" fill="#e5e7eb" opacity="0.28"/><rect x="64" y="-80" width="36" height="1200" transform="rotate(20 512 512)" fill="#2563eb" opacity="0.28"/><rect x="128" y="-80" width="36" height="1200" transform="rotate(20 512 512)" fill="#e5e7eb" opacity="0.28"/><rect x="192" y="-80" width="36" height="1200" transform="rotate(20 512 512)" fill="#2563eb" opacity="0.28"/><rect x="256" y="-80" width="36" height="1200" transform="rotate(20 512 512)" fill="#e5e7eb" opacity="0.28"/><rect x="320" y="-80" width="36" height="1200" transform="rotate(20 512 512)" fill="#2563eb" opacity="0.28"/><rect x="384" y="-80" width="36" height="1200" transform="rotate(20 512 512)" fill="#e5e7eb" opacity="0.28"/><rect x="448" y="-80" width="36" height="1200" transform="rotate(20 512 512)" fill="#2563eb" opacity="0.28"/><rect x="512" y="-80" width="36" height="1200" transform="rotate(20 512 512)" fill="#e5e7eb" opacity="0.28"/><rect x="576" y="-80" width="36" height="1200" transform="rotate(20 512 512)" fill="#2563eb" opacity="0.28"/><rect x="640" y="-80" width="36" height="1200" transform="rotate(20 512 512)" fill="#e5e7eb" opacity="0.28"/><rect x="704" y="-80" width="36" height="1200" transform="rotate(20 512 512)" fill="#2563eb" opacity="0.28"/><rect x="768" y="-80" width="36" height="1200" transform="rotate(20 512 512)" fill="#e5e7eb" opacity="0.28"/><rect x="832" y="-80" width="36" height="1200" transform="rotate(20 512 512)" fill="#2563eb" opacity="0.28"/><rect x="896" y="-80" width="36" height="1200" transform="rotate(20 512 512)" fill="#e5e7eb" opacity="0.28"/><rect x="960" y="-80" width="36" height="1200" transform="rotate(20 512 512)" fill="#2563eb" opacity="0.28"/><rect x="1024" y="-80" width="36" height="1200" transform="rotate(20 512 512)" fill="#e5e7eb" opacity="0.28"/><rect x="1088" y="-80" width="36" height="1200" transform="rotate(20 512 512)" fill="#2563eb" opacity="0.28"/><rect x="1152" y="-80" width="36" height="1200" transform="rotate(20 512 512)" fill="#e5e7eb" opacity="0.28"/><rect x="1216" y="-80" width="36" height="1200" transform="rotate(20 512 512)" fill="#2563eb" opacity="0.28"/><rect x="1280" y="-80" width="36" height="1200" transform="rotate(20 512 512)" fill="#e5e7eb" opacity="0.28"/><rect x="1344" y="-80" width="36" height="1200" transform="rotate(20 512 512)" fill="#2563eb" opacity="0.28"/><rect x="1408" y="-80" width="36" height="1200" transform="rotate(20 512 512)" fill="#e5e7eb" opacity="0.28"/><rect x="1472" y="-80" width="36" height="1200" transform="rotate(20 512 512)" fill="#2563eb" opacity="0.28"/>
  <polygon points="512,170 780,330 780,690 512,850 244,690 244,330" fill="#fef3c7" stroke="#e5e7eb" stroke-width="6"/>

  <g transform="translate(512 521) rotate(256)">
    <circle cx="0" cy="0" r="159" fill="#fef3c7" opacity="0.22"/>
    <path d="M0 -149 A 149 149 0 1 1 0 149 A 74.5 74.5 0 1 0 0 -149" fill="#fb7185"/>
    <path d="M0 149 A 149 149 0 1 1 0 -149 A 74.5 74.5 0 1 0 0 149" fill="#2563eb"/>
  </g>

  <g opacity="0.94">
    <g transform="rotate(-23 512 512)"><rect x="347" y="304" width="118" height="14" rx="5" fill="#111827"/><rect x="347" y="340" width="118" height="14" rx="5" fill="#111827"/><rect x="347" y="376" width="118" height="14" rx="5" fill="#111827"/></g>
    <g transform="translate(380 0) rotate(23 512 512)"><rect x="339" y="288" width="130" height="14" rx="5" fill="#111827"/><rect x="339" y="324" width="55" height="14" rx="5" fill="#111827"/><rect x="414" y="324" width="55" height="14" rx="5" fill="#111827"/><rect x="339" y="360" width="55" height="14" rx="5" fill="#111827"/><rect x="414" y="360" width="55" height="14" rx="5" fill="#111827"/></g>
    <g transform="translate(0 380) rotate(23 512 512)"><rect x="347" y="312" width="67" height="14" rx="5" fill="#111827"/><rect x="434" y="312" width="67" height="14" rx="5" fill="#111827"/><rect x="347" y="348" width="67" height="14" rx="5" fill="#111827"/><rect x="434" y="348" width="67" height="14" rx="5" fill="#111827"/><rect x="347" y="384" width="67" height="14" rx="5" fill="#111827"/><rect x="434" y="384" width="67" height="14" rx="5" fill="#111827"/></g>
    <g transform="translate(380 380) rotate(-23 512 512)"><rect x="339" y="296" width="67" height="14" rx="5" fill="#111827"/><rect x="426" y="296" width="67" height="14" rx="5" fill="#111827"/><rect x="339" y="332" width="67" height="14" rx="5" fill="#111827"/><rect x="426" y="332" width="67" height="14" rx="5" fill="#111827"/><rect x="339" y="368" width="67" height="14" rx="5" fill="#111827"/><rect x="426" y="368" width="67" height="14" rx="5" fill="#111827"/></g>
  </g>

  <text x="790.5" y="556.1" text-anchor="middle" dominant-baseline="middle" font-size="38" fill="#fb7185" opacity="0.75">✹</text><text x="727.7" y="672.7" text-anchor="middle" dominant-baseline="middle" font-size="42" fill="#2563eb" opacity="0.75">✷</text><text x="641.3" y="759.2" text-anchor="middle" dominant-baseline="middle" font-size="40" fill="#fb7185" opacity="0.75">✦</text><text x="501.7" y="795.8" text-anchor="middle" dominant-baseline="middle" font-size="30" fill="#2563eb" opacity="0.75">✶</text><text x="385.4" y="762.9" text-anchor="middle" dominant-baseline="middle" font-size="45" fill="#fb7185" opacity="0.75">✺</text><text x="287.9" y="666.2" text-anchor="middle" dominant-baseline="middle" font-size="33" fill="#2563eb" opacity="0.75">✹</text><text x="205.0" y="511.2" text-anchor="middle" dominant-baseline="middle" font-size="38" fill="#fb7185" opacity="0.75">✷</text><text x="237.0" y="384.7" text-anchor="middle" dominant-baseline="middle" font-size="44" fill="#2563eb" opacity="0.75">✦</text><text x="333.5" y="287.3" text-anchor="middle" dominant-baseline="middle" font-size="48" fill="#fb7185" opacity="0.75">✶</text><text x="453.3" y="230.1" text-anchor="middle" dominant-baseline="middle" font-size="26" fill="#2563eb" opacity="0.75">✺</text><text x="583.9" y="221.8" text-anchor="middle" dominant-baseline="middle" font-size="36" fill="#fb7185" opacity="0.75">✹</text><text x="737.3" y="299.1" text-anchor="middle" dominant-baseline="middle" font-size="32" fill="#2563eb" opacity="0.75">✷</text><text x="762.0" y="402.3" text-anchor="middle" dominant-baseline="middle" font-size="21" fill="#fb7185" opacity="0.75">✦</text>

  <text x="512" y="900" text-anchor="middle" font-size="38" font-family="Inter, Arial, sans-serif" fill="#fef3c7">March 1st Spirit #43</text>
  <text x="512" y="942" text-anchor="middle" font-size="22" font-family="Inter, Arial, sans-serif" fill="#e5e7eb">대한독립 만세 · Unique Edition</text>
</svg>