<?xml version="1.0" encoding="UTF-8"?>
<svg xmlns="http://www.w3.org/2000/svg" width="1024" height="1024" viewBox="0 0 1024 1024">
  <rect width="1024" height="1024" fill="#111827"/><rect x="-256" y="-80" width="36" height="1200" transform="rotate(20 512 512)" fill="#e5e7eb" opacity="0.28"/><rect x="-192" y="-80" width="36" height="1200" transform="rotate(20 512 512)" fill="#2563eb" opacity="0.28"/><rect x="-128" y="-80" width="36" height="1200" transform="rotate(20 512 512)" fill="#e5e7eb" opacity="0.28"/><rect x="-64" y="-80" width="36" height="1200" transform="rotate(20 512 512)" fill="#2563eb" opacity="0.28"/><rect x="0" y="-80" width="36" height="1200" transform="rotate(20 512 512)" fill="#e5e7eb" opacity="0.28"/><rect x="64" y="-80" width="36" height="1200" transform="rotate(20 512 512)" fill="#2563eb" opacity="0.28"/><rect x="128" y="-80" width="36" height="1200" transform="rotate(20 512 512)" fill="#e5e7eb" opacity="0.28"/><rect x="192" y="-80" width="36" height="1200" transform="rotate(20 512 512)" fill="#2563eb" opacity="0.28"/><rect x="256" y="-80" width="36" height="1200" transform="rotate(20 512 512)" fill="#e5e7eb" opacity="0.28"/><rect x="320" y="-80" width="36" height="1200" transform="rotate(20 512 512)" fill="#2563eb" opacity="0.28"/><rect x="384" y="-80" width="36" height="1200" transform="rotate(20 512 512)" fill="#e5e7eb" opacity="0.28"/><rect x="448" y="-80" width="36" height="1200" transform="rotate(20 512 512)" fill="#2563eb" opacity="0.28"/><rect x="512" y="-80" width="36" height="1200" transform="rotate(20 512 512)" fill="#e5e7eb" opacity="0.28"/><rect x="576" y="-80" width="36" height="1200" transform="rotate(20 512 512)" fill="#2563eb" opacity="0.28"/><rect x="640" y="-80" width="36" height="1200" transform="rotate(20 512 512)" fill="#e5e7eb" opacity="0.28"/><rect x="704" y="-80" width="36" height="1200" transform="rotate(20 512 512)" fill="#2563eb" opacity="0.28"/><rect x="768" y="-80" width="36" height="1200" transform="rotate(20 512 512)" fill="#e5e7eb" opacity="0.28"/><rect x="832" y="-80" width="36" height="1200" transform="rotate(20 512 512)" fill="#2563eb" opacity="0.28"/><rect x="896" y="-80" width="36" height="1200" transform="rotate(20 512 512)" fill="#e5e7eb" opacity="0.28"/><rect x="960" y="-80" width="36" height="1200" transform="rotate(20 512 512)" fill="#2563eb" opacity="0.28"/><rect x="1024" y="-80" width="36" height="1200" transform="rotate(20 512 512)" fill="#e5e7eb" opacity="0.28"/><rect x="1088" y="-80" width="36" height="1200" transform="rotate(20 512 512)" fill="#2563eb" opacity="0.28"/><rect x="1152" y="-80" width="36" height="1200" transform="rotate(20 512 512)" fill="#e5e7eb" opacity="0.28"/><rect x="1216" y="-80" width="36" height="1200" transform="rotate(20 512 512)" fill="#2563eb" opacity="0.28"/><rect x="1280" y="-80" width="36" height="1200" transform="rotate(20 512 512)" fill="#e5e7eb" opacity="0.28"/><rect x="1344" y="-80" width="36" height="1200" transform="rotate(20 512 512)" fill="#2563eb" opacity="0.28"/><rect x="1408" y="-80" width="36" height="1200" transform="rotate(20 512 512)" fill="#e5e7eb" opacity="0.28"/><rect x="1472" y="-80" width="36" height="1200" transform="rotate(20 512 512)" fill="#2563eb" opacity="0.28"/>
  <polygon points="512,170 820,512 512,854 204,512" fill="#fef3c7" stroke="#e5e7eb" stroke-width="6"/>

  <g transform="translate(512 517) rotate(65)">
    <circle cx="0" cy="0" r="131" fill="#fef3c7" opacity="0.22"/>
    <path d="M0 -121 A 121 121 0 1 1 0 121 A 60.5 60.5 0 1 0 0 -121" fill="#fb7185"/>
    <path d="M0 121 A 121 121 0 1 1 0 -121 A 60.5 60.5 0 1 0 0 121" fill="#2563eb"/>
  </g>

  <g opacity="0.94">
    <g transform="rotate(-23 512 512)"><rect x="331" y="304" width="154" height="14" rx="5" fill="#111827"/><rect x="331" y="340" width="154" height="14" rx="5" fill="#111827"/><rect x="331" y="376" width="67" height="14" rx="5" fill="#111827"/><rect x="418" y="376" width="67" height="14" rx="5" fill="#111827"/></g>
    <g transform="translate(380 0) rotate(23 512 512)"><rect x="323" y="296" width="118" height="14" rx="5" fill="#111827"/><rect x="323" y="332" width="118" height="14" rx="5" fill="#111827"/><rect x="323" y="368" width="118" height="14" rx="5" fill="#111827"/></g>
    <g transform="translate(0 380) rotate(23 512 512)"><rect x="331" y="304" width="154" height="14" rx="5" fill="#111827"/><rect x="331" y="340" width="154" height="14" rx="5" fill="#111827"/><rect x="331" y="376" width="67" height="14" rx="5" fill="#111827"/><rect x="418" y="376" width="67" height="14" rx="5" fill="#111827"/></g>
    <g transform="translate(380 380) rotate(-23 512 512)"><rect x="323" y="304" width="67" height="14" rx="5" fill="#111827"/><rect x="410" y="304" width="67" height="14" rx="5" fill="#111827"/><rect x="323" y="340" width="67" height="14" rx="5" fill="#111827"/><rect x="410" y="340" width="67" height="14" rx="5" fill="#111827"/><rect x="323" y="376" width="67" height="14" rx="5" fill="#111827"/><rect x="410" y="376" width="67" height="14" rx="5" fill="#111827"/></g>
  </g>

  <text x="824.4" y="601.6" text-anchor="middle" dominant-baseline="middle" font-size="34" fill="#fb7185" opacity="0.75">✷</text><text x="713.3" y="769.7" text-anchor="middle" dominant-baseline="middle" font-size="28" fill="#2563eb" opacity="0.75">✦</text><text x="512.0" y="838.0" text-anchor="middle" dominant-baseline="middle" font-size="28" fill="#fb7185" opacity="0.75">✶</text><text x="244.2" y="706.6" text-anchor="middle" dominant-baseline="middle" font-size="21" fill="#2563eb" opacity="0.75">✺</text><text x="212.2" y="437.2" text-anchor="middle" dominant-baseline="middle" font-size="22" fill="#fb7185" opacity="0.75">✹</text><text x="360.0" y="248.7" text-anchor="middle" dominant-baseline="middle" font-size="42" fill="#2563eb" opacity="0.75">✷</text><text x="612.9" y="182.1" text-anchor="middle" dominant-baseline="middle" font-size="46" fill="#fb7185" opacity="0.75">✦</text><text x="747.2" y="284.8" text-anchor="middle" dominant-baseline="middle" font-size="49" fill="#2563eb" opacity="0.75">✶</text>

  <text x="512" y="900" text-anchor="middle" font-size="38" font-family="Inter, Arial, sans-serif" fill="#fef3c7">March 1st Spirit #44</text>
  <text x="512" y="942" text-anchor="middle" font-size="22" font-family="Inter, Arial, sans-serif" fill="#e5e7eb">대한독립 만세 · Unique Edition</text>
</svg>