<?xml version="1.0" encoding="UTF-8"?>
<svg xmlns="http://www.w3.org/2000/svg" width="1024" height="1024" viewBox="0 0 1024 1024">
  
      <defs>
        <radialGradient id="g" cx="50%" cy="45%" r="70%">
          <stop offset="0%" stop-color="#ffffff"/>
          <stop offset="65%" stop-color="#38bdf8"/>
          <stop offset="100%" stop-color="#172554"/>
        </radialGradient>
      </defs>
      <rect width="1024" height="1024" fill="url(#g)"/>
    
  <polygon points="512,170 820,512 512,854 204,512" fill="#ffffff" stroke="#e2e8f0" stroke-width="6"/>

  <g transform="translate(512 513) rotate(306)">
    <circle cx="0" cy="0" r="128" fill="#ffffff" opacity="0.22"/>
    <path d="M0 -118 A 118 118 0 1 1 0 118 A 59 59 0 1 0 0 -118" fill="#dc2626"/>
    <path d="M0 118 A 118 118 0 1 1 0 -118 A 59 59 0 1 0 0 118" fill="#38bdf8"/>
  </g>

  <g opacity="0.94">
    <g transform="rotate(-23 512 512)"><rect x="331" y="288" width="49" height="14" rx="5" fill="#111827"/><rect x="400" y="288" width="49" height="14" rx="5" fill="#111827"/><rect x="331" y="324" width="118" height="14" rx="5" fill="#111827"/><rect x="331" y="360" width="118" height="14" rx="5" fill="#111827"/></g>
    <g transform="translate(380 0) rotate(23 512 512)"><rect x="347" y="304" width="130" height="14" rx="5" fill="#111827"/><rect x="347" y="340" width="55" height="14" rx="5" fill="#111827"/><rect x="422" y="340" width="55" height="14" rx="5" fill="#111827"/><rect x="347" y="376" width="55" height="14" rx="5" fill="#111827"/><rect x="422" y="376" width="55" height="14" rx="5" fill="#111827"/></g>
    <g transform="translate(0 380) rotate(23 512 512)"><rect x="315" y="304" width="130" height="14" rx="5" fill="#111827"/><rect x="315" y="340" width="55" height="14" rx="5" fill="#111827"/><rect x="390" y="340" width="55" height="14" rx="5" fill="#111827"/><rect x="315" y="376" width="130" height="14" rx="5" fill="#111827"/></g>
    <g transform="translate(380 380) rotate(-23 512 512)"><rect x="347" y="280" width="49" height="14" rx="5" fill="#111827"/><rect x="416" y="280" width="49" height="14" rx="5" fill="#111827"/><rect x="347" y="316" width="118" height="14" rx="5" fill="#111827"/><rect x="347" y="352" width="118" height="14" rx="5" fill="#111827"/></g>
  </g>

  <text x="763.4" y="570.0" text-anchor="middle" dominant-baseline="middle" font-size="27" fill="#dc2626" opacity="0.75">▣</text><text x="751.1" y="655.7" text-anchor="middle" dominant-baseline="middle" font-size="21" fill="#38bdf8" opacity="0.75">▤</text><text x="586.0" y="788.3" text-anchor="middle" dominant-baseline="middle" font-size="31" fill="#dc2626" opacity="0.75">▥</text><text x="437.7" y="754.9" text-anchor="middle" dominant-baseline="middle" font-size="23" fill="#38bdf8" opacity="0.75">▦</text><text x="315.6" y="701.6" text-anchor="middle" dominant-baseline="middle" font-size="32" fill="#dc2626" opacity="0.75">▧</text><text x="242.5" y="584.2" text-anchor="middle" dominant-baseline="middle" font-size="36" fill="#38bdf8" opacity="0.75">▣</text><text x="237.1" y="453.6" text-anchor="middle" dominant-baseline="middle" font-size="29" fill="#dc2626" opacity="0.75">▤</text><text x="306.3" y="313.3" text-anchor="middle" dominant-baseline="middle" font-size="21" fill="#38bdf8" opacity="0.75">▥</text><text x="434.4" y="273.3" text-anchor="middle" dominant-baseline="middle" font-size="48" fill="#dc2626" opacity="0.75">▦</text><text x="516.8" y="236.0" text-anchor="middle" dominant-baseline="middle" font-size="39" fill="#38bdf8" opacity="0.75">▧</text><text x="697.5" y="313.1" text-anchor="middle" dominant-baseline="middle" font-size="33" fill="#dc2626" opacity="0.75">▣</text><text x="794.6" y="431.0" text-anchor="middle" dominant-baseline="middle" font-size="42" fill="#38bdf8" opacity="0.75">▤</text>

  <text x="512" y="900" text-anchor="middle" font-size="38" font-family="Inter, Arial, sans-serif" fill="#ffffff">March 1st Spirit #45</text>
  <text x="512" y="942" text-anchor="middle" font-size="22" font-family="Inter, Arial, sans-serif" fill="#e2e8f0">대한독립 만세 · Unique Edition</text>
</svg>