<?xml version="1.0" encoding="UTF-8"?>
<svg xmlns="http://www.w3.org/2000/svg" width="1024" height="1024" viewBox="0 0 1024 1024">
  <rect width="1024" height="1024" fill="#172554"/><path d="M-40 120 Q 256 74 512 120 T 1064 120" stroke="#dc2626" stroke-width="10" fill="none" opacity="0.35"/><path d="M-40 212 Q 256 179 512 212 T 1064 212" stroke="#38bdf8" stroke-width="12" fill="none" opacity="0.35"/><path d="M-40 304 Q 256 264 512 304 T 1064 304" stroke="#dc2626" stroke-width="14" fill="none" opacity="0.35"/><path d="M-40 396 Q 256 360 512 396 T 1064 396" stroke="#38bdf8" stroke-width="10" fill="none" opacity="0.35"/><path d="M-40 488 Q 256 470 512 488 T 1064 488" stroke="#dc2626" stroke-width="12" fill="none" opacity="0.35"/><path d="M-40 580 Q 256 547 512 580 T 1064 580" stroke="#38bdf8" stroke-width="14" fill="none" opacity="0.35"/><path d="M-40 672 Q 256 639 512 672 T 1064 672" stroke="#dc2626" stroke-width="10" fill="none" opacity="0.35"/><path d="M-40 764 Q 256 745 512 764 T 1064 764" stroke="#38bdf8" stroke-width="12" fill="none" opacity="0.35"/><path d="M-40 856 Q 256 818 512 856 T 1064 856" stroke="#dc2626" stroke-width="14" fill="none" opacity="0.35"/><path d="M-40 948 Q 256 917 512 948 T 1064 948" stroke="#38bdf8" stroke-width="10" fill="none" opacity="0.35"/>
  <circle cx="512" cy="512" r="330" fill="#ffffff" stroke="#e2e8f0" stroke-width="6"/>

  <g transform="translate(512 517) rotate(217)">
    <circle cx="0" cy="0" r="171" fill="#ffffff" opacity="0.22"/>
    <path d="M0 -161 A 161 161 0 1 1 0 161 A 80.5 80.5 0 1 0 0 -161" fill="#dc2626"/>
    <path d="M0 161 A 161 161 0 1 1 0 -161 A 80.5 80.5 0 1 0 0 161" fill="#38bdf8"/>
  </g>

  <g opacity="0.94">
    <g transform="rotate(-23 512 512)"><rect x="347" y="312" width="67" height="14" rx="5" fill="#111827"/><rect x="434" y="312" width="67" height="14" rx="5" fill="#111827"/><rect x="347" y="348" width="67" height="14" rx="5" fill="#111827"/><rect x="434" y="348" width="67" height="14" rx="5" fill="#111827"/><rect x="347" y="384" width="67" height="14" rx="5" fill="#111827"/><rect x="434" y="384" width="67" height="14" rx="5" fill="#111827"/></g>
    <g transform="translate(380 0) rotate(23 512 512)"><rect x="315" y="304" width="61" height="14" rx="5" fill="#111827"/><rect x="396" y="304" width="61" height="14" rx="5" fill="#111827"/><rect x="315" y="340" width="61" height="14" rx="5" fill="#111827"/><rect x="396" y="340" width="61" height="14" rx="5" fill="#111827"/><rect x="315" y="376" width="142" height="14" rx="5" fill="#111827"/></g>
    <g transform="translate(0 380) rotate(23 512 512)"><rect x="331" y="296" width="130" height="14" rx="5" fill="#111827"/><rect x="331" y="332" width="55" height="14" rx="5" fill="#111827"/><rect x="406" y="332" width="55" height="14" rx="5" fill="#111827"/><rect x="331" y="368" width="130" height="14" rx="5" fill="#111827"/></g>
    <g transform="translate(380 380) rotate(-23 512 512)"><rect x="331" y="312" width="130" height="14" rx="5" fill="#111827"/><rect x="331" y="348" width="55" height="14" rx="5" fill="#111827"/><rect x="406" y="348" width="55" height="14" rx="5" fill="#111827"/><rect x="331" y="384" width="55" height="14" rx="5" fill="#111827"/><rect x="406" y="384" width="55" height="14" rx="5" fill="#111827"/></g>
  </g>

  <text x="777.6" y="583.2" text-anchor="middle" dominant-baseline="middle" font-size="33" fill="#dc2626" opacity="0.75">✶</text><text x="744.1" y="646.0" text-anchor="middle" dominant-baseline="middle" font-size="45" fill="#38bdf8" opacity="0.75">✺</text><text x="597.6" y="760.7" text-anchor="middle" dominant-baseline="middle" font-size="26" fill="#dc2626" opacity="0.75">✹</text><text x="480.1" y="772.0" text-anchor="middle" dominant-baseline="middle" font-size="40" fill="#38bdf8" opacity="0.75">✷</text><text x="330.6" y="681.1" text-anchor="middle" dominant-baseline="middle" font-size="25" fill="#dc2626" opacity="0.75">✦</text><text x="279.9" y="646.0" text-anchor="middle" dominant-baseline="middle" font-size="27" fill="#38bdf8" opacity="0.75">✶</text><text x="242.0" y="488.4" text-anchor="middle" dominant-baseline="middle" font-size="42" fill="#dc2626" opacity="0.75">✺</text><text x="337.6" y="331.4" text-anchor="middle" dominant-baseline="middle" font-size="41" fill="#38bdf8" opacity="0.75">✹</text><text x="416.7" y="263.7" text-anchor="middle" dominant-baseline="middle" font-size="48" fill="#dc2626" opacity="0.75">✷</text><text x="551.9" y="260.1" text-anchor="middle" dominant-baseline="middle" font-size="49" fill="#38bdf8" opacity="0.75">✦</text><text x="664.6" y="294.1" text-anchor="middle" dominant-baseline="middle" font-size="39" fill="#dc2626" opacity="0.75">✶</text><text x="747.4" y="430.9" text-anchor="middle" dominant-baseline="middle" font-size="41" fill="#38bdf8" opacity="0.75">✺</text>

  <text x="512" y="900" text-anchor="middle" font-size="38" font-family="Inter, Arial, sans-serif" fill="#ffffff">March 1st Spirit #46</text>
  <text x="512" y="942" text-anchor="middle" font-size="22" font-family="Inter, Arial, sans-serif" fill="#e2e8f0">대한독립 만세 · Unique Edition</text>
</svg>