<?xml version="1.0" encoding="UTF-8"?>
<svg xmlns="http://www.w3.org/2000/svg" width="1024" height="1024" viewBox="0 0 1024 1024">
  <rect width="1024" height="1024" fill="#172554"/><path d="M-40 120 Q 256 94 512 120 T 1064 120" stroke="#dc2626" stroke-width="10" fill="none" opacity="0.35"/><path d="M-40 212 Q 256 180 512 212 T 1064 212" stroke="#38bdf8" stroke-width="12" fill="none" opacity="0.35"/><path d="M-40 304 Q 256 279 512 304 T 1064 304" stroke="#dc2626" stroke-width="14" fill="none" opacity="0.35"/><path d="M-40 396 Q 256 366 512 396 T 1064 396" stroke="#38bdf8" stroke-width="10" fill="none" opacity="0.35"/><path d="M-40 488 Q 256 461 512 488 T 1064 488" stroke="#dc2626" stroke-width="12" fill="none" opacity="0.35"/><path d="M-40 580 Q 256 534 512 580 T 1064 580" stroke="#38bdf8" stroke-width="14" fill="none" opacity="0.35"/><path d="M-40 672 Q 256 644 512 672 T 1064 672" stroke="#dc2626" stroke-width="10" fill="none" opacity="0.35"/><path d="M-40 764 Q 256 725 512 764 T 1064 764" stroke="#38bdf8" stroke-width="12" fill="none" opacity="0.35"/><path d="M-40 856 Q 256 824 512 856 T 1064 856" stroke="#dc2626" stroke-width="14" fill="none" opacity="0.35"/><path d="M-40 948 Q 256 912 512 948 T 1064 948" stroke="#38bdf8" stroke-width="10" fill="none" opacity="0.35"/>
  <polygon points="512,170 820,512 512,854 204,512" fill="#ffffff" stroke="#e2e8f0" stroke-width="6"/>

  <g transform="translate(512 509) rotate(306)">
    <circle cx="0" cy="0" r="158" fill="#ffffff" opacity="0.22"/>
    <path d="M0 -148 A 148 148 0 1 1 0 148 A 74 74 0 1 0 0 -148" fill="#dc2626"/>
    <path d="M0 148 A 148 148 0 1 1 0 -148 A 74 74 0 1 0 0 148" fill="#38bdf8"/>
  </g>

  <g opacity="0.94">
    <g transform="rotate(-23 512 512)"><rect x="339" y="296" width="61" height="14" rx="5" fill="#111827"/><rect x="420" y="296" width="61" height="14" rx="5" fill="#111827"/><rect x="339" y="332" width="142" height="14" rx="5" fill="#111827"/><rect x="339" y="368" width="61" height="14" rx="5" fill="#111827"/><rect x="420" y="368" width="61" height="14" rx="5" fill="#111827"/></g>
    <g transform="translate(380 0) rotate(23 512 512)"><rect x="315" y="288" width="61" height="14" rx="5" fill="#111827"/><rect x="396" y="288" width="61" height="14" rx="5" fill="#111827"/><rect x="315" y="324" width="142" height="14" rx="5" fill="#111827"/><rect x="315" y="360" width="61" height="14" rx="5" fill="#111827"/><rect x="396" y="360" width="61" height="14" rx="5" fill="#111827"/></g>
    <g transform="translate(0 380) rotate(23 512 512)"><rect x="323" y="296" width="118" height="14" rx="5" fill="#111827"/><rect x="323" y="332" width="118" height="14" rx="5" fill="#111827"/><rect x="323" y="368" width="118" height="14" rx="5" fill="#111827"/></g>
    <g transform="translate(380 380) rotate(-23 512 512)"><rect x="331" y="312" width="130" height="14" rx="5" fill="#111827"/><rect x="331" y="348" width="55" height="14" rx="5" fill="#111827"/><rect x="406" y="348" width="55" height="14" rx="5" fill="#111827"/><rect x="331" y="384" width="55" height="14" rx="5" fill="#111827"/><rect x="406" y="384" width="55" height="14" rx="5" fill="#111827"/></g>
  </g>

  <text x="754.7" y="524.7" text-anchor="middle" dominant-baseline="middle" font-size="22" fill="#dc2626" opacity="0.75">✺</text><text x="670.4" y="698.9" text-anchor="middle" dominant-baseline="middle" font-size="30" fill="#38bdf8" opacity="0.75">✹</text><text x="548.7" y="756.3" text-anchor="middle" dominant-baseline="middle" font-size="20" fill="#dc2626" opacity="0.75">✷</text><text x="420.6" y="736.1" text-anchor="middle" dominant-baseline="middle" font-size="48" fill="#38bdf8" opacity="0.75">✦</text><text x="290.9" y="650.7" text-anchor="middle" dominant-baseline="middle" font-size="44" fill="#dc2626" opacity="0.75">✶</text><text x="249.3" y="574.4" text-anchor="middle" dominant-baseline="middle" font-size="47" fill="#38bdf8" opacity="0.75">✺</text><text x="284.4" y="399.2" text-anchor="middle" dominant-baseline="middle" font-size="32" fill="#dc2626" opacity="0.75">✹</text><text x="397.0" y="264.4" text-anchor="middle" dominant-baseline="middle" font-size="43" fill="#38bdf8" opacity="0.75">✷</text><text x="511.2" y="268.0" text-anchor="middle" dominant-baseline="middle" font-size="33" fill="#dc2626" opacity="0.75">✦</text><text x="618.8" y="298.2" text-anchor="middle" dominant-baseline="middle" font-size="26" fill="#38bdf8" opacity="0.75">✶</text><text x="767.3" y="430.4" text-anchor="middle" dominant-baseline="middle" font-size="31" fill="#dc2626" opacity="0.75">✺</text>

  <text x="512" y="900" text-anchor="middle" font-size="38" font-family="Inter, Arial, sans-serif" fill="#ffffff">March 1st Spirit #47</text>
  <text x="512" y="942" text-anchor="middle" font-size="22" font-family="Inter, Arial, sans-serif" fill="#e2e8f0">대한독립 만세 · Unique Edition</text>
</svg>