<?xml version="1.0" encoding="UTF-8"?>
<svg xmlns="http://www.w3.org/2000/svg" width="1024" height="1024" viewBox="0 0 1024 1024">
  
      <defs>
        <radialGradient id="g" cx="50%" cy="45%" r="70%">
          <stop offset="0%" stop-color="#f8fafc"/>
          <stop offset="65%" stop-color="#1d4ed8"/>
          <stop offset="100%" stop-color="#0b1020"/>
        </radialGradient>
      </defs>
      <rect width="1024" height="1024" fill="url(#g)"/>
    
  <path d="M512 170 L790 300 L735 650 Q700 790 512 860 Q324 790 289 650 L234 300 Z" fill="#f8fafc" stroke="#111827" stroke-width="6"/>

  <g transform="translate(512 520) rotate(101)">
    <circle cx="0" cy="0" r="159" fill="#f8fafc" opacity="0.22"/>
    <path d="M0 -149 A 149 149 0 1 1 0 149 A 74.5 74.5 0 1 0 0 -149" fill="#ef4444"/>
    <path d="M0 149 A 149 149 0 1 1 0 -149 A 74.5 74.5 0 1 0 0 149" fill="#1d4ed8"/>
  </g>

  <g opacity="0.94">
    <g transform="rotate(-23 512 512)"><rect x="347" y="304" width="130" height="14" rx="5" fill="#111827"/><rect x="347" y="340" width="55" height="14" rx="5" fill="#111827"/><rect x="422" y="340" width="55" height="14" rx="5" fill="#111827"/><rect x="347" y="376" width="55" height="14" rx="5" fill="#111827"/><rect x="422" y="376" width="55" height="14" rx="5" fill="#111827"/></g>
    <g transform="translate(380 0) rotate(23 512 512)"><rect x="347" y="304" width="130" height="14" rx="5" fill="#111827"/><rect x="347" y="340" width="55" height="14" rx="5" fill="#111827"/><rect x="422" y="340" width="55" height="14" rx="5" fill="#111827"/><rect x="347" y="376" width="55" height="14" rx="5" fill="#111827"/><rect x="422" y="376" width="55" height="14" rx="5" fill="#111827"/></g>
    <g transform="translate(0 380) rotate(23 512 512)"><rect x="323" y="280" width="130" height="14" rx="5" fill="#111827"/><rect x="323" y="316" width="55" height="14" rx="5" fill="#111827"/><rect x="398" y="316" width="55" height="14" rx="5" fill="#111827"/><rect x="323" y="352" width="130" height="14" rx="5" fill="#111827"/></g>
    <g transform="translate(380 380) rotate(-23 512 512)"><rect x="347" y="288" width="61" height="14" rx="5" fill="#111827"/><rect x="428" y="288" width="61" height="14" rx="5" fill="#111827"/><rect x="347" y="324" width="61" height="14" rx="5" fill="#111827"/><rect x="428" y="324" width="61" height="14" rx="5" fill="#111827"/><rect x="347" y="360" width="142" height="14" rx="5" fill="#111827"/></g>
  </g>

  <text x="799.6" y="527.1" text-anchor="middle" dominant-baseline="middle" font-size="36" fill="#ef4444" opacity="0.75">▧</text><text x="728.9" y="719.2" text-anchor="middle" dominant-baseline="middle" font-size="39" fill="#1d4ed8" opacity="0.75">▣</text><text x="647.7" y="782.9" text-anchor="middle" dominant-baseline="middle" font-size="27" fill="#ef4444" opacity="0.75">▤</text><text x="460.4" y="802.4" text-anchor="middle" dominant-baseline="middle" font-size="37" fill="#1d4ed8" opacity="0.75">▥</text><text x="342.5" y="747.3" text-anchor="middle" dominant-baseline="middle" font-size="46" fill="#ef4444" opacity="0.75">▦</text><text x="295.3" y="690.9" text-anchor="middle" dominant-baseline="middle" font-size="42" fill="#1d4ed8" opacity="0.75">▧</text><text x="217.4" y="526.6" text-anchor="middle" dominant-baseline="middle" font-size="38" fill="#ef4444" opacity="0.75">▣</text><text x="267.5" y="388.3" text-anchor="middle" dominant-baseline="middle" font-size="22" fill="#1d4ed8" opacity="0.75">▤</text><text x="346.7" y="252.1" text-anchor="middle" dominant-baseline="middle" font-size="27" fill="#ef4444" opacity="0.75">▥</text><text x="428.8" y="217.5" text-anchor="middle" dominant-baseline="middle" font-size="40" fill="#1d4ed8" opacity="0.75">▦</text><text x="609.5" y="257.0" text-anchor="middle" dominant-baseline="middle" font-size="49" fill="#ef4444" opacity="0.75">▧</text><text x="716.2" y="319.0" text-anchor="middle" dominant-baseline="middle" font-size="26" fill="#1d4ed8" opacity="0.75">▣</text><text x="802.0" y="408.2" text-anchor="middle" dominant-baseline="middle" font-size="44" fill="#ef4444" opacity="0.75">▤</text>

  <text x="512" y="900" text-anchor="middle" font-size="38" font-family="Inter, Arial, sans-serif" fill="#f8fafc">March 1st Spirit #49</text>
  <text x="512" y="942" text-anchor="middle" font-size="22" font-family="Inter, Arial, sans-serif" fill="#111827">대한독립 만세 · Unique Edition</text>
</svg>