<?xml version="1.0" encoding="UTF-8"?>
<svg xmlns="http://www.w3.org/2000/svg" width="1024" height="1024" viewBox="0 0 1024 1024">
  <rect width="1024" height="1024" fill="#172554"/><path d="M-40 120 Q 256 77 512 120 T 1064 120" stroke="#dc2626" stroke-width="10" fill="none" opacity="0.35"/><path d="M-40 212 Q 256 166 512 212 T 1064 212" stroke="#38bdf8" stroke-width="12" fill="none" opacity="0.35"/><path d="M-40 304 Q 256 277 512 304 T 1064 304" stroke="#dc2626" stroke-width="14" fill="none" opacity="0.35"/><path d="M-40 396 Q 256 358 512 396 T 1064 396" stroke="#38bdf8" stroke-width="10" fill="none" opacity="0.35"/><path d="M-40 488 Q 256 452 512 488 T 1064 488" stroke="#dc2626" stroke-width="12" fill="none" opacity="0.35"/><path d="M-40 580 Q 256 560 512 580 T 1064 580" stroke="#38bdf8" stroke-width="14" fill="none" opacity="0.35"/><path d="M-40 672 Q 256 653 512 672 T 1064 672" stroke="#dc2626" stroke-width="10" fill="none" opacity="0.35"/><path d="M-40 764 Q 256 725 512 764 T 1064 764" stroke="#38bdf8" stroke-width="12" fill="none" opacity="0.35"/><path d="M-40 856 Q 256 809 512 856 T 1064 856" stroke="#dc2626" stroke-width="14" fill="none" opacity="0.35"/><path d="M-40 948 Q 256 917 512 948 T 1064 948" stroke="#38bdf8" stroke-width="10" fill="none" opacity="0.35"/>
  <g><circle cx="512" cy="512" r="310" fill="#ffffff" stroke="#e2e8f0" stroke-width="6"/><circle cx="512" cy="512" r="265" fill="none" stroke="#38bdf8" opacity="0.35" stroke-width="8"/></g>

  <g transform="translate(512 505) rotate(74)">
    <circle cx="0" cy="0" r="128" fill="#ffffff" opacity="0.22"/>
    <path d="M0 -118 A 118 118 0 1 1 0 118 A 59 59 0 1 0 0 -118" fill="#dc2626"/>
    <path d="M0 118 A 118 118 0 1 1 0 -118 A 59 59 0 1 0 0 118" fill="#38bdf8"/>
  </g>

  <g opacity="0.94">
    <g transform="rotate(-23 512 512)"><rect x="315" y="312" width="154" height="14" rx="5" fill="#111827"/><rect x="315" y="348" width="154" height="14" rx="5" fill="#111827"/><rect x="315" y="384" width="67" height="14" rx="5" fill="#111827"/><rect x="402" y="384" width="67" height="14" rx="5" fill="#111827"/></g>
    <g transform="translate(380 0) rotate(23 512 512)"><rect x="347" y="304" width="118" height="14" rx="5" fill="#111827"/><rect x="347" y="340" width="118" height="14" rx="5" fill="#111827"/><rect x="347" y="376" width="118" height="14" rx="5" fill="#111827"/></g>
    <g transform="translate(0 380) rotate(23 512 512)"><rect x="315" y="304" width="130" height="14" rx="5" fill="#111827"/><rect x="315" y="340" width="55" height="14" rx="5" fill="#111827"/><rect x="390" y="340" width="55" height="14" rx="5" fill="#111827"/><rect x="315" y="376" width="130" height="14" rx="5" fill="#111827"/></g>
    <g transform="translate(380 380) rotate(-23 512 512)"><rect x="331" y="296" width="130" height="14" rx="5" fill="#111827"/><rect x="331" y="332" width="55" height="14" rx="5" fill="#111827"/><rect x="406" y="332" width="55" height="14" rx="5" fill="#111827"/><rect x="331" y="368" width="130" height="14" rx="5" fill="#111827"/></g>
  </g>

  <text x="822.9" y="555.7" text-anchor="middle" dominant-baseline="middle" font-size="33" fill="#dc2626" opacity="0.75">☼</text><text x="786.3" y="674.9" text-anchor="middle" dominant-baseline="middle" font-size="45" fill="#38bdf8" opacity="0.75">☾</text><text x="630.8" y="812.4" text-anchor="middle" dominant-baseline="middle" font-size="32" fill="#dc2626" opacity="0.75">✸</text><text x="533.3" y="828.3" text-anchor="middle" dominant-baseline="middle" font-size="44" fill="#38bdf8" opacity="0.75">✹</text><text x="428.9" y="848.9" text-anchor="middle" dominant-baseline="middle" font-size="45" fill="#dc2626" opacity="0.75">✦</text><text x="235.8" y="708.5" text-anchor="middle" dominant-baseline="middle" font-size="36" fill="#38bdf8" opacity="0.75">☼</text><text x="226.8" y="643.3" text-anchor="middle" dominant-baseline="middle" font-size="21" fill="#dc2626" opacity="0.75">☾</text><text x="199.0" y="506.5" text-anchor="middle" dominant-baseline="middle" font-size="44" fill="#38bdf8" opacity="0.75">✸</text><text x="205.6" y="357.8" text-anchor="middle" dominant-baseline="middle" font-size="25" fill="#dc2626" opacity="0.75">✹</text><text x="363.9" y="216.0" text-anchor="middle" dominant-baseline="middle" font-size="25" fill="#38bdf8" opacity="0.75">✦</text><text x="496.4" y="200.4" text-anchor="middle" dominant-baseline="middle" font-size="35" fill="#dc2626" opacity="0.75">☼</text><text x="598.9" y="206.1" text-anchor="middle" dominant-baseline="middle" font-size="39" fill="#38bdf8" opacity="0.75">☾</text><text x="793.9" y="311.4" text-anchor="middle" dominant-baseline="middle" font-size="35" fill="#dc2626" opacity="0.75">✸</text><text x="815.1" y="438.0" text-anchor="middle" dominant-baseline="middle" font-size="22" fill="#38bdf8" opacity="0.75">✹</text>

  <text x="512" y="900" text-anchor="middle" font-size="38" font-family="Inter, Arial, sans-serif" fill="#ffffff">March 1st Spirit #50</text>
  <text x="512" y="942" text-anchor="middle" font-size="22" font-family="Inter, Arial, sans-serif" fill="#e2e8f0">대한독립 만세 · Unique Edition</text>
</svg>