<?xml version="1.0" encoding="UTF-8"?>
<svg xmlns="http://www.w3.org/2000/svg" width="1024" height="1024" viewBox="0 0 1024 1024">
  <rect width="1024" height="1024" fill="#1e1b4b"/><line x1="0" y1="0" x2="0" y2="1024" stroke="#22c55e" opacity="0.18"/><line x1="0" y1="0" x2="1024" y2="0" stroke="#fef2f2" opacity="0.14"/><line x1="64" y1="0" x2="64" y2="1024" stroke="#22c55e" opacity="0.18"/><line x1="0" y1="64" x2="1024" y2="64" stroke="#fef2f2" opacity="0.14"/><line x1="128" y1="0" x2="128" y2="1024" stroke="#22c55e" opacity="0.18"/><line x1="0" y1="128" x2="1024" y2="128" stroke="#fef2f2" opacity="0.14"/><line x1="192" y1="0" x2="192" y2="1024" stroke="#22c55e" opacity="0.18"/><line x1="0" y1="192" x2="1024" y2="192" stroke="#fef2f2" opacity="0.14"/><line x1="256" y1="0" x2="256" y2="1024" stroke="#22c55e" opacity="0.18"/><line x1="0" y1="256" x2="1024" y2="256" stroke="#fef2f2" opacity="0.14"/><line x1="320" y1="0" x2="320" y2="1024" stroke="#22c55e" opacity="0.18"/><line x1="0" y1="320" x2="1024" y2="320" stroke="#fef2f2" opacity="0.14"/><line x1="384" y1="0" x2="384" y2="1024" stroke="#22c55e" opacity="0.18"/><line x1="0" y1="384" x2="1024" y2="384" stroke="#fef2f2" opacity="0.14"/><line x1="448" y1="0" x2="448" y2="1024" stroke="#22c55e" opacity="0.18"/><line x1="0" y1="448" x2="1024" y2="448" stroke="#fef2f2" opacity="0.14"/><line x1="512" y1="0" x2="512" y2="1024" stroke="#22c55e" opacity="0.18"/><line x1="0" y1="512" x2="1024" y2="512" stroke="#fef2f2" opacity="0.14"/><line x1="576" y1="0" x2="576" y2="1024" stroke="#22c55e" opacity="0.18"/><line x1="0" y1="576" x2="1024" y2="576" stroke="#fef2f2" opacity="0.14"/><line x1="640" y1="0" x2="640" y2="1024" stroke="#22c55e" opacity="0.18"/><line x1="0" y1="640" x2="1024" y2="640" stroke="#fef2f2" opacity="0.14"/><line x1="704" y1="0" x2="704" y2="1024" stroke="#22c55e" opacity="0.18"/><line x1="0" y1="704" x2="1024" y2="704" stroke="#fef2f2" opacity="0.14"/><line x1="768" y1="0" x2="768" y2="1024" stroke="#22c55e" opacity="0.18"/><line x1="0" y1="768" x2="1024" y2="768" stroke="#fef2f2" opacity="0.14"/><line x1="832" y1="0" x2="832" y2="1024" stroke="#22c55e" opacity="0.18"/><line x1="0" y1="832" x2="1024" y2="832" stroke="#fef2f2" opacity="0.14"/><line x1="896" y1="0" x2="896" y2="1024" stroke="#22c55e" opacity="0.18"/><line x1="0" y1="896" x2="1024" y2="896" stroke="#fef2f2" opacity="0.14"/><line x1="960" y1="0" x2="960" y2="1024" stroke="#22c55e" opacity="0.18"/><line x1="0" y1="960" x2="1024" y2="960" stroke="#fef2f2" opacity="0.14"/><line x1="1024" y1="0" x2="1024" y2="1024" stroke="#22c55e" opacity="0.18"/><line x1="0" y1="1024" x2="1024" y2="1024" stroke="#fef2f2" opacity="0.14"/>
  <path d="M512 170 L790 300 L735 650 Q700 790 512 860 Q324 790 289 650 L234 300 Z" fill="#f1f5f9" stroke="#fef2f2" stroke-width="6"/>

  <g transform="translate(512 512) rotate(86)">
    <circle cx="0" cy="0" r="166" fill="#f1f5f9" opacity="0.22"/>
    <path d="M0 -156 A 156 156 0 1 1 0 156 A 78 78 0 1 0 0 -156" fill="#ef4444"/>
    <path d="M0 156 A 156 156 0 1 1 0 -156 A 78 78 0 1 0 0 156" fill="#22c55e"/>
  </g>

  <g opacity="0.94">
    <g transform="rotate(-23 512 512)"><rect x="323" y="280" width="130" height="14" rx="5" fill="#111827"/><rect x="323" y="316" width="55" height="14" rx="5" fill="#111827"/><rect x="398" y="316" width="55" height="14" rx="5" fill="#111827"/><rect x="323" y="352" width="130" height="14" rx="5" fill="#111827"/></g>
    <g transform="translate(380 0) rotate(23 512 512)"><rect x="323" y="312" width="49" height="14" rx="5" fill="#111827"/><rect x="392" y="312" width="49" height="14" rx="5" fill="#111827"/><rect x="323" y="348" width="118" height="14" rx="5" fill="#111827"/><rect x="323" y="384" width="118" height="14" rx="5" fill="#111827"/></g>
    <g transform="translate(0 380) rotate(23 512 512)"><rect x="323" y="312" width="49" height="14" rx="5" fill="#111827"/><rect x="392" y="312" width="49" height="14" rx="5" fill="#111827"/><rect x="323" y="348" width="118" height="14" rx="5" fill="#111827"/><rect x="323" y="384" width="118" height="14" rx="5" fill="#111827"/></g>
    <g transform="translate(380 380) rotate(-23 512 512)"><rect x="347" y="312" width="67" height="14" rx="5" fill="#111827"/><rect x="434" y="312" width="67" height="14" rx="5" fill="#111827"/><rect x="347" y="348" width="67" height="14" rx="5" fill="#111827"/><rect x="434" y="348" width="67" height="14" rx="5" fill="#111827"/><rect x="347" y="384" width="67" height="14" rx="5" fill="#111827"/><rect x="434" y="384" width="67" height="14" rx="5" fill="#111827"/></g>
  </g>

  <text x="803.6" y="527.3" text-anchor="middle" dominant-baseline="middle" font-size="35" fill="#ef4444" opacity="0.75">⬟</text><text x="747.6" y="696.1" text-anchor="middle" dominant-baseline="middle" font-size="40" fill="#22c55e" opacity="0.75">⬢</text><text x="517.4" y="821.0" text-anchor="middle" dominant-baseline="middle" font-size="34" fill="#ef4444" opacity="0.75">✪</text><text x="369.4" y="791.8" text-anchor="middle" dominant-baseline="middle" font-size="24" fill="#22c55e" opacity="0.75">✺</text><text x="251.5" y="617.3" text-anchor="middle" dominant-baseline="middle" font-size="44" fill="#ef4444" opacity="0.75">⟡</text><text x="205.4" y="495.9" text-anchor="middle" dominant-baseline="middle" font-size="30" fill="#22c55e" opacity="0.75">⬟</text><text x="310.9" y="324.5" text-anchor="middle" dominant-baseline="middle" font-size="33" fill="#ef4444" opacity="0.75">⬢</text><text x="497.6" y="236.4" text-anchor="middle" dominant-baseline="middle" font-size="35" fill="#22c55e" opacity="0.75">✪</text><text x="602.8" y="248.2" text-anchor="middle" dominant-baseline="middle" font-size="32" fill="#ef4444" opacity="0.75">✺</text><text x="794.2" y="374.4" text-anchor="middle" dominant-baseline="middle" font-size="43" fill="#22c55e" opacity="0.75">⟡</text>

  <text x="512" y="900" text-anchor="middle" font-size="38" font-family="Inter, Arial, sans-serif" fill="#f1f5f9">March 1st Spirit #51</text>
  <text x="512" y="942" text-anchor="middle" font-size="22" font-family="Inter, Arial, sans-serif" fill="#fef2f2">대한독립 만세 · Unique Edition</text>
</svg>