<?xml version="1.0" encoding="UTF-8"?>
<svg xmlns="http://www.w3.org/2000/svg" width="1024" height="1024" viewBox="0 0 1024 1024">
  <rect width="1024" height="1024" fill="#1e1b4b"/><path d="M-40 120 Q 256 85 512 120 T 1064 120" stroke="#ef4444" stroke-width="10" fill="none" opacity="0.35"/><path d="M-40 212 Q 256 172 512 212 T 1064 212" stroke="#22c55e" stroke-width="12" fill="none" opacity="0.35"/><path d="M-40 304 Q 256 257 512 304 T 1064 304" stroke="#ef4444" stroke-width="14" fill="none" opacity="0.35"/><path d="M-40 396 Q 256 359 512 396 T 1064 396" stroke="#22c55e" stroke-width="10" fill="none" opacity="0.35"/><path d="M-40 488 Q 256 452 512 488 T 1064 488" stroke="#ef4444" stroke-width="12" fill="none" opacity="0.35"/><path d="M-40 580 Q 256 559 512 580 T 1064 580" stroke="#22c55e" stroke-width="14" fill="none" opacity="0.35"/><path d="M-40 672 Q 256 640 512 672 T 1064 672" stroke="#ef4444" stroke-width="10" fill="none" opacity="0.35"/><path d="M-40 764 Q 256 737 512 764 T 1064 764" stroke="#22c55e" stroke-width="12" fill="none" opacity="0.35"/><path d="M-40 856 Q 256 827 512 856 T 1064 856" stroke="#ef4444" stroke-width="14" fill="none" opacity="0.35"/><path d="M-40 948 Q 256 924 512 948 T 1064 948" stroke="#22c55e" stroke-width="10" fill="none" opacity="0.35"/>
  <g><circle cx="512" cy="512" r="310" fill="#f1f5f9" stroke="#fef2f2" stroke-width="6"/><circle cx="512" cy="512" r="265" fill="none" stroke="#22c55e" opacity="0.35" stroke-width="8"/></g>

  <g transform="translate(512 509) rotate(1)">
    <circle cx="0" cy="0" r="179" fill="#f1f5f9" opacity="0.22"/>
    <path d="M0 -169 A 169 169 0 1 1 0 169 A 84.5 84.5 0 1 0 0 -169" fill="#ef4444"/>
    <path d="M0 169 A 169 169 0 1 1 0 -169 A 84.5 84.5 0 1 0 0 169" fill="#22c55e"/>
  </g>

  <g opacity="0.94">
    <g transform="rotate(-23 512 512)"><rect x="315" y="288" width="61" height="14" rx="5" fill="#111827"/><rect x="396" y="288" width="61" height="14" rx="5" fill="#111827"/><rect x="315" y="324" width="142" height="14" rx="5" fill="#111827"/><rect x="315" y="360" width="61" height="14" rx="5" fill="#111827"/><rect x="396" y="360" width="61" height="14" rx="5" fill="#111827"/></g>
    <g transform="translate(380 0) rotate(23 512 512)"><rect x="315" y="304" width="61" height="14" rx="5" fill="#111827"/><rect x="396" y="304" width="61" height="14" rx="5" fill="#111827"/><rect x="315" y="340" width="61" height="14" rx="5" fill="#111827"/><rect x="396" y="340" width="61" height="14" rx="5" fill="#111827"/><rect x="315" y="376" width="142" height="14" rx="5" fill="#111827"/></g>
    <g transform="translate(0 380) rotate(23 512 512)"><rect x="339" y="288" width="130" height="14" rx="5" fill="#111827"/><rect x="339" y="324" width="55" height="14" rx="5" fill="#111827"/><rect x="414" y="324" width="55" height="14" rx="5" fill="#111827"/><rect x="339" y="360" width="55" height="14" rx="5" fill="#111827"/><rect x="414" y="360" width="55" height="14" rx="5" fill="#111827"/></g>
    <g transform="translate(380 380) rotate(-23 512 512)"><rect x="323" y="304" width="61" height="14" rx="5" fill="#111827"/><rect x="404" y="304" width="61" height="14" rx="5" fill="#111827"/><rect x="323" y="340" width="142" height="14" rx="5" fill="#111827"/><rect x="323" y="376" width="61" height="14" rx="5" fill="#111827"/><rect x="404" y="376" width="61" height="14" rx="5" fill="#111827"/></g>
  </g>

  <text x="827.7" y="584.9" text-anchor="middle" dominant-baseline="middle" font-size="31" fill="#ef4444" opacity="0.75">●</text><text x="738.2" y="687.0" text-anchor="middle" dominant-baseline="middle" font-size="48" fill="#22c55e" opacity="0.75">■</text><text x="577.6" y="806.8" text-anchor="middle" dominant-baseline="middle" font-size="22" fill="#ef4444" opacity="0.75">⬢</text><text x="394.8" y="772.9" text-anchor="middle" dominant-baseline="middle" font-size="26" fill="#22c55e" opacity="0.75">▲</text><text x="303.0" y="714.5" text-anchor="middle" dominant-baseline="middle" font-size="28" fill="#ef4444" opacity="0.75">◆</text><text x="228.7" y="574.1" text-anchor="middle" dominant-baseline="middle" font-size="33" fill="#22c55e" opacity="0.75">●</text><text x="234.5" y="409.0" text-anchor="middle" dominant-baseline="middle" font-size="38" fill="#ef4444" opacity="0.75">■</text><text x="357.4" y="253.7" text-anchor="middle" dominant-baseline="middle" font-size="41" fill="#22c55e" opacity="0.75">⬢</text><text x="527.2" y="203.4" text-anchor="middle" dominant-baseline="middle" font-size="25" fill="#ef4444" opacity="0.75">▲</text><text x="699.2" y="250.0" text-anchor="middle" dominant-baseline="middle" font-size="38" fill="#22c55e" opacity="0.75">◆</text><text x="795.5" y="426.8" text-anchor="middle" dominant-baseline="middle" font-size="49" fill="#ef4444" opacity="0.75">●</text>

  <text x="512" y="900" text-anchor="middle" font-size="38" font-family="Inter, Arial, sans-serif" fill="#f1f5f9">March 1st Spirit #52</text>
  <text x="512" y="942" text-anchor="middle" font-size="22" font-family="Inter, Arial, sans-serif" fill="#fef2f2">대한독립 만세 · Unique Edition</text>
</svg>