<?xml version="1.0" encoding="UTF-8"?>
<svg xmlns="http://www.w3.org/2000/svg" width="1024" height="1024" viewBox="0 0 1024 1024">
  <rect width="1024" height="1024" fill="#0b1020"/><path d="M-40 120 Q 256 99 512 120 T 1064 120" stroke="#ef4444" stroke-width="10" fill="none" opacity="0.35"/><path d="M-40 212 Q 256 180 512 212 T 1064 212" stroke="#1d4ed8" stroke-width="12" fill="none" opacity="0.35"/><path d="M-40 304 Q 256 278 512 304 T 1064 304" stroke="#ef4444" stroke-width="14" fill="none" opacity="0.35"/><path d="M-40 396 Q 256 355 512 396 T 1064 396" stroke="#1d4ed8" stroke-width="10" fill="none" opacity="0.35"/><path d="M-40 488 Q 256 442 512 488 T 1064 488" stroke="#ef4444" stroke-width="12" fill="none" opacity="0.35"/><path d="M-40 580 Q 256 559 512 580 T 1064 580" stroke="#1d4ed8" stroke-width="14" fill="none" opacity="0.35"/><path d="M-40 672 Q 256 635 512 672 T 1064 672" stroke="#ef4444" stroke-width="10" fill="none" opacity="0.35"/><path d="M-40 764 Q 256 736 512 764 T 1064 764" stroke="#1d4ed8" stroke-width="12" fill="none" opacity="0.35"/><path d="M-40 856 Q 256 809 512 856 T 1064 856" stroke="#ef4444" stroke-width="14" fill="none" opacity="0.35"/><path d="M-40 948 Q 256 917 512 948 T 1064 948" stroke="#1d4ed8" stroke-width="10" fill="none" opacity="0.35"/>
  <g><circle cx="512" cy="512" r="310" fill="#f8fafc" stroke="#111827" stroke-width="6"/><circle cx="512" cy="512" r="265" fill="none" stroke="#1d4ed8" opacity="0.35" stroke-width="8"/></g>

  <g transform="translate(512 506) rotate(231)">
    <circle cx="0" cy="0" r="172" fill="#f8fafc" opacity="0.22"/>
    <path d="M0 -162 A 162 162 0 1 1 0 162 A 81 81 0 1 0 0 -162" fill="#ef4444"/>
    <path d="M0 162 A 162 162 0 1 1 0 -162 A 81 81 0 1 0 0 162" fill="#1d4ed8"/>
  </g>

  <g opacity="0.94">
    <g transform="rotate(-23 512 512)"><rect x="347" y="312" width="67" height="14" rx="5" fill="#111827"/><rect x="434" y="312" width="67" height="14" rx="5" fill="#111827"/><rect x="347" y="348" width="67" height="14" rx="5" fill="#111827"/><rect x="434" y="348" width="67" height="14" rx="5" fill="#111827"/><rect x="347" y="384" width="67" height="14" rx="5" fill="#111827"/><rect x="434" y="384" width="67" height="14" rx="5" fill="#111827"/></g>
    <g transform="translate(380 0) rotate(23 512 512)"><rect x="315" y="296" width="49" height="14" rx="5" fill="#111827"/><rect x="384" y="296" width="49" height="14" rx="5" fill="#111827"/><rect x="315" y="332" width="118" height="14" rx="5" fill="#111827"/><rect x="315" y="368" width="118" height="14" rx="5" fill="#111827"/></g>
    <g transform="translate(0 380) rotate(23 512 512)"><rect x="323" y="304" width="67" height="14" rx="5" fill="#111827"/><rect x="410" y="304" width="67" height="14" rx="5" fill="#111827"/><rect x="323" y="340" width="67" height="14" rx="5" fill="#111827"/><rect x="410" y="340" width="67" height="14" rx="5" fill="#111827"/><rect x="323" y="376" width="67" height="14" rx="5" fill="#111827"/><rect x="410" y="376" width="67" height="14" rx="5" fill="#111827"/></g>
    <g transform="translate(380 380) rotate(-23 512 512)"><rect x="331" y="280" width="61" height="14" rx="5" fill="#111827"/><rect x="412" y="280" width="61" height="14" rx="5" fill="#111827"/><rect x="331" y="316" width="142" height="14" rx="5" fill="#111827"/><rect x="331" y="352" width="61" height="14" rx="5" fill="#111827"/><rect x="412" y="352" width="61" height="14" rx="5" fill="#111827"/></g>
  </g>

  <text x="837.4" y="587.1" text-anchor="middle" dominant-baseline="middle" font-size="35" fill="#ef4444" opacity="0.75">✪</text><text x="750.2" y="711.9" text-anchor="middle" dominant-baseline="middle" font-size="40" fill="#1d4ed8" opacity="0.75">✺</text><text x="659.9" y="790.1" text-anchor="middle" dominant-baseline="middle" font-size="49" fill="#ef4444" opacity="0.75">⟡</text><text x="535.0" y="841.2" text-anchor="middle" dominant-baseline="middle" font-size="44" fill="#1d4ed8" opacity="0.75">⬟</text><text x="478.1" y="834.2" text-anchor="middle" dominant-baseline="middle" font-size="30" fill="#ef4444" opacity="0.75">⬢</text><text x="288.2" y="720.7" text-anchor="middle" dominant-baseline="middle" font-size="37" fill="#1d4ed8" opacity="0.75">✪</text><text x="215.0" y="683.5" text-anchor="middle" dominant-baseline="middle" font-size="24" fill="#ef4444" opacity="0.75">✺</text><text x="176.8" y="488.6" text-anchor="middle" dominant-baseline="middle" font-size="42" fill="#1d4ed8" opacity="0.75">⟡</text><text x="216.1" y="398.4" text-anchor="middle" dominant-baseline="middle" font-size="40" fill="#ef4444" opacity="0.75">⬟</text><text x="301.8" y="252.4" text-anchor="middle" dominant-baseline="middle" font-size="38" fill="#1d4ed8" opacity="0.75">⬢</text><text x="352.0" y="223.4" text-anchor="middle" dominant-baseline="middle" font-size="38" fill="#ef4444" opacity="0.75">✪</text><text x="479.9" y="206.7" text-anchor="middle" dominant-baseline="middle" font-size="41" fill="#1d4ed8" opacity="0.75">✺</text><text x="650.2" y="215.6" text-anchor="middle" dominant-baseline="middle" font-size="40" fill="#ef4444" opacity="0.75">⟡</text><text x="731.9" y="292.1" text-anchor="middle" dominant-baseline="middle" font-size="33" fill="#1d4ed8" opacity="0.75">⬟</text><text x="835.6" y="472.3" text-anchor="middle" dominant-baseline="middle" font-size="28" fill="#ef4444" opacity="0.75">⬢</text>

  <text x="512" y="900" text-anchor="middle" font-size="38" font-family="Inter, Arial, sans-serif" fill="#f8fafc">March 1st Spirit #53</text>
  <text x="512" y="942" text-anchor="middle" font-size="22" font-family="Inter, Arial, sans-serif" fill="#111827">대한독립 만세 · Unique Edition</text>
</svg>