<?xml version="1.0" encoding="UTF-8"?>
<svg xmlns="http://www.w3.org/2000/svg" width="1024" height="1024" viewBox="0 0 1024 1024">
  <rect width="1024" height="1024" fill="#111827"/><path d="M-40 120 Q 256 101 512 120 T 1064 120" stroke="#fb7185" stroke-width="10" fill="none" opacity="0.35"/><path d="M-40 212 Q 256 184 512 212 T 1064 212" stroke="#2563eb" stroke-width="12" fill="none" opacity="0.35"/><path d="M-40 304 Q 256 276 512 304 T 1064 304" stroke="#fb7185" stroke-width="14" fill="none" opacity="0.35"/><path d="M-40 396 Q 256 370 512 396 T 1064 396" stroke="#2563eb" stroke-width="10" fill="none" opacity="0.35"/><path d="M-40 488 Q 256 456 512 488 T 1064 488" stroke="#fb7185" stroke-width="12" fill="none" opacity="0.35"/><path d="M-40 580 Q 256 559 512 580 T 1064 580" stroke="#2563eb" stroke-width="14" fill="none" opacity="0.35"/><path d="M-40 672 Q 256 654 512 672 T 1064 672" stroke="#fb7185" stroke-width="10" fill="none" opacity="0.35"/><path d="M-40 764 Q 256 720 512 764 T 1064 764" stroke="#2563eb" stroke-width="12" fill="none" opacity="0.35"/><path d="M-40 856 Q 256 832 512 856 T 1064 856" stroke="#fb7185" stroke-width="14" fill="none" opacity="0.35"/><path d="M-40 948 Q 256 902 512 948 T 1064 948" stroke="#2563eb" stroke-width="10" fill="none" opacity="0.35"/>
  <path d="M512 170 L790 300 L735 650 Q700 790 512 860 Q324 790 289 650 L234 300 Z" fill="#fef3c7" stroke="#e5e7eb" stroke-width="6"/>

  <g transform="translate(512 521) rotate(217)">
    <circle cx="0" cy="0" r="151" fill="#fef3c7" opacity="0.22"/>
    <path d="M0 -141 A 141 141 0 1 1 0 141 A 70.5 70.5 0 1 0 0 -141" fill="#fb7185"/>
    <path d="M0 141 A 141 141 0 1 1 0 -141 A 70.5 70.5 0 1 0 0 141" fill="#2563eb"/>
  </g>

  <g opacity="0.94">
    <g transform="rotate(-23 512 512)"><rect x="315" y="288" width="61" height="14" rx="5" fill="#111827"/><rect x="396" y="288" width="61" height="14" rx="5" fill="#111827"/><rect x="315" y="324" width="142" height="14" rx="5" fill="#111827"/><rect x="315" y="360" width="61" height="14" rx="5" fill="#111827"/><rect x="396" y="360" width="61" height="14" rx="5" fill="#111827"/></g>
    <g transform="translate(380 0) rotate(23 512 512)"><rect x="331" y="288" width="49" height="14" rx="5" fill="#111827"/><rect x="400" y="288" width="49" height="14" rx="5" fill="#111827"/><rect x="331" y="324" width="118" height="14" rx="5" fill="#111827"/><rect x="331" y="360" width="118" height="14" rx="5" fill="#111827"/></g>
    <g transform="translate(0 380) rotate(23 512 512)"><rect x="339" y="280" width="154" height="14" rx="5" fill="#111827"/><rect x="339" y="316" width="154" height="14" rx="5" fill="#111827"/><rect x="339" y="352" width="67" height="14" rx="5" fill="#111827"/><rect x="426" y="352" width="67" height="14" rx="5" fill="#111827"/></g>
    <g transform="translate(380 380) rotate(-23 512 512)"><rect x="339" y="304" width="49" height="14" rx="5" fill="#111827"/><rect x="408" y="304" width="49" height="14" rx="5" fill="#111827"/><rect x="339" y="340" width="118" height="14" rx="5" fill="#111827"/><rect x="339" y="376" width="118" height="14" rx="5" fill="#111827"/></g>
  </g>

  <text x="825.1" y="561.6" text-anchor="middle" dominant-baseline="middle" font-size="35" fill="#fb7185" opacity="0.75">▲</text><text x="763.0" y="655.3" text-anchor="middle" dominant-baseline="middle" font-size="39" fill="#2563eb" opacity="0.75">◆</text><text x="643.0" y="798.5" text-anchor="middle" dominant-baseline="middle" font-size="46" fill="#fb7185" opacity="0.75">●</text><text x="528.0" y="831.6" text-anchor="middle" dominant-baseline="middle" font-size="43" fill="#2563eb" opacity="0.75">■</text><text x="376.5" y="768.4" text-anchor="middle" dominant-baseline="middle" font-size="47" fill="#fb7185" opacity="0.75">⬢</text><text x="296.9" y="746.2" text-anchor="middle" dominant-baseline="middle" font-size="37" fill="#2563eb" opacity="0.75">▲</text><text x="206.7" y="580.9" text-anchor="middle" dominant-baseline="middle" font-size="35" fill="#fb7185" opacity="0.75">◆</text><text x="233.0" y="507.1" text-anchor="middle" dominant-baseline="middle" font-size="36" fill="#2563eb" opacity="0.75">●</text><text x="259.6" y="337.2" text-anchor="middle" dominant-baseline="middle" font-size="21" fill="#fb7185" opacity="0.75">■</text><text x="336.2" y="275.1" text-anchor="middle" dominant-baseline="middle" font-size="34" fill="#2563eb" opacity="0.75">⬢</text><text x="512.8" y="191.0" text-anchor="middle" dominant-baseline="middle" font-size="20" fill="#fb7185" opacity="0.75">▲</text><text x="619.2" y="244.7" text-anchor="middle" dominant-baseline="middle" font-size="41" fill="#2563eb" opacity="0.75">◆</text><text x="710.9" y="295.5" text-anchor="middle" dominant-baseline="middle" font-size="20" fill="#fb7185" opacity="0.75">●</text><text x="788.7" y="396.2" text-anchor="middle" dominant-baseline="middle" font-size="39" fill="#2563eb" opacity="0.75">■</text>

  <text x="512" y="900" text-anchor="middle" font-size="38" font-family="Inter, Arial, sans-serif" fill="#fef3c7">March 1st Spirit #55</text>
  <text x="512" y="942" text-anchor="middle" font-size="22" font-family="Inter, Arial, sans-serif" fill="#e5e7eb">대한독립 만세 · Unique Edition</text>
</svg>