<?xml version="1.0" encoding="UTF-8"?>
<svg xmlns="http://www.w3.org/2000/svg" width="1024" height="1024" viewBox="0 0 1024 1024">
  
      <defs>
        <radialGradient id="g" cx="50%" cy="45%" r="70%">
          <stop offset="0%" stop-color="#f1f5f9"/>
          <stop offset="65%" stop-color="#22c55e"/>
          <stop offset="100%" stop-color="#1e1b4b"/>
        </radialGradient>
      </defs>
      <rect width="1024" height="1024" fill="url(#g)"/>
    
  <g><circle cx="512" cy="512" r="310" fill="#f1f5f9" stroke="#fef2f2" stroke-width="6"/><circle cx="512" cy="512" r="265" fill="none" stroke="#22c55e" opacity="0.35" stroke-width="8"/></g>

  <g transform="translate(512 506) rotate(178)">
    <circle cx="0" cy="0" r="173" fill="#f1f5f9" opacity="0.22"/>
    <path d="M0 -163 A 163 163 0 1 1 0 163 A 81.5 81.5 0 1 0 0 -163" fill="#ef4444"/>
    <path d="M0 163 A 163 163 0 1 1 0 -163 A 81.5 81.5 0 1 0 0 163" fill="#22c55e"/>
  </g>

  <g opacity="0.94">
    <g transform="rotate(-23 512 512)"><rect x="323" y="280" width="61" height="14" rx="5" fill="#111827"/><rect x="404" y="280" width="61" height="14" rx="5" fill="#111827"/><rect x="323" y="316" width="61" height="14" rx="5" fill="#111827"/><rect x="404" y="316" width="61" height="14" rx="5" fill="#111827"/><rect x="323" y="352" width="142" height="14" rx="5" fill="#111827"/></g>
    <g transform="translate(380 0) rotate(23 512 512)"><rect x="331" y="280" width="61" height="14" rx="5" fill="#111827"/><rect x="412" y="280" width="61" height="14" rx="5" fill="#111827"/><rect x="331" y="316" width="142" height="14" rx="5" fill="#111827"/><rect x="331" y="352" width="61" height="14" rx="5" fill="#111827"/><rect x="412" y="352" width="61" height="14" rx="5" fill="#111827"/></g>
    <g transform="translate(0 380) rotate(23 512 512)"><rect x="323" y="288" width="154" height="14" rx="5" fill="#111827"/><rect x="323" y="324" width="154" height="14" rx="5" fill="#111827"/><rect x="323" y="360" width="67" height="14" rx="5" fill="#111827"/><rect x="410" y="360" width="67" height="14" rx="5" fill="#111827"/></g>
    <g transform="translate(380 380) rotate(-23 512 512)"><rect x="315" y="280" width="130" height="14" rx="5" fill="#111827"/><rect x="315" y="316" width="55" height="14" rx="5" fill="#111827"/><rect x="390" y="316" width="55" height="14" rx="5" fill="#111827"/><rect x="315" y="352" width="55" height="14" rx="5" fill="#111827"/><rect x="390" y="352" width="55" height="14" rx="5" fill="#111827"/></g>
  </g>

  <text x="811.0" y="517.2" text-anchor="middle" dominant-baseline="middle" font-size="37" fill="#ef4444" opacity="0.75">■</text><text x="768.5" y="631.6" text-anchor="middle" dominant-baseline="middle" font-size="40" fill="#22c55e" opacity="0.75">⬢</text><text x="690.4" y="776.5" text-anchor="middle" dominant-baseline="middle" font-size="22" fill="#ef4444" opacity="0.75">▲</text><text x="555.4" y="821.0" text-anchor="middle" dominant-baseline="middle" font-size="26" fill="#22c55e" opacity="0.75">◆</text><text x="397.0" y="811.7" text-anchor="middle" dominant-baseline="middle" font-size="35" fill="#ef4444" opacity="0.75">●</text><text x="305.5" y="711.4" text-anchor="middle" dominant-baseline="middle" font-size="25" fill="#22c55e" opacity="0.75">■</text><text x="217.9" y="613.3" text-anchor="middle" dominant-baseline="middle" font-size="43" fill="#ef4444" opacity="0.75">⬢</text><text x="226.0" y="512.0" text-anchor="middle" dominant-baseline="middle" font-size="39" fill="#22c55e" opacity="0.75">▲</text><text x="228.9" y="425.5" text-anchor="middle" dominant-baseline="middle" font-size="37" fill="#ef4444" opacity="0.75">◆</text><text x="318.5" y="281.4" text-anchor="middle" dominant-baseline="middle" font-size="22" fill="#22c55e" opacity="0.75">●</text><text x="442.7" y="211.9" text-anchor="middle" dominant-baseline="middle" font-size="38" fill="#ef4444" opacity="0.75">■</text><text x="562.2" y="195.0" text-anchor="middle" dominant-baseline="middle" font-size="21" fill="#22c55e" opacity="0.75">⬢</text><text x="608.4" y="232.1" text-anchor="middle" dominant-baseline="middle" font-size="42" fill="#ef4444" opacity="0.75">▲</text><text x="758.6" y="339.4" text-anchor="middle" dominant-baseline="middle" font-size="41" fill="#22c55e" opacity="0.75">◆</text><text x="812.4" y="453.6" text-anchor="middle" dominant-baseline="middle" font-size="48" fill="#ef4444" opacity="0.75">●</text>

  <text x="512" y="900" text-anchor="middle" font-size="38" font-family="Inter, Arial, sans-serif" fill="#f1f5f9">March 1st Spirit #58</text>
  <text x="512" y="942" text-anchor="middle" font-size="22" font-family="Inter, Arial, sans-serif" fill="#fef2f2">대한독립 만세 · Unique Edition</text>
</svg>