<?xml version="1.0" encoding="UTF-8"?>
<svg xmlns="http://www.w3.org/2000/svg" width="1024" height="1024" viewBox="0 0 1024 1024">
  <rect width="1024" height="1024" fill="#0f172a"/><line x1="0" y1="0" x2="0" y2="1024" stroke="#0ea5e9" opacity="0.18"/><line x1="0" y1="0" x2="1024" y2="0" stroke="#f8fafc" opacity="0.14"/><line x1="64" y1="0" x2="64" y2="1024" stroke="#0ea5e9" opacity="0.18"/><line x1="0" y1="64" x2="1024" y2="64" stroke="#f8fafc" opacity="0.14"/><line x1="128" y1="0" x2="128" y2="1024" stroke="#0ea5e9" opacity="0.18"/><line x1="0" y1="128" x2="1024" y2="128" stroke="#f8fafc" opacity="0.14"/><line x1="192" y1="0" x2="192" y2="1024" stroke="#0ea5e9" opacity="0.18"/><line x1="0" y1="192" x2="1024" y2="192" stroke="#f8fafc" opacity="0.14"/><line x1="256" y1="0" x2="256" y2="1024" stroke="#0ea5e9" opacity="0.18"/><line x1="0" y1="256" x2="1024" y2="256" stroke="#f8fafc" opacity="0.14"/><line x1="320" y1="0" x2="320" y2="1024" stroke="#0ea5e9" opacity="0.18"/><line x1="0" y1="320" x2="1024" y2="320" stroke="#f8fafc" opacity="0.14"/><line x1="384" y1="0" x2="384" y2="1024" stroke="#0ea5e9" opacity="0.18"/><line x1="0" y1="384" x2="1024" y2="384" stroke="#f8fafc" opacity="0.14"/><line x1="448" y1="0" x2="448" y2="1024" stroke="#0ea5e9" opacity="0.18"/><line x1="0" y1="448" x2="1024" y2="448" stroke="#f8fafc" opacity="0.14"/><line x1="512" y1="0" x2="512" y2="1024" stroke="#0ea5e9" opacity="0.18"/><line x1="0" y1="512" x2="1024" y2="512" stroke="#f8fafc" opacity="0.14"/><line x1="576" y1="0" x2="576" y2="1024" stroke="#0ea5e9" opacity="0.18"/><line x1="0" y1="576" x2="1024" y2="576" stroke="#f8fafc" opacity="0.14"/><line x1="640" y1="0" x2="640" y2="1024" stroke="#0ea5e9" opacity="0.18"/><line x1="0" y1="640" x2="1024" y2="640" stroke="#f8fafc" opacity="0.14"/><line x1="704" y1="0" x2="704" y2="1024" stroke="#0ea5e9" opacity="0.18"/><line x1="0" y1="704" x2="1024" y2="704" stroke="#f8fafc" opacity="0.14"/><line x1="768" y1="0" x2="768" y2="1024" stroke="#0ea5e9" opacity="0.18"/><line x1="0" y1="768" x2="1024" y2="768" stroke="#f8fafc" opacity="0.14"/><line x1="832" y1="0" x2="832" y2="1024" stroke="#0ea5e9" opacity="0.18"/><line x1="0" y1="832" x2="1024" y2="832" stroke="#f8fafc" opacity="0.14"/><line x1="896" y1="0" x2="896" y2="1024" stroke="#0ea5e9" opacity="0.18"/><line x1="0" y1="896" x2="1024" y2="896" stroke="#f8fafc" opacity="0.14"/><line x1="960" y1="0" x2="960" y2="1024" stroke="#0ea5e9" opacity="0.18"/><line x1="0" y1="960" x2="1024" y2="960" stroke="#f8fafc" opacity="0.14"/><line x1="1024" y1="0" x2="1024" y2="1024" stroke="#0ea5e9" opacity="0.18"/><line x1="0" y1="1024" x2="1024" y2="1024" stroke="#f8fafc" opacity="0.14"/>
  <polygon points="512,170 780,330 780,690 512,850 244,690 244,330" fill="#ecfeff" stroke="#f8fafc" stroke-width="6"/>

  <g transform="translate(512 516) rotate(57)">
    <circle cx="0" cy="0" r="148" fill="#ecfeff" opacity="0.22"/>
    <path d="M0 -138 A 138 138 0 1 1 0 138 A 69 69 0 1 0 0 -138" fill="#f97316"/>
    <path d="M0 138 A 138 138 0 1 1 0 -138 A 69 69 0 1 0 0 138" fill="#0ea5e9"/>
  </g>

  <g opacity="0.94">
    <g transform="rotate(-23 512 512)"><rect x="323" y="304" width="67" height="14" rx="5" fill="#111827"/><rect x="410" y="304" width="67" height="14" rx="5" fill="#111827"/><rect x="323" y="340" width="67" height="14" rx="5" fill="#111827"/><rect x="410" y="340" width="67" height="14" rx="5" fill="#111827"/><rect x="323" y="376" width="67" height="14" rx="5" fill="#111827"/><rect x="410" y="376" width="67" height="14" rx="5" fill="#111827"/></g>
    <g transform="translate(380 0) rotate(23 512 512)"><rect x="347" y="312" width="67" height="14" rx="5" fill="#111827"/><rect x="434" y="312" width="67" height="14" rx="5" fill="#111827"/><rect x="347" y="348" width="67" height="14" rx="5" fill="#111827"/><rect x="434" y="348" width="67" height="14" rx="5" fill="#111827"/><rect x="347" y="384" width="67" height="14" rx="5" fill="#111827"/><rect x="434" y="384" width="67" height="14" rx="5" fill="#111827"/></g>
    <g transform="translate(0 380) rotate(23 512 512)"><rect x="323" y="312" width="49" height="14" rx="5" fill="#111827"/><rect x="392" y="312" width="49" height="14" rx="5" fill="#111827"/><rect x="323" y="348" width="118" height="14" rx="5" fill="#111827"/><rect x="323" y="384" width="118" height="14" rx="5" fill="#111827"/></g>
    <g transform="translate(380 380) rotate(-23 512 512)"><rect x="347" y="296" width="154" height="14" rx="5" fill="#111827"/><rect x="347" y="332" width="154" height="14" rx="5" fill="#111827"/><rect x="347" y="368" width="67" height="14" rx="5" fill="#111827"/><rect x="434" y="368" width="67" height="14" rx="5" fill="#111827"/></g>
  </g>

  <text x="846.9" y="517.8" text-anchor="middle" dominant-baseline="middle" font-size="29" fill="#f97316" opacity="0.75">▧</text><text x="739.4" y="716.8" text-anchor="middle" dominant-baseline="middle" font-size="34" fill="#0ea5e9" opacity="0.75">▣</text><text x="606.8" y="842.7" text-anchor="middle" dominant-baseline="middle" font-size="37" fill="#f97316" opacity="0.75">▤</text><text x="422.7" y="823.4" text-anchor="middle" dominant-baseline="middle" font-size="37" fill="#0ea5e9" opacity="0.75">▥</text><text x="344.5" y="780.0" text-anchor="middle" dominant-baseline="middle" font-size="36" fill="#f97316" opacity="0.75">▦</text><text x="196.4" y="608.5" text-anchor="middle" dominant-baseline="middle" font-size="48" fill="#0ea5e9" opacity="0.75">▧</text><text x="182.6" y="423.7" text-anchor="middle" dominant-baseline="middle" font-size="22" fill="#f97316" opacity="0.75">▣</text><text x="223.1" y="338.4" text-anchor="middle" dominant-baseline="middle" font-size="45" fill="#0ea5e9" opacity="0.75">▤</text><text x="411.1" y="182.1" text-anchor="middle" dominant-baseline="middle" font-size="33" fill="#f97316" opacity="0.75">▥</text><text x="566.4" y="168.3" text-anchor="middle" dominant-baseline="middle" font-size="46" fill="#0ea5e9" opacity="0.75">▦</text><text x="727.2" y="246.2" text-anchor="middle" dominant-baseline="middle" font-size="47" fill="#f97316" opacity="0.75">▧</text><text x="825.0" y="404.2" text-anchor="middle" dominant-baseline="middle" font-size="36" fill="#0ea5e9" opacity="0.75">▣</text>

  <text x="512" y="900" text-anchor="middle" font-size="38" font-family="Inter, Arial, sans-serif" fill="#ecfeff">March 1st Spirit #59</text>
  <text x="512" y="942" text-anchor="middle" font-size="22" font-family="Inter, Arial, sans-serif" fill="#f8fafc">대한독립 만세 · Unique Edition</text>
</svg>