<?xml version="1.0" encoding="UTF-8"?>
<svg xmlns="http://www.w3.org/2000/svg" width="1024" height="1024" viewBox="0 0 1024 1024">
  <rect width="1024" height="1024" fill="#0f172a"/><path d="M-40 120 Q 256 84 512 120 T 1064 120" stroke="#f97316" stroke-width="10" fill="none" opacity="0.35"/><path d="M-40 212 Q 256 187 512 212 T 1064 212" stroke="#0ea5e9" stroke-width="12" fill="none" opacity="0.35"/><path d="M-40 304 Q 256 260 512 304 T 1064 304" stroke="#f97316" stroke-width="14" fill="none" opacity="0.35"/><path d="M-40 396 Q 256 373 512 396 T 1064 396" stroke="#0ea5e9" stroke-width="10" fill="none" opacity="0.35"/><path d="M-40 488 Q 256 465 512 488 T 1064 488" stroke="#f97316" stroke-width="12" fill="none" opacity="0.35"/><path d="M-40 580 Q 256 541 512 580 T 1064 580" stroke="#0ea5e9" stroke-width="14" fill="none" opacity="0.35"/><path d="M-40 672 Q 256 642 512 672 T 1064 672" stroke="#f97316" stroke-width="10" fill="none" opacity="0.35"/><path d="M-40 764 Q 256 721 512 764 T 1064 764" stroke="#0ea5e9" stroke-width="12" fill="none" opacity="0.35"/><path d="M-40 856 Q 256 821 512 856 T 1064 856" stroke="#f97316" stroke-width="14" fill="none" opacity="0.35"/><path d="M-40 948 Q 256 914 512 948 T 1064 948" stroke="#0ea5e9" stroke-width="10" fill="none" opacity="0.35"/>
  <circle cx="512" cy="512" r="330" fill="#ecfeff" stroke="#f8fafc" stroke-width="6"/>

  <g transform="translate(512 503) rotate(114)">
    <circle cx="0" cy="0" r="177" fill="#ecfeff" opacity="0.22"/>
    <path d="M0 -167 A 167 167 0 1 1 0 167 A 83.5 83.5 0 1 0 0 -167" fill="#f97316"/>
    <path d="M0 167 A 167 167 0 1 1 0 -167 A 83.5 83.5 0 1 0 0 167" fill="#0ea5e9"/>
  </g>

  <g opacity="0.94">
    <g transform="rotate(-23 512 512)"><rect x="339" y="280" width="154" height="14" rx="5" fill="#111827"/><rect x="339" y="316" width="154" height="14" rx="5" fill="#111827"/><rect x="339" y="352" width="67" height="14" rx="5" fill="#111827"/><rect x="426" y="352" width="67" height="14" rx="5" fill="#111827"/></g>
    <g transform="translate(380 0) rotate(23 512 512)"><rect x="315" y="312" width="154" height="14" rx="5" fill="#111827"/><rect x="315" y="348" width="154" height="14" rx="5" fill="#111827"/><rect x="315" y="384" width="67" height="14" rx="5" fill="#111827"/><rect x="402" y="384" width="67" height="14" rx="5" fill="#111827"/></g>
    <g transform="translate(0 380) rotate(23 512 512)"><rect x="323" y="312" width="49" height="14" rx="5" fill="#111827"/><rect x="392" y="312" width="49" height="14" rx="5" fill="#111827"/><rect x="323" y="348" width="118" height="14" rx="5" fill="#111827"/><rect x="323" y="384" width="118" height="14" rx="5" fill="#111827"/></g>
    <g transform="translate(380 380) rotate(-23 512 512)"><rect x="323" y="280" width="130" height="14" rx="5" fill="#111827"/><rect x="323" y="316" width="55" height="14" rx="5" fill="#111827"/><rect x="398" y="316" width="55" height="14" rx="5" fill="#111827"/><rect x="323" y="352" width="130" height="14" rx="5" fill="#111827"/></g>
  </g>

  <text x="836.2" y="611.1" text-anchor="middle" dominant-baseline="middle" font-size="24" fill="#f97316" opacity="0.75">▣</text><text x="768.7" y="751.4" text-anchor="middle" dominant-baseline="middle" font-size="27" fill="#0ea5e9" opacity="0.75">▤</text><text x="599.9" y="818.6" text-anchor="middle" dominant-baseline="middle" font-size="29" fill="#f97316" opacity="0.75">▥</text><text x="398.1" y="842.9" text-anchor="middle" dominant-baseline="middle" font-size="29" fill="#0ea5e9" opacity="0.75">▦</text><text x="251.5" y="701.3" text-anchor="middle" dominant-baseline="middle" font-size="28" fill="#f97316" opacity="0.75">▧</text><text x="212.7" y="420.5" text-anchor="middle" dominant-baseline="middle" font-size="31" fill="#0ea5e9" opacity="0.75">▣</text><text x="249.7" y="275.8" text-anchor="middle" dominant-baseline="middle" font-size="37" fill="#f97316" opacity="0.75">▤</text><text x="414.3" y="192.6" text-anchor="middle" dominant-baseline="middle" font-size="22" fill="#0ea5e9" opacity="0.75">▥</text><text x="633.4" y="178.4" text-anchor="middle" dominant-baseline="middle" font-size="28" fill="#f97316" opacity="0.75">▦</text><text x="822.1" y="405.2" text-anchor="middle" dominant-baseline="middle" font-size="42" fill="#0ea5e9" opacity="0.75">▧</text>

  <text x="512" y="900" text-anchor="middle" font-size="38" font-family="Inter, Arial, sans-serif" fill="#ecfeff">March 1st Spirit #60</text>
  <text x="512" y="942" text-anchor="middle" font-size="22" font-family="Inter, Arial, sans-serif" fill="#f8fafc">대한독립 만세 · Unique Edition</text>
</svg>