<?xml version="1.0" encoding="UTF-8"?>
<svg xmlns="http://www.w3.org/2000/svg" width="1024" height="1024" viewBox="0 0 1024 1024">
  
      <defs>
        <radialGradient id="g" cx="50%" cy="45%" r="70%">
          <stop offset="0%" stop-color="#ecfeff"/>
          <stop offset="65%" stop-color="#0ea5e9"/>
          <stop offset="100%" stop-color="#0f172a"/>
        </radialGradient>
      </defs>
      <rect width="1024" height="1024" fill="url(#g)"/>
    
  <polygon points="512,170 780,330 780,690 512,850 244,690 244,330" fill="#ecfeff" stroke="#f8fafc" stroke-width="6"/>

  <g transform="translate(512 521) rotate(118)">
    <circle cx="0" cy="0" r="177" fill="#ecfeff" opacity="0.22"/>
    <path d="M0 -167 A 167 167 0 1 1 0 167 A 83.5 83.5 0 1 0 0 -167" fill="#f97316"/>
    <path d="M0 167 A 167 167 0 1 1 0 -167 A 83.5 83.5 0 1 0 0 167" fill="#0ea5e9"/>
  </g>

  <g opacity="0.94">
    <g transform="rotate(-23 512 512)"><rect x="331" y="288" width="49" height="14" rx="5" fill="#111827"/><rect x="400" y="288" width="49" height="14" rx="5" fill="#111827"/><rect x="331" y="324" width="118" height="14" rx="5" fill="#111827"/><rect x="331" y="360" width="118" height="14" rx="5" fill="#111827"/></g>
    <g transform="translate(380 0) rotate(23 512 512)"><rect x="323" y="304" width="61" height="14" rx="5" fill="#111827"/><rect x="404" y="304" width="61" height="14" rx="5" fill="#111827"/><rect x="323" y="340" width="142" height="14" rx="5" fill="#111827"/><rect x="323" y="376" width="61" height="14" rx="5" fill="#111827"/><rect x="404" y="376" width="61" height="14" rx="5" fill="#111827"/></g>
    <g transform="translate(0 380) rotate(23 512 512)"><rect x="331" y="304" width="154" height="14" rx="5" fill="#111827"/><rect x="331" y="340" width="154" height="14" rx="5" fill="#111827"/><rect x="331" y="376" width="67" height="14" rx="5" fill="#111827"/><rect x="418" y="376" width="67" height="14" rx="5" fill="#111827"/></g>
    <g transform="translate(380 380) rotate(-23 512 512)"><rect x="323" y="280" width="130" height="14" rx="5" fill="#111827"/><rect x="323" y="316" width="55" height="14" rx="5" fill="#111827"/><rect x="398" y="316" width="55" height="14" rx="5" fill="#111827"/><rect x="323" y="352" width="130" height="14" rx="5" fill="#111827"/></g>
  </g>

  <text x="835.9" y="575.0" text-anchor="middle" dominant-baseline="middle" font-size="34" fill="#f97316" opacity="0.75">☾</text><text x="697.8" y="733.4" text-anchor="middle" dominant-baseline="middle" font-size="44" fill="#0ea5e9" opacity="0.75">✸</text><text x="496.2" y="812.6" text-anchor="middle" dominant-baseline="middle" font-size="39" fill="#f97316" opacity="0.75">✹</text><text x="284.7" y="731.5" text-anchor="middle" dominant-baseline="middle" font-size="25" fill="#0ea5e9" opacity="0.75">✦</text><text x="199.9" y="462.6" text-anchor="middle" dominant-baseline="middle" font-size="49" fill="#f97316" opacity="0.75">☼</text><text x="346.2" y="275.3" text-anchor="middle" dominant-baseline="middle" font-size="37" fill="#0ea5e9" opacity="0.75">☾</text><text x="517.4" y="204.0" text-anchor="middle" dominant-baseline="middle" font-size="29" fill="#f97316" opacity="0.75">✸</text><text x="736.9" y="287.1" text-anchor="middle" dominant-baseline="middle" font-size="33" fill="#0ea5e9" opacity="0.75">✹</text>

  <text x="512" y="900" text-anchor="middle" font-size="38" font-family="Inter, Arial, sans-serif" fill="#ecfeff">March 1st Spirit #61</text>
  <text x="512" y="942" text-anchor="middle" font-size="22" font-family="Inter, Arial, sans-serif" fill="#f8fafc">대한독립 만세 · Unique Edition</text>
</svg>