<?xml version="1.0" encoding="UTF-8"?>
<svg xmlns="http://www.w3.org/2000/svg" width="1024" height="1024" viewBox="0 0 1024 1024">
  <rect width="1024" height="1024" fill="#111827"/><rect x="500" y="80" width="24" height="430" fill="#fb7185" opacity="0.23" transform="rotate(0 512 512)"/><rect x="500" y="80" width="24" height="430" fill="#2563eb" opacity="0.23" transform="rotate(12.857142857142858 512 512)"/><rect x="500" y="80" width="24" height="430" fill="#fb7185" opacity="0.23" transform="rotate(25.714285714285715 512 512)"/><rect x="500" y="80" width="24" height="430" fill="#2563eb" opacity="0.23" transform="rotate(38.57142857142857 512 512)"/><rect x="500" y="80" width="24" height="430" fill="#fb7185" opacity="0.23" transform="rotate(51.42857142857143 512 512)"/><rect x="500" y="80" width="24" height="430" fill="#2563eb" opacity="0.23" transform="rotate(64.28571428571429 512 512)"/><rect x="500" y="80" width="24" height="430" fill="#fb7185" opacity="0.23" transform="rotate(77.14285714285714 512 512)"/><rect x="500" y="80" width="24" height="430" fill="#2563eb" opacity="0.23" transform="rotate(90 512 512)"/><rect x="500" y="80" width="24" height="430" fill="#fb7185" opacity="0.23" transform="rotate(102.85714285714286 512 512)"/><rect x="500" y="80" width="24" height="430" fill="#2563eb" opacity="0.23" transform="rotate(115.71428571428572 512 512)"/><rect x="500" y="80" width="24" height="430" fill="#fb7185" opacity="0.23" transform="rotate(128.57142857142858 512 512)"/><rect x="500" y="80" width="24" height="430" fill="#2563eb" opacity="0.23" transform="rotate(141.42857142857144 512 512)"/><rect x="500" y="80" width="24" height="430" fill="#fb7185" opacity="0.23" transform="rotate(154.28571428571428 512 512)"/><rect x="500" y="80" width="24" height="430" fill="#2563eb" opacity="0.23" transform="rotate(167.14285714285714 512 512)"/><rect x="500" y="80" width="24" height="430" fill="#fb7185" opacity="0.23" transform="rotate(180 512 512)"/><rect x="500" y="80" width="24" height="430" fill="#2563eb" opacity="0.23" transform="rotate(192.85714285714286 512 512)"/><rect x="500" y="80" width="24" height="430" fill="#fb7185" opacity="0.23" transform="rotate(205.71428571428572 512 512)"/><rect x="500" y="80" width="24" height="430" fill="#2563eb" opacity="0.23" transform="rotate(218.57142857142858 512 512)"/><rect x="500" y="80" width="24" height="430" fill="#fb7185" opacity="0.23" transform="rotate(231.42857142857144 512 512)"/><rect x="500" y="80" width="24" height="430" fill="#2563eb" opacity="0.23" transform="rotate(244.2857142857143 512 512)"/><rect x="500" y="80" width="24" height="430" fill="#fb7185" opacity="0.23" transform="rotate(257.14285714285717 512 512)"/><rect x="500" y="80" width="24" height="430" fill="#2563eb" opacity="0.23" transform="rotate(270 512 512)"/><rect x="500" y="80" width="24" height="430" fill="#fb7185" opacity="0.23" transform="rotate(282.8571428571429 512 512)"/><rect x="500" y="80" width="24" height="430" fill="#2563eb" opacity="0.23" transform="rotate(295.7142857142857 512 512)"/><rect x="500" y="80" width="24" height="430" fill="#fb7185" opacity="0.23" transform="rotate(308.57142857142856 512 512)"/><rect x="500" y="80" width="24" height="430" fill="#2563eb" opacity="0.23" transform="rotate(321.42857142857144 512 512)"/><rect x="500" y="80" width="24" height="430" fill="#fb7185" opacity="0.23" transform="rotate(334.2857142857143 512 512)"/><rect x="500" y="80" width="24" height="430" fill="#2563eb" opacity="0.23" transform="rotate(347.14285714285717 512 512)"/><circle cx="512" cy="512" r="190" fill="#fef3c7" opacity="0.2"/>
  <g><circle cx="512" cy="512" r="310" fill="#fef3c7" stroke="#e5e7eb" stroke-width="6"/><circle cx="512" cy="512" r="265" fill="none" stroke="#2563eb" opacity="0.35" stroke-width="8"/></g>

  <g transform="translate(512 514) rotate(62)">
    <circle cx="0" cy="0" r="129" fill="#fef3c7" opacity="0.22"/>
    <path d="M0 -119 A 119 119 0 1 1 0 119 A 59.5 59.5 0 1 0 0 -119" fill="#fb7185"/>
    <path d="M0 119 A 119 119 0 1 1 0 -119 A 59.5 59.5 0 1 0 0 119" fill="#2563eb"/>
  </g>

  <g opacity="0.94">
    <g transform="rotate(-23 512 512)"><rect x="331" y="288" width="49" height="14" rx="5" fill="#111827"/><rect x="400" y="288" width="49" height="14" rx="5" fill="#111827"/><rect x="331" y="324" width="118" height="14" rx="5" fill="#111827"/><rect x="331" y="360" width="118" height="14" rx="5" fill="#111827"/></g>
    <g transform="translate(380 0) rotate(23 512 512)"><rect x="315" y="296" width="49" height="14" rx="5" fill="#111827"/><rect x="384" y="296" width="49" height="14" rx="5" fill="#111827"/><rect x="315" y="332" width="118" height="14" rx="5" fill="#111827"/><rect x="315" y="368" width="118" height="14" rx="5" fill="#111827"/></g>
    <g transform="translate(0 380) rotate(23 512 512)"><rect x="339" y="280" width="154" height="14" rx="5" fill="#111827"/><rect x="339" y="316" width="154" height="14" rx="5" fill="#111827"/><rect x="339" y="352" width="67" height="14" rx="5" fill="#111827"/><rect x="426" y="352" width="67" height="14" rx="5" fill="#111827"/></g>
    <g transform="translate(380 380) rotate(-23 512 512)"><rect x="323" y="280" width="61" height="14" rx="5" fill="#111827"/><rect x="404" y="280" width="61" height="14" rx="5" fill="#111827"/><rect x="323" y="316" width="61" height="14" rx="5" fill="#111827"/><rect x="404" y="316" width="61" height="14" rx="5" fill="#111827"/><rect x="323" y="352" width="142" height="14" rx="5" fill="#111827"/></g>
  </g>

  <text x="835.8" y="540.3" text-anchor="middle" dominant-baseline="middle" font-size="44" fill="#fb7185" opacity="0.75">✸</text><text x="756.3" y="689.5" text-anchor="middle" dominant-baseline="middle" font-size="43" fill="#2563eb" opacity="0.75">✹</text><text x="690.1" y="786.2" text-anchor="middle" dominant-baseline="middle" font-size="37" fill="#fb7185" opacity="0.75">✦</text><text x="586.8" y="811.8" text-anchor="middle" dominant-baseline="middle" font-size="40" fill="#2563eb" opacity="0.75">☼</text><text x="416.7" y="823.8" text-anchor="middle" dominant-baseline="middle" font-size="48" fill="#fb7185" opacity="0.75">☾</text><text x="323.3" y="781.5" text-anchor="middle" dominant-baseline="middle" font-size="22" fill="#2563eb" opacity="0.75">✸</text><text x="227.4" y="683.0" text-anchor="middle" dominant-baseline="middle" font-size="48" fill="#fb7185" opacity="0.75">✹</text><text x="198.9" y="572.9" text-anchor="middle" dominant-baseline="middle" font-size="32" fill="#2563eb" opacity="0.75">✦</text><text x="197.0" y="445.1" text-anchor="middle" dominant-baseline="middle" font-size="38" fill="#fb7185" opacity="0.75">☼</text><text x="294.2" y="294.2" text-anchor="middle" dominant-baseline="middle" font-size="44" fill="#2563eb" opacity="0.75">☾</text><text x="361.5" y="251.3" text-anchor="middle" dominant-baseline="middle" font-size="24" fill="#fb7185" opacity="0.75">✸</text><text x="572.5" y="200.8" text-anchor="middle" dominant-baseline="middle" font-size="40" fill="#2563eb" opacity="0.75">✹</text><text x="670.5" y="226.0" text-anchor="middle" dominant-baseline="middle" font-size="28" fill="#fb7185" opacity="0.75">✦</text><text x="730.0" y="301.5" text-anchor="middle" dominant-baseline="middle" font-size="41" fill="#2563eb" opacity="0.75">☼</text><text x="829.9" y="444.4" text-anchor="middle" dominant-baseline="middle" font-size="43" fill="#fb7185" opacity="0.75">☾</text>

  <text x="512" y="900" text-anchor="middle" font-size="38" font-family="Inter, Arial, sans-serif" fill="#fef3c7">March 1st Spirit #62</text>
  <text x="512" y="942" text-anchor="middle" font-size="22" font-family="Inter, Arial, sans-serif" fill="#e5e7eb">대한독립 만세 · Unique Edition</text>
</svg>