<?xml version="1.0" encoding="UTF-8"?>
<svg xmlns="http://www.w3.org/2000/svg" width="1024" height="1024" viewBox="0 0 1024 1024">
  <rect width="1024" height="1024" fill="#0f172a"/><rect x="-256" y="-80" width="36" height="1200" transform="rotate(20 512 512)" fill="#f8fafc" opacity="0.28"/><rect x="-192" y="-80" width="36" height="1200" transform="rotate(20 512 512)" fill="#0ea5e9" opacity="0.28"/><rect x="-128" y="-80" width="36" height="1200" transform="rotate(20 512 512)" fill="#f8fafc" opacity="0.28"/><rect x="-64" y="-80" width="36" height="1200" transform="rotate(20 512 512)" fill="#0ea5e9" opacity="0.28"/><rect x="0" y="-80" width="36" height="1200" transform="rotate(20 512 512)" fill="#f8fafc" opacity="0.28"/><rect x="64" y="-80" width="36" height="1200" transform="rotate(20 512 512)" fill="#0ea5e9" opacity="0.28"/><rect x="128" y="-80" width="36" height="1200" transform="rotate(20 512 512)" fill="#f8fafc" opacity="0.28"/><rect x="192" y="-80" width="36" height="1200" transform="rotate(20 512 512)" fill="#0ea5e9" opacity="0.28"/><rect x="256" y="-80" width="36" height="1200" transform="rotate(20 512 512)" fill="#f8fafc" opacity="0.28"/><rect x="320" y="-80" width="36" height="1200" transform="rotate(20 512 512)" fill="#0ea5e9" opacity="0.28"/><rect x="384" y="-80" width="36" height="1200" transform="rotate(20 512 512)" fill="#f8fafc" opacity="0.28"/><rect x="448" y="-80" width="36" height="1200" transform="rotate(20 512 512)" fill="#0ea5e9" opacity="0.28"/><rect x="512" y="-80" width="36" height="1200" transform="rotate(20 512 512)" fill="#f8fafc" opacity="0.28"/><rect x="576" y="-80" width="36" height="1200" transform="rotate(20 512 512)" fill="#0ea5e9" opacity="0.28"/><rect x="640" y="-80" width="36" height="1200" transform="rotate(20 512 512)" fill="#f8fafc" opacity="0.28"/><rect x="704" y="-80" width="36" height="1200" transform="rotate(20 512 512)" fill="#0ea5e9" opacity="0.28"/><rect x="768" y="-80" width="36" height="1200" transform="rotate(20 512 512)" fill="#f8fafc" opacity="0.28"/><rect x="832" y="-80" width="36" height="1200" transform="rotate(20 512 512)" fill="#0ea5e9" opacity="0.28"/><rect x="896" y="-80" width="36" height="1200" transform="rotate(20 512 512)" fill="#f8fafc" opacity="0.28"/><rect x="960" y="-80" width="36" height="1200" transform="rotate(20 512 512)" fill="#0ea5e9" opacity="0.28"/><rect x="1024" y="-80" width="36" height="1200" transform="rotate(20 512 512)" fill="#f8fafc" opacity="0.28"/><rect x="1088" y="-80" width="36" height="1200" transform="rotate(20 512 512)" fill="#0ea5e9" opacity="0.28"/><rect x="1152" y="-80" width="36" height="1200" transform="rotate(20 512 512)" fill="#f8fafc" opacity="0.28"/><rect x="1216" y="-80" width="36" height="1200" transform="rotate(20 512 512)" fill="#0ea5e9" opacity="0.28"/><rect x="1280" y="-80" width="36" height="1200" transform="rotate(20 512 512)" fill="#f8fafc" opacity="0.28"/><rect x="1344" y="-80" width="36" height="1200" transform="rotate(20 512 512)" fill="#0ea5e9" opacity="0.28"/><rect x="1408" y="-80" width="36" height="1200" transform="rotate(20 512 512)" fill="#f8fafc" opacity="0.28"/><rect x="1472" y="-80" width="36" height="1200" transform="rotate(20 512 512)" fill="#0ea5e9" opacity="0.28"/>
  <polygon points="512,170 780,330 780,690 512,850 244,690 244,330" fill="#ecfeff" stroke="#f8fafc" stroke-width="6"/>

  <g transform="translate(512 519) rotate(14)">
    <circle cx="0" cy="0" r="138" fill="#ecfeff" opacity="0.22"/>
    <path d="M0 -128 A 128 128 0 1 1 0 128 A 64 64 0 1 0 0 -128" fill="#f97316"/>
    <path d="M0 128 A 128 128 0 1 1 0 -128 A 64 64 0 1 0 0 128" fill="#0ea5e9"/>
  </g>

  <g opacity="0.94">
    <g transform="rotate(-23 512 512)"><rect x="347" y="288" width="130" height="14" rx="5" fill="#111827"/><rect x="347" y="324" width="55" height="14" rx="5" fill="#111827"/><rect x="422" y="324" width="55" height="14" rx="5" fill="#111827"/><rect x="347" y="360" width="130" height="14" rx="5" fill="#111827"/></g>
    <g transform="translate(380 0) rotate(23 512 512)"><rect x="347" y="280" width="49" height="14" rx="5" fill="#111827"/><rect x="416" y="280" width="49" height="14" rx="5" fill="#111827"/><rect x="347" y="316" width="118" height="14" rx="5" fill="#111827"/><rect x="347" y="352" width="118" height="14" rx="5" fill="#111827"/></g>
    <g transform="translate(0 380) rotate(23 512 512)"><rect x="323" y="304" width="61" height="14" rx="5" fill="#111827"/><rect x="404" y="304" width="61" height="14" rx="5" fill="#111827"/><rect x="323" y="340" width="142" height="14" rx="5" fill="#111827"/><rect x="323" y="376" width="61" height="14" rx="5" fill="#111827"/><rect x="404" y="376" width="61" height="14" rx="5" fill="#111827"/></g>
    <g transform="translate(380 380) rotate(-23 512 512)"><rect x="339" y="288" width="130" height="14" rx="5" fill="#111827"/><rect x="339" y="324" width="55" height="14" rx="5" fill="#111827"/><rect x="414" y="324" width="55" height="14" rx="5" fill="#111827"/><rect x="339" y="360" width="55" height="14" rx="5" fill="#111827"/><rect x="414" y="360" width="55" height="14" rx="5" fill="#111827"/></g>
  </g>

  <text x="798.9" y="537.1" text-anchor="middle" dominant-baseline="middle" font-size="25" fill="#f97316" opacity="0.75">✹</text><text x="796.6" y="644.7" text-anchor="middle" dominant-baseline="middle" font-size="38" fill="#0ea5e9" opacity="0.75">✦</text><text x="651.4" y="785.5" text-anchor="middle" dominant-baseline="middle" font-size="24" fill="#f97316" opacity="0.75">☼</text><text x="522.5" y="811.8" text-anchor="middle" dominant-baseline="middle" font-size="21" fill="#0ea5e9" opacity="0.75">☾</text><text x="446.1" y="797.5" text-anchor="middle" dominant-baseline="middle" font-size="39" fill="#f97316" opacity="0.75">✸</text><text x="311.9" y="742.2" text-anchor="middle" dominant-baseline="middle" font-size="42" fill="#0ea5e9" opacity="0.75">✹</text><text x="275.0" y="684.2" text-anchor="middle" dominant-baseline="middle" font-size="20" fill="#f97316" opacity="0.75">✦</text><text x="196.1" y="579.2" text-anchor="middle" dominant-baseline="middle" font-size="33" fill="#0ea5e9" opacity="0.75">☼</text><text x="209.8" y="419.6" text-anchor="middle" dominant-baseline="middle" font-size="33" fill="#f97316" opacity="0.75">☾</text><text x="304.4" y="264.6" text-anchor="middle" dominant-baseline="middle" font-size="20" fill="#0ea5e9" opacity="0.75">✸</text><text x="381.0" y="231.0" text-anchor="middle" dominant-baseline="middle" font-size="42" fill="#f97316" opacity="0.75">✹</text><text x="506.6" y="205.0" text-anchor="middle" dominant-baseline="middle" font-size="38" fill="#0ea5e9" opacity="0.75">✦</text><text x="652.0" y="269.5" text-anchor="middle" dominant-baseline="middle" font-size="33" fill="#f97316" opacity="0.75">☼</text><text x="727.7" y="310.8" text-anchor="middle" dominant-baseline="middle" font-size="30" fill="#0ea5e9" opacity="0.75">☾</text><text x="817.2" y="463.7" text-anchor="middle" dominant-baseline="middle" font-size="41" fill="#f97316" opacity="0.75">✸</text>

  <text x="512" y="900" text-anchor="middle" font-size="38" font-family="Inter, Arial, sans-serif" fill="#ecfeff">March 1st Spirit #63</text>
  <text x="512" y="942" text-anchor="middle" font-size="22" font-family="Inter, Arial, sans-serif" fill="#f8fafc">대한독립 만세 · Unique Edition</text>
</svg>