<?xml version="1.0" encoding="UTF-8"?>
<svg xmlns="http://www.w3.org/2000/svg" width="1024" height="1024" viewBox="0 0 1024 1024">
  <rect width="1024" height="1024" fill="#0f172a"/><line x1="0" y1="0" x2="0" y2="1024" stroke="#0ea5e9" opacity="0.18"/><line x1="0" y1="0" x2="1024" y2="0" stroke="#f8fafc" opacity="0.14"/><line x1="64" y1="0" x2="64" y2="1024" stroke="#0ea5e9" opacity="0.18"/><line x1="0" y1="64" x2="1024" y2="64" stroke="#f8fafc" opacity="0.14"/><line x1="128" y1="0" x2="128" y2="1024" stroke="#0ea5e9" opacity="0.18"/><line x1="0" y1="128" x2="1024" y2="128" stroke="#f8fafc" opacity="0.14"/><line x1="192" y1="0" x2="192" y2="1024" stroke="#0ea5e9" opacity="0.18"/><line x1="0" y1="192" x2="1024" y2="192" stroke="#f8fafc" opacity="0.14"/><line x1="256" y1="0" x2="256" y2="1024" stroke="#0ea5e9" opacity="0.18"/><line x1="0" y1="256" x2="1024" y2="256" stroke="#f8fafc" opacity="0.14"/><line x1="320" y1="0" x2="320" y2="1024" stroke="#0ea5e9" opacity="0.18"/><line x1="0" y1="320" x2="1024" y2="320" stroke="#f8fafc" opacity="0.14"/><line x1="384" y1="0" x2="384" y2="1024" stroke="#0ea5e9" opacity="0.18"/><line x1="0" y1="384" x2="1024" y2="384" stroke="#f8fafc" opacity="0.14"/><line x1="448" y1="0" x2="448" y2="1024" stroke="#0ea5e9" opacity="0.18"/><line x1="0" y1="448" x2="1024" y2="448" stroke="#f8fafc" opacity="0.14"/><line x1="512" y1="0" x2="512" y2="1024" stroke="#0ea5e9" opacity="0.18"/><line x1="0" y1="512" x2="1024" y2="512" stroke="#f8fafc" opacity="0.14"/><line x1="576" y1="0" x2="576" y2="1024" stroke="#0ea5e9" opacity="0.18"/><line x1="0" y1="576" x2="1024" y2="576" stroke="#f8fafc" opacity="0.14"/><line x1="640" y1="0" x2="640" y2="1024" stroke="#0ea5e9" opacity="0.18"/><line x1="0" y1="640" x2="1024" y2="640" stroke="#f8fafc" opacity="0.14"/><line x1="704" y1="0" x2="704" y2="1024" stroke="#0ea5e9" opacity="0.18"/><line x1="0" y1="704" x2="1024" y2="704" stroke="#f8fafc" opacity="0.14"/><line x1="768" y1="0" x2="768" y2="1024" stroke="#0ea5e9" opacity="0.18"/><line x1="0" y1="768" x2="1024" y2="768" stroke="#f8fafc" opacity="0.14"/><line x1="832" y1="0" x2="832" y2="1024" stroke="#0ea5e9" opacity="0.18"/><line x1="0" y1="832" x2="1024" y2="832" stroke="#f8fafc" opacity="0.14"/><line x1="896" y1="0" x2="896" y2="1024" stroke="#0ea5e9" opacity="0.18"/><line x1="0" y1="896" x2="1024" y2="896" stroke="#f8fafc" opacity="0.14"/><line x1="960" y1="0" x2="960" y2="1024" stroke="#0ea5e9" opacity="0.18"/><line x1="0" y1="960" x2="1024" y2="960" stroke="#f8fafc" opacity="0.14"/><line x1="1024" y1="0" x2="1024" y2="1024" stroke="#0ea5e9" opacity="0.18"/><line x1="0" y1="1024" x2="1024" y2="1024" stroke="#f8fafc" opacity="0.14"/>
  <g><circle cx="512" cy="512" r="310" fill="#ecfeff" stroke="#f8fafc" stroke-width="6"/><circle cx="512" cy="512" r="265" fill="none" stroke="#0ea5e9" opacity="0.35" stroke-width="8"/></g>

  <g transform="translate(512 507) rotate(209)">
    <circle cx="0" cy="0" r="146" fill="#ecfeff" opacity="0.22"/>
    <path d="M0 -136 A 136 136 0 1 1 0 136 A 68 68 0 1 0 0 -136" fill="#f97316"/>
    <path d="M0 136 A 136 136 0 1 1 0 -136 A 68 68 0 1 0 0 136" fill="#0ea5e9"/>
  </g>

  <g opacity="0.94">
    <g transform="rotate(-23 512 512)"><rect x="347" y="280" width="49" height="14" rx="5" fill="#111827"/><rect x="416" y="280" width="49" height="14" rx="5" fill="#111827"/><rect x="347" y="316" width="118" height="14" rx="5" fill="#111827"/><rect x="347" y="352" width="118" height="14" rx="5" fill="#111827"/></g>
    <g transform="translate(380 0) rotate(23 512 512)"><rect x="323" y="280" width="130" height="14" rx="5" fill="#111827"/><rect x="323" y="316" width="55" height="14" rx="5" fill="#111827"/><rect x="398" y="316" width="55" height="14" rx="5" fill="#111827"/><rect x="323" y="352" width="130" height="14" rx="5" fill="#111827"/></g>
    <g transform="translate(0 380) rotate(23 512 512)"><rect x="315" y="304" width="61" height="14" rx="5" fill="#111827"/><rect x="396" y="304" width="61" height="14" rx="5" fill="#111827"/><rect x="315" y="340" width="61" height="14" rx="5" fill="#111827"/><rect x="396" y="340" width="61" height="14" rx="5" fill="#111827"/><rect x="315" y="376" width="142" height="14" rx="5" fill="#111827"/></g>
    <g transform="translate(380 380) rotate(-23 512 512)"><rect x="339" y="288" width="130" height="14" rx="5" fill="#111827"/><rect x="339" y="324" width="55" height="14" rx="5" fill="#111827"/><rect x="414" y="324" width="55" height="14" rx="5" fill="#111827"/><rect x="339" y="360" width="55" height="14" rx="5" fill="#111827"/><rect x="414" y="360" width="55" height="14" rx="5" fill="#111827"/></g>
  </g>

  <text x="831.2" y="591.6" text-anchor="middle" dominant-baseline="middle" font-size="27" fill="#f97316" opacity="0.75">⬢</text><text x="796.0" y="718.3" text-anchor="middle" dominant-baseline="middle" font-size="20" fill="#0ea5e9" opacity="0.75">▲</text><text x="688.5" y="783.7" text-anchor="middle" dominant-baseline="middle" font-size="41" fill="#f97316" opacity="0.75">◆</text><text x="541.6" y="850.7" text-anchor="middle" dominant-baseline="middle" font-size="49" fill="#0ea5e9" opacity="0.75">●</text><text x="394.3" y="835.3" text-anchor="middle" dominant-baseline="middle" font-size="26" fill="#f97316" opacity="0.75">■</text><text x="289.2" y="759.5" text-anchor="middle" dominant-baseline="middle" font-size="40" fill="#0ea5e9" opacity="0.75">⬢</text><text x="229.1" y="682.0" text-anchor="middle" dominant-baseline="middle" font-size="20" fill="#f97316" opacity="0.75">▲</text><text x="184.5" y="552.2" text-anchor="middle" dominant-baseline="middle" font-size="40" fill="#0ea5e9" opacity="0.75">◆</text><text x="185.2" y="386.6" text-anchor="middle" dominant-baseline="middle" font-size="40" fill="#f97316" opacity="0.75">●</text><text x="250.7" y="322.1" text-anchor="middle" dominant-baseline="middle" font-size="32" fill="#0ea5e9" opacity="0.75">■</text><text x="357.8" y="233.9" text-anchor="middle" dominant-baseline="middle" font-size="46" fill="#f97316" opacity="0.75">⬢</text><text x="482.7" y="177.3" text-anchor="middle" dominant-baseline="middle" font-size="34" fill="#0ea5e9" opacity="0.75">▲</text><text x="647.2" y="177.3" text-anchor="middle" dominant-baseline="middle" font-size="38" fill="#f97316" opacity="0.75">◆</text><text x="763.6" y="277.4" text-anchor="middle" dominant-baseline="middle" font-size="48" fill="#0ea5e9" opacity="0.75">●</text><text x="869.3" y="468.1" text-anchor="middle" dominant-baseline="middle" font-size="47" fill="#f97316" opacity="0.75">■</text>

  <text x="512" y="900" text-anchor="middle" font-size="38" font-family="Inter, Arial, sans-serif" fill="#ecfeff">March 1st Spirit #64</text>
  <text x="512" y="942" text-anchor="middle" font-size="22" font-family="Inter, Arial, sans-serif" fill="#f8fafc">대한독립 만세 · Unique Edition</text>
</svg>