<?xml version="1.0" encoding="UTF-8"?>
<svg xmlns="http://www.w3.org/2000/svg" width="1024" height="1024" viewBox="0 0 1024 1024">
  
      <defs>
        <radialGradient id="g" cx="50%" cy="45%" r="70%">
          <stop offset="0%" stop-color="#ecfeff"/>
          <stop offset="65%" stop-color="#0ea5e9"/>
          <stop offset="100%" stop-color="#0f172a"/>
        </radialGradient>
      </defs>
      <rect width="1024" height="1024" fill="url(#g)"/>
    
  <g><circle cx="512" cy="512" r="310" fill="#ecfeff" stroke="#f8fafc" stroke-width="6"/><circle cx="512" cy="512" r="265" fill="none" stroke="#0ea5e9" opacity="0.35" stroke-width="8"/></g>

  <g transform="translate(512 519) rotate(210)">
    <circle cx="0" cy="0" r="160" fill="#ecfeff" opacity="0.22"/>
    <path d="M0 -150 A 150 150 0 1 1 0 150 A 75 75 0 1 0 0 -150" fill="#f97316"/>
    <path d="M0 150 A 150 150 0 1 1 0 -150 A 75 75 0 1 0 0 150" fill="#0ea5e9"/>
  </g>

  <g opacity="0.94">
    <g transform="rotate(-23 512 512)"><rect x="347" y="296" width="154" height="14" rx="5" fill="#111827"/><rect x="347" y="332" width="154" height="14" rx="5" fill="#111827"/><rect x="347" y="368" width="67" height="14" rx="5" fill="#111827"/><rect x="434" y="368" width="67" height="14" rx="5" fill="#111827"/></g>
    <g transform="translate(380 0) rotate(23 512 512)"><rect x="347" y="296" width="154" height="14" rx="5" fill="#111827"/><rect x="347" y="332" width="154" height="14" rx="5" fill="#111827"/><rect x="347" y="368" width="67" height="14" rx="5" fill="#111827"/><rect x="434" y="368" width="67" height="14" rx="5" fill="#111827"/></g>
    <g transform="translate(0 380) rotate(23 512 512)"><rect x="315" y="288" width="61" height="14" rx="5" fill="#111827"/><rect x="396" y="288" width="61" height="14" rx="5" fill="#111827"/><rect x="315" y="324" width="142" height="14" rx="5" fill="#111827"/><rect x="315" y="360" width="61" height="14" rx="5" fill="#111827"/><rect x="396" y="360" width="61" height="14" rx="5" fill="#111827"/></g>
    <g transform="translate(380 380) rotate(-23 512 512)"><rect x="323" y="296" width="118" height="14" rx="5" fill="#111827"/><rect x="323" y="332" width="118" height="14" rx="5" fill="#111827"/><rect x="323" y="368" width="118" height="14" rx="5" fill="#111827"/></g>
  </g>

  <text x="849.8" y="565.5" text-anchor="middle" dominant-baseline="middle" font-size="32" fill="#f97316" opacity="0.75">☾</text><text x="752.3" y="733.8" text-anchor="middle" dominant-baseline="middle" font-size="37" fill="#0ea5e9" opacity="0.75">✸</text><text x="660.1" y="821.4" text-anchor="middle" dominant-baseline="middle" font-size="48" fill="#f97316" opacity="0.75">✹</text><text x="527.9" y="830.6" text-anchor="middle" dominant-baseline="middle" font-size="21" fill="#0ea5e9" opacity="0.75">✦</text><text x="354.1" y="810.8" text-anchor="middle" dominant-baseline="middle" font-size="27" fill="#f97316" opacity="0.75">☼</text><text x="259.4" y="768.5" text-anchor="middle" dominant-baseline="middle" font-size="20" fill="#0ea5e9" opacity="0.75">☾</text><text x="197.9" y="582.9" text-anchor="middle" dominant-baseline="middle" font-size="42" fill="#f97316" opacity="0.75">✸</text><text x="201.5" y="423.0" text-anchor="middle" dominant-baseline="middle" font-size="44" fill="#0ea5e9" opacity="0.75">✹</text><text x="190.4" y="350.2" text-anchor="middle" dominant-baseline="middle" font-size="32" fill="#f97316" opacity="0.75">✦</text><text x="374.2" y="180.5" text-anchor="middle" dominant-baseline="middle" font-size="31" fill="#0ea5e9" opacity="0.75">☼</text><text x="535.0" y="194.8" text-anchor="middle" dominant-baseline="middle" font-size="30" fill="#f97316" opacity="0.75">☾</text><text x="594.6" y="177.0" text-anchor="middle" dominant-baseline="middle" font-size="45" fill="#0ea5e9" opacity="0.75">✸</text><text x="727.3" y="251.5" text-anchor="middle" dominant-baseline="middle" font-size="44" fill="#f97316" opacity="0.75">✹</text><text x="834.4" y="383.6" text-anchor="middle" dominant-baseline="middle" font-size="27" fill="#0ea5e9" opacity="0.75">✦</text>

  <text x="512" y="900" text-anchor="middle" font-size="38" font-family="Inter, Arial, sans-serif" fill="#ecfeff">March 1st Spirit #66</text>
  <text x="512" y="942" text-anchor="middle" font-size="22" font-family="Inter, Arial, sans-serif" fill="#f8fafc">대한독립 만세 · Unique Edition</text>
</svg>