<?xml version="1.0" encoding="UTF-8"?>
<svg xmlns="http://www.w3.org/2000/svg" width="1024" height="1024" viewBox="0 0 1024 1024">
  
      <defs>
        <radialGradient id="g" cx="50%" cy="45%" r="70%">
          <stop offset="0%" stop-color="#fef3c7"/>
          <stop offset="65%" stop-color="#2563eb"/>
          <stop offset="100%" stop-color="#111827"/>
        </radialGradient>
      </defs>
      <rect width="1024" height="1024" fill="url(#g)"/>
    
  <polygon points="512,170 780,330 780,690 512,850 244,690 244,330" fill="#fef3c7" stroke="#e5e7eb" stroke-width="6"/>

  <g transform="translate(512 521) rotate(222)">
    <circle cx="0" cy="0" r="158" fill="#fef3c7" opacity="0.22"/>
    <path d="M0 -148 A 148 148 0 1 1 0 148 A 74 74 0 1 0 0 -148" fill="#fb7185"/>
    <path d="M0 148 A 148 148 0 1 1 0 -148 A 74 74 0 1 0 0 148" fill="#2563eb"/>
  </g>

  <g opacity="0.94">
    <g transform="rotate(-23 512 512)"><rect x="315" y="288" width="67" height="14" rx="5" fill="#111827"/><rect x="402" y="288" width="67" height="14" rx="5" fill="#111827"/><rect x="315" y="324" width="67" height="14" rx="5" fill="#111827"/><rect x="402" y="324" width="67" height="14" rx="5" fill="#111827"/><rect x="315" y="360" width="67" height="14" rx="5" fill="#111827"/><rect x="402" y="360" width="67" height="14" rx="5" fill="#111827"/></g>
    <g transform="translate(380 0) rotate(23 512 512)"><rect x="347" y="296" width="154" height="14" rx="5" fill="#111827"/><rect x="347" y="332" width="154" height="14" rx="5" fill="#111827"/><rect x="347" y="368" width="67" height="14" rx="5" fill="#111827"/><rect x="434" y="368" width="67" height="14" rx="5" fill="#111827"/></g>
    <g transform="translate(0 380) rotate(23 512 512)"><rect x="347" y="288" width="61" height="14" rx="5" fill="#111827"/><rect x="428" y="288" width="61" height="14" rx="5" fill="#111827"/><rect x="347" y="324" width="61" height="14" rx="5" fill="#111827"/><rect x="428" y="324" width="61" height="14" rx="5" fill="#111827"/><rect x="347" y="360" width="142" height="14" rx="5" fill="#111827"/></g>
    <g transform="translate(380 380) rotate(-23 512 512)"><rect x="339" y="288" width="130" height="14" rx="5" fill="#111827"/><rect x="339" y="324" width="55" height="14" rx="5" fill="#111827"/><rect x="414" y="324" width="55" height="14" rx="5" fill="#111827"/><rect x="339" y="360" width="55" height="14" rx="5" fill="#111827"/><rect x="414" y="360" width="55" height="14" rx="5" fill="#111827"/></g>
  </g>

  <text x="790.3" y="551.1" text-anchor="middle" dominant-baseline="middle" font-size="22" fill="#fb7185" opacity="0.75">✹</text><text x="730.0" y="674.6" text-anchor="middle" dominant-baseline="middle" font-size="29" fill="#2563eb" opacity="0.75">✷</text><text x="668.0" y="738.4" text-anchor="middle" dominant-baseline="middle" font-size="30" fill="#fb7185" opacity="0.75">✦</text><text x="496.0" y="803.6" text-anchor="middle" dominant-baseline="middle" font-size="26" fill="#2563eb" opacity="0.75">✶</text><text x="395.9" y="774.5" text-anchor="middle" dominant-baseline="middle" font-size="47" fill="#fb7185" opacity="0.75">✺</text><text x="301.6" y="704.3" text-anchor="middle" dominant-baseline="middle" font-size="32" fill="#2563eb" opacity="0.75">✹</text><text x="210.5" y="558.2" text-anchor="middle" dominant-baseline="middle" font-size="46" fill="#fb7185" opacity="0.75">✷</text><text x="213.7" y="448.6" text-anchor="middle" dominant-baseline="middle" font-size="29" fill="#2563eb" opacity="0.75">✦</text><text x="261.8" y="363.4" text-anchor="middle" dominant-baseline="middle" font-size="23" fill="#fb7185" opacity="0.75">✶</text><text x="385.5" y="247.7" text-anchor="middle" dominant-baseline="middle" font-size="20" fill="#2563eb" opacity="0.75">✺</text><text x="503.1" y="236.1" text-anchor="middle" dominant-baseline="middle" font-size="38" fill="#fb7185" opacity="0.75">✹</text><text x="635.9" y="256.4" text-anchor="middle" dominant-baseline="middle" font-size="45" fill="#2563eb" opacity="0.75">✷</text><text x="761.1" y="341.3" text-anchor="middle" dominant-baseline="middle" font-size="25" fill="#fb7185" opacity="0.75">✦</text><text x="781.4" y="382.3" text-anchor="middle" dominant-baseline="middle" font-size="25" fill="#2563eb" opacity="0.75">✶</text>

  <text x="512" y="900" text-anchor="middle" font-size="38" font-family="Inter, Arial, sans-serif" fill="#fef3c7">March 1st Spirit #68</text>
  <text x="512" y="942" text-anchor="middle" font-size="22" font-family="Inter, Arial, sans-serif" fill="#e5e7eb">대한독립 만세 · Unique Edition</text>
</svg>