<?xml version="1.0" encoding="UTF-8"?>
<svg xmlns="http://www.w3.org/2000/svg" width="1024" height="1024" viewBox="0 0 1024 1024">
  <rect width="1024" height="1024" fill="#111827"/><line x1="0" y1="0" x2="0" y2="1024" stroke="#2563eb" opacity="0.18"/><line x1="0" y1="0" x2="1024" y2="0" stroke="#e5e7eb" opacity="0.14"/><line x1="64" y1="0" x2="64" y2="1024" stroke="#2563eb" opacity="0.18"/><line x1="0" y1="64" x2="1024" y2="64" stroke="#e5e7eb" opacity="0.14"/><line x1="128" y1="0" x2="128" y2="1024" stroke="#2563eb" opacity="0.18"/><line x1="0" y1="128" x2="1024" y2="128" stroke="#e5e7eb" opacity="0.14"/><line x1="192" y1="0" x2="192" y2="1024" stroke="#2563eb" opacity="0.18"/><line x1="0" y1="192" x2="1024" y2="192" stroke="#e5e7eb" opacity="0.14"/><line x1="256" y1="0" x2="256" y2="1024" stroke="#2563eb" opacity="0.18"/><line x1="0" y1="256" x2="1024" y2="256" stroke="#e5e7eb" opacity="0.14"/><line x1="320" y1="0" x2="320" y2="1024" stroke="#2563eb" opacity="0.18"/><line x1="0" y1="320" x2="1024" y2="320" stroke="#e5e7eb" opacity="0.14"/><line x1="384" y1="0" x2="384" y2="1024" stroke="#2563eb" opacity="0.18"/><line x1="0" y1="384" x2="1024" y2="384" stroke="#e5e7eb" opacity="0.14"/><line x1="448" y1="0" x2="448" y2="1024" stroke="#2563eb" opacity="0.18"/><line x1="0" y1="448" x2="1024" y2="448" stroke="#e5e7eb" opacity="0.14"/><line x1="512" y1="0" x2="512" y2="1024" stroke="#2563eb" opacity="0.18"/><line x1="0" y1="512" x2="1024" y2="512" stroke="#e5e7eb" opacity="0.14"/><line x1="576" y1="0" x2="576" y2="1024" stroke="#2563eb" opacity="0.18"/><line x1="0" y1="576" x2="1024" y2="576" stroke="#e5e7eb" opacity="0.14"/><line x1="640" y1="0" x2="640" y2="1024" stroke="#2563eb" opacity="0.18"/><line x1="0" y1="640" x2="1024" y2="640" stroke="#e5e7eb" opacity="0.14"/><line x1="704" y1="0" x2="704" y2="1024" stroke="#2563eb" opacity="0.18"/><line x1="0" y1="704" x2="1024" y2="704" stroke="#e5e7eb" opacity="0.14"/><line x1="768" y1="0" x2="768" y2="1024" stroke="#2563eb" opacity="0.18"/><line x1="0" y1="768" x2="1024" y2="768" stroke="#e5e7eb" opacity="0.14"/><line x1="832" y1="0" x2="832" y2="1024" stroke="#2563eb" opacity="0.18"/><line x1="0" y1="832" x2="1024" y2="832" stroke="#e5e7eb" opacity="0.14"/><line x1="896" y1="0" x2="896" y2="1024" stroke="#2563eb" opacity="0.18"/><line x1="0" y1="896" x2="1024" y2="896" stroke="#e5e7eb" opacity="0.14"/><line x1="960" y1="0" x2="960" y2="1024" stroke="#2563eb" opacity="0.18"/><line x1="0" y1="960" x2="1024" y2="960" stroke="#e5e7eb" opacity="0.14"/><line x1="1024" y1="0" x2="1024" y2="1024" stroke="#2563eb" opacity="0.18"/><line x1="0" y1="1024" x2="1024" y2="1024" stroke="#e5e7eb" opacity="0.14"/>
  <polygon points="512,170 820,512 512,854 204,512" fill="#fef3c7" stroke="#e5e7eb" stroke-width="6"/>

  <g transform="translate(512 505) rotate(94)">
    <circle cx="0" cy="0" r="169" fill="#fef3c7" opacity="0.22"/>
    <path d="M0 -159 A 159 159 0 1 1 0 159 A 79.5 79.5 0 1 0 0 -159" fill="#fb7185"/>
    <path d="M0 159 A 159 159 0 1 1 0 -159 A 79.5 79.5 0 1 0 0 159" fill="#2563eb"/>
  </g>

  <g opacity="0.94">
    <g transform="rotate(-23 512 512)"><rect x="347" y="280" width="49" height="14" rx="5" fill="#111827"/><rect x="416" y="280" width="49" height="14" rx="5" fill="#111827"/><rect x="347" y="316" width="118" height="14" rx="5" fill="#111827"/><rect x="347" y="352" width="118" height="14" rx="5" fill="#111827"/></g>
    <g transform="translate(380 0) rotate(23 512 512)"><rect x="347" y="312" width="67" height="14" rx="5" fill="#111827"/><rect x="434" y="312" width="67" height="14" rx="5" fill="#111827"/><rect x="347" y="348" width="67" height="14" rx="5" fill="#111827"/><rect x="434" y="348" width="67" height="14" rx="5" fill="#111827"/><rect x="347" y="384" width="67" height="14" rx="5" fill="#111827"/><rect x="434" y="384" width="67" height="14" rx="5" fill="#111827"/></g>
    <g transform="translate(0 380) rotate(23 512 512)"><rect x="331" y="312" width="130" height="14" rx="5" fill="#111827"/><rect x="331" y="348" width="55" height="14" rx="5" fill="#111827"/><rect x="406" y="348" width="55" height="14" rx="5" fill="#111827"/><rect x="331" y="384" width="55" height="14" rx="5" fill="#111827"/><rect x="406" y="384" width="55" height="14" rx="5" fill="#111827"/></g>
    <g transform="translate(380 380) rotate(-23 512 512)"><rect x="339" y="304" width="49" height="14" rx="5" fill="#111827"/><rect x="408" y="304" width="49" height="14" rx="5" fill="#111827"/><rect x="339" y="340" width="118" height="14" rx="5" fill="#111827"/><rect x="339" y="376" width="118" height="14" rx="5" fill="#111827"/></g>
  </g>

  <text x="778.0" y="535.3" text-anchor="middle" dominant-baseline="middle" font-size="41" fill="#fb7185" opacity="0.75">✺</text><text x="755.4" y="658.3" text-anchor="middle" dominant-baseline="middle" font-size="38" fill="#2563eb" opacity="0.75">⟡</text><text x="674.5" y="720.0" text-anchor="middle" dominant-baseline="middle" font-size="44" fill="#fb7185" opacity="0.75">⬟</text><text x="530.3" y="773.4" text-anchor="middle" dominant-baseline="middle" font-size="48" fill="#2563eb" opacity="0.75">⬢</text><text x="458.8" y="785.9" text-anchor="middle" dominant-baseline="middle" font-size="47" fill="#fb7185" opacity="0.75">✪</text><text x="355.6" y="727.2" text-anchor="middle" dominant-baseline="middle" font-size="26" fill="#2563eb" opacity="0.75">✺</text><text x="302.3" y="658.8" text-anchor="middle" dominant-baseline="middle" font-size="24" fill="#fb7185" opacity="0.75">⟡</text><text x="251.4" y="539.4" text-anchor="middle" dominant-baseline="middle" font-size="23" fill="#2563eb" opacity="0.75">⬟</text><text x="257.5" y="370.9" text-anchor="middle" dominant-baseline="middle" font-size="25" fill="#fb7185" opacity="0.75">⬢</text><text x="328.3" y="300.7" text-anchor="middle" dominant-baseline="middle" font-size="20" fill="#2563eb" opacity="0.75">✪</text><text x="400.1" y="260.8" text-anchor="middle" dominant-baseline="middle" font-size="27" fill="#fb7185" opacity="0.75">✺</text><text x="517.0" y="227.0" text-anchor="middle" dominant-baseline="middle" font-size="26" fill="#2563eb" opacity="0.75">⟡</text><text x="616.6" y="239.4" text-anchor="middle" dominant-baseline="middle" font-size="35" fill="#fb7185" opacity="0.75">⬟</text><text x="754.9" y="348.2" text-anchor="middle" dominant-baseline="middle" font-size="31" fill="#2563eb" opacity="0.75">⬢</text><text x="755.4" y="446.8" text-anchor="middle" dominant-baseline="middle" font-size="25" fill="#fb7185" opacity="0.75">✪</text>

  <text x="512" y="900" text-anchor="middle" font-size="38" font-family="Inter, Arial, sans-serif" fill="#fef3c7">March 1st Spirit #69</text>
  <text x="512" y="942" text-anchor="middle" font-size="22" font-family="Inter, Arial, sans-serif" fill="#e5e7eb">대한독립 만세 · Unique Edition</text>
</svg>