<?xml version="1.0" encoding="UTF-8"?>
<svg xmlns="http://www.w3.org/2000/svg" width="1024" height="1024" viewBox="0 0 1024 1024">
  <rect width="1024" height="1024" fill="#0f172a"/><rect x="500" y="80" width="24" height="430" fill="#f97316" opacity="0.23" transform="rotate(0 512 512)"/><rect x="500" y="80" width="24" height="430" fill="#0ea5e9" opacity="0.23" transform="rotate(12.857142857142858 512 512)"/><rect x="500" y="80" width="24" height="430" fill="#f97316" opacity="0.23" transform="rotate(25.714285714285715 512 512)"/><rect x="500" y="80" width="24" height="430" fill="#0ea5e9" opacity="0.23" transform="rotate(38.57142857142857 512 512)"/><rect x="500" y="80" width="24" height="430" fill="#f97316" opacity="0.23" transform="rotate(51.42857142857143 512 512)"/><rect x="500" y="80" width="24" height="430" fill="#0ea5e9" opacity="0.23" transform="rotate(64.28571428571429 512 512)"/><rect x="500" y="80" width="24" height="430" fill="#f97316" opacity="0.23" transform="rotate(77.14285714285714 512 512)"/><rect x="500" y="80" width="24" height="430" fill="#0ea5e9" opacity="0.23" transform="rotate(90 512 512)"/><rect x="500" y="80" width="24" height="430" fill="#f97316" opacity="0.23" transform="rotate(102.85714285714286 512 512)"/><rect x="500" y="80" width="24" height="430" fill="#0ea5e9" opacity="0.23" transform="rotate(115.71428571428572 512 512)"/><rect x="500" y="80" width="24" height="430" fill="#f97316" opacity="0.23" transform="rotate(128.57142857142858 512 512)"/><rect x="500" y="80" width="24" height="430" fill="#0ea5e9" opacity="0.23" transform="rotate(141.42857142857144 512 512)"/><rect x="500" y="80" width="24" height="430" fill="#f97316" opacity="0.23" transform="rotate(154.28571428571428 512 512)"/><rect x="500" y="80" width="24" height="430" fill="#0ea5e9" opacity="0.23" transform="rotate(167.14285714285714 512 512)"/><rect x="500" y="80" width="24" height="430" fill="#f97316" opacity="0.23" transform="rotate(180 512 512)"/><rect x="500" y="80" width="24" height="430" fill="#0ea5e9" opacity="0.23" transform="rotate(192.85714285714286 512 512)"/><rect x="500" y="80" width="24" height="430" fill="#f97316" opacity="0.23" transform="rotate(205.71428571428572 512 512)"/><rect x="500" y="80" width="24" height="430" fill="#0ea5e9" opacity="0.23" transform="rotate(218.57142857142858 512 512)"/><rect x="500" y="80" width="24" height="430" fill="#f97316" opacity="0.23" transform="rotate(231.42857142857144 512 512)"/><rect x="500" y="80" width="24" height="430" fill="#0ea5e9" opacity="0.23" transform="rotate(244.2857142857143 512 512)"/><rect x="500" y="80" width="24" height="430" fill="#f97316" opacity="0.23" transform="rotate(257.14285714285717 512 512)"/><rect x="500" y="80" width="24" height="430" fill="#0ea5e9" opacity="0.23" transform="rotate(270 512 512)"/><rect x="500" y="80" width="24" height="430" fill="#f97316" opacity="0.23" transform="rotate(282.8571428571429 512 512)"/><rect x="500" y="80" width="24" height="430" fill="#0ea5e9" opacity="0.23" transform="rotate(295.7142857142857 512 512)"/><rect x="500" y="80" width="24" height="430" fill="#f97316" opacity="0.23" transform="rotate(308.57142857142856 512 512)"/><rect x="500" y="80" width="24" height="430" fill="#0ea5e9" opacity="0.23" transform="rotate(321.42857142857144 512 512)"/><rect x="500" y="80" width="24" height="430" fill="#f97316" opacity="0.23" transform="rotate(334.2857142857143 512 512)"/><rect x="500" y="80" width="24" height="430" fill="#0ea5e9" opacity="0.23" transform="rotate(347.14285714285717 512 512)"/><circle cx="512" cy="512" r="190" fill="#ecfeff" opacity="0.2"/>
  <polygon points="512,170 780,330 780,690 512,850 244,690 244,330" fill="#ecfeff" stroke="#f8fafc" stroke-width="6"/>

  <g transform="translate(512 515) rotate(260)">
    <circle cx="0" cy="0" r="159" fill="#ecfeff" opacity="0.22"/>
    <path d="M0 -149 A 149 149 0 1 1 0 149 A 74.5 74.5 0 1 0 0 -149" fill="#f97316"/>
    <path d="M0 149 A 149 149 0 1 1 0 -149 A 74.5 74.5 0 1 0 0 149" fill="#0ea5e9"/>
  </g>

  <g opacity="0.94">
    <g transform="rotate(-23 512 512)"><rect x="315" y="280" width="118" height="14" rx="5" fill="#111827"/><rect x="315" y="316" width="118" height="14" rx="5" fill="#111827"/><rect x="315" y="352" width="118" height="14" rx="5" fill="#111827"/></g>
    <g transform="translate(380 0) rotate(23 512 512)"><rect x="323" y="304" width="61" height="14" rx="5" fill="#111827"/><rect x="404" y="304" width="61" height="14" rx="5" fill="#111827"/><rect x="323" y="340" width="142" height="14" rx="5" fill="#111827"/><rect x="323" y="376" width="61" height="14" rx="5" fill="#111827"/><rect x="404" y="376" width="61" height="14" rx="5" fill="#111827"/></g>
    <g transform="translate(0 380) rotate(23 512 512)"><rect x="315" y="280" width="130" height="14" rx="5" fill="#111827"/><rect x="315" y="316" width="55" height="14" rx="5" fill="#111827"/><rect x="390" y="316" width="55" height="14" rx="5" fill="#111827"/><rect x="315" y="352" width="55" height="14" rx="5" fill="#111827"/><rect x="390" y="352" width="55" height="14" rx="5" fill="#111827"/></g>
    <g transform="translate(380 380) rotate(-23 512 512)"><rect x="331" y="304" width="154" height="14" rx="5" fill="#111827"/><rect x="331" y="340" width="154" height="14" rx="5" fill="#111827"/><rect x="331" y="376" width="67" height="14" rx="5" fill="#111827"/><rect x="418" y="376" width="67" height="14" rx="5" fill="#111827"/></g>
  </g>

  <text x="753.2" y="541.6" text-anchor="middle" dominant-baseline="middle" font-size="24" fill="#f97316" opacity="0.75">▥</text><text x="671.4" y="702.0" text-anchor="middle" dominant-baseline="middle" font-size="38" fill="#0ea5e9" opacity="0.75">▦</text><text x="535.1" y="776.0" text-anchor="middle" dominant-baseline="middle" font-size="48" fill="#f97316" opacity="0.75">▧</text><text x="370.0" y="739.3" text-anchor="middle" dominant-baseline="middle" font-size="28" fill="#0ea5e9" opacity="0.75">▣</text><text x="260.9" y="608.4" text-anchor="middle" dominant-baseline="middle" font-size="29" fill="#f97316" opacity="0.75">▤</text><text x="265.4" y="477.3" text-anchor="middle" dominant-baseline="middle" font-size="33" fill="#0ea5e9" opacity="0.75">▥</text><text x="341.5" y="347.4" text-anchor="middle" dominant-baseline="middle" font-size="40" fill="#f97316" opacity="0.75">▦</text><text x="488.6" y="244.0" text-anchor="middle" dominant-baseline="middle" font-size="46" fill="#0ea5e9" opacity="0.75">▧</text><text x="650.3" y="290.7" text-anchor="middle" dominant-baseline="middle" font-size="46" fill="#f97316" opacity="0.75">▣</text><text x="733.0" y="399.4" text-anchor="middle" dominant-baseline="middle" font-size="29" fill="#0ea5e9" opacity="0.75">▤</text>

  <text x="512" y="900" text-anchor="middle" font-size="38" font-family="Inter, Arial, sans-serif" fill="#ecfeff">March 1st Spirit #7</text>
  <text x="512" y="942" text-anchor="middle" font-size="22" font-family="Inter, Arial, sans-serif" fill="#f8fafc">대한독립 만세 · Unique Edition</text>
</svg>