<?xml version="1.0" encoding="UTF-8"?>
<svg xmlns="http://www.w3.org/2000/svg" width="1024" height="1024" viewBox="0 0 1024 1024">
  <rect width="1024" height="1024" fill="#0f172a"/><path d="M-40 120 Q 256 80 512 120 T 1064 120" stroke="#f97316" stroke-width="10" fill="none" opacity="0.35"/><path d="M-40 212 Q 256 170 512 212 T 1064 212" stroke="#0ea5e9" stroke-width="12" fill="none" opacity="0.35"/><path d="M-40 304 Q 256 268 512 304 T 1064 304" stroke="#f97316" stroke-width="14" fill="none" opacity="0.35"/><path d="M-40 396 Q 256 359 512 396 T 1064 396" stroke="#0ea5e9" stroke-width="10" fill="none" opacity="0.35"/><path d="M-40 488 Q 256 461 512 488 T 1064 488" stroke="#f97316" stroke-width="12" fill="none" opacity="0.35"/><path d="M-40 580 Q 256 539 512 580 T 1064 580" stroke="#0ea5e9" stroke-width="14" fill="none" opacity="0.35"/><path d="M-40 672 Q 256 625 512 672 T 1064 672" stroke="#f97316" stroke-width="10" fill="none" opacity="0.35"/><path d="M-40 764 Q 256 746 512 764 T 1064 764" stroke="#0ea5e9" stroke-width="12" fill="none" opacity="0.35"/><path d="M-40 856 Q 256 826 512 856 T 1064 856" stroke="#f97316" stroke-width="14" fill="none" opacity="0.35"/><path d="M-40 948 Q 256 901 512 948 T 1064 948" stroke="#0ea5e9" stroke-width="10" fill="none" opacity="0.35"/>
  <circle cx="512" cy="512" r="330" fill="#ecfeff" stroke="#f8fafc" stroke-width="6"/>

  <g transform="translate(512 507) rotate(46)">
    <circle cx="0" cy="0" r="174" fill="#ecfeff" opacity="0.22"/>
    <path d="M0 -164 A 164 164 0 1 1 0 164 A 82 82 0 1 0 0 -164" fill="#f97316"/>
    <path d="M0 164 A 164 164 0 1 1 0 -164 A 82 82 0 1 0 0 164" fill="#0ea5e9"/>
  </g>

  <g opacity="0.94">
    <g transform="rotate(-23 512 512)"><rect x="331" y="296" width="61" height="14" rx="5" fill="#111827"/><rect x="412" y="296" width="61" height="14" rx="5" fill="#111827"/><rect x="331" y="332" width="61" height="14" rx="5" fill="#111827"/><rect x="412" y="332" width="61" height="14" rx="5" fill="#111827"/><rect x="331" y="368" width="142" height="14" rx="5" fill="#111827"/></g>
    <g transform="translate(380 0) rotate(23 512 512)"><rect x="339" y="280" width="154" height="14" rx="5" fill="#111827"/><rect x="339" y="316" width="154" height="14" rx="5" fill="#111827"/><rect x="339" y="352" width="67" height="14" rx="5" fill="#111827"/><rect x="426" y="352" width="67" height="14" rx="5" fill="#111827"/></g>
    <g transform="translate(0 380) rotate(23 512 512)"><rect x="323" y="296" width="130" height="14" rx="5" fill="#111827"/><rect x="323" y="332" width="55" height="14" rx="5" fill="#111827"/><rect x="398" y="332" width="55" height="14" rx="5" fill="#111827"/><rect x="323" y="368" width="55" height="14" rx="5" fill="#111827"/><rect x="398" y="368" width="55" height="14" rx="5" fill="#111827"/></g>
    <g transform="translate(380 380) rotate(-23 512 512)"><rect x="323" y="304" width="61" height="14" rx="5" fill="#111827"/><rect x="404" y="304" width="61" height="14" rx="5" fill="#111827"/><rect x="323" y="340" width="142" height="14" rx="5" fill="#111827"/><rect x="323" y="376" width="61" height="14" rx="5" fill="#111827"/><rect x="404" y="376" width="61" height="14" rx="5" fill="#111827"/></g>
  </g>

  <text x="847.2" y="547.2" text-anchor="middle" dominant-baseline="middle" font-size="45" fill="#f97316" opacity="0.75">☼</text><text x="787.4" y="671.0" text-anchor="middle" dominant-baseline="middle" font-size="33" fill="#0ea5e9" opacity="0.75">☾</text><text x="670.9" y="823.9" text-anchor="middle" dominant-baseline="middle" font-size="22" fill="#f97316" opacity="0.75">✸</text><text x="529.2" y="840.5" text-anchor="middle" dominant-baseline="middle" font-size="33" fill="#0ea5e9" opacity="0.75">✹</text><text x="464.4" y="850.7" text-anchor="middle" dominant-baseline="middle" font-size="31" fill="#f97316" opacity="0.75">✦</text><text x="314.6" y="774.0" text-anchor="middle" dominant-baseline="middle" font-size="26" fill="#0ea5e9" opacity="0.75">☼</text><text x="217.0" y="613.6" text-anchor="middle" dominant-baseline="middle" font-size="43" fill="#f97316" opacity="0.75">☾</text><text x="162.0" y="512.0" text-anchor="middle" dominant-baseline="middle" font-size="47" fill="#0ea5e9" opacity="0.75">✸</text><text x="184.6" y="424.3" text-anchor="middle" dominant-baseline="middle" font-size="36" fill="#f97316" opacity="0.75">✹</text><text x="300.8" y="241.7" text-anchor="middle" dominant-baseline="middle" font-size="24" fill="#0ea5e9" opacity="0.75">✦</text><text x="373.8" y="215.6" text-anchor="middle" dominant-baseline="middle" font-size="44" fill="#f97316" opacity="0.75">☼</text><text x="546.4" y="184.8" text-anchor="middle" dominant-baseline="middle" font-size="22" fill="#0ea5e9" opacity="0.75">☾</text><text x="687.9" y="230.4" text-anchor="middle" dominant-baseline="middle" font-size="48" fill="#f97316" opacity="0.75">✸</text><text x="733.6" y="282.5" text-anchor="middle" dominant-baseline="middle" font-size="29" fill="#0ea5e9" opacity="0.75">✹</text><text x="834.4" y="407.2" text-anchor="middle" dominant-baseline="middle" font-size="32" fill="#f97316" opacity="0.75">✦</text>

  <text x="512" y="900" text-anchor="middle" font-size="38" font-family="Inter, Arial, sans-serif" fill="#ecfeff">March 1st Spirit #70</text>
  <text x="512" y="942" text-anchor="middle" font-size="22" font-family="Inter, Arial, sans-serif" fill="#f8fafc">대한독립 만세 · Unique Edition</text>
</svg>