<?xml version="1.0" encoding="UTF-8"?>
<svg xmlns="http://www.w3.org/2000/svg" width="1024" height="1024" viewBox="0 0 1024 1024">
  <rect width="1024" height="1024" fill="#111827"/><rect x="500" y="80" width="24" height="430" fill="#fb7185" opacity="0.23" transform="rotate(0 512 512)"/><rect x="500" y="80" width="24" height="430" fill="#2563eb" opacity="0.23" transform="rotate(12.857142857142858 512 512)"/><rect x="500" y="80" width="24" height="430" fill="#fb7185" opacity="0.23" transform="rotate(25.714285714285715 512 512)"/><rect x="500" y="80" width="24" height="430" fill="#2563eb" opacity="0.23" transform="rotate(38.57142857142857 512 512)"/><rect x="500" y="80" width="24" height="430" fill="#fb7185" opacity="0.23" transform="rotate(51.42857142857143 512 512)"/><rect x="500" y="80" width="24" height="430" fill="#2563eb" opacity="0.23" transform="rotate(64.28571428571429 512 512)"/><rect x="500" y="80" width="24" height="430" fill="#fb7185" opacity="0.23" transform="rotate(77.14285714285714 512 512)"/><rect x="500" y="80" width="24" height="430" fill="#2563eb" opacity="0.23" transform="rotate(90 512 512)"/><rect x="500" y="80" width="24" height="430" fill="#fb7185" opacity="0.23" transform="rotate(102.85714285714286 512 512)"/><rect x="500" y="80" width="24" height="430" fill="#2563eb" opacity="0.23" transform="rotate(115.71428571428572 512 512)"/><rect x="500" y="80" width="24" height="430" fill="#fb7185" opacity="0.23" transform="rotate(128.57142857142858 512 512)"/><rect x="500" y="80" width="24" height="430" fill="#2563eb" opacity="0.23" transform="rotate(141.42857142857144 512 512)"/><rect x="500" y="80" width="24" height="430" fill="#fb7185" opacity="0.23" transform="rotate(154.28571428571428 512 512)"/><rect x="500" y="80" width="24" height="430" fill="#2563eb" opacity="0.23" transform="rotate(167.14285714285714 512 512)"/><rect x="500" y="80" width="24" height="430" fill="#fb7185" opacity="0.23" transform="rotate(180 512 512)"/><rect x="500" y="80" width="24" height="430" fill="#2563eb" opacity="0.23" transform="rotate(192.85714285714286 512 512)"/><rect x="500" y="80" width="24" height="430" fill="#fb7185" opacity="0.23" transform="rotate(205.71428571428572 512 512)"/><rect x="500" y="80" width="24" height="430" fill="#2563eb" opacity="0.23" transform="rotate(218.57142857142858 512 512)"/><rect x="500" y="80" width="24" height="430" fill="#fb7185" opacity="0.23" transform="rotate(231.42857142857144 512 512)"/><rect x="500" y="80" width="24" height="430" fill="#2563eb" opacity="0.23" transform="rotate(244.2857142857143 512 512)"/><rect x="500" y="80" width="24" height="430" fill="#fb7185" opacity="0.23" transform="rotate(257.14285714285717 512 512)"/><rect x="500" y="80" width="24" height="430" fill="#2563eb" opacity="0.23" transform="rotate(270 512 512)"/><rect x="500" y="80" width="24" height="430" fill="#fb7185" opacity="0.23" transform="rotate(282.8571428571429 512 512)"/><rect x="500" y="80" width="24" height="430" fill="#2563eb" opacity="0.23" transform="rotate(295.7142857142857 512 512)"/><rect x="500" y="80" width="24" height="430" fill="#fb7185" opacity="0.23" transform="rotate(308.57142857142856 512 512)"/><rect x="500" y="80" width="24" height="430" fill="#2563eb" opacity="0.23" transform="rotate(321.42857142857144 512 512)"/><rect x="500" y="80" width="24" height="430" fill="#fb7185" opacity="0.23" transform="rotate(334.2857142857143 512 512)"/><rect x="500" y="80" width="24" height="430" fill="#2563eb" opacity="0.23" transform="rotate(347.14285714285717 512 512)"/><circle cx="512" cy="512" r="190" fill="#fef3c7" opacity="0.2"/>
  <polygon points="512,170 780,330 780,690 512,850 244,690 244,330" fill="#fef3c7" stroke="#e5e7eb" stroke-width="6"/>

  <g transform="translate(512 509) rotate(301)">
    <circle cx="0" cy="0" r="163" fill="#fef3c7" opacity="0.22"/>
    <path d="M0 -153 A 153 153 0 1 1 0 153 A 76.5 76.5 0 1 0 0 -153" fill="#fb7185"/>
    <path d="M0 153 A 153 153 0 1 1 0 -153 A 76.5 76.5 0 1 0 0 153" fill="#2563eb"/>
  </g>

  <g opacity="0.94">
    <g transform="rotate(-23 512 512)"><rect x="347" y="280" width="49" height="14" rx="5" fill="#111827"/><rect x="416" y="280" width="49" height="14" rx="5" fill="#111827"/><rect x="347" y="316" width="118" height="14" rx="5" fill="#111827"/><rect x="347" y="352" width="118" height="14" rx="5" fill="#111827"/></g>
    <g transform="translate(380 0) rotate(23 512 512)"><rect x="347" y="312" width="67" height="14" rx="5" fill="#111827"/><rect x="434" y="312" width="67" height="14" rx="5" fill="#111827"/><rect x="347" y="348" width="67" height="14" rx="5" fill="#111827"/><rect x="434" y="348" width="67" height="14" rx="5" fill="#111827"/><rect x="347" y="384" width="67" height="14" rx="5" fill="#111827"/><rect x="434" y="384" width="67" height="14" rx="5" fill="#111827"/></g>
    <g transform="translate(0 380) rotate(23 512 512)"><rect x="347" y="304" width="118" height="14" rx="5" fill="#111827"/><rect x="347" y="340" width="118" height="14" rx="5" fill="#111827"/><rect x="347" y="376" width="118" height="14" rx="5" fill="#111827"/></g>
    <g transform="translate(380 380) rotate(-23 512 512)"><rect x="323" y="312" width="49" height="14" rx="5" fill="#111827"/><rect x="392" y="312" width="49" height="14" rx="5" fill="#111827"/><rect x="323" y="348" width="118" height="14" rx="5" fill="#111827"/><rect x="323" y="384" width="118" height="14" rx="5" fill="#111827"/></g>
  </g>

  <text x="744.7" y="544.7" text-anchor="middle" dominant-baseline="middle" font-size="46" fill="#fb7185" opacity="0.75">✶</text><text x="715.4" y="637.6" text-anchor="middle" dominant-baseline="middle" font-size="20" fill="#2563eb" opacity="0.75">✺</text><text x="621.4" y="740.1" text-anchor="middle" dominant-baseline="middle" font-size="20" fill="#fb7185" opacity="0.75">✹</text><text x="475.6" y="768.4" text-anchor="middle" dominant-baseline="middle" font-size="49" fill="#2563eb" opacity="0.75">✷</text><text x="381.6" y="714.6" text-anchor="middle" dominant-baseline="middle" font-size="25" fill="#fb7185" opacity="0.75">✦</text><text x="295.5" y="678.3" text-anchor="middle" dominant-baseline="middle" font-size="29" fill="#2563eb" opacity="0.75">✶</text><text x="267.0" y="511.3" text-anchor="middle" dominant-baseline="middle" font-size="25" fill="#fb7185" opacity="0.75">✺</text><text x="279.1" y="394.1" text-anchor="middle" dominant-baseline="middle" font-size="48" fill="#2563eb" opacity="0.75">✹</text><text x="318.9" y="340.9" text-anchor="middle" dominant-baseline="middle" font-size="42" fill="#fb7185" opacity="0.75">✷</text><text x="465.5" y="242.0" text-anchor="middle" dominant-baseline="middle" font-size="41" fill="#2563eb" opacity="0.75">✦</text><text x="610.2" y="268.0" text-anchor="middle" dominant-baseline="middle" font-size="26" fill="#fb7185" opacity="0.75">✶</text><text x="700.9" y="351.3" text-anchor="middle" dominant-baseline="middle" font-size="27" fill="#2563eb" opacity="0.75">✺</text><text x="751.7" y="396.7" text-anchor="middle" dominant-baseline="middle" font-size="37" fill="#fb7185" opacity="0.75">✹</text>

  <text x="512" y="900" text-anchor="middle" font-size="38" font-family="Inter, Arial, sans-serif" fill="#fef3c7">March 1st Spirit #71</text>
  <text x="512" y="942" text-anchor="middle" font-size="22" font-family="Inter, Arial, sans-serif" fill="#e5e7eb">대한독립 만세 · Unique Edition</text>
</svg>