<?xml version="1.0" encoding="UTF-8"?>
<svg xmlns="http://www.w3.org/2000/svg" width="1024" height="1024" viewBox="0 0 1024 1024">
  <rect width="1024" height="1024" fill="#111827"/><path d="M-40 120 Q 256 99 512 120 T 1064 120" stroke="#fb7185" stroke-width="10" fill="none" opacity="0.35"/><path d="M-40 212 Q 256 176 512 212 T 1064 212" stroke="#2563eb" stroke-width="12" fill="none" opacity="0.35"/><path d="M-40 304 Q 256 281 512 304 T 1064 304" stroke="#fb7185" stroke-width="14" fill="none" opacity="0.35"/><path d="M-40 396 Q 256 349 512 396 T 1064 396" stroke="#2563eb" stroke-width="10" fill="none" opacity="0.35"/><path d="M-40 488 Q 256 457 512 488 T 1064 488" stroke="#fb7185" stroke-width="12" fill="none" opacity="0.35"/><path d="M-40 580 Q 256 542 512 580 T 1064 580" stroke="#2563eb" stroke-width="14" fill="none" opacity="0.35"/><path d="M-40 672 Q 256 631 512 672 T 1064 672" stroke="#fb7185" stroke-width="10" fill="none" opacity="0.35"/><path d="M-40 764 Q 256 737 512 764 T 1064 764" stroke="#2563eb" stroke-width="12" fill="none" opacity="0.35"/><path d="M-40 856 Q 256 832 512 856 T 1064 856" stroke="#fb7185" stroke-width="14" fill="none" opacity="0.35"/><path d="M-40 948 Q 256 904 512 948 T 1064 948" stroke="#2563eb" stroke-width="10" fill="none" opacity="0.35"/>
  <g><circle cx="512" cy="512" r="310" fill="#fef3c7" stroke="#e5e7eb" stroke-width="6"/><circle cx="512" cy="512" r="265" fill="none" stroke="#2563eb" opacity="0.35" stroke-width="8"/></g>

  <g transform="translate(512 504) rotate(136)">
    <circle cx="0" cy="0" r="171" fill="#fef3c7" opacity="0.22"/>
    <path d="M0 -161 A 161 161 0 1 1 0 161 A 80.5 80.5 0 1 0 0 -161" fill="#fb7185"/>
    <path d="M0 161 A 161 161 0 1 1 0 -161 A 80.5 80.5 0 1 0 0 161" fill="#2563eb"/>
  </g>

  <g opacity="0.94">
    <g transform="rotate(-23 512 512)"><rect x="315" y="280" width="130" height="14" rx="5" fill="#111827"/><rect x="315" y="316" width="55" height="14" rx="5" fill="#111827"/><rect x="390" y="316" width="55" height="14" rx="5" fill="#111827"/><rect x="315" y="352" width="55" height="14" rx="5" fill="#111827"/><rect x="390" y="352" width="55" height="14" rx="5" fill="#111827"/></g>
    <g transform="translate(380 0) rotate(23 512 512)"><rect x="347" y="288" width="130" height="14" rx="5" fill="#111827"/><rect x="347" y="324" width="55" height="14" rx="5" fill="#111827"/><rect x="422" y="324" width="55" height="14" rx="5" fill="#111827"/><rect x="347" y="360" width="130" height="14" rx="5" fill="#111827"/></g>
    <g transform="translate(0 380) rotate(23 512 512)"><rect x="323" y="296" width="130" height="14" rx="5" fill="#111827"/><rect x="323" y="332" width="55" height="14" rx="5" fill="#111827"/><rect x="398" y="332" width="55" height="14" rx="5" fill="#111827"/><rect x="323" y="368" width="55" height="14" rx="5" fill="#111827"/><rect x="398" y="368" width="55" height="14" rx="5" fill="#111827"/></g>
    <g transform="translate(380 380) rotate(-23 512 512)"><rect x="331" y="280" width="61" height="14" rx="5" fill="#111827"/><rect x="412" y="280" width="61" height="14" rx="5" fill="#111827"/><rect x="331" y="316" width="142" height="14" rx="5" fill="#111827"/><rect x="331" y="352" width="61" height="14" rx="5" fill="#111827"/><rect x="412" y="352" width="61" height="14" rx="5" fill="#111827"/></g>
  </g>

  <text x="838.5" y="552.1" text-anchor="middle" dominant-baseline="middle" font-size="33" fill="#fb7185" opacity="0.75">●</text><text x="770.2" y="728.6" text-anchor="middle" dominant-baseline="middle" font-size="33" fill="#2563eb" opacity="0.75">■</text><text x="576.7" y="844.8" text-anchor="middle" dominant-baseline="middle" font-size="39" fill="#fb7185" opacity="0.75">⬢</text><text x="377.4" y="814.4" text-anchor="middle" dominant-baseline="middle" font-size="36" fill="#2563eb" opacity="0.75">▲</text><text x="231.0" y="643.0" text-anchor="middle" dominant-baseline="middle" font-size="39" fill="#fb7185" opacity="0.75">◆</text><text x="204.3" y="474.2" text-anchor="middle" dominant-baseline="middle" font-size="25" fill="#2563eb" opacity="0.75">●</text><text x="259.9" y="292.9" text-anchor="middle" dominant-baseline="middle" font-size="26" fill="#fb7185" opacity="0.75">■</text><text x="469.6" y="210.0" text-anchor="middle" dominant-baseline="middle" font-size="29" fill="#2563eb" opacity="0.75">⬢</text><text x="669.1" y="228.6" text-anchor="middle" dominant-baseline="middle" font-size="23" fill="#fb7185" opacity="0.75">▲</text><text x="780.6" y="316.9" text-anchor="middle" dominant-baseline="middle" font-size="48" fill="#2563eb" opacity="0.75">◆</text>

  <text x="512" y="900" text-anchor="middle" font-size="38" font-family="Inter, Arial, sans-serif" fill="#fef3c7">March 1st Spirit #72</text>
  <text x="512" y="942" text-anchor="middle" font-size="22" font-family="Inter, Arial, sans-serif" fill="#e5e7eb">대한독립 만세 · Unique Edition</text>
</svg>