<?xml version="1.0" encoding="UTF-8"?>
<svg xmlns="http://www.w3.org/2000/svg" width="1024" height="1024" viewBox="0 0 1024 1024">
  <rect width="1024" height="1024" fill="#020617"/><path d="M-40 120 Q 256 80 512 120 T 1064 120" stroke="#f43f5e" stroke-width="10" fill="none" opacity="0.35"/><path d="M-40 212 Q 256 192 512 212 T 1064 212" stroke="#6366f1" stroke-width="12" fill="none" opacity="0.35"/><path d="M-40 304 Q 256 271 512 304 T 1064 304" stroke="#f43f5e" stroke-width="14" fill="none" opacity="0.35"/><path d="M-40 396 Q 256 377 512 396 T 1064 396" stroke="#6366f1" stroke-width="10" fill="none" opacity="0.35"/><path d="M-40 488 Q 256 446 512 488 T 1064 488" stroke="#f43f5e" stroke-width="12" fill="none" opacity="0.35"/><path d="M-40 580 Q 256 560 512 580 T 1064 580" stroke="#6366f1" stroke-width="14" fill="none" opacity="0.35"/><path d="M-40 672 Q 256 647 512 672 T 1064 672" stroke="#f43f5e" stroke-width="10" fill="none" opacity="0.35"/><path d="M-40 764 Q 256 731 512 764 T 1064 764" stroke="#6366f1" stroke-width="12" fill="none" opacity="0.35"/><path d="M-40 856 Q 256 831 512 856 T 1064 856" stroke="#f43f5e" stroke-width="14" fill="none" opacity="0.35"/><path d="M-40 948 Q 256 930 512 948 T 1064 948" stroke="#6366f1" stroke-width="10" fill="none" opacity="0.35"/>
  <polygon points="512,170 780,330 780,690 512,850 244,690 244,330" fill="#f8fafc" stroke="#cbd5e1" stroke-width="6"/>

  <g transform="translate(512 517) rotate(89)">
    <circle cx="0" cy="0" r="155" fill="#f8fafc" opacity="0.22"/>
    <path d="M0 -145 A 145 145 0 1 1 0 145 A 72.5 72.5 0 1 0 0 -145" fill="#f43f5e"/>
    <path d="M0 145 A 145 145 0 1 1 0 -145 A 72.5 72.5 0 1 0 0 145" fill="#6366f1"/>
  </g>

  <g opacity="0.94">
    <g transform="rotate(-23 512 512)"><rect x="323" y="296" width="130" height="14" rx="5" fill="#111827"/><rect x="323" y="332" width="55" height="14" rx="5" fill="#111827"/><rect x="398" y="332" width="55" height="14" rx="5" fill="#111827"/><rect x="323" y="368" width="55" height="14" rx="5" fill="#111827"/><rect x="398" y="368" width="55" height="14" rx="5" fill="#111827"/></g>
    <g transform="translate(380 0) rotate(23 512 512)"><rect x="347" y="288" width="61" height="14" rx="5" fill="#111827"/><rect x="428" y="288" width="61" height="14" rx="5" fill="#111827"/><rect x="347" y="324" width="61" height="14" rx="5" fill="#111827"/><rect x="428" y="324" width="61" height="14" rx="5" fill="#111827"/><rect x="347" y="360" width="142" height="14" rx="5" fill="#111827"/></g>
    <g transform="translate(0 380) rotate(23 512 512)"><rect x="315" y="288" width="61" height="14" rx="5" fill="#111827"/><rect x="396" y="288" width="61" height="14" rx="5" fill="#111827"/><rect x="315" y="324" width="142" height="14" rx="5" fill="#111827"/><rect x="315" y="360" width="61" height="14" rx="5" fill="#111827"/><rect x="396" y="360" width="61" height="14" rx="5" fill="#111827"/></g>
    <g transform="translate(380 380) rotate(-23 512 512)"><rect x="331" y="312" width="130" height="14" rx="5" fill="#111827"/><rect x="331" y="348" width="55" height="14" rx="5" fill="#111827"/><rect x="406" y="348" width="55" height="14" rx="5" fill="#111827"/><rect x="331" y="384" width="55" height="14" rx="5" fill="#111827"/><rect x="406" y="384" width="55" height="14" rx="5" fill="#111827"/></g>
  </g>

  <text x="830.6" y="528.7" text-anchor="middle" dominant-baseline="middle" font-size="32" fill="#f43f5e" opacity="0.75">■</text><text x="757.4" y="738.6" text-anchor="middle" dominant-baseline="middle" font-size="34" fill="#6366f1" opacity="0.75">⬢</text><text x="557.6" y="815.6" text-anchor="middle" dominant-baseline="middle" font-size="23" fill="#f43f5e" opacity="0.75">▲</text><text x="382.9" y="813.5" text-anchor="middle" dominant-baseline="middle" font-size="49" fill="#6366f1" opacity="0.75">◆</text><text x="244.5" y="707.0" text-anchor="middle" dominant-baseline="middle" font-size="34" fill="#f43f5e" opacity="0.75">●</text><text x="211.0" y="567.0" text-anchor="middle" dominant-baseline="middle" font-size="25" fill="#6366f1" opacity="0.75">■</text><text x="228.7" y="359.0" text-anchor="middle" dominant-baseline="middle" font-size="33" fill="#f43f5e" opacity="0.75">⬢</text><text x="340.7" y="257.2" text-anchor="middle" dominant-baseline="middle" font-size="49" fill="#6366f1" opacity="0.75">▲</text><text x="532.0" y="211.7" text-anchor="middle" dominant-baseline="middle" font-size="36" fill="#f43f5e" opacity="0.75">◆</text><text x="715.1" y="257.0" text-anchor="middle" dominant-baseline="middle" font-size="27" fill="#6366f1" opacity="0.75">●</text><text x="794.4" y="363.6" text-anchor="middle" dominant-baseline="middle" font-size="20" fill="#f43f5e" opacity="0.75">■</text>

  <text x="512" y="900" text-anchor="middle" font-size="38" font-family="Inter, Arial, sans-serif" fill="#f8fafc">March 1st Spirit #73</text>
  <text x="512" y="942" text-anchor="middle" font-size="22" font-family="Inter, Arial, sans-serif" fill="#cbd5e1">대한독립 만세 · Unique Edition</text>
</svg>