<?xml version="1.0" encoding="UTF-8"?>
<svg xmlns="http://www.w3.org/2000/svg" width="1024" height="1024" viewBox="0 0 1024 1024">
  <rect width="1024" height="1024" fill="#0b1020"/><line x1="0" y1="0" x2="0" y2="1024" stroke="#1d4ed8" opacity="0.18"/><line x1="0" y1="0" x2="1024" y2="0" stroke="#111827" opacity="0.14"/><line x1="64" y1="0" x2="64" y2="1024" stroke="#1d4ed8" opacity="0.18"/><line x1="0" y1="64" x2="1024" y2="64" stroke="#111827" opacity="0.14"/><line x1="128" y1="0" x2="128" y2="1024" stroke="#1d4ed8" opacity="0.18"/><line x1="0" y1="128" x2="1024" y2="128" stroke="#111827" opacity="0.14"/><line x1="192" y1="0" x2="192" y2="1024" stroke="#1d4ed8" opacity="0.18"/><line x1="0" y1="192" x2="1024" y2="192" stroke="#111827" opacity="0.14"/><line x1="256" y1="0" x2="256" y2="1024" stroke="#1d4ed8" opacity="0.18"/><line x1="0" y1="256" x2="1024" y2="256" stroke="#111827" opacity="0.14"/><line x1="320" y1="0" x2="320" y2="1024" stroke="#1d4ed8" opacity="0.18"/><line x1="0" y1="320" x2="1024" y2="320" stroke="#111827" opacity="0.14"/><line x1="384" y1="0" x2="384" y2="1024" stroke="#1d4ed8" opacity="0.18"/><line x1="0" y1="384" x2="1024" y2="384" stroke="#111827" opacity="0.14"/><line x1="448" y1="0" x2="448" y2="1024" stroke="#1d4ed8" opacity="0.18"/><line x1="0" y1="448" x2="1024" y2="448" stroke="#111827" opacity="0.14"/><line x1="512" y1="0" x2="512" y2="1024" stroke="#1d4ed8" opacity="0.18"/><line x1="0" y1="512" x2="1024" y2="512" stroke="#111827" opacity="0.14"/><line x1="576" y1="0" x2="576" y2="1024" stroke="#1d4ed8" opacity="0.18"/><line x1="0" y1="576" x2="1024" y2="576" stroke="#111827" opacity="0.14"/><line x1="640" y1="0" x2="640" y2="1024" stroke="#1d4ed8" opacity="0.18"/><line x1="0" y1="640" x2="1024" y2="640" stroke="#111827" opacity="0.14"/><line x1="704" y1="0" x2="704" y2="1024" stroke="#1d4ed8" opacity="0.18"/><line x1="0" y1="704" x2="1024" y2="704" stroke="#111827" opacity="0.14"/><line x1="768" y1="0" x2="768" y2="1024" stroke="#1d4ed8" opacity="0.18"/><line x1="0" y1="768" x2="1024" y2="768" stroke="#111827" opacity="0.14"/><line x1="832" y1="0" x2="832" y2="1024" stroke="#1d4ed8" opacity="0.18"/><line x1="0" y1="832" x2="1024" y2="832" stroke="#111827" opacity="0.14"/><line x1="896" y1="0" x2="896" y2="1024" stroke="#1d4ed8" opacity="0.18"/><line x1="0" y1="896" x2="1024" y2="896" stroke="#111827" opacity="0.14"/><line x1="960" y1="0" x2="960" y2="1024" stroke="#1d4ed8" opacity="0.18"/><line x1="0" y1="960" x2="1024" y2="960" stroke="#111827" opacity="0.14"/><line x1="1024" y1="0" x2="1024" y2="1024" stroke="#1d4ed8" opacity="0.18"/><line x1="0" y1="1024" x2="1024" y2="1024" stroke="#111827" opacity="0.14"/>
  <path d="M512 170 L790 300 L735 650 Q700 790 512 860 Q324 790 289 650 L234 300 Z" fill="#f8fafc" stroke="#111827" stroke-width="6"/>

  <g transform="translate(512 505) rotate(348)">
    <circle cx="0" cy="0" r="141" fill="#f8fafc" opacity="0.22"/>
    <path d="M0 -131 A 131 131 0 1 1 0 131 A 65.5 65.5 0 1 0 0 -131" fill="#ef4444"/>
    <path d="M0 131 A 131 131 0 1 1 0 -131 A 65.5 65.5 0 1 0 0 131" fill="#1d4ed8"/>
  </g>

  <g opacity="0.94">
    <g transform="rotate(-23 512 512)"><rect x="331" y="296" width="130" height="14" rx="5" fill="#111827"/><rect x="331" y="332" width="55" height="14" rx="5" fill="#111827"/><rect x="406" y="332" width="55" height="14" rx="5" fill="#111827"/><rect x="331" y="368" width="130" height="14" rx="5" fill="#111827"/></g>
    <g transform="translate(380 0) rotate(23 512 512)"><rect x="339" y="296" width="67" height="14" rx="5" fill="#111827"/><rect x="426" y="296" width="67" height="14" rx="5" fill="#111827"/><rect x="339" y="332" width="67" height="14" rx="5" fill="#111827"/><rect x="426" y="332" width="67" height="14" rx="5" fill="#111827"/><rect x="339" y="368" width="67" height="14" rx="5" fill="#111827"/><rect x="426" y="368" width="67" height="14" rx="5" fill="#111827"/></g>
    <g transform="translate(0 380) rotate(23 512 512)"><rect x="315" y="280" width="118" height="14" rx="5" fill="#111827"/><rect x="315" y="316" width="118" height="14" rx="5" fill="#111827"/><rect x="315" y="352" width="118" height="14" rx="5" fill="#111827"/></g>
    <g transform="translate(380 380) rotate(-23 512 512)"><rect x="339" y="296" width="61" height="14" rx="5" fill="#111827"/><rect x="420" y="296" width="61" height="14" rx="5" fill="#111827"/><rect x="339" y="332" width="142" height="14" rx="5" fill="#111827"/><rect x="339" y="368" width="61" height="14" rx="5" fill="#111827"/><rect x="420" y="368" width="61" height="14" rx="5" fill="#111827"/></g>
  </g>

  <text x="813.1" y="581.5" text-anchor="middle" dominant-baseline="middle" font-size="35" fill="#ef4444" opacity="0.75">✷</text><text x="783.5" y="716.6" text-anchor="middle" dominant-baseline="middle" font-size="37" fill="#1d4ed8" opacity="0.75">✦</text><text x="535.5" y="848.2" text-anchor="middle" dominant-baseline="middle" font-size="25" fill="#ef4444" opacity="0.75">✶</text><text x="401.6" y="832.5" text-anchor="middle" dominant-baseline="middle" font-size="34" fill="#1d4ed8" opacity="0.75">✺</text><text x="226.4" y="627.4" text-anchor="middle" dominant-baseline="middle" font-size="28" fill="#ef4444" opacity="0.75">✹</text><text x="211.7" y="420.2" text-anchor="middle" dominant-baseline="middle" font-size="31" fill="#1d4ed8" opacity="0.75">✷</text><text x="265.2" y="297.5" text-anchor="middle" dominant-baseline="middle" font-size="44" fill="#ef4444" opacity="0.75">✦</text><text x="506.1" y="175.1" text-anchor="middle" dominant-baseline="middle" font-size="47" fill="#1d4ed8" opacity="0.75">✶</text><text x="687.9" y="230.4" text-anchor="middle" dominant-baseline="middle" font-size="40" fill="#ef4444" opacity="0.75">✺</text><text x="809.0" y="340.5" text-anchor="middle" dominant-baseline="middle" font-size="48" fill="#1d4ed8" opacity="0.75">✹</text>

  <text x="512" y="900" text-anchor="middle" font-size="38" font-family="Inter, Arial, sans-serif" fill="#f8fafc">March 1st Spirit #74</text>
  <text x="512" y="942" text-anchor="middle" font-size="22" font-family="Inter, Arial, sans-serif" fill="#111827">대한독립 만세 · Unique Edition</text>
</svg>