<?xml version="1.0" encoding="UTF-8"?>
<svg xmlns="http://www.w3.org/2000/svg" width="1024" height="1024" viewBox="0 0 1024 1024">
  
      <defs>
        <radialGradient id="g" cx="50%" cy="45%" r="70%">
          <stop offset="0%" stop-color="#ecfeff"/>
          <stop offset="65%" stop-color="#0ea5e9"/>
          <stop offset="100%" stop-color="#0f172a"/>
        </radialGradient>
      </defs>
      <rect width="1024" height="1024" fill="url(#g)"/>
    
  <polygon points="512,170 820,512 512,854 204,512" fill="#ecfeff" stroke="#f8fafc" stroke-width="6"/>

  <g transform="translate(512 507) rotate(68)">
    <circle cx="0" cy="0" r="157" fill="#ecfeff" opacity="0.22"/>
    <path d="M0 -147 A 147 147 0 1 1 0 147 A 73.5 73.5 0 1 0 0 -147" fill="#f97316"/>
    <path d="M0 147 A 147 147 0 1 1 0 -147 A 73.5 73.5 0 1 0 0 147" fill="#0ea5e9"/>
  </g>

  <g opacity="0.94">
    <g transform="rotate(-23 512 512)"><rect x="323" y="296" width="118" height="14" rx="5" fill="#111827"/><rect x="323" y="332" width="118" height="14" rx="5" fill="#111827"/><rect x="323" y="368" width="118" height="14" rx="5" fill="#111827"/></g>
    <g transform="translate(380 0) rotate(23 512 512)"><rect x="347" y="312" width="67" height="14" rx="5" fill="#111827"/><rect x="434" y="312" width="67" height="14" rx="5" fill="#111827"/><rect x="347" y="348" width="67" height="14" rx="5" fill="#111827"/><rect x="434" y="348" width="67" height="14" rx="5" fill="#111827"/><rect x="347" y="384" width="67" height="14" rx="5" fill="#111827"/><rect x="434" y="384" width="67" height="14" rx="5" fill="#111827"/></g>
    <g transform="translate(0 380) rotate(23 512 512)"><rect x="323" y="312" width="49" height="14" rx="5" fill="#111827"/><rect x="392" y="312" width="49" height="14" rx="5" fill="#111827"/><rect x="323" y="348" width="118" height="14" rx="5" fill="#111827"/><rect x="323" y="384" width="118" height="14" rx="5" fill="#111827"/></g>
    <g transform="translate(380 380) rotate(-23 512 512)"><rect x="347" y="288" width="130" height="14" rx="5" fill="#111827"/><rect x="347" y="324" width="55" height="14" rx="5" fill="#111827"/><rect x="422" y="324" width="55" height="14" rx="5" fill="#111827"/><rect x="347" y="360" width="130" height="14" rx="5" fill="#111827"/></g>
  </g>

  <text x="803.4" y="542.6" text-anchor="middle" dominant-baseline="middle" font-size="23" fill="#f97316" opacity="0.75">▣</text><text x="689.1" y="715.8" text-anchor="middle" dominant-baseline="middle" font-size="24" fill="#0ea5e9" opacity="0.75">▤</text><text x="551.8" y="795.2" text-anchor="middle" dominant-baseline="middle" font-size="25" fill="#f97316" opacity="0.75">▥</text><text x="401.1" y="739.4" text-anchor="middle" dominant-baseline="middle" font-size="43" fill="#0ea5e9" opacity="0.75">▦</text><text x="255.4" y="642.7" text-anchor="middle" dominant-baseline="middle" font-size="20" fill="#f97316" opacity="0.75">▧</text><text x="237.1" y="453.6" text-anchor="middle" dominant-baseline="middle" font-size="40" fill="#0ea5e9" opacity="0.75">▣</text><text x="327.2" y="320.7" text-anchor="middle" dominant-baseline="middle" font-size="22" fill="#f97316" opacity="0.75">▤</text><text x="439.5" y="259.2" text-anchor="middle" dominant-baseline="middle" font-size="45" fill="#0ea5e9" opacity="0.75">▥</text><text x="607.4" y="249.8" text-anchor="middle" dominant-baseline="middle" font-size="38" fill="#f97316" opacity="0.75">▦</text><text x="752.0" y="362.0" text-anchor="middle" dominant-baseline="middle" font-size="32" fill="#0ea5e9" opacity="0.75">▧</text>

  <text x="512" y="900" text-anchor="middle" font-size="38" font-family="Inter, Arial, sans-serif" fill="#ecfeff">March 1st Spirit #75</text>
  <text x="512" y="942" text-anchor="middle" font-size="22" font-family="Inter, Arial, sans-serif" fill="#f8fafc">대한독립 만세 · Unique Edition</text>
</svg>