<?xml version="1.0" encoding="UTF-8"?>
<svg xmlns="http://www.w3.org/2000/svg" width="1024" height="1024" viewBox="0 0 1024 1024">
  
      <defs>
        <radialGradient id="g" cx="50%" cy="45%" r="70%">
          <stop offset="0%" stop-color="#f8fafc"/>
          <stop offset="65%" stop-color="#1d4ed8"/>
          <stop offset="100%" stop-color="#0b1020"/>
        </radialGradient>
      </defs>
      <rect width="1024" height="1024" fill="url(#g)"/>
    
  <g><circle cx="512" cy="512" r="310" fill="#f8fafc" stroke="#111827" stroke-width="6"/><circle cx="512" cy="512" r="265" fill="none" stroke="#1d4ed8" opacity="0.35" stroke-width="8"/></g>

  <g transform="translate(512 521) rotate(250)">
    <circle cx="0" cy="0" r="151" fill="#f8fafc" opacity="0.22"/>
    <path d="M0 -141 A 141 141 0 1 1 0 141 A 70.5 70.5 0 1 0 0 -141" fill="#ef4444"/>
    <path d="M0 141 A 141 141 0 1 1 0 -141 A 70.5 70.5 0 1 0 0 141" fill="#1d4ed8"/>
  </g>

  <g opacity="0.94">
    <g transform="rotate(-23 512 512)"><rect x="331" y="312" width="118" height="14" rx="5" fill="#111827"/><rect x="331" y="348" width="118" height="14" rx="5" fill="#111827"/><rect x="331" y="384" width="118" height="14" rx="5" fill="#111827"/></g>
    <g transform="translate(380 0) rotate(23 512 512)"><rect x="315" y="304" width="61" height="14" rx="5" fill="#111827"/><rect x="396" y="304" width="61" height="14" rx="5" fill="#111827"/><rect x="315" y="340" width="61" height="14" rx="5" fill="#111827"/><rect x="396" y="340" width="61" height="14" rx="5" fill="#111827"/><rect x="315" y="376" width="142" height="14" rx="5" fill="#111827"/></g>
    <g transform="translate(0 380) rotate(23 512 512)"><rect x="347" y="312" width="67" height="14" rx="5" fill="#111827"/><rect x="434" y="312" width="67" height="14" rx="5" fill="#111827"/><rect x="347" y="348" width="67" height="14" rx="5" fill="#111827"/><rect x="434" y="348" width="67" height="14" rx="5" fill="#111827"/><rect x="347" y="384" width="67" height="14" rx="5" fill="#111827"/><rect x="434" y="384" width="67" height="14" rx="5" fill="#111827"/></g>
    <g transform="translate(380 380) rotate(-23 512 512)"><rect x="323" y="304" width="61" height="14" rx="5" fill="#111827"/><rect x="404" y="304" width="61" height="14" rx="5" fill="#111827"/><rect x="323" y="340" width="142" height="14" rx="5" fill="#111827"/><rect x="323" y="376" width="61" height="14" rx="5" fill="#111827"/><rect x="404" y="376" width="61" height="14" rx="5" fill="#111827"/></g>
  </g>

  <text x="810.4" y="564.6" text-anchor="middle" dominant-baseline="middle" font-size="46" fill="#ef4444" opacity="0.75">✶</text><text x="735.8" y="733.7" text-anchor="middle" dominant-baseline="middle" font-size="27" fill="#1d4ed8" opacity="0.75">✺</text><text x="644.7" y="831.6" text-anchor="middle" dominant-baseline="middle" font-size="37" fill="#ef4444" opacity="0.75">✹</text><text x="416.8" y="801.8" text-anchor="middle" dominant-baseline="middle" font-size="48" fill="#1d4ed8" opacity="0.75">✷</text><text x="252.6" y="694.2" text-anchor="middle" dominant-baseline="middle" font-size="38" fill="#ef4444" opacity="0.75">✦</text><text x="192.6" y="530.8" text-anchor="middle" dominant-baseline="middle" font-size="20" fill="#1d4ed8" opacity="0.75">✶</text><text x="194.8" y="381.5" text-anchor="middle" dominant-baseline="middle" font-size="36" fill="#ef4444" opacity="0.75">✺</text><text x="347.5" y="226.0" text-anchor="middle" dominant-baseline="middle" font-size="32" fill="#1d4ed8" opacity="0.75">✹</text><text x="552.2" y="175.4" text-anchor="middle" dominant-baseline="middle" font-size="30" fill="#ef4444" opacity="0.75">✷</text><text x="691.7" y="230.4" text-anchor="middle" dominant-baseline="middle" font-size="28" fill="#1d4ed8" opacity="0.75">✦</text><text x="809.3" y="393.5" text-anchor="middle" dominant-baseline="middle" font-size="42" fill="#ef4444" opacity="0.75">✶</text>

  <text x="512" y="900" text-anchor="middle" font-size="38" font-family="Inter, Arial, sans-serif" fill="#f8fafc">March 1st Spirit #76</text>
  <text x="512" y="942" text-anchor="middle" font-size="22" font-family="Inter, Arial, sans-serif" fill="#111827">대한독립 만세 · Unique Edition</text>
</svg>