<?xml version="1.0" encoding="UTF-8"?>
<svg xmlns="http://www.w3.org/2000/svg" width="1024" height="1024" viewBox="0 0 1024 1024">
  <rect width="1024" height="1024" fill="#111827"/><path d="M-40 120 Q 256 87 512 120 T 1064 120" stroke="#fb7185" stroke-width="10" fill="none" opacity="0.35"/><path d="M-40 212 Q 256 173 512 212 T 1064 212" stroke="#2563eb" stroke-width="12" fill="none" opacity="0.35"/><path d="M-40 304 Q 256 270 512 304 T 1064 304" stroke="#fb7185" stroke-width="14" fill="none" opacity="0.35"/><path d="M-40 396 Q 256 366 512 396 T 1064 396" stroke="#2563eb" stroke-width="10" fill="none" opacity="0.35"/><path d="M-40 488 Q 256 470 512 488 T 1064 488" stroke="#fb7185" stroke-width="12" fill="none" opacity="0.35"/><path d="M-40 580 Q 256 554 512 580 T 1064 580" stroke="#2563eb" stroke-width="14" fill="none" opacity="0.35"/><path d="M-40 672 Q 256 626 512 672 T 1064 672" stroke="#fb7185" stroke-width="10" fill="none" opacity="0.35"/><path d="M-40 764 Q 256 737 512 764 T 1064 764" stroke="#2563eb" stroke-width="12" fill="none" opacity="0.35"/><path d="M-40 856 Q 256 829 512 856 T 1064 856" stroke="#fb7185" stroke-width="14" fill="none" opacity="0.35"/><path d="M-40 948 Q 256 906 512 948 T 1064 948" stroke="#2563eb" stroke-width="10" fill="none" opacity="0.35"/>
  <polygon points="512,170 780,330 780,690 512,850 244,690 244,330" fill="#fef3c7" stroke="#e5e7eb" stroke-width="6"/>

  <g transform="translate(512 517) rotate(357)">
    <circle cx="0" cy="0" r="132" fill="#fef3c7" opacity="0.22"/>
    <path d="M0 -122 A 122 122 0 1 1 0 122 A 61 61 0 1 0 0 -122" fill="#fb7185"/>
    <path d="M0 122 A 122 122 0 1 1 0 -122 A 61 61 0 1 0 0 122" fill="#2563eb"/>
  </g>

  <g opacity="0.94">
    <g transform="rotate(-23 512 512)"><rect x="331" y="296" width="61" height="14" rx="5" fill="#111827"/><rect x="412" y="296" width="61" height="14" rx="5" fill="#111827"/><rect x="331" y="332" width="61" height="14" rx="5" fill="#111827"/><rect x="412" y="332" width="61" height="14" rx="5" fill="#111827"/><rect x="331" y="368" width="142" height="14" rx="5" fill="#111827"/></g>
    <g transform="translate(380 0) rotate(23 512 512)"><rect x="323" y="280" width="130" height="14" rx="5" fill="#111827"/><rect x="323" y="316" width="55" height="14" rx="5" fill="#111827"/><rect x="398" y="316" width="55" height="14" rx="5" fill="#111827"/><rect x="323" y="352" width="130" height="14" rx="5" fill="#111827"/></g>
    <g transform="translate(0 380) rotate(23 512 512)"><rect x="347" y="312" width="61" height="14" rx="5" fill="#111827"/><rect x="428" y="312" width="61" height="14" rx="5" fill="#111827"/><rect x="347" y="348" width="142" height="14" rx="5" fill="#111827"/><rect x="347" y="384" width="61" height="14" rx="5" fill="#111827"/><rect x="428" y="384" width="61" height="14" rx="5" fill="#111827"/></g>
    <g transform="translate(380 380) rotate(-23 512 512)"><rect x="323" y="304" width="61" height="14" rx="5" fill="#111827"/><rect x="404" y="304" width="61" height="14" rx="5" fill="#111827"/><rect x="323" y="340" width="142" height="14" rx="5" fill="#111827"/><rect x="323" y="376" width="61" height="14" rx="5" fill="#111827"/><rect x="404" y="376" width="61" height="14" rx="5" fill="#111827"/></g>
  </g>

  <text x="779.0" y="544.8" text-anchor="middle" dominant-baseline="middle" font-size="31" fill="#fb7185" opacity="0.75">✸</text><text x="729.8" y="646.6" text-anchor="middle" dominant-baseline="middle" font-size="27" fill="#2563eb" opacity="0.75">✹</text><text x="658.0" y="716.2" text-anchor="middle" dominant-baseline="middle" font-size="31" fill="#fb7185" opacity="0.75">✦</text><text x="568.3" y="758.7" text-anchor="middle" dominant-baseline="middle" font-size="44" fill="#2563eb" opacity="0.75">☼</text><text x="430.4" y="765.2" text-anchor="middle" dominant-baseline="middle" font-size="46" fill="#fb7185" opacity="0.75">☾</text><text x="317.1" y="684.0" text-anchor="middle" dominant-baseline="middle" font-size="48" fill="#2563eb" opacity="0.75">✸</text><text x="249.2" y="627.4" text-anchor="middle" dominant-baseline="middle" font-size="40" fill="#fb7185" opacity="0.75">✹</text><text x="271.5" y="447.6" text-anchor="middle" dominant-baseline="middle" font-size="23" fill="#2563eb" opacity="0.75">✦</text><text x="268.8" y="373.2" text-anchor="middle" dominant-baseline="middle" font-size="23" fill="#fb7185" opacity="0.75">☼</text><text x="353.3" y="272.9" text-anchor="middle" dominant-baseline="middle" font-size="42" fill="#2563eb" opacity="0.75">☾</text><text x="517.6" y="229.1" text-anchor="middle" dominant-baseline="middle" font-size="33" fill="#fb7185" opacity="0.75">✸</text><text x="576.8" y="228.3" text-anchor="middle" dominant-baseline="middle" font-size="38" fill="#2563eb" opacity="0.75">✹</text><text x="741.3" y="342.8" text-anchor="middle" dominant-baseline="middle" font-size="30" fill="#fb7185" opacity="0.75">✦</text><text x="781.8" y="470.6" text-anchor="middle" dominant-baseline="middle" font-size="21" fill="#2563eb" opacity="0.75">☼</text>

  <text x="512" y="900" text-anchor="middle" font-size="38" font-family="Inter, Arial, sans-serif" fill="#fef3c7">March 1st Spirit #77</text>
  <text x="512" y="942" text-anchor="middle" font-size="22" font-family="Inter, Arial, sans-serif" fill="#e5e7eb">대한독립 만세 · Unique Edition</text>
</svg>