<?xml version="1.0" encoding="UTF-8"?>
<svg xmlns="http://www.w3.org/2000/svg" width="1024" height="1024" viewBox="0 0 1024 1024">
  <rect width="1024" height="1024" fill="#172554"/><line x1="0" y1="0" x2="0" y2="1024" stroke="#38bdf8" opacity="0.18"/><line x1="0" y1="0" x2="1024" y2="0" stroke="#e2e8f0" opacity="0.14"/><line x1="64" y1="0" x2="64" y2="1024" stroke="#38bdf8" opacity="0.18"/><line x1="0" y1="64" x2="1024" y2="64" stroke="#e2e8f0" opacity="0.14"/><line x1="128" y1="0" x2="128" y2="1024" stroke="#38bdf8" opacity="0.18"/><line x1="0" y1="128" x2="1024" y2="128" stroke="#e2e8f0" opacity="0.14"/><line x1="192" y1="0" x2="192" y2="1024" stroke="#38bdf8" opacity="0.18"/><line x1="0" y1="192" x2="1024" y2="192" stroke="#e2e8f0" opacity="0.14"/><line x1="256" y1="0" x2="256" y2="1024" stroke="#38bdf8" opacity="0.18"/><line x1="0" y1="256" x2="1024" y2="256" stroke="#e2e8f0" opacity="0.14"/><line x1="320" y1="0" x2="320" y2="1024" stroke="#38bdf8" opacity="0.18"/><line x1="0" y1="320" x2="1024" y2="320" stroke="#e2e8f0" opacity="0.14"/><line x1="384" y1="0" x2="384" y2="1024" stroke="#38bdf8" opacity="0.18"/><line x1="0" y1="384" x2="1024" y2="384" stroke="#e2e8f0" opacity="0.14"/><line x1="448" y1="0" x2="448" y2="1024" stroke="#38bdf8" opacity="0.18"/><line x1="0" y1="448" x2="1024" y2="448" stroke="#e2e8f0" opacity="0.14"/><line x1="512" y1="0" x2="512" y2="1024" stroke="#38bdf8" opacity="0.18"/><line x1="0" y1="512" x2="1024" y2="512" stroke="#e2e8f0" opacity="0.14"/><line x1="576" y1="0" x2="576" y2="1024" stroke="#38bdf8" opacity="0.18"/><line x1="0" y1="576" x2="1024" y2="576" stroke="#e2e8f0" opacity="0.14"/><line x1="640" y1="0" x2="640" y2="1024" stroke="#38bdf8" opacity="0.18"/><line x1="0" y1="640" x2="1024" y2="640" stroke="#e2e8f0" opacity="0.14"/><line x1="704" y1="0" x2="704" y2="1024" stroke="#38bdf8" opacity="0.18"/><line x1="0" y1="704" x2="1024" y2="704" stroke="#e2e8f0" opacity="0.14"/><line x1="768" y1="0" x2="768" y2="1024" stroke="#38bdf8" opacity="0.18"/><line x1="0" y1="768" x2="1024" y2="768" stroke="#e2e8f0" opacity="0.14"/><line x1="832" y1="0" x2="832" y2="1024" stroke="#38bdf8" opacity="0.18"/><line x1="0" y1="832" x2="1024" y2="832" stroke="#e2e8f0" opacity="0.14"/><line x1="896" y1="0" x2="896" y2="1024" stroke="#38bdf8" opacity="0.18"/><line x1="0" y1="896" x2="1024" y2="896" stroke="#e2e8f0" opacity="0.14"/><line x1="960" y1="0" x2="960" y2="1024" stroke="#38bdf8" opacity="0.18"/><line x1="0" y1="960" x2="1024" y2="960" stroke="#e2e8f0" opacity="0.14"/><line x1="1024" y1="0" x2="1024" y2="1024" stroke="#38bdf8" opacity="0.18"/><line x1="0" y1="1024" x2="1024" y2="1024" stroke="#e2e8f0" opacity="0.14"/>
  <path d="M512 170 L790 300 L735 650 Q700 790 512 860 Q324 790 289 650 L234 300 Z" fill="#ffffff" stroke="#e2e8f0" stroke-width="6"/>

  <g transform="translate(512 508) rotate(39)">
    <circle cx="0" cy="0" r="154" fill="#ffffff" opacity="0.22"/>
    <path d="M0 -144 A 144 144 0 1 1 0 144 A 72 72 0 1 0 0 -144" fill="#dc2626"/>
    <path d="M0 144 A 144 144 0 1 1 0 -144 A 72 72 0 1 0 0 144" fill="#38bdf8"/>
  </g>

  <g opacity="0.94">
    <g transform="rotate(-23 512 512)"><rect x="347" y="288" width="61" height="14" rx="5" fill="#111827"/><rect x="428" y="288" width="61" height="14" rx="5" fill="#111827"/><rect x="347" y="324" width="61" height="14" rx="5" fill="#111827"/><rect x="428" y="324" width="61" height="14" rx="5" fill="#111827"/><rect x="347" y="360" width="142" height="14" rx="5" fill="#111827"/></g>
    <g transform="translate(380 0) rotate(23 512 512)"><rect x="339" y="312" width="130" height="14" rx="5" fill="#111827"/><rect x="339" y="348" width="55" height="14" rx="5" fill="#111827"/><rect x="414" y="348" width="55" height="14" rx="5" fill="#111827"/><rect x="339" y="384" width="130" height="14" rx="5" fill="#111827"/></g>
    <g transform="translate(0 380) rotate(23 512 512)"><rect x="331" y="280" width="67" height="14" rx="5" fill="#111827"/><rect x="418" y="280" width="67" height="14" rx="5" fill="#111827"/><rect x="331" y="316" width="67" height="14" rx="5" fill="#111827"/><rect x="418" y="316" width="67" height="14" rx="5" fill="#111827"/><rect x="331" y="352" width="67" height="14" rx="5" fill="#111827"/><rect x="418" y="352" width="67" height="14" rx="5" fill="#111827"/></g>
    <g transform="translate(380 380) rotate(-23 512 512)"><rect x="323" y="280" width="61" height="14" rx="5" fill="#111827"/><rect x="404" y="280" width="61" height="14" rx="5" fill="#111827"/><rect x="323" y="316" width="61" height="14" rx="5" fill="#111827"/><rect x="404" y="316" width="61" height="14" rx="5" fill="#111827"/><rect x="323" y="352" width="142" height="14" rx="5" fill="#111827"/></g>
  </g>

  <text x="809.6" y="527.6" text-anchor="middle" dominant-baseline="middle" font-size="40" fill="#dc2626" opacity="0.75">■</text><text x="750.8" y="691.9" text-anchor="middle" dominant-baseline="middle" font-size="27" fill="#38bdf8" opacity="0.75">⬢</text><text x="702.1" y="746.7" text-anchor="middle" dominant-baseline="middle" font-size="28" fill="#dc2626" opacity="0.75">▲</text><text x="564.1" y="807.4" text-anchor="middle" dominant-baseline="middle" font-size="47" fill="#38bdf8" opacity="0.75">◆</text><text x="401.5" y="815.5" text-anchor="middle" dominant-baseline="middle" font-size="25" fill="#dc2626" opacity="0.75">●</text><text x="300.5" y="764.0" text-anchor="middle" dominant-baseline="middle" font-size="26" fill="#38bdf8" opacity="0.75">■</text><text x="220.6" y="641.7" text-anchor="middle" dominant-baseline="middle" font-size="35" fill="#dc2626" opacity="0.75">⬢</text><text x="214.0" y="512.0" text-anchor="middle" dominant-baseline="middle" font-size="43" fill="#38bdf8" opacity="0.75">▲</text><text x="237.7" y="395.6" text-anchor="middle" dominant-baseline="middle" font-size="44" fill="#dc2626" opacity="0.75">◆</text><text x="291.2" y="266.8" text-anchor="middle" dominant-baseline="middle" font-size="34" fill="#38bdf8" opacity="0.75">●</text><text x="413.7" y="226.5" text-anchor="middle" dominant-baseline="middle" font-size="49" fill="#dc2626" opacity="0.75">■</text><text x="500.2" y="173.2" text-anchor="middle" dominant-baseline="middle" font-size="46" fill="#38bdf8" opacity="0.75">⬢</text><text x="643.4" y="230.1" text-anchor="middle" dominant-baseline="middle" font-size="28" fill="#dc2626" opacity="0.75">▲</text><text x="754.5" y="315.7" text-anchor="middle" dominant-baseline="middle" font-size="30" fill="#38bdf8" opacity="0.75">◆</text><text x="809.9" y="403.6" text-anchor="middle" dominant-baseline="middle" font-size="39" fill="#dc2626" opacity="0.75">●</text>

  <text x="512" y="900" text-anchor="middle" font-size="38" font-family="Inter, Arial, sans-serif" fill="#ffffff">March 1st Spirit #78</text>
  <text x="512" y="942" text-anchor="middle" font-size="22" font-family="Inter, Arial, sans-serif" fill="#e2e8f0">대한독립 만세 · Unique Edition</text>
</svg>