<?xml version="1.0" encoding="UTF-8"?>
<svg xmlns="http://www.w3.org/2000/svg" width="1024" height="1024" viewBox="0 0 1024 1024">
  <rect width="1024" height="1024" fill="#1e1b4b"/><rect x="-256" y="-80" width="36" height="1200" transform="rotate(20 512 512)" fill="#fef2f2" opacity="0.28"/><rect x="-192" y="-80" width="36" height="1200" transform="rotate(20 512 512)" fill="#22c55e" opacity="0.28"/><rect x="-128" y="-80" width="36" height="1200" transform="rotate(20 512 512)" fill="#fef2f2" opacity="0.28"/><rect x="-64" y="-80" width="36" height="1200" transform="rotate(20 512 512)" fill="#22c55e" opacity="0.28"/><rect x="0" y="-80" width="36" height="1200" transform="rotate(20 512 512)" fill="#fef2f2" opacity="0.28"/><rect x="64" y="-80" width="36" height="1200" transform="rotate(20 512 512)" fill="#22c55e" opacity="0.28"/><rect x="128" y="-80" width="36" height="1200" transform="rotate(20 512 512)" fill="#fef2f2" opacity="0.28"/><rect x="192" y="-80" width="36" height="1200" transform="rotate(20 512 512)" fill="#22c55e" opacity="0.28"/><rect x="256" y="-80" width="36" height="1200" transform="rotate(20 512 512)" fill="#fef2f2" opacity="0.28"/><rect x="320" y="-80" width="36" height="1200" transform="rotate(20 512 512)" fill="#22c55e" opacity="0.28"/><rect x="384" y="-80" width="36" height="1200" transform="rotate(20 512 512)" fill="#fef2f2" opacity="0.28"/><rect x="448" y="-80" width="36" height="1200" transform="rotate(20 512 512)" fill="#22c55e" opacity="0.28"/><rect x="512" y="-80" width="36" height="1200" transform="rotate(20 512 512)" fill="#fef2f2" opacity="0.28"/><rect x="576" y="-80" width="36" height="1200" transform="rotate(20 512 512)" fill="#22c55e" opacity="0.28"/><rect x="640" y="-80" width="36" height="1200" transform="rotate(20 512 512)" fill="#fef2f2" opacity="0.28"/><rect x="704" y="-80" width="36" height="1200" transform="rotate(20 512 512)" fill="#22c55e" opacity="0.28"/><rect x="768" y="-80" width="36" height="1200" transform="rotate(20 512 512)" fill="#fef2f2" opacity="0.28"/><rect x="832" y="-80" width="36" height="1200" transform="rotate(20 512 512)" fill="#22c55e" opacity="0.28"/><rect x="896" y="-80" width="36" height="1200" transform="rotate(20 512 512)" fill="#fef2f2" opacity="0.28"/><rect x="960" y="-80" width="36" height="1200" transform="rotate(20 512 512)" fill="#22c55e" opacity="0.28"/><rect x="1024" y="-80" width="36" height="1200" transform="rotate(20 512 512)" fill="#fef2f2" opacity="0.28"/><rect x="1088" y="-80" width="36" height="1200" transform="rotate(20 512 512)" fill="#22c55e" opacity="0.28"/><rect x="1152" y="-80" width="36" height="1200" transform="rotate(20 512 512)" fill="#fef2f2" opacity="0.28"/><rect x="1216" y="-80" width="36" height="1200" transform="rotate(20 512 512)" fill="#22c55e" opacity="0.28"/><rect x="1280" y="-80" width="36" height="1200" transform="rotate(20 512 512)" fill="#fef2f2" opacity="0.28"/><rect x="1344" y="-80" width="36" height="1200" transform="rotate(20 512 512)" fill="#22c55e" opacity="0.28"/><rect x="1408" y="-80" width="36" height="1200" transform="rotate(20 512 512)" fill="#fef2f2" opacity="0.28"/><rect x="1472" y="-80" width="36" height="1200" transform="rotate(20 512 512)" fill="#22c55e" opacity="0.28"/>
  <g><circle cx="512" cy="512" r="310" fill="#f1f5f9" stroke="#fef2f2" stroke-width="6"/><circle cx="512" cy="512" r="265" fill="none" stroke="#22c55e" opacity="0.35" stroke-width="8"/></g>

  <g transform="translate(512 515) rotate(10)">
    <circle cx="0" cy="0" r="137" fill="#f1f5f9" opacity="0.22"/>
    <path d="M0 -127 A 127 127 0 1 1 0 127 A 63.5 63.5 0 1 0 0 -127" fill="#ef4444"/>
    <path d="M0 127 A 127 127 0 1 1 0 -127 A 63.5 63.5 0 1 0 0 127" fill="#22c55e"/>
  </g>

  <g opacity="0.94">
    <g transform="rotate(-23 512 512)"><rect x="315" y="280" width="118" height="14" rx="5" fill="#111827"/><rect x="315" y="316" width="118" height="14" rx="5" fill="#111827"/><rect x="315" y="352" width="118" height="14" rx="5" fill="#111827"/></g>
    <g transform="translate(380 0) rotate(23 512 512)"><rect x="339" y="296" width="67" height="14" rx="5" fill="#111827"/><rect x="426" y="296" width="67" height="14" rx="5" fill="#111827"/><rect x="339" y="332" width="67" height="14" rx="5" fill="#111827"/><rect x="426" y="332" width="67" height="14" rx="5" fill="#111827"/><rect x="339" y="368" width="67" height="14" rx="5" fill="#111827"/><rect x="426" y="368" width="67" height="14" rx="5" fill="#111827"/></g>
    <g transform="translate(0 380) rotate(23 512 512)"><rect x="315" y="288" width="67" height="14" rx="5" fill="#111827"/><rect x="402" y="288" width="67" height="14" rx="5" fill="#111827"/><rect x="315" y="324" width="67" height="14" rx="5" fill="#111827"/><rect x="402" y="324" width="67" height="14" rx="5" fill="#111827"/><rect x="315" y="360" width="67" height="14" rx="5" fill="#111827"/><rect x="402" y="360" width="67" height="14" rx="5" fill="#111827"/></g>
    <g transform="translate(380 380) rotate(-23 512 512)"><rect x="315" y="312" width="154" height="14" rx="5" fill="#111827"/><rect x="315" y="348" width="154" height="14" rx="5" fill="#111827"/><rect x="315" y="384" width="67" height="14" rx="5" fill="#111827"/><rect x="402" y="384" width="67" height="14" rx="5" fill="#111827"/></g>
  </g>

  <text x="754.5" y="559.1" text-anchor="middle" dominant-baseline="middle" font-size="22" fill="#ef4444" opacity="0.75">▦</text><text x="712.1" y="637.1" text-anchor="middle" dominant-baseline="middle" font-size="43" fill="#22c55e" opacity="0.75">▧</text><text x="663.1" y="719.9" text-anchor="middle" dominant-baseline="middle" font-size="22" fill="#ef4444" opacity="0.75">▣</text><text x="569.8" y="762.4" text-anchor="middle" dominant-baseline="middle" font-size="21" fill="#22c55e" opacity="0.75">▤</text><text x="463.3" y="762.3" text-anchor="middle" dominant-baseline="middle" font-size="37" fill="#ef4444" opacity="0.75">▥</text><text x="342.2" y="694.1" text-anchor="middle" dominant-baseline="middle" font-size="48" fill="#22c55e" opacity="0.75">▦</text><text x="290.7" y="588.2" text-anchor="middle" dominant-baseline="middle" font-size="30" fill="#ef4444" opacity="0.75">▧</text><text x="274.7" y="553.8" text-anchor="middle" dominant-baseline="middle" font-size="35" fill="#22c55e" opacity="0.75">▣</text><text x="294.8" y="396.5" text-anchor="middle" dominant-baseline="middle" font-size="30" fill="#ef4444" opacity="0.75">▤</text><text x="339.4" y="345.3" text-anchor="middle" dominant-baseline="middle" font-size="48" fill="#22c55e" opacity="0.75">▥</text><text x="451.4" y="286.0" text-anchor="middle" dominant-baseline="middle" font-size="38" fill="#ef4444" opacity="0.75">▦</text><text x="487.1" y="275.3" text-anchor="middle" dominant-baseline="middle" font-size="27" fill="#22c55e" opacity="0.75">▧</text><text x="617.8" y="304.4" text-anchor="middle" dominant-baseline="middle" font-size="36" fill="#ef4444" opacity="0.75">▣</text><text x="705.4" y="371.5" text-anchor="middle" dominant-baseline="middle" font-size="22" fill="#22c55e" opacity="0.75">▤</text><text x="732.0" y="418.6" text-anchor="middle" dominant-baseline="middle" font-size="25" fill="#ef4444" opacity="0.75">▥</text>

  <text x="512" y="900" text-anchor="middle" font-size="38" font-family="Inter, Arial, sans-serif" fill="#f1f5f9">March 1st Spirit #8</text>
  <text x="512" y="942" text-anchor="middle" font-size="22" font-family="Inter, Arial, sans-serif" fill="#fef2f2">대한독립 만세 · Unique Edition</text>
</svg>