<?xml version="1.0" encoding="UTF-8"?>
<svg xmlns="http://www.w3.org/2000/svg" width="1024" height="1024" viewBox="0 0 1024 1024">
  <rect width="1024" height="1024" fill="#020617"/><rect x="500" y="80" width="24" height="430" fill="#f43f5e" opacity="0.23" transform="rotate(0 512 512)"/><rect x="500" y="80" width="24" height="430" fill="#6366f1" opacity="0.23" transform="rotate(12.857142857142858 512 512)"/><rect x="500" y="80" width="24" height="430" fill="#f43f5e" opacity="0.23" transform="rotate(25.714285714285715 512 512)"/><rect x="500" y="80" width="24" height="430" fill="#6366f1" opacity="0.23" transform="rotate(38.57142857142857 512 512)"/><rect x="500" y="80" width="24" height="430" fill="#f43f5e" opacity="0.23" transform="rotate(51.42857142857143 512 512)"/><rect x="500" y="80" width="24" height="430" fill="#6366f1" opacity="0.23" transform="rotate(64.28571428571429 512 512)"/><rect x="500" y="80" width="24" height="430" fill="#f43f5e" opacity="0.23" transform="rotate(77.14285714285714 512 512)"/><rect x="500" y="80" width="24" height="430" fill="#6366f1" opacity="0.23" transform="rotate(90 512 512)"/><rect x="500" y="80" width="24" height="430" fill="#f43f5e" opacity="0.23" transform="rotate(102.85714285714286 512 512)"/><rect x="500" y="80" width="24" height="430" fill="#6366f1" opacity="0.23" transform="rotate(115.71428571428572 512 512)"/><rect x="500" y="80" width="24" height="430" fill="#f43f5e" opacity="0.23" transform="rotate(128.57142857142858 512 512)"/><rect x="500" y="80" width="24" height="430" fill="#6366f1" opacity="0.23" transform="rotate(141.42857142857144 512 512)"/><rect x="500" y="80" width="24" height="430" fill="#f43f5e" opacity="0.23" transform="rotate(154.28571428571428 512 512)"/><rect x="500" y="80" width="24" height="430" fill="#6366f1" opacity="0.23" transform="rotate(167.14285714285714 512 512)"/><rect x="500" y="80" width="24" height="430" fill="#f43f5e" opacity="0.23" transform="rotate(180 512 512)"/><rect x="500" y="80" width="24" height="430" fill="#6366f1" opacity="0.23" transform="rotate(192.85714285714286 512 512)"/><rect x="500" y="80" width="24" height="430" fill="#f43f5e" opacity="0.23" transform="rotate(205.71428571428572 512 512)"/><rect x="500" y="80" width="24" height="430" fill="#6366f1" opacity="0.23" transform="rotate(218.57142857142858 512 512)"/><rect x="500" y="80" width="24" height="430" fill="#f43f5e" opacity="0.23" transform="rotate(231.42857142857144 512 512)"/><rect x="500" y="80" width="24" height="430" fill="#6366f1" opacity="0.23" transform="rotate(244.2857142857143 512 512)"/><rect x="500" y="80" width="24" height="430" fill="#f43f5e" opacity="0.23" transform="rotate(257.14285714285717 512 512)"/><rect x="500" y="80" width="24" height="430" fill="#6366f1" opacity="0.23" transform="rotate(270 512 512)"/><rect x="500" y="80" width="24" height="430" fill="#f43f5e" opacity="0.23" transform="rotate(282.8571428571429 512 512)"/><rect x="500" y="80" width="24" height="430" fill="#6366f1" opacity="0.23" transform="rotate(295.7142857142857 512 512)"/><rect x="500" y="80" width="24" height="430" fill="#f43f5e" opacity="0.23" transform="rotate(308.57142857142856 512 512)"/><rect x="500" y="80" width="24" height="430" fill="#6366f1" opacity="0.23" transform="rotate(321.42857142857144 512 512)"/><rect x="500" y="80" width="24" height="430" fill="#f43f5e" opacity="0.23" transform="rotate(334.2857142857143 512 512)"/><rect x="500" y="80" width="24" height="430" fill="#6366f1" opacity="0.23" transform="rotate(347.14285714285717 512 512)"/><circle cx="512" cy="512" r="190" fill="#f8fafc" opacity="0.2"/>
  <g><circle cx="512" cy="512" r="310" fill="#f8fafc" stroke="#cbd5e1" stroke-width="6"/><circle cx="512" cy="512" r="265" fill="none" stroke="#6366f1" opacity="0.35" stroke-width="8"/></g>

  <g transform="translate(512 503) rotate(84)">
    <circle cx="0" cy="0" r="135" fill="#f8fafc" opacity="0.22"/>
    <path d="M0 -125 A 125 125 0 1 1 0 125 A 62.5 62.5 0 1 0 0 -125" fill="#f43f5e"/>
    <path d="M0 125 A 125 125 0 1 1 0 -125 A 62.5 62.5 0 1 0 0 125" fill="#6366f1"/>
  </g>

  <g opacity="0.94">
    <g transform="rotate(-23 512 512)"><rect x="323" y="304" width="61" height="14" rx="5" fill="#111827"/><rect x="404" y="304" width="61" height="14" rx="5" fill="#111827"/><rect x="323" y="340" width="142" height="14" rx="5" fill="#111827"/><rect x="323" y="376" width="61" height="14" rx="5" fill="#111827"/><rect x="404" y="376" width="61" height="14" rx="5" fill="#111827"/></g>
    <g transform="translate(380 0) rotate(23 512 512)"><rect x="347" y="304" width="130" height="14" rx="5" fill="#111827"/><rect x="347" y="340" width="55" height="14" rx="5" fill="#111827"/><rect x="422" y="340" width="55" height="14" rx="5" fill="#111827"/><rect x="347" y="376" width="55" height="14" rx="5" fill="#111827"/><rect x="422" y="376" width="55" height="14" rx="5" fill="#111827"/></g>
    <g transform="translate(0 380) rotate(23 512 512)"><rect x="339" y="312" width="130" height="14" rx="5" fill="#111827"/><rect x="339" y="348" width="55" height="14" rx="5" fill="#111827"/><rect x="414" y="348" width="55" height="14" rx="5" fill="#111827"/><rect x="339" y="384" width="130" height="14" rx="5" fill="#111827"/></g>
    <g transform="translate(380 380) rotate(-23 512 512)"><rect x="315" y="280" width="130" height="14" rx="5" fill="#111827"/><rect x="315" y="316" width="55" height="14" rx="5" fill="#111827"/><rect x="390" y="316" width="55" height="14" rx="5" fill="#111827"/><rect x="315" y="352" width="55" height="14" rx="5" fill="#111827"/><rect x="390" y="352" width="55" height="14" rx="5" fill="#111827"/></g>
  </g>

  <text x="841.7" y="606.5" text-anchor="middle" dominant-baseline="middle" font-size="36" fill="#f43f5e" opacity="0.75">▣</text><text x="814.6" y="677.6" text-anchor="middle" dominant-baseline="middle" font-size="31" fill="#6366f1" opacity="0.75">▤</text><text x="691.8" y="804.1" text-anchor="middle" dominant-baseline="middle" font-size="36" fill="#f43f5e" opacity="0.75">▥</text><text x="523.7" y="861.8" text-anchor="middle" dominant-baseline="middle" font-size="21" fill="#6366f1" opacity="0.75">▦</text><text x="352.1" y="791.5" text-anchor="middle" dominant-baseline="middle" font-size="25" fill="#f43f5e" opacity="0.75">▧</text><text x="254.5" y="740.1" text-anchor="middle" dominant-baseline="middle" font-size="45" fill="#6366f1" opacity="0.75">▣</text><text x="170.4" y="529.0" text-anchor="middle" dominant-baseline="middle" font-size="21" fill="#f43f5e" opacity="0.75">▤</text><text x="208.7" y="351.8" text-anchor="middle" dominant-baseline="middle" font-size="42" fill="#6366f1" opacity="0.75">▥</text><text x="265.4" y="260.8" text-anchor="middle" dominant-baseline="middle" font-size="46" fill="#f43f5e" opacity="0.75">▦</text><text x="485.2" y="191.1" text-anchor="middle" dominant-baseline="middle" font-size="32" fill="#6366f1" opacity="0.75">▧</text><text x="556.2" y="194.1" text-anchor="middle" dominant-baseline="middle" font-size="38" fill="#f43f5e" opacity="0.75">▣</text><text x="724.9" y="263.8" text-anchor="middle" dominant-baseline="middle" font-size="23" fill="#6366f1" opacity="0.75">▤</text><text x="833.5" y="384.1" text-anchor="middle" dominant-baseline="middle" font-size="33" fill="#f43f5e" opacity="0.75">▥</text>

  <text x="512" y="900" text-anchor="middle" font-size="38" font-family="Inter, Arial, sans-serif" fill="#f8fafc">March 1st Spirit #80</text>
  <text x="512" y="942" text-anchor="middle" font-size="22" font-family="Inter, Arial, sans-serif" fill="#cbd5e1">대한독립 만세 · Unique Edition</text>
</svg>