<?xml version="1.0" encoding="UTF-8"?>
<svg xmlns="http://www.w3.org/2000/svg" width="1024" height="1024" viewBox="0 0 1024 1024">
  <rect width="1024" height="1024" fill="#020617"/><line x1="0" y1="0" x2="0" y2="1024" stroke="#6366f1" opacity="0.18"/><line x1="0" y1="0" x2="1024" y2="0" stroke="#cbd5e1" opacity="0.14"/><line x1="64" y1="0" x2="64" y2="1024" stroke="#6366f1" opacity="0.18"/><line x1="0" y1="64" x2="1024" y2="64" stroke="#cbd5e1" opacity="0.14"/><line x1="128" y1="0" x2="128" y2="1024" stroke="#6366f1" opacity="0.18"/><line x1="0" y1="128" x2="1024" y2="128" stroke="#cbd5e1" opacity="0.14"/><line x1="192" y1="0" x2="192" y2="1024" stroke="#6366f1" opacity="0.18"/><line x1="0" y1="192" x2="1024" y2="192" stroke="#cbd5e1" opacity="0.14"/><line x1="256" y1="0" x2="256" y2="1024" stroke="#6366f1" opacity="0.18"/><line x1="0" y1="256" x2="1024" y2="256" stroke="#cbd5e1" opacity="0.14"/><line x1="320" y1="0" x2="320" y2="1024" stroke="#6366f1" opacity="0.18"/><line x1="0" y1="320" x2="1024" y2="320" stroke="#cbd5e1" opacity="0.14"/><line x1="384" y1="0" x2="384" y2="1024" stroke="#6366f1" opacity="0.18"/><line x1="0" y1="384" x2="1024" y2="384" stroke="#cbd5e1" opacity="0.14"/><line x1="448" y1="0" x2="448" y2="1024" stroke="#6366f1" opacity="0.18"/><line x1="0" y1="448" x2="1024" y2="448" stroke="#cbd5e1" opacity="0.14"/><line x1="512" y1="0" x2="512" y2="1024" stroke="#6366f1" opacity="0.18"/><line x1="0" y1="512" x2="1024" y2="512" stroke="#cbd5e1" opacity="0.14"/><line x1="576" y1="0" x2="576" y2="1024" stroke="#6366f1" opacity="0.18"/><line x1="0" y1="576" x2="1024" y2="576" stroke="#cbd5e1" opacity="0.14"/><line x1="640" y1="0" x2="640" y2="1024" stroke="#6366f1" opacity="0.18"/><line x1="0" y1="640" x2="1024" y2="640" stroke="#cbd5e1" opacity="0.14"/><line x1="704" y1="0" x2="704" y2="1024" stroke="#6366f1" opacity="0.18"/><line x1="0" y1="704" x2="1024" y2="704" stroke="#cbd5e1" opacity="0.14"/><line x1="768" y1="0" x2="768" y2="1024" stroke="#6366f1" opacity="0.18"/><line x1="0" y1="768" x2="1024" y2="768" stroke="#cbd5e1" opacity="0.14"/><line x1="832" y1="0" x2="832" y2="1024" stroke="#6366f1" opacity="0.18"/><line x1="0" y1="832" x2="1024" y2="832" stroke="#cbd5e1" opacity="0.14"/><line x1="896" y1="0" x2="896" y2="1024" stroke="#6366f1" opacity="0.18"/><line x1="0" y1="896" x2="1024" y2="896" stroke="#cbd5e1" opacity="0.14"/><line x1="960" y1="0" x2="960" y2="1024" stroke="#6366f1" opacity="0.18"/><line x1="0" y1="960" x2="1024" y2="960" stroke="#cbd5e1" opacity="0.14"/><line x1="1024" y1="0" x2="1024" y2="1024" stroke="#6366f1" opacity="0.18"/><line x1="0" y1="1024" x2="1024" y2="1024" stroke="#cbd5e1" opacity="0.14"/>
  <g><circle cx="512" cy="512" r="310" fill="#f8fafc" stroke="#cbd5e1" stroke-width="6"/><circle cx="512" cy="512" r="265" fill="none" stroke="#6366f1" opacity="0.35" stroke-width="8"/></g>

  <g transform="translate(512 504) rotate(232)">
    <circle cx="0" cy="0" r="151" fill="#f8fafc" opacity="0.22"/>
    <path d="M0 -141 A 141 141 0 1 1 0 141 A 70.5 70.5 0 1 0 0 -141" fill="#f43f5e"/>
    <path d="M0 141 A 141 141 0 1 1 0 -141 A 70.5 70.5 0 1 0 0 141" fill="#6366f1"/>
  </g>

  <g opacity="0.94">
    <g transform="rotate(-23 512 512)"><rect x="347" y="312" width="67" height="14" rx="5" fill="#111827"/><rect x="434" y="312" width="67" height="14" rx="5" fill="#111827"/><rect x="347" y="348" width="67" height="14" rx="5" fill="#111827"/><rect x="434" y="348" width="67" height="14" rx="5" fill="#111827"/><rect x="347" y="384" width="67" height="14" rx="5" fill="#111827"/><rect x="434" y="384" width="67" height="14" rx="5" fill="#111827"/></g>
    <g transform="translate(380 0) rotate(23 512 512)"><rect x="315" y="280" width="130" height="14" rx="5" fill="#111827"/><rect x="315" y="316" width="55" height="14" rx="5" fill="#111827"/><rect x="390" y="316" width="55" height="14" rx="5" fill="#111827"/><rect x="315" y="352" width="55" height="14" rx="5" fill="#111827"/><rect x="390" y="352" width="55" height="14" rx="5" fill="#111827"/></g>
    <g transform="translate(0 380) rotate(23 512 512)"><rect x="347" y="312" width="67" height="14" rx="5" fill="#111827"/><rect x="434" y="312" width="67" height="14" rx="5" fill="#111827"/><rect x="347" y="348" width="67" height="14" rx="5" fill="#111827"/><rect x="434" y="348" width="67" height="14" rx="5" fill="#111827"/><rect x="347" y="384" width="67" height="14" rx="5" fill="#111827"/><rect x="434" y="384" width="67" height="14" rx="5" fill="#111827"/></g>
    <g transform="translate(380 380) rotate(-23 512 512)"><rect x="331" y="304" width="154" height="14" rx="5" fill="#111827"/><rect x="331" y="340" width="154" height="14" rx="5" fill="#111827"/><rect x="331" y="376" width="67" height="14" rx="5" fill="#111827"/><rect x="418" y="376" width="67" height="14" rx="5" fill="#111827"/></g>
  </g>

  <text x="846.2" y="535.4" text-anchor="middle" dominant-baseline="middle" font-size="48" fill="#f43f5e" opacity="0.75">✶</text><text x="740.5" y="757.0" text-anchor="middle" dominant-baseline="middle" font-size="43" fill="#6366f1" opacity="0.75">✺</text><text x="617.3" y="856.3" text-anchor="middle" dominant-baseline="middle" font-size="49" fill="#f43f5e" opacity="0.75">✹</text><text x="443.9" y="862.4" text-anchor="middle" dominant-baseline="middle" font-size="34" fill="#6366f1" opacity="0.75">✷</text><text x="273.6" y="734.3" text-anchor="middle" dominant-baseline="middle" font-size="30" fill="#f43f5e" opacity="0.75">✦</text><text x="174.9" y="589.8" text-anchor="middle" dominant-baseline="middle" font-size="31" fill="#6366f1" opacity="0.75">✶</text><text x="174.2" y="500.2" text-anchor="middle" dominant-baseline="middle" font-size="31" fill="#f43f5e" opacity="0.75">✺</text><text x="272.5" y="280.7" text-anchor="middle" dominant-baseline="middle" font-size="42" fill="#6366f1" opacity="0.75">✹</text><text x="416.9" y="180.4" text-anchor="middle" dominant-baseline="middle" font-size="46" fill="#f43f5e" opacity="0.75">✷</text><text x="603.0" y="194.8" text-anchor="middle" dominant-baseline="middle" font-size="44" fill="#6366f1" opacity="0.75">✦</text><text x="743.9" y="280.1" text-anchor="middle" dominant-baseline="middle" font-size="21" fill="#f43f5e" opacity="0.75">✶</text><text x="829.4" y="390.2" text-anchor="middle" dominant-baseline="middle" font-size="31" fill="#6366f1" opacity="0.75">✺</text>

  <text x="512" y="900" text-anchor="middle" font-size="38" font-family="Inter, Arial, sans-serif" fill="#f8fafc">March 1st Spirit #81</text>
  <text x="512" y="942" text-anchor="middle" font-size="22" font-family="Inter, Arial, sans-serif" fill="#cbd5e1">대한독립 만세 · Unique Edition</text>
</svg>