<?xml version="1.0" encoding="UTF-8"?>
<svg xmlns="http://www.w3.org/2000/svg" width="1024" height="1024" viewBox="0 0 1024 1024">
  <rect width="1024" height="1024" fill="#172554"/><path d="M-40 120 Q 256 75 512 120 T 1064 120" stroke="#dc2626" stroke-width="10" fill="none" opacity="0.35"/><path d="M-40 212 Q 256 187 512 212 T 1064 212" stroke="#38bdf8" stroke-width="12" fill="none" opacity="0.35"/><path d="M-40 304 Q 256 276 512 304 T 1064 304" stroke="#dc2626" stroke-width="14" fill="none" opacity="0.35"/><path d="M-40 396 Q 256 361 512 396 T 1064 396" stroke="#38bdf8" stroke-width="10" fill="none" opacity="0.35"/><path d="M-40 488 Q 256 450 512 488 T 1064 488" stroke="#dc2626" stroke-width="12" fill="none" opacity="0.35"/><path d="M-40 580 Q 256 554 512 580 T 1064 580" stroke="#38bdf8" stroke-width="14" fill="none" opacity="0.35"/><path d="M-40 672 Q 256 642 512 672 T 1064 672" stroke="#dc2626" stroke-width="10" fill="none" opacity="0.35"/><path d="M-40 764 Q 256 721 512 764 T 1064 764" stroke="#38bdf8" stroke-width="12" fill="none" opacity="0.35"/><path d="M-40 856 Q 256 826 512 856 T 1064 856" stroke="#dc2626" stroke-width="14" fill="none" opacity="0.35"/><path d="M-40 948 Q 256 923 512 948 T 1064 948" stroke="#38bdf8" stroke-width="10" fill="none" opacity="0.35"/>
  <g><circle cx="512" cy="512" r="310" fill="#ffffff" stroke="#e2e8f0" stroke-width="6"/><circle cx="512" cy="512" r="265" fill="none" stroke="#38bdf8" opacity="0.35" stroke-width="8"/></g>

  <g transform="translate(512 509) rotate(359)">
    <circle cx="0" cy="0" r="171" fill="#ffffff" opacity="0.22"/>
    <path d="M0 -161 A 161 161 0 1 1 0 161 A 80.5 80.5 0 1 0 0 -161" fill="#dc2626"/>
    <path d="M0 161 A 161 161 0 1 1 0 -161 A 80.5 80.5 0 1 0 0 161" fill="#38bdf8"/>
  </g>

  <g opacity="0.94">
    <g transform="rotate(-23 512 512)"><rect x="315" y="288" width="67" height="14" rx="5" fill="#111827"/><rect x="402" y="288" width="67" height="14" rx="5" fill="#111827"/><rect x="315" y="324" width="67" height="14" rx="5" fill="#111827"/><rect x="402" y="324" width="67" height="14" rx="5" fill="#111827"/><rect x="315" y="360" width="67" height="14" rx="5" fill="#111827"/><rect x="402" y="360" width="67" height="14" rx="5" fill="#111827"/></g>
    <g transform="translate(380 0) rotate(23 512 512)"><rect x="339" y="296" width="61" height="14" rx="5" fill="#111827"/><rect x="420" y="296" width="61" height="14" rx="5" fill="#111827"/><rect x="339" y="332" width="142" height="14" rx="5" fill="#111827"/><rect x="339" y="368" width="61" height="14" rx="5" fill="#111827"/><rect x="420" y="368" width="61" height="14" rx="5" fill="#111827"/></g>
    <g transform="translate(0 380) rotate(23 512 512)"><rect x="323" y="304" width="67" height="14" rx="5" fill="#111827"/><rect x="410" y="304" width="67" height="14" rx="5" fill="#111827"/><rect x="323" y="340" width="67" height="14" rx="5" fill="#111827"/><rect x="410" y="340" width="67" height="14" rx="5" fill="#111827"/><rect x="323" y="376" width="67" height="14" rx="5" fill="#111827"/><rect x="410" y="376" width="67" height="14" rx="5" fill="#111827"/></g>
    <g transform="translate(380 380) rotate(-23 512 512)"><rect x="347" y="296" width="154" height="14" rx="5" fill="#111827"/><rect x="347" y="332" width="154" height="14" rx="5" fill="#111827"/><rect x="347" y="368" width="67" height="14" rx="5" fill="#111827"/><rect x="434" y="368" width="67" height="14" rx="5" fill="#111827"/></g>
  </g>

  <text x="806.0" y="517.1" text-anchor="middle" dominant-baseline="middle" font-size="32" fill="#dc2626" opacity="0.75">✺</text><text x="670.5" y="798.0" text-anchor="middle" dominant-baseline="middle" font-size="24" fill="#38bdf8" opacity="0.75">✹</text><text x="457.8" y="819.3" text-anchor="middle" dominant-baseline="middle" font-size="40" fill="#dc2626" opacity="0.75">✷</text><text x="233.1" y="673.0" text-anchor="middle" dominant-baseline="middle" font-size="22" fill="#38bdf8" opacity="0.75">✦</text><text x="225.2" y="476.8" text-anchor="middle" dominant-baseline="middle" font-size="27" fill="#dc2626" opacity="0.75">✶</text><text x="312.6" y="290.5" text-anchor="middle" dominant-baseline="middle" font-size="39" fill="#38bdf8" opacity="0.75">✺</text><text x="571.2" y="207.7" text-anchor="middle" dominant-baseline="middle" font-size="35" fill="#dc2626" opacity="0.75">✹</text><text x="760.4" y="331.5" text-anchor="middle" dominant-baseline="middle" font-size="41" fill="#38bdf8" opacity="0.75">✷</text>

  <text x="512" y="900" text-anchor="middle" font-size="38" font-family="Inter, Arial, sans-serif" fill="#ffffff">March 1st Spirit #82</text>
  <text x="512" y="942" text-anchor="middle" font-size="22" font-family="Inter, Arial, sans-serif" fill="#e2e8f0">대한독립 만세 · Unique Edition</text>
</svg>