<?xml version="1.0" encoding="UTF-8"?>
<svg xmlns="http://www.w3.org/2000/svg" width="1024" height="1024" viewBox="0 0 1024 1024">
  
      <defs>
        <radialGradient id="g" cx="50%" cy="45%" r="70%">
          <stop offset="0%" stop-color="#f1f5f9"/>
          <stop offset="65%" stop-color="#22c55e"/>
          <stop offset="100%" stop-color="#1e1b4b"/>
        </radialGradient>
      </defs>
      <rect width="1024" height="1024" fill="url(#g)"/>
    
  <path d="M512 170 L790 300 L735 650 Q700 790 512 860 Q324 790 289 650 L234 300 Z" fill="#f1f5f9" stroke="#fef2f2" stroke-width="6"/>

  <g transform="translate(512 509) rotate(45)">
    <circle cx="0" cy="0" r="133" fill="#f1f5f9" opacity="0.22"/>
    <path d="M0 -123 A 123 123 0 1 1 0 123 A 61.5 61.5 0 1 0 0 -123" fill="#ef4444"/>
    <path d="M0 123 A 123 123 0 1 1 0 -123 A 61.5 61.5 0 1 0 0 123" fill="#22c55e"/>
  </g>

  <g opacity="0.94">
    <g transform="rotate(-23 512 512)"><rect x="347" y="288" width="61" height="14" rx="5" fill="#111827"/><rect x="428" y="288" width="61" height="14" rx="5" fill="#111827"/><rect x="347" y="324" width="61" height="14" rx="5" fill="#111827"/><rect x="428" y="324" width="61" height="14" rx="5" fill="#111827"/><rect x="347" y="360" width="142" height="14" rx="5" fill="#111827"/></g>
    <g transform="translate(380 0) rotate(23 512 512)"><rect x="347" y="296" width="154" height="14" rx="5" fill="#111827"/><rect x="347" y="332" width="154" height="14" rx="5" fill="#111827"/><rect x="347" y="368" width="67" height="14" rx="5" fill="#111827"/><rect x="434" y="368" width="67" height="14" rx="5" fill="#111827"/></g>
    <g transform="translate(0 380) rotate(23 512 512)"><rect x="339" y="312" width="130" height="14" rx="5" fill="#111827"/><rect x="339" y="348" width="55" height="14" rx="5" fill="#111827"/><rect x="414" y="348" width="55" height="14" rx="5" fill="#111827"/><rect x="339" y="384" width="130" height="14" rx="5" fill="#111827"/></g>
    <g transform="translate(380 380) rotate(-23 512 512)"><rect x="315" y="304" width="130" height="14" rx="5" fill="#111827"/><rect x="315" y="340" width="55" height="14" rx="5" fill="#111827"/><rect x="390" y="340" width="55" height="14" rx="5" fill="#111827"/><rect x="315" y="376" width="130" height="14" rx="5" fill="#111827"/></g>
  </g>

  <text x="781.9" y="574.3" text-anchor="middle" dominant-baseline="middle" font-size="47" fill="#ef4444" opacity="0.75">✪</text><text x="670.7" y="730.4" text-anchor="middle" dominant-baseline="middle" font-size="46" fill="#22c55e" opacity="0.75">✺</text><text x="454.4" y="782.9" text-anchor="middle" dominant-baseline="middle" font-size="36" fill="#ef4444" opacity="0.75">⟡</text><text x="259.1" y="658.0" text-anchor="middle" dominant-baseline="middle" font-size="30" fill="#22c55e" opacity="0.75">⬟</text><text x="249.6" y="475.1" text-anchor="middle" dominant-baseline="middle" font-size="44" fill="#ef4444" opacity="0.75">⬢</text><text x="336.9" y="279.6" text-anchor="middle" dominant-baseline="middle" font-size="40" fill="#22c55e" opacity="0.75">✪</text><text x="517.2" y="216.0" text-anchor="middle" dominant-baseline="middle" font-size="23" fill="#ef4444" opacity="0.75">✺</text><text x="771.8" y="368.0" text-anchor="middle" dominant-baseline="middle" font-size="49" fill="#22c55e" opacity="0.75">⟡</text>

  <text x="512" y="900" text-anchor="middle" font-size="38" font-family="Inter, Arial, sans-serif" fill="#f1f5f9">March 1st Spirit #83</text>
  <text x="512" y="942" text-anchor="middle" font-size="22" font-family="Inter, Arial, sans-serif" fill="#fef2f2">대한독립 만세 · Unique Edition</text>
</svg>