<?xml version="1.0" encoding="UTF-8"?>
<svg xmlns="http://www.w3.org/2000/svg" width="1024" height="1024" viewBox="0 0 1024 1024">
  <rect width="1024" height="1024" fill="#0f172a"/><rect x="500" y="80" width="24" height="430" fill="#f97316" opacity="0.23" transform="rotate(0 512 512)"/><rect x="500" y="80" width="24" height="430" fill="#0ea5e9" opacity="0.23" transform="rotate(12.857142857142858 512 512)"/><rect x="500" y="80" width="24" height="430" fill="#f97316" opacity="0.23" transform="rotate(25.714285714285715 512 512)"/><rect x="500" y="80" width="24" height="430" fill="#0ea5e9" opacity="0.23" transform="rotate(38.57142857142857 512 512)"/><rect x="500" y="80" width="24" height="430" fill="#f97316" opacity="0.23" transform="rotate(51.42857142857143 512 512)"/><rect x="500" y="80" width="24" height="430" fill="#0ea5e9" opacity="0.23" transform="rotate(64.28571428571429 512 512)"/><rect x="500" y="80" width="24" height="430" fill="#f97316" opacity="0.23" transform="rotate(77.14285714285714 512 512)"/><rect x="500" y="80" width="24" height="430" fill="#0ea5e9" opacity="0.23" transform="rotate(90 512 512)"/><rect x="500" y="80" width="24" height="430" fill="#f97316" opacity="0.23" transform="rotate(102.85714285714286 512 512)"/><rect x="500" y="80" width="24" height="430" fill="#0ea5e9" opacity="0.23" transform="rotate(115.71428571428572 512 512)"/><rect x="500" y="80" width="24" height="430" fill="#f97316" opacity="0.23" transform="rotate(128.57142857142858 512 512)"/><rect x="500" y="80" width="24" height="430" fill="#0ea5e9" opacity="0.23" transform="rotate(141.42857142857144 512 512)"/><rect x="500" y="80" width="24" height="430" fill="#f97316" opacity="0.23" transform="rotate(154.28571428571428 512 512)"/><rect x="500" y="80" width="24" height="430" fill="#0ea5e9" opacity="0.23" transform="rotate(167.14285714285714 512 512)"/><rect x="500" y="80" width="24" height="430" fill="#f97316" opacity="0.23" transform="rotate(180 512 512)"/><rect x="500" y="80" width="24" height="430" fill="#0ea5e9" opacity="0.23" transform="rotate(192.85714285714286 512 512)"/><rect x="500" y="80" width="24" height="430" fill="#f97316" opacity="0.23" transform="rotate(205.71428571428572 512 512)"/><rect x="500" y="80" width="24" height="430" fill="#0ea5e9" opacity="0.23" transform="rotate(218.57142857142858 512 512)"/><rect x="500" y="80" width="24" height="430" fill="#f97316" opacity="0.23" transform="rotate(231.42857142857144 512 512)"/><rect x="500" y="80" width="24" height="430" fill="#0ea5e9" opacity="0.23" transform="rotate(244.2857142857143 512 512)"/><rect x="500" y="80" width="24" height="430" fill="#f97316" opacity="0.23" transform="rotate(257.14285714285717 512 512)"/><rect x="500" y="80" width="24" height="430" fill="#0ea5e9" opacity="0.23" transform="rotate(270 512 512)"/><rect x="500" y="80" width="24" height="430" fill="#f97316" opacity="0.23" transform="rotate(282.8571428571429 512 512)"/><rect x="500" y="80" width="24" height="430" fill="#0ea5e9" opacity="0.23" transform="rotate(295.7142857142857 512 512)"/><rect x="500" y="80" width="24" height="430" fill="#f97316" opacity="0.23" transform="rotate(308.57142857142856 512 512)"/><rect x="500" y="80" width="24" height="430" fill="#0ea5e9" opacity="0.23" transform="rotate(321.42857142857144 512 512)"/><rect x="500" y="80" width="24" height="430" fill="#f97316" opacity="0.23" transform="rotate(334.2857142857143 512 512)"/><rect x="500" y="80" width="24" height="430" fill="#0ea5e9" opacity="0.23" transform="rotate(347.14285714285717 512 512)"/><circle cx="512" cy="512" r="190" fill="#ecfeff" opacity="0.2"/>
  <g><circle cx="512" cy="512" r="310" fill="#ecfeff" stroke="#f8fafc" stroke-width="6"/><circle cx="512" cy="512" r="265" fill="none" stroke="#0ea5e9" opacity="0.35" stroke-width="8"/></g>

  <g transform="translate(512 515) rotate(69)">
    <circle cx="0" cy="0" r="176" fill="#ecfeff" opacity="0.22"/>
    <path d="M0 -166 A 166 166 0 1 1 0 166 A 83 83 0 1 0 0 -166" fill="#f97316"/>
    <path d="M0 166 A 166 166 0 1 1 0 -166 A 83 83 0 1 0 0 166" fill="#0ea5e9"/>
  </g>

  <g opacity="0.94">
    <g transform="rotate(-23 512 512)"><rect x="339" y="304" width="49" height="14" rx="5" fill="#111827"/><rect x="408" y="304" width="49" height="14" rx="5" fill="#111827"/><rect x="339" y="340" width="118" height="14" rx="5" fill="#111827"/><rect x="339" y="376" width="118" height="14" rx="5" fill="#111827"/></g>
    <g transform="translate(380 0) rotate(23 512 512)"><rect x="347" y="312" width="61" height="14" rx="5" fill="#111827"/><rect x="428" y="312" width="61" height="14" rx="5" fill="#111827"/><rect x="347" y="348" width="142" height="14" rx="5" fill="#111827"/><rect x="347" y="384" width="61" height="14" rx="5" fill="#111827"/><rect x="428" y="384" width="61" height="14" rx="5" fill="#111827"/></g>
    <g transform="translate(0 380) rotate(23 512 512)"><rect x="331" y="288" width="49" height="14" rx="5" fill="#111827"/><rect x="400" y="288" width="49" height="14" rx="5" fill="#111827"/><rect x="331" y="324" width="118" height="14" rx="5" fill="#111827"/><rect x="331" y="360" width="118" height="14" rx="5" fill="#111827"/></g>
    <g transform="translate(380 380) rotate(-23 512 512)"><rect x="347" y="304" width="130" height="14" rx="5" fill="#111827"/><rect x="347" y="340" width="55" height="14" rx="5" fill="#111827"/><rect x="422" y="340" width="55" height="14" rx="5" fill="#111827"/><rect x="347" y="376" width="55" height="14" rx="5" fill="#111827"/><rect x="422" y="376" width="55" height="14" rx="5" fill="#111827"/></g>
  </g>

  <text x="803.8" y="522.2" text-anchor="middle" dominant-baseline="middle" font-size="46" fill="#f97316" opacity="0.75">▣</text><text x="696.5" y="785.6" text-anchor="middle" dominant-baseline="middle" font-size="24" fill="#0ea5e9" opacity="0.75">▤</text><text x="416.4" y="824.7" text-anchor="middle" dominant-baseline="middle" font-size="26" fill="#f97316" opacity="0.75">▥</text><text x="275.6" y="690.1" text-anchor="middle" dominant-baseline="middle" font-size="36" fill="#0ea5e9" opacity="0.75">▦</text><text x="226.5" y="446.1" text-anchor="middle" dominant-baseline="middle" font-size="48" fill="#f97316" opacity="0.75">▧</text><text x="294.9" y="294.9" text-anchor="middle" dominant-baseline="middle" font-size="29" fill="#0ea5e9" opacity="0.75">▣</text><text x="555.1" y="205.0" text-anchor="middle" dominant-baseline="middle" font-size="24" fill="#f97316" opacity="0.75">▤</text><text x="772.3" y="301.2" text-anchor="middle" dominant-baseline="middle" font-size="30" fill="#0ea5e9" opacity="0.75">▥</text>

  <text x="512" y="900" text-anchor="middle" font-size="38" font-family="Inter, Arial, sans-serif" fill="#ecfeff">March 1st Spirit #85</text>
  <text x="512" y="942" text-anchor="middle" font-size="22" font-family="Inter, Arial, sans-serif" fill="#f8fafc">대한독립 만세 · Unique Edition</text>
</svg>