<?xml version="1.0" encoding="UTF-8"?>
<svg xmlns="http://www.w3.org/2000/svg" width="1024" height="1024" viewBox="0 0 1024 1024">
  <rect width="1024" height="1024" fill="#1e1b4b"/><rect x="-256" y="-80" width="36" height="1200" transform="rotate(20 512 512)" fill="#fef2f2" opacity="0.28"/><rect x="-192" y="-80" width="36" height="1200" transform="rotate(20 512 512)" fill="#22c55e" opacity="0.28"/><rect x="-128" y="-80" width="36" height="1200" transform="rotate(20 512 512)" fill="#fef2f2" opacity="0.28"/><rect x="-64" y="-80" width="36" height="1200" transform="rotate(20 512 512)" fill="#22c55e" opacity="0.28"/><rect x="0" y="-80" width="36" height="1200" transform="rotate(20 512 512)" fill="#fef2f2" opacity="0.28"/><rect x="64" y="-80" width="36" height="1200" transform="rotate(20 512 512)" fill="#22c55e" opacity="0.28"/><rect x="128" y="-80" width="36" height="1200" transform="rotate(20 512 512)" fill="#fef2f2" opacity="0.28"/><rect x="192" y="-80" width="36" height="1200" transform="rotate(20 512 512)" fill="#22c55e" opacity="0.28"/><rect x="256" y="-80" width="36" height="1200" transform="rotate(20 512 512)" fill="#fef2f2" opacity="0.28"/><rect x="320" y="-80" width="36" height="1200" transform="rotate(20 512 512)" fill="#22c55e" opacity="0.28"/><rect x="384" y="-80" width="36" height="1200" transform="rotate(20 512 512)" fill="#fef2f2" opacity="0.28"/><rect x="448" y="-80" width="36" height="1200" transform="rotate(20 512 512)" fill="#22c55e" opacity="0.28"/><rect x="512" y="-80" width="36" height="1200" transform="rotate(20 512 512)" fill="#fef2f2" opacity="0.28"/><rect x="576" y="-80" width="36" height="1200" transform="rotate(20 512 512)" fill="#22c55e" opacity="0.28"/><rect x="640" y="-80" width="36" height="1200" transform="rotate(20 512 512)" fill="#fef2f2" opacity="0.28"/><rect x="704" y="-80" width="36" height="1200" transform="rotate(20 512 512)" fill="#22c55e" opacity="0.28"/><rect x="768" y="-80" width="36" height="1200" transform="rotate(20 512 512)" fill="#fef2f2" opacity="0.28"/><rect x="832" y="-80" width="36" height="1200" transform="rotate(20 512 512)" fill="#22c55e" opacity="0.28"/><rect x="896" y="-80" width="36" height="1200" transform="rotate(20 512 512)" fill="#fef2f2" opacity="0.28"/><rect x="960" y="-80" width="36" height="1200" transform="rotate(20 512 512)" fill="#22c55e" opacity="0.28"/><rect x="1024" y="-80" width="36" height="1200" transform="rotate(20 512 512)" fill="#fef2f2" opacity="0.28"/><rect x="1088" y="-80" width="36" height="1200" transform="rotate(20 512 512)" fill="#22c55e" opacity="0.28"/><rect x="1152" y="-80" width="36" height="1200" transform="rotate(20 512 512)" fill="#fef2f2" opacity="0.28"/><rect x="1216" y="-80" width="36" height="1200" transform="rotate(20 512 512)" fill="#22c55e" opacity="0.28"/><rect x="1280" y="-80" width="36" height="1200" transform="rotate(20 512 512)" fill="#fef2f2" opacity="0.28"/><rect x="1344" y="-80" width="36" height="1200" transform="rotate(20 512 512)" fill="#22c55e" opacity="0.28"/><rect x="1408" y="-80" width="36" height="1200" transform="rotate(20 512 512)" fill="#fef2f2" opacity="0.28"/><rect x="1472" y="-80" width="36" height="1200" transform="rotate(20 512 512)" fill="#22c55e" opacity="0.28"/>
  <circle cx="512" cy="512" r="330" fill="#f1f5f9" stroke="#fef2f2" stroke-width="6"/>

  <g transform="translate(512 518) rotate(107)">
    <circle cx="0" cy="0" r="172" fill="#f1f5f9" opacity="0.22"/>
    <path d="M0 -162 A 162 162 0 1 1 0 162 A 81 81 0 1 0 0 -162" fill="#ef4444"/>
    <path d="M0 162 A 162 162 0 1 1 0 -162 A 81 81 0 1 0 0 162" fill="#22c55e"/>
  </g>

  <g opacity="0.94">
    <g transform="rotate(-23 512 512)"><rect x="323" y="296" width="118" height="14" rx="5" fill="#111827"/><rect x="323" y="332" width="118" height="14" rx="5" fill="#111827"/><rect x="323" y="368" width="118" height="14" rx="5" fill="#111827"/></g>
    <g transform="translate(380 0) rotate(23 512 512)"><rect x="323" y="296" width="130" height="14" rx="5" fill="#111827"/><rect x="323" y="332" width="55" height="14" rx="5" fill="#111827"/><rect x="398" y="332" width="55" height="14" rx="5" fill="#111827"/><rect x="323" y="368" width="55" height="14" rx="5" fill="#111827"/><rect x="398" y="368" width="55" height="14" rx="5" fill="#111827"/></g>
    <g transform="translate(0 380) rotate(23 512 512)"><rect x="331" y="304" width="154" height="14" rx="5" fill="#111827"/><rect x="331" y="340" width="154" height="14" rx="5" fill="#111827"/><rect x="331" y="376" width="67" height="14" rx="5" fill="#111827"/><rect x="418" y="376" width="67" height="14" rx="5" fill="#111827"/></g>
    <g transform="translate(380 380) rotate(-23 512 512)"><rect x="315" y="312" width="154" height="14" rx="5" fill="#111827"/><rect x="315" y="348" width="154" height="14" rx="5" fill="#111827"/><rect x="315" y="384" width="67" height="14" rx="5" fill="#111827"/><rect x="402" y="384" width="67" height="14" rx="5" fill="#111827"/></g>
  </g>

  <text x="802.4" y="558.0" text-anchor="middle" dominant-baseline="middle" font-size="42" fill="#ef4444" opacity="0.75">✺</text><text x="719.8" y="661.5" text-anchor="middle" dominant-baseline="middle" font-size="20" fill="#22c55e" opacity="0.75">✹</text><text x="604.2" y="786.9" text-anchor="middle" dominant-baseline="middle" font-size="49" fill="#ef4444" opacity="0.75">✷</text><text x="400.9" y="748.2" text-anchor="middle" dominant-baseline="middle" font-size="41" fill="#22c55e" opacity="0.75">✦</text><text x="296.3" y="693.6" text-anchor="middle" dominant-baseline="middle" font-size="36" fill="#ef4444" opacity="0.75">✶</text><text x="241.7" y="581.2" text-anchor="middle" dominant-baseline="middle" font-size="25" fill="#22c55e" opacity="0.75">✺</text><text x="276.3" y="368.4" text-anchor="middle" dominant-baseline="middle" font-size="20" fill="#ef4444" opacity="0.75">✹</text><text x="378.0" y="248.0" text-anchor="middle" dominant-baseline="middle" font-size="37" fill="#22c55e" opacity="0.75">✷</text><text x="486.8" y="234.1" text-anchor="middle" dominant-baseline="middle" font-size="37" fill="#ef4444" opacity="0.75">✦</text><text x="695.3" y="297.7" text-anchor="middle" dominant-baseline="middle" font-size="30" fill="#22c55e" opacity="0.75">✶</text><text x="753.4" y="395.7" text-anchor="middle" dominant-baseline="middle" font-size="24" fill="#ef4444" opacity="0.75">✺</text>

  <text x="512" y="900" text-anchor="middle" font-size="38" font-family="Inter, Arial, sans-serif" fill="#f1f5f9">March 1st Spirit #87</text>
  <text x="512" y="942" text-anchor="middle" font-size="22" font-family="Inter, Arial, sans-serif" fill="#fef2f2">대한독립 만세 · Unique Edition</text>
</svg>