<?xml version="1.0" encoding="UTF-8"?>
<svg xmlns="http://www.w3.org/2000/svg" width="1024" height="1024" viewBox="0 0 1024 1024">
  <rect width="1024" height="1024" fill="#172554"/><rect x="-256" y="-80" width="36" height="1200" transform="rotate(20 512 512)" fill="#e2e8f0" opacity="0.28"/><rect x="-192" y="-80" width="36" height="1200" transform="rotate(20 512 512)" fill="#38bdf8" opacity="0.28"/><rect x="-128" y="-80" width="36" height="1200" transform="rotate(20 512 512)" fill="#e2e8f0" opacity="0.28"/><rect x="-64" y="-80" width="36" height="1200" transform="rotate(20 512 512)" fill="#38bdf8" opacity="0.28"/><rect x="0" y="-80" width="36" height="1200" transform="rotate(20 512 512)" fill="#e2e8f0" opacity="0.28"/><rect x="64" y="-80" width="36" height="1200" transform="rotate(20 512 512)" fill="#38bdf8" opacity="0.28"/><rect x="128" y="-80" width="36" height="1200" transform="rotate(20 512 512)" fill="#e2e8f0" opacity="0.28"/><rect x="192" y="-80" width="36" height="1200" transform="rotate(20 512 512)" fill="#38bdf8" opacity="0.28"/><rect x="256" y="-80" width="36" height="1200" transform="rotate(20 512 512)" fill="#e2e8f0" opacity="0.28"/><rect x="320" y="-80" width="36" height="1200" transform="rotate(20 512 512)" fill="#38bdf8" opacity="0.28"/><rect x="384" y="-80" width="36" height="1200" transform="rotate(20 512 512)" fill="#e2e8f0" opacity="0.28"/><rect x="448" y="-80" width="36" height="1200" transform="rotate(20 512 512)" fill="#38bdf8" opacity="0.28"/><rect x="512" y="-80" width="36" height="1200" transform="rotate(20 512 512)" fill="#e2e8f0" opacity="0.28"/><rect x="576" y="-80" width="36" height="1200" transform="rotate(20 512 512)" fill="#38bdf8" opacity="0.28"/><rect x="640" y="-80" width="36" height="1200" transform="rotate(20 512 512)" fill="#e2e8f0" opacity="0.28"/><rect x="704" y="-80" width="36" height="1200" transform="rotate(20 512 512)" fill="#38bdf8" opacity="0.28"/><rect x="768" y="-80" width="36" height="1200" transform="rotate(20 512 512)" fill="#e2e8f0" opacity="0.28"/><rect x="832" y="-80" width="36" height="1200" transform="rotate(20 512 512)" fill="#38bdf8" opacity="0.28"/><rect x="896" y="-80" width="36" height="1200" transform="rotate(20 512 512)" fill="#e2e8f0" opacity="0.28"/><rect x="960" y="-80" width="36" height="1200" transform="rotate(20 512 512)" fill="#38bdf8" opacity="0.28"/><rect x="1024" y="-80" width="36" height="1200" transform="rotate(20 512 512)" fill="#e2e8f0" opacity="0.28"/><rect x="1088" y="-80" width="36" height="1200" transform="rotate(20 512 512)" fill="#38bdf8" opacity="0.28"/><rect x="1152" y="-80" width="36" height="1200" transform="rotate(20 512 512)" fill="#e2e8f0" opacity="0.28"/><rect x="1216" y="-80" width="36" height="1200" transform="rotate(20 512 512)" fill="#38bdf8" opacity="0.28"/><rect x="1280" y="-80" width="36" height="1200" transform="rotate(20 512 512)" fill="#e2e8f0" opacity="0.28"/><rect x="1344" y="-80" width="36" height="1200" transform="rotate(20 512 512)" fill="#38bdf8" opacity="0.28"/><rect x="1408" y="-80" width="36" height="1200" transform="rotate(20 512 512)" fill="#e2e8f0" opacity="0.28"/><rect x="1472" y="-80" width="36" height="1200" transform="rotate(20 512 512)" fill="#38bdf8" opacity="0.28"/>
  <g><circle cx="512" cy="512" r="310" fill="#ffffff" stroke="#e2e8f0" stroke-width="6"/><circle cx="512" cy="512" r="265" fill="none" stroke="#38bdf8" opacity="0.35" stroke-width="8"/></g>

  <g transform="translate(512 503) rotate(248)">
    <circle cx="0" cy="0" r="144" fill="#ffffff" opacity="0.22"/>
    <path d="M0 -134 A 134 134 0 1 1 0 134 A 67 67 0 1 0 0 -134" fill="#dc2626"/>
    <path d="M0 134 A 134 134 0 1 1 0 -134 A 67 67 0 1 0 0 134" fill="#38bdf8"/>
  </g>

  <g opacity="0.94">
    <g transform="rotate(-23 512 512)"><rect x="323" y="288" width="154" height="14" rx="5" fill="#111827"/><rect x="323" y="324" width="154" height="14" rx="5" fill="#111827"/><rect x="323" y="360" width="67" height="14" rx="5" fill="#111827"/><rect x="410" y="360" width="67" height="14" rx="5" fill="#111827"/></g>
    <g transform="translate(380 0) rotate(23 512 512)"><rect x="331" y="280" width="67" height="14" rx="5" fill="#111827"/><rect x="418" y="280" width="67" height="14" rx="5" fill="#111827"/><rect x="331" y="316" width="67" height="14" rx="5" fill="#111827"/><rect x="418" y="316" width="67" height="14" rx="5" fill="#111827"/><rect x="331" y="352" width="67" height="14" rx="5" fill="#111827"/><rect x="418" y="352" width="67" height="14" rx="5" fill="#111827"/></g>
    <g transform="translate(0 380) rotate(23 512 512)"><rect x="347" y="304" width="130" height="14" rx="5" fill="#111827"/><rect x="347" y="340" width="55" height="14" rx="5" fill="#111827"/><rect x="422" y="340" width="55" height="14" rx="5" fill="#111827"/><rect x="347" y="376" width="55" height="14" rx="5" fill="#111827"/><rect x="422" y="376" width="55" height="14" rx="5" fill="#111827"/></g>
    <g transform="translate(380 380) rotate(-23 512 512)"><rect x="339" y="304" width="49" height="14" rx="5" fill="#111827"/><rect x="408" y="304" width="49" height="14" rx="5" fill="#111827"/><rect x="339" y="340" width="118" height="14" rx="5" fill="#111827"/><rect x="339" y="376" width="118" height="14" rx="5" fill="#111827"/></g>
  </g>

  <text x="796.9" y="536.9" text-anchor="middle" dominant-baseline="middle" font-size="30" fill="#dc2626" opacity="0.75">✪</text><text x="782.0" y="674.2" text-anchor="middle" dominant-baseline="middle" font-size="28" fill="#38bdf8" opacity="0.75">✺</text><text x="643.5" y="781.6" text-anchor="middle" dominant-baseline="middle" font-size="32" fill="#dc2626" opacity="0.75">⟡</text><text x="512.0" y="819.0" text-anchor="middle" dominant-baseline="middle" font-size="31" fill="#38bdf8" opacity="0.75">⬟</text><text x="362.6" y="751.1" text-anchor="middle" dominant-baseline="middle" font-size="30" fill="#dc2626" opacity="0.75">⬢</text><text x="238.7" y="606.1" text-anchor="middle" dominant-baseline="middle" font-size="33" fill="#38bdf8" opacity="0.75">✪</text><text x="234.0" y="507.1" text-anchor="middle" dominant-baseline="middle" font-size="49" fill="#dc2626" opacity="0.75">✺</text><text x="280.5" y="361.7" text-anchor="middle" dominant-baseline="middle" font-size="26" fill="#38bdf8" opacity="0.75">⟡</text><text x="416.0" y="233.1" text-anchor="middle" dominant-baseline="middle" font-size="30" fill="#dc2626" opacity="0.75">⬟</text><text x="574.6" y="217.6" text-anchor="middle" dominant-baseline="middle" font-size="37" fill="#38bdf8" opacity="0.75">⬢</text><text x="666.3" y="283.2" text-anchor="middle" dominant-baseline="middle" font-size="25" fill="#dc2626" opacity="0.75">✪</text><text x="780.7" y="380.9" text-anchor="middle" dominant-baseline="middle" font-size="25" fill="#38bdf8" opacity="0.75">✺</text>

  <text x="512" y="900" text-anchor="middle" font-size="38" font-family="Inter, Arial, sans-serif" fill="#ffffff">March 1st Spirit #88</text>
  <text x="512" y="942" text-anchor="middle" font-size="22" font-family="Inter, Arial, sans-serif" fill="#e2e8f0">대한독립 만세 · Unique Edition</text>
</svg>