<?xml version="1.0" encoding="UTF-8"?>
<svg xmlns="http://www.w3.org/2000/svg" width="1024" height="1024" viewBox="0 0 1024 1024">
  <rect width="1024" height="1024" fill="#1e1b4b"/><line x1="0" y1="0" x2="0" y2="1024" stroke="#22c55e" opacity="0.18"/><line x1="0" y1="0" x2="1024" y2="0" stroke="#fef2f2" opacity="0.14"/><line x1="64" y1="0" x2="64" y2="1024" stroke="#22c55e" opacity="0.18"/><line x1="0" y1="64" x2="1024" y2="64" stroke="#fef2f2" opacity="0.14"/><line x1="128" y1="0" x2="128" y2="1024" stroke="#22c55e" opacity="0.18"/><line x1="0" y1="128" x2="1024" y2="128" stroke="#fef2f2" opacity="0.14"/><line x1="192" y1="0" x2="192" y2="1024" stroke="#22c55e" opacity="0.18"/><line x1="0" y1="192" x2="1024" y2="192" stroke="#fef2f2" opacity="0.14"/><line x1="256" y1="0" x2="256" y2="1024" stroke="#22c55e" opacity="0.18"/><line x1="0" y1="256" x2="1024" y2="256" stroke="#fef2f2" opacity="0.14"/><line x1="320" y1="0" x2="320" y2="1024" stroke="#22c55e" opacity="0.18"/><line x1="0" y1="320" x2="1024" y2="320" stroke="#fef2f2" opacity="0.14"/><line x1="384" y1="0" x2="384" y2="1024" stroke="#22c55e" opacity="0.18"/><line x1="0" y1="384" x2="1024" y2="384" stroke="#fef2f2" opacity="0.14"/><line x1="448" y1="0" x2="448" y2="1024" stroke="#22c55e" opacity="0.18"/><line x1="0" y1="448" x2="1024" y2="448" stroke="#fef2f2" opacity="0.14"/><line x1="512" y1="0" x2="512" y2="1024" stroke="#22c55e" opacity="0.18"/><line x1="0" y1="512" x2="1024" y2="512" stroke="#fef2f2" opacity="0.14"/><line x1="576" y1="0" x2="576" y2="1024" stroke="#22c55e" opacity="0.18"/><line x1="0" y1="576" x2="1024" y2="576" stroke="#fef2f2" opacity="0.14"/><line x1="640" y1="0" x2="640" y2="1024" stroke="#22c55e" opacity="0.18"/><line x1="0" y1="640" x2="1024" y2="640" stroke="#fef2f2" opacity="0.14"/><line x1="704" y1="0" x2="704" y2="1024" stroke="#22c55e" opacity="0.18"/><line x1="0" y1="704" x2="1024" y2="704" stroke="#fef2f2" opacity="0.14"/><line x1="768" y1="0" x2="768" y2="1024" stroke="#22c55e" opacity="0.18"/><line x1="0" y1="768" x2="1024" y2="768" stroke="#fef2f2" opacity="0.14"/><line x1="832" y1="0" x2="832" y2="1024" stroke="#22c55e" opacity="0.18"/><line x1="0" y1="832" x2="1024" y2="832" stroke="#fef2f2" opacity="0.14"/><line x1="896" y1="0" x2="896" y2="1024" stroke="#22c55e" opacity="0.18"/><line x1="0" y1="896" x2="1024" y2="896" stroke="#fef2f2" opacity="0.14"/><line x1="960" y1="0" x2="960" y2="1024" stroke="#22c55e" opacity="0.18"/><line x1="0" y1="960" x2="1024" y2="960" stroke="#fef2f2" opacity="0.14"/><line x1="1024" y1="0" x2="1024" y2="1024" stroke="#22c55e" opacity="0.18"/><line x1="0" y1="1024" x2="1024" y2="1024" stroke="#fef2f2" opacity="0.14"/>
  <circle cx="512" cy="512" r="330" fill="#f1f5f9" stroke="#fef2f2" stroke-width="6"/>

  <g transform="translate(512 512) rotate(78)">
    <circle cx="0" cy="0" r="163" fill="#f1f5f9" opacity="0.22"/>
    <path d="M0 -153 A 153 153 0 1 1 0 153 A 76.5 76.5 0 1 0 0 -153" fill="#ef4444"/>
    <path d="M0 153 A 153 153 0 1 1 0 -153 A 76.5 76.5 0 1 0 0 153" fill="#22c55e"/>
  </g>

  <g opacity="0.94">
    <g transform="rotate(-23 512 512)"><rect x="331" y="280" width="67" height="14" rx="5" fill="#111827"/><rect x="418" y="280" width="67" height="14" rx="5" fill="#111827"/><rect x="331" y="316" width="67" height="14" rx="5" fill="#111827"/><rect x="418" y="316" width="67" height="14" rx="5" fill="#111827"/><rect x="331" y="352" width="67" height="14" rx="5" fill="#111827"/><rect x="418" y="352" width="67" height="14" rx="5" fill="#111827"/></g>
    <g transform="translate(380 0) rotate(23 512 512)"><rect x="347" y="304" width="130" height="14" rx="5" fill="#111827"/><rect x="347" y="340" width="55" height="14" rx="5" fill="#111827"/><rect x="422" y="340" width="55" height="14" rx="5" fill="#111827"/><rect x="347" y="376" width="55" height="14" rx="5" fill="#111827"/><rect x="422" y="376" width="55" height="14" rx="5" fill="#111827"/></g>
    <g transform="translate(0 380) rotate(23 512 512)"><rect x="331" y="288" width="49" height="14" rx="5" fill="#111827"/><rect x="400" y="288" width="49" height="14" rx="5" fill="#111827"/><rect x="331" y="324" width="118" height="14" rx="5" fill="#111827"/><rect x="331" y="360" width="118" height="14" rx="5" fill="#111827"/></g>
    <g transform="translate(380 380) rotate(-23 512 512)"><rect x="315" y="280" width="130" height="14" rx="5" fill="#111827"/><rect x="315" y="316" width="55" height="14" rx="5" fill="#111827"/><rect x="390" y="316" width="55" height="14" rx="5" fill="#111827"/><rect x="315" y="352" width="55" height="14" rx="5" fill="#111827"/><rect x="390" y="352" width="55" height="14" rx="5" fill="#111827"/></g>
  </g>

  <text x="783.7" y="579.7" text-anchor="middle" dominant-baseline="middle" font-size="38" fill="#ef4444" opacity="0.75">✺</text><text x="657.4" y="727.5" text-anchor="middle" dominant-baseline="middle" font-size="21" fill="#22c55e" opacity="0.75">⟡</text><text x="521.1" y="771.8" text-anchor="middle" dominant-baseline="middle" font-size="47" fill="#ef4444" opacity="0.75">⬟</text><text x="310.5" y="720.6" text-anchor="middle" dominant-baseline="middle" font-size="48" fill="#22c55e" opacity="0.75">⬢</text><text x="218.1" y="537.7" text-anchor="middle" dominant-baseline="middle" font-size="24" fill="#ef4444" opacity="0.75">✪</text><text x="309.1" y="359.1" text-anchor="middle" dominant-baseline="middle" font-size="41" fill="#22c55e" opacity="0.75">✺</text><text x="384.4" y="250.5" text-anchor="middle" dominant-baseline="middle" font-size="28" fill="#ef4444" opacity="0.75">⟡</text><text x="611.6" y="252.5" text-anchor="middle" dominant-baseline="middle" font-size="31" fill="#22c55e" opacity="0.75">⬟</text><text x="730.0" y="347.7" text-anchor="middle" dominant-baseline="middle" font-size="41" fill="#ef4444" opacity="0.75">⬢</text>

  <text x="512" y="900" text-anchor="middle" font-size="38" font-family="Inter, Arial, sans-serif" fill="#f1f5f9">March 1st Spirit #89</text>
  <text x="512" y="942" text-anchor="middle" font-size="22" font-family="Inter, Arial, sans-serif" fill="#fef2f2">대한독립 만세 · Unique Edition</text>
</svg>