<?xml version="1.0" encoding="UTF-8"?>
<svg xmlns="http://www.w3.org/2000/svg" width="1024" height="1024" viewBox="0 0 1024 1024">
  
      <defs>
        <radialGradient id="g" cx="50%" cy="45%" r="70%">
          <stop offset="0%" stop-color="#fef3c7"/>
          <stop offset="65%" stop-color="#2563eb"/>
          <stop offset="100%" stop-color="#111827"/>
        </radialGradient>
      </defs>
      <rect width="1024" height="1024" fill="url(#g)"/>
    
  <polygon points="512,170 780,330 780,690 512,850 244,690 244,330" fill="#fef3c7" stroke="#e5e7eb" stroke-width="6"/>

  <g transform="translate(512 506) rotate(306)">
    <circle cx="0" cy="0" r="153" fill="#fef3c7" opacity="0.22"/>
    <path d="M0 -143 A 143 143 0 1 1 0 143 A 71.5 71.5 0 1 0 0 -143" fill="#fb7185"/>
    <path d="M0 143 A 143 143 0 1 1 0 -143 A 71.5 71.5 0 1 0 0 143" fill="#2563eb"/>
  </g>

  <g opacity="0.94">
    <g transform="rotate(-23 512 512)"><rect x="323" y="296" width="130" height="14" rx="5" fill="#111827"/><rect x="323" y="332" width="55" height="14" rx="5" fill="#111827"/><rect x="398" y="332" width="55" height="14" rx="5" fill="#111827"/><rect x="323" y="368" width="55" height="14" rx="5" fill="#111827"/><rect x="398" y="368" width="55" height="14" rx="5" fill="#111827"/></g>
    <g transform="translate(380 0) rotate(23 512 512)"><rect x="323" y="280" width="61" height="14" rx="5" fill="#111827"/><rect x="404" y="280" width="61" height="14" rx="5" fill="#111827"/><rect x="323" y="316" width="61" height="14" rx="5" fill="#111827"/><rect x="404" y="316" width="61" height="14" rx="5" fill="#111827"/><rect x="323" y="352" width="142" height="14" rx="5" fill="#111827"/></g>
    <g transform="translate(0 380) rotate(23 512 512)"><rect x="331" y="312" width="130" height="14" rx="5" fill="#111827"/><rect x="331" y="348" width="55" height="14" rx="5" fill="#111827"/><rect x="406" y="348" width="55" height="14" rx="5" fill="#111827"/><rect x="331" y="384" width="55" height="14" rx="5" fill="#111827"/><rect x="406" y="384" width="55" height="14" rx="5" fill="#111827"/></g>
    <g transform="translate(380 380) rotate(-23 512 512)"><rect x="339" y="288" width="118" height="14" rx="5" fill="#111827"/><rect x="339" y="324" width="118" height="14" rx="5" fill="#111827"/><rect x="339" y="360" width="118" height="14" rx="5" fill="#111827"/></g>
  </g>

  <text x="784.0" y="535.8" text-anchor="middle" dominant-baseline="middle" font-size="32" fill="#fb7185" opacity="0.75">⬢</text><text x="743.9" y="625.1" text-anchor="middle" dominant-baseline="middle" font-size="47" fill="#2563eb" opacity="0.75">▲</text><text x="638.3" y="770.9" text-anchor="middle" dominant-baseline="middle" font-size="38" fill="#fb7185" opacity="0.75">◆</text><text x="585.7" y="753.0" text-anchor="middle" dominant-baseline="middle" font-size="39" fill="#2563eb" opacity="0.75">●</text><text x="447.9" y="769.1" text-anchor="middle" dominant-baseline="middle" font-size="34" fill="#fb7185" opacity="0.75">■</text><text x="340.2" y="724.2" text-anchor="middle" dominant-baseline="middle" font-size="37" fill="#2563eb" opacity="0.75">⬢</text><text x="275.6" y="607.5" text-anchor="middle" dominant-baseline="middle" font-size="29" fill="#fb7185" opacity="0.75">▲</text><text x="242.7" y="530.8" text-anchor="middle" dominant-baseline="middle" font-size="24" fill="#2563eb" opacity="0.75">◆</text><text x="258.7" y="458.2" text-anchor="middle" dominant-baseline="middle" font-size="26" fill="#fb7185" opacity="0.75">●</text><text x="349.6" y="311.5" text-anchor="middle" dominant-baseline="middle" font-size="21" fill="#2563eb" opacity="0.75">■</text><text x="446.3" y="266.7" text-anchor="middle" dominant-baseline="middle" font-size="23" fill="#fb7185" opacity="0.75">⬢</text><text x="482.1" y="227.6" text-anchor="middle" dominant-baseline="middle" font-size="38" fill="#2563eb" opacity="0.75">▲</text><text x="625.7" y="268.2" text-anchor="middle" dominant-baseline="middle" font-size="38" fill="#fb7185" opacity="0.75">◆</text><text x="685.0" y="332.9" text-anchor="middle" dominant-baseline="middle" font-size="20" fill="#2563eb" opacity="0.75">●</text><text x="775.1" y="456.1" text-anchor="middle" dominant-baseline="middle" font-size="43" fill="#fb7185" opacity="0.75">■</text>

  <text x="512" y="900" text-anchor="middle" font-size="38" font-family="Inter, Arial, sans-serif" fill="#fef3c7">March 1st Spirit #9</text>
  <text x="512" y="942" text-anchor="middle" font-size="22" font-family="Inter, Arial, sans-serif" fill="#e5e7eb">대한독립 만세 · Unique Edition</text>
</svg>