<?xml version="1.0" encoding="UTF-8"?>
<svg xmlns="http://www.w3.org/2000/svg" width="1024" height="1024" viewBox="0 0 1024 1024">
  
      <defs>
        <radialGradient id="g" cx="50%" cy="45%" r="70%">
          <stop offset="0%" stop-color="#fef3c7"/>
          <stop offset="65%" stop-color="#2563eb"/>
          <stop offset="100%" stop-color="#111827"/>
        </radialGradient>
      </defs>
      <rect width="1024" height="1024" fill="url(#g)"/>
    
  <polygon points="512,170 820,512 512,854 204,512" fill="#fef3c7" stroke="#e5e7eb" stroke-width="6"/>

  <g transform="translate(512 514) rotate(41)">
    <circle cx="0" cy="0" r="141" fill="#fef3c7" opacity="0.22"/>
    <path d="M0 -131 A 131 131 0 1 1 0 131 A 65.5 65.5 0 1 0 0 -131" fill="#fb7185"/>
    <path d="M0 131 A 131 131 0 1 1 0 -131 A 65.5 65.5 0 1 0 0 131" fill="#2563eb"/>
  </g>

  <g opacity="0.94">
    <g transform="rotate(-23 512 512)"><rect x="315" y="280" width="118" height="14" rx="5" fill="#111827"/><rect x="315" y="316" width="118" height="14" rx="5" fill="#111827"/><rect x="315" y="352" width="118" height="14" rx="5" fill="#111827"/></g>
    <g transform="translate(380 0) rotate(23 512 512)"><rect x="347" y="312" width="67" height="14" rx="5" fill="#111827"/><rect x="434" y="312" width="67" height="14" rx="5" fill="#111827"/><rect x="347" y="348" width="67" height="14" rx="5" fill="#111827"/><rect x="434" y="348" width="67" height="14" rx="5" fill="#111827"/><rect x="347" y="384" width="67" height="14" rx="5" fill="#111827"/><rect x="434" y="384" width="67" height="14" rx="5" fill="#111827"/></g>
    <g transform="translate(0 380) rotate(23 512 512)"><rect x="315" y="288" width="67" height="14" rx="5" fill="#111827"/><rect x="402" y="288" width="67" height="14" rx="5" fill="#111827"/><rect x="315" y="324" width="67" height="14" rx="5" fill="#111827"/><rect x="402" y="324" width="67" height="14" rx="5" fill="#111827"/><rect x="315" y="360" width="67" height="14" rx="5" fill="#111827"/><rect x="402" y="360" width="67" height="14" rx="5" fill="#111827"/></g>
    <g transform="translate(380 380) rotate(-23 512 512)"><rect x="347" y="288" width="130" height="14" rx="5" fill="#111827"/><rect x="347" y="324" width="55" height="14" rx="5" fill="#111827"/><rect x="422" y="324" width="55" height="14" rx="5" fill="#111827"/><rect x="347" y="360" width="130" height="14" rx="5" fill="#111827"/></g>
  </g>

  <text x="777.9" y="593.3" text-anchor="middle" dominant-baseline="middle" font-size="22" fill="#fb7185" opacity="0.75">✦</text><text x="681.8" y="754.5" text-anchor="middle" dominant-baseline="middle" font-size="30" fill="#2563eb" opacity="0.75">✶</text><text x="512.0" y="785.0" text-anchor="middle" dominant-baseline="middle" font-size="21" fill="#fb7185" opacity="0.75">✺</text><text x="354.4" y="774.3" text-anchor="middle" dominant-baseline="middle" font-size="45" fill="#2563eb" opacity="0.75">✹</text><text x="225.1" y="588.9" text-anchor="middle" dominant-baseline="middle" font-size="34" fill="#fb7185" opacity="0.75">✷</text><text x="236.1" y="377.4" text-anchor="middle" dominant-baseline="middle" font-size="30" fill="#2563eb" opacity="0.75">✦</text><text x="370.0" y="266.0" text-anchor="middle" dominant-baseline="middle" font-size="33" fill="#fb7185" opacity="0.75">✶</text><text x="566.4" y="203.8" text-anchor="middle" dominant-baseline="middle" font-size="42" fill="#2563eb" opacity="0.75">✺</text><text x="727.1" y="343.9" text-anchor="middle" dominant-baseline="middle" font-size="21" fill="#fb7185" opacity="0.75">✹</text>

  <text x="512" y="900" text-anchor="middle" font-size="38" font-family="Inter, Arial, sans-serif" fill="#fef3c7">March 1st Spirit #90</text>
  <text x="512" y="942" text-anchor="middle" font-size="22" font-family="Inter, Arial, sans-serif" fill="#e5e7eb">대한독립 만세 · Unique Edition</text>
</svg>