<?xml version="1.0" encoding="UTF-8"?>
<svg xmlns="http://www.w3.org/2000/svg" width="1024" height="1024" viewBox="0 0 1024 1024">
  
      <defs>
        <radialGradient id="g" cx="50%" cy="45%" r="70%">
          <stop offset="0%" stop-color="#f8fafc"/>
          <stop offset="65%" stop-color="#1d4ed8"/>
          <stop offset="100%" stop-color="#0b1020"/>
        </radialGradient>
      </defs>
      <rect width="1024" height="1024" fill="url(#g)"/>
    
  <polygon points="512,170 820,512 512,854 204,512" fill="#f8fafc" stroke="#111827" stroke-width="6"/>

  <g transform="translate(512 520) rotate(260)">
    <circle cx="0" cy="0" r="140" fill="#f8fafc" opacity="0.22"/>
    <path d="M0 -130 A 130 130 0 1 1 0 130 A 65 65 0 1 0 0 -130" fill="#ef4444"/>
    <path d="M0 130 A 130 130 0 1 1 0 -130 A 65 65 0 1 0 0 130" fill="#1d4ed8"/>
  </g>

  <g opacity="0.94">
    <g transform="rotate(-23 512 512)"><rect x="347" y="288" width="61" height="14" rx="5" fill="#111827"/><rect x="428" y="288" width="61" height="14" rx="5" fill="#111827"/><rect x="347" y="324" width="61" height="14" rx="5" fill="#111827"/><rect x="428" y="324" width="61" height="14" rx="5" fill="#111827"/><rect x="347" y="360" width="142" height="14" rx="5" fill="#111827"/></g>
    <g transform="translate(380 0) rotate(23 512 512)"><rect x="315" y="280" width="130" height="14" rx="5" fill="#111827"/><rect x="315" y="316" width="55" height="14" rx="5" fill="#111827"/><rect x="390" y="316" width="55" height="14" rx="5" fill="#111827"/><rect x="315" y="352" width="55" height="14" rx="5" fill="#111827"/><rect x="390" y="352" width="55" height="14" rx="5" fill="#111827"/></g>
    <g transform="translate(0 380) rotate(23 512 512)"><rect x="331" y="304" width="154" height="14" rx="5" fill="#111827"/><rect x="331" y="340" width="154" height="14" rx="5" fill="#111827"/><rect x="331" y="376" width="67" height="14" rx="5" fill="#111827"/><rect x="418" y="376" width="67" height="14" rx="5" fill="#111827"/></g>
    <g transform="translate(380 380) rotate(-23 512 512)"><rect x="315" y="312" width="154" height="14" rx="5" fill="#111827"/><rect x="315" y="348" width="154" height="14" rx="5" fill="#111827"/><rect x="315" y="384" width="67" height="14" rx="5" fill="#111827"/><rect x="402" y="384" width="67" height="14" rx="5" fill="#111827"/></g>
  </g>

  <text x="803.1" y="552.9" text-anchor="middle" dominant-baseline="middle" font-size="31" fill="#ef4444" opacity="0.75">☾</text><text x="756.3" y="658.8" text-anchor="middle" dominant-baseline="middle" font-size="33" fill="#1d4ed8" opacity="0.75">✸</text><text x="667.0" y="780.5" text-anchor="middle" dominant-baseline="middle" font-size="27" fill="#ef4444" opacity="0.75">✹</text><text x="550.8" y="827.6" text-anchor="middle" dominant-baseline="middle" font-size="20" fill="#1d4ed8" opacity="0.75">✦</text><text x="473.6" y="824.7" text-anchor="middle" dominant-baseline="middle" font-size="35" fill="#ef4444" opacity="0.75">☼</text><text x="278.0" y="730.2" text-anchor="middle" dominant-baseline="middle" font-size="43" fill="#1d4ed8" opacity="0.75">☾</text><text x="243.1" y="620.6" text-anchor="middle" dominant-baseline="middle" font-size="45" fill="#ef4444" opacity="0.75">✸</text><text x="219.2" y="522.2" text-anchor="middle" dominant-baseline="middle" font-size="32" fill="#1d4ed8" opacity="0.75">✹</text><text x="195.1" y="444.6" text-anchor="middle" dominant-baseline="middle" font-size="43" fill="#ef4444" opacity="0.75">✦</text><text x="258.8" y="328.0" text-anchor="middle" dominant-baseline="middle" font-size="35" fill="#1d4ed8" opacity="0.75">☼</text><text x="398.0" y="215.1" text-anchor="middle" dominant-baseline="middle" font-size="34" fill="#ef4444" opacity="0.75">☾</text><text x="531.8" y="228.7" text-anchor="middle" dominant-baseline="middle" font-size="42" fill="#1d4ed8" opacity="0.75">✸</text><text x="666.5" y="254.8" text-anchor="middle" dominant-baseline="middle" font-size="27" fill="#ef4444" opacity="0.75">✹</text><text x="761.9" y="349.7" text-anchor="middle" dominant-baseline="middle" font-size="36" fill="#1d4ed8" opacity="0.75">✦</text><text x="796.7" y="456.7" text-anchor="middle" dominant-baseline="middle" font-size="39" fill="#ef4444" opacity="0.75">☼</text>

  <text x="512" y="900" text-anchor="middle" font-size="38" font-family="Inter, Arial, sans-serif" fill="#f8fafc">March 1st Spirit #91</text>
  <text x="512" y="942" text-anchor="middle" font-size="22" font-family="Inter, Arial, sans-serif" fill="#111827">대한독립 만세 · Unique Edition</text>
</svg>