<?xml version="1.0" encoding="UTF-8"?>
<svg xmlns="http://www.w3.org/2000/svg" width="1024" height="1024" viewBox="0 0 1024 1024">
  <rect width="1024" height="1024" fill="#1e1b4b"/><path d="M-40 120 Q 256 78 512 120 T 1064 120" stroke="#ef4444" stroke-width="10" fill="none" opacity="0.35"/><path d="M-40 212 Q 256 179 512 212 T 1064 212" stroke="#22c55e" stroke-width="12" fill="none" opacity="0.35"/><path d="M-40 304 Q 256 262 512 304 T 1064 304" stroke="#ef4444" stroke-width="14" fill="none" opacity="0.35"/><path d="M-40 396 Q 256 363 512 396 T 1064 396" stroke="#22c55e" stroke-width="10" fill="none" opacity="0.35"/><path d="M-40 488 Q 256 448 512 488 T 1064 488" stroke="#ef4444" stroke-width="12" fill="none" opacity="0.35"/><path d="M-40 580 Q 256 554 512 580 T 1064 580" stroke="#22c55e" stroke-width="14" fill="none" opacity="0.35"/><path d="M-40 672 Q 256 649 512 672 T 1064 672" stroke="#ef4444" stroke-width="10" fill="none" opacity="0.35"/><path d="M-40 764 Q 256 727 512 764 T 1064 764" stroke="#22c55e" stroke-width="12" fill="none" opacity="0.35"/><path d="M-40 856 Q 256 814 512 856 T 1064 856" stroke="#ef4444" stroke-width="14" fill="none" opacity="0.35"/><path d="M-40 948 Q 256 919 512 948 T 1064 948" stroke="#22c55e" stroke-width="10" fill="none" opacity="0.35"/>
  <g><circle cx="512" cy="512" r="310" fill="#f1f5f9" stroke="#fef2f2" stroke-width="6"/><circle cx="512" cy="512" r="265" fill="none" stroke="#22c55e" opacity="0.35" stroke-width="8"/></g>

  <g transform="translate(512 511) rotate(184)">
    <circle cx="0" cy="0" r="141" fill="#f1f5f9" opacity="0.22"/>
    <path d="M0 -131 A 131 131 0 1 1 0 131 A 65.5 65.5 0 1 0 0 -131" fill="#ef4444"/>
    <path d="M0 131 A 131 131 0 1 1 0 -131 A 65.5 65.5 0 1 0 0 131" fill="#22c55e"/>
  </g>

  <g opacity="0.94">
    <g transform="rotate(-23 512 512)"><rect x="339" y="312" width="130" height="14" rx="5" fill="#111827"/><rect x="339" y="348" width="55" height="14" rx="5" fill="#111827"/><rect x="414" y="348" width="55" height="14" rx="5" fill="#111827"/><rect x="339" y="384" width="130" height="14" rx="5" fill="#111827"/></g>
    <g transform="translate(380 0) rotate(23 512 512)"><rect x="331" y="280" width="67" height="14" rx="5" fill="#111827"/><rect x="418" y="280" width="67" height="14" rx="5" fill="#111827"/><rect x="331" y="316" width="67" height="14" rx="5" fill="#111827"/><rect x="418" y="316" width="67" height="14" rx="5" fill="#111827"/><rect x="331" y="352" width="67" height="14" rx="5" fill="#111827"/><rect x="418" y="352" width="67" height="14" rx="5" fill="#111827"/></g>
    <g transform="translate(0 380) rotate(23 512 512)"><rect x="331" y="280" width="67" height="14" rx="5" fill="#111827"/><rect x="418" y="280" width="67" height="14" rx="5" fill="#111827"/><rect x="331" y="316" width="67" height="14" rx="5" fill="#111827"/><rect x="418" y="316" width="67" height="14" rx="5" fill="#111827"/><rect x="331" y="352" width="67" height="14" rx="5" fill="#111827"/><rect x="418" y="352" width="67" height="14" rx="5" fill="#111827"/></g>
    <g transform="translate(380 380) rotate(-23 512 512)"><rect x="323" y="304" width="61" height="14" rx="5" fill="#111827"/><rect x="404" y="304" width="61" height="14" rx="5" fill="#111827"/><rect x="323" y="340" width="142" height="14" rx="5" fill="#111827"/><rect x="323" y="376" width="61" height="14" rx="5" fill="#111827"/><rect x="404" y="376" width="61" height="14" rx="5" fill="#111827"/></g>
  </g>

  <text x="800.0" y="517.0" text-anchor="middle" dominant-baseline="middle" font-size="29" fill="#ef4444" opacity="0.75">✸</text><text x="759.8" y="677.5" text-anchor="middle" dominant-baseline="middle" font-size="34" fill="#22c55e" opacity="0.75">✹</text><text x="641.0" y="808.1" text-anchor="middle" dominant-baseline="middle" font-size="42" fill="#ef4444" opacity="0.75">✦</text><text x="470.6" y="800.0" text-anchor="middle" dominant-baseline="middle" font-size="37" fill="#22c55e" opacity="0.75">☼</text><text x="242.0" y="694.7" text-anchor="middle" dominant-baseline="middle" font-size="46" fill="#ef4444" opacity="0.75">☾</text><text x="197.0" y="547.1" text-anchor="middle" dominant-baseline="middle" font-size="33" fill="#22c55e" opacity="0.75">✸</text><text x="262.0" y="353.6" text-anchor="middle" dominant-baseline="middle" font-size="39" fill="#ef4444" opacity="0.75">✹</text><text x="353.4" y="257.3" text-anchor="middle" dominant-baseline="middle" font-size="23" fill="#22c55e" opacity="0.75">✦</text><text x="505.5" y="197.1" text-anchor="middle" dominant-baseline="middle" font-size="42" fill="#ef4444" opacity="0.75">☼</text><text x="707.5" y="275.3" text-anchor="middle" dominant-baseline="middle" font-size="32" fill="#22c55e" opacity="0.75">☾</text><text x="789.4" y="390.1" text-anchor="middle" dominant-baseline="middle" font-size="48" fill="#ef4444" opacity="0.75">✸</text>

  <text x="512" y="900" text-anchor="middle" font-size="38" font-family="Inter, Arial, sans-serif" fill="#f1f5f9">March 1st Spirit #92</text>
  <text x="512" y="942" text-anchor="middle" font-size="22" font-family="Inter, Arial, sans-serif" fill="#fef2f2">대한독립 만세 · Unique Edition</text>
</svg>