<?xml version="1.0" encoding="UTF-8"?>
<svg xmlns="http://www.w3.org/2000/svg" width="1024" height="1024" viewBox="0 0 1024 1024">
  <rect width="1024" height="1024" fill="#0f172a"/><path d="M-40 120 Q 256 90 512 120 T 1064 120" stroke="#f97316" stroke-width="10" fill="none" opacity="0.35"/><path d="M-40 212 Q 256 172 512 212 T 1064 212" stroke="#0ea5e9" stroke-width="12" fill="none" opacity="0.35"/><path d="M-40 304 Q 256 276 512 304 T 1064 304" stroke="#f97316" stroke-width="14" fill="none" opacity="0.35"/><path d="M-40 396 Q 256 351 512 396 T 1064 396" stroke="#0ea5e9" stroke-width="10" fill="none" opacity="0.35"/><path d="M-40 488 Q 256 450 512 488 T 1064 488" stroke="#f97316" stroke-width="12" fill="none" opacity="0.35"/><path d="M-40 580 Q 256 534 512 580 T 1064 580" stroke="#0ea5e9" stroke-width="14" fill="none" opacity="0.35"/><path d="M-40 672 Q 256 644 512 672 T 1064 672" stroke="#f97316" stroke-width="10" fill="none" opacity="0.35"/><path d="M-40 764 Q 256 744 512 764 T 1064 764" stroke="#0ea5e9" stroke-width="12" fill="none" opacity="0.35"/><path d="M-40 856 Q 256 817 512 856 T 1064 856" stroke="#f97316" stroke-width="14" fill="none" opacity="0.35"/><path d="M-40 948 Q 256 905 512 948 T 1064 948" stroke="#0ea5e9" stroke-width="10" fill="none" opacity="0.35"/>
  <path d="M512 170 L790 300 L735 650 Q700 790 512 860 Q324 790 289 650 L234 300 Z" fill="#ecfeff" stroke="#f8fafc" stroke-width="6"/>

  <g transform="translate(512 508) rotate(135)">
    <circle cx="0" cy="0" r="143" fill="#ecfeff" opacity="0.22"/>
    <path d="M0 -133 A 133 133 0 1 1 0 133 A 66.5 66.5 0 1 0 0 -133" fill="#f97316"/>
    <path d="M0 133 A 133 133 0 1 1 0 -133 A 66.5 66.5 0 1 0 0 133" fill="#0ea5e9"/>
  </g>

  <g opacity="0.94">
    <g transform="rotate(-23 512 512)"><rect x="315" y="312" width="154" height="14" rx="5" fill="#111827"/><rect x="315" y="348" width="154" height="14" rx="5" fill="#111827"/><rect x="315" y="384" width="67" height="14" rx="5" fill="#111827"/><rect x="402" y="384" width="67" height="14" rx="5" fill="#111827"/></g>
    <g transform="translate(380 0) rotate(23 512 512)"><rect x="331" y="304" width="154" height="14" rx="5" fill="#111827"/><rect x="331" y="340" width="154" height="14" rx="5" fill="#111827"/><rect x="331" y="376" width="67" height="14" rx="5" fill="#111827"/><rect x="418" y="376" width="67" height="14" rx="5" fill="#111827"/></g>
    <g transform="translate(0 380) rotate(23 512 512)"><rect x="347" y="288" width="130" height="14" rx="5" fill="#111827"/><rect x="347" y="324" width="55" height="14" rx="5" fill="#111827"/><rect x="422" y="324" width="55" height="14" rx="5" fill="#111827"/><rect x="347" y="360" width="130" height="14" rx="5" fill="#111827"/></g>
    <g transform="translate(380 380) rotate(-23 512 512)"><rect x="347" y="280" width="49" height="14" rx="5" fill="#111827"/><rect x="416" y="280" width="49" height="14" rx="5" fill="#111827"/><rect x="347" y="316" width="118" height="14" rx="5" fill="#111827"/><rect x="347" y="352" width="118" height="14" rx="5" fill="#111827"/></g>
  </g>

  <text x="805.0" y="517.1" text-anchor="middle" dominant-baseline="middle" font-size="40" fill="#f97316" opacity="0.75">✪</text><text x="668.9" y="753.5" text-anchor="middle" dominant-baseline="middle" font-size="45" fill="#0ea5e9" opacity="0.75">✺</text><text x="535.9" y="785.0" text-anchor="middle" dominant-baseline="middle" font-size="25" fill="#f97316" opacity="0.75">⟡</text><text x="327.8" y="689.8" text-anchor="middle" dominant-baseline="middle" font-size="33" fill="#0ea5e9" opacity="0.75">⬟</text><text x="229.1" y="546.7" text-anchor="middle" dominant-baseline="middle" font-size="42" fill="#f97316" opacity="0.75">⬢</text><text x="279.7" y="372.4" text-anchor="middle" dominant-baseline="middle" font-size="33" fill="#0ea5e9" opacity="0.75">✪</text><text x="448.6" y="257.8" text-anchor="middle" dominant-baseline="middle" font-size="21" fill="#f97316" opacity="0.75">✺</text><text x="619.8" y="257.9" text-anchor="middle" dominant-baseline="middle" font-size="48" fill="#0ea5e9" opacity="0.75">⟡</text><text x="767.7" y="381.7" text-anchor="middle" dominant-baseline="middle" font-size="46" fill="#f97316" opacity="0.75">⬟</text>

  <text x="512" y="900" text-anchor="middle" font-size="38" font-family="Inter, Arial, sans-serif" fill="#ecfeff">March 1st Spirit #93</text>
  <text x="512" y="942" text-anchor="middle" font-size="22" font-family="Inter, Arial, sans-serif" fill="#f8fafc">대한독립 만세 · Unique Edition</text>
</svg>