<?xml version="1.0" encoding="UTF-8"?>
<svg xmlns="http://www.w3.org/2000/svg" width="1024" height="1024" viewBox="0 0 1024 1024">
  
      <defs>
        <radialGradient id="g" cx="50%" cy="45%" r="70%">
          <stop offset="0%" stop-color="#ffffff"/>
          <stop offset="65%" stop-color="#38bdf8"/>
          <stop offset="100%" stop-color="#172554"/>
        </radialGradient>
      </defs>
      <rect width="1024" height="1024" fill="url(#g)"/>
    
  <polygon points="512,170 820,512 512,854 204,512" fill="#ffffff" stroke="#e2e8f0" stroke-width="6"/>

  <g transform="translate(512 517) rotate(146)">
    <circle cx="0" cy="0" r="170" fill="#ffffff" opacity="0.22"/>
    <path d="M0 -160 A 160 160 0 1 1 0 160 A 80 80 0 1 0 0 -160" fill="#dc2626"/>
    <path d="M0 160 A 160 160 0 1 1 0 -160 A 80 80 0 1 0 0 160" fill="#38bdf8"/>
  </g>

  <g opacity="0.94">
    <g transform="rotate(-23 512 512)"><rect x="339" y="312" width="130" height="14" rx="5" fill="#111827"/><rect x="339" y="348" width="55" height="14" rx="5" fill="#111827"/><rect x="414" y="348" width="55" height="14" rx="5" fill="#111827"/><rect x="339" y="384" width="130" height="14" rx="5" fill="#111827"/></g>
    <g transform="translate(380 0) rotate(23 512 512)"><rect x="315" y="288" width="67" height="14" rx="5" fill="#111827"/><rect x="402" y="288" width="67" height="14" rx="5" fill="#111827"/><rect x="315" y="324" width="67" height="14" rx="5" fill="#111827"/><rect x="402" y="324" width="67" height="14" rx="5" fill="#111827"/><rect x="315" y="360" width="67" height="14" rx="5" fill="#111827"/><rect x="402" y="360" width="67" height="14" rx="5" fill="#111827"/></g>
    <g transform="translate(0 380) rotate(23 512 512)"><rect x="315" y="312" width="154" height="14" rx="5" fill="#111827"/><rect x="315" y="348" width="154" height="14" rx="5" fill="#111827"/><rect x="315" y="384" width="67" height="14" rx="5" fill="#111827"/><rect x="402" y="384" width="67" height="14" rx="5" fill="#111827"/></g>
    <g transform="translate(380 380) rotate(-23 512 512)"><rect x="347" y="296" width="154" height="14" rx="5" fill="#111827"/><rect x="347" y="332" width="154" height="14" rx="5" fill="#111827"/><rect x="347" y="368" width="67" height="14" rx="5" fill="#111827"/><rect x="434" y="368" width="67" height="14" rx="5" fill="#111827"/></g>
  </g>

  <text x="800.4" y="557.7" text-anchor="middle" dominant-baseline="middle" font-size="25" fill="#dc2626" opacity="0.75">▧</text><text x="679.9" y="791.4" text-anchor="middle" dominant-baseline="middle" font-size="31" fill="#38bdf8" opacity="0.75">▣</text><text x="479.9" y="817.3" text-anchor="middle" dominant-baseline="middle" font-size="26" fill="#dc2626" opacity="0.75">▤</text><text x="258.0" y="703.4" text-anchor="middle" dominant-baseline="middle" font-size="30" fill="#38bdf8" opacity="0.75">▥</text><text x="205.4" y="424.1" text-anchor="middle" dominant-baseline="middle" font-size="48" fill="#dc2626" opacity="0.75">▦</text><text x="355.9" y="230.4" text-anchor="middle" dominant-baseline="middle" font-size="44" fill="#38bdf8" opacity="0.75">▧</text><text x="538.7" y="207.2" text-anchor="middle" dominant-baseline="middle" font-size="35" fill="#dc2626" opacity="0.75">▣</text><text x="741.3" y="332.8" text-anchor="middle" dominant-baseline="middle" font-size="47" fill="#38bdf8" opacity="0.75">▤</text>

  <text x="512" y="900" text-anchor="middle" font-size="38" font-family="Inter, Arial, sans-serif" fill="#ffffff">March 1st Spirit #94</text>
  <text x="512" y="942" text-anchor="middle" font-size="22" font-family="Inter, Arial, sans-serif" fill="#e2e8f0">대한독립 만세 · Unique Edition</text>
</svg>