<?xml version="1.0" encoding="UTF-8"?>
<svg xmlns="http://www.w3.org/2000/svg" width="1024" height="1024" viewBox="0 0 1024 1024">
  <rect width="1024" height="1024" fill="#0f172a"/><rect x="500" y="80" width="24" height="430" fill="#f97316" opacity="0.23" transform="rotate(0 512 512)"/><rect x="500" y="80" width="24" height="430" fill="#0ea5e9" opacity="0.23" transform="rotate(12.857142857142858 512 512)"/><rect x="500" y="80" width="24" height="430" fill="#f97316" opacity="0.23" transform="rotate(25.714285714285715 512 512)"/><rect x="500" y="80" width="24" height="430" fill="#0ea5e9" opacity="0.23" transform="rotate(38.57142857142857 512 512)"/><rect x="500" y="80" width="24" height="430" fill="#f97316" opacity="0.23" transform="rotate(51.42857142857143 512 512)"/><rect x="500" y="80" width="24" height="430" fill="#0ea5e9" opacity="0.23" transform="rotate(64.28571428571429 512 512)"/><rect x="500" y="80" width="24" height="430" fill="#f97316" opacity="0.23" transform="rotate(77.14285714285714 512 512)"/><rect x="500" y="80" width="24" height="430" fill="#0ea5e9" opacity="0.23" transform="rotate(90 512 512)"/><rect x="500" y="80" width="24" height="430" fill="#f97316" opacity="0.23" transform="rotate(102.85714285714286 512 512)"/><rect x="500" y="80" width="24" height="430" fill="#0ea5e9" opacity="0.23" transform="rotate(115.71428571428572 512 512)"/><rect x="500" y="80" width="24" height="430" fill="#f97316" opacity="0.23" transform="rotate(128.57142857142858 512 512)"/><rect x="500" y="80" width="24" height="430" fill="#0ea5e9" opacity="0.23" transform="rotate(141.42857142857144 512 512)"/><rect x="500" y="80" width="24" height="430" fill="#f97316" opacity="0.23" transform="rotate(154.28571428571428 512 512)"/><rect x="500" y="80" width="24" height="430" fill="#0ea5e9" opacity="0.23" transform="rotate(167.14285714285714 512 512)"/><rect x="500" y="80" width="24" height="430" fill="#f97316" opacity="0.23" transform="rotate(180 512 512)"/><rect x="500" y="80" width="24" height="430" fill="#0ea5e9" opacity="0.23" transform="rotate(192.85714285714286 512 512)"/><rect x="500" y="80" width="24" height="430" fill="#f97316" opacity="0.23" transform="rotate(205.71428571428572 512 512)"/><rect x="500" y="80" width="24" height="430" fill="#0ea5e9" opacity="0.23" transform="rotate(218.57142857142858 512 512)"/><rect x="500" y="80" width="24" height="430" fill="#f97316" opacity="0.23" transform="rotate(231.42857142857144 512 512)"/><rect x="500" y="80" width="24" height="430" fill="#0ea5e9" opacity="0.23" transform="rotate(244.2857142857143 512 512)"/><rect x="500" y="80" width="24" height="430" fill="#f97316" opacity="0.23" transform="rotate(257.14285714285717 512 512)"/><rect x="500" y="80" width="24" height="430" fill="#0ea5e9" opacity="0.23" transform="rotate(270 512 512)"/><rect x="500" y="80" width="24" height="430" fill="#f97316" opacity="0.23" transform="rotate(282.8571428571429 512 512)"/><rect x="500" y="80" width="24" height="430" fill="#0ea5e9" opacity="0.23" transform="rotate(295.7142857142857 512 512)"/><rect x="500" y="80" width="24" height="430" fill="#f97316" opacity="0.23" transform="rotate(308.57142857142856 512 512)"/><rect x="500" y="80" width="24" height="430" fill="#0ea5e9" opacity="0.23" transform="rotate(321.42857142857144 512 512)"/><rect x="500" y="80" width="24" height="430" fill="#f97316" opacity="0.23" transform="rotate(334.2857142857143 512 512)"/><rect x="500" y="80" width="24" height="430" fill="#0ea5e9" opacity="0.23" transform="rotate(347.14285714285717 512 512)"/><circle cx="512" cy="512" r="190" fill="#ecfeff" opacity="0.2"/>
  <g><circle cx="512" cy="512" r="310" fill="#ecfeff" stroke="#f8fafc" stroke-width="6"/><circle cx="512" cy="512" r="265" fill="none" stroke="#0ea5e9" opacity="0.35" stroke-width="8"/></g>

  <g transform="translate(512 503) rotate(95)">
    <circle cx="0" cy="0" r="148" fill="#ecfeff" opacity="0.22"/>
    <path d="M0 -138 A 138 138 0 1 1 0 138 A 69 69 0 1 0 0 -138" fill="#f97316"/>
    <path d="M0 138 A 138 138 0 1 1 0 -138 A 69 69 0 1 0 0 138" fill="#0ea5e9"/>
  </g>

  <g opacity="0.94">
    <g transform="rotate(-23 512 512)"><rect x="323" y="304" width="61" height="14" rx="5" fill="#111827"/><rect x="404" y="304" width="61" height="14" rx="5" fill="#111827"/><rect x="323" y="340" width="142" height="14" rx="5" fill="#111827"/><rect x="323" y="376" width="61" height="14" rx="5" fill="#111827"/><rect x="404" y="376" width="61" height="14" rx="5" fill="#111827"/></g>
    <g transform="translate(380 0) rotate(23 512 512)"><rect x="339" y="296" width="67" height="14" rx="5" fill="#111827"/><rect x="426" y="296" width="67" height="14" rx="5" fill="#111827"/><rect x="339" y="332" width="67" height="14" rx="5" fill="#111827"/><rect x="426" y="332" width="67" height="14" rx="5" fill="#111827"/><rect x="339" y="368" width="67" height="14" rx="5" fill="#111827"/><rect x="426" y="368" width="67" height="14" rx="5" fill="#111827"/></g>
    <g transform="translate(0 380) rotate(23 512 512)"><rect x="339" y="304" width="49" height="14" rx="5" fill="#111827"/><rect x="408" y="304" width="49" height="14" rx="5" fill="#111827"/><rect x="339" y="340" width="118" height="14" rx="5" fill="#111827"/><rect x="339" y="376" width="118" height="14" rx="5" fill="#111827"/></g>
    <g transform="translate(380 380) rotate(-23 512 512)"><rect x="339" y="296" width="61" height="14" rx="5" fill="#111827"/><rect x="420" y="296" width="61" height="14" rx="5" fill="#111827"/><rect x="339" y="332" width="142" height="14" rx="5" fill="#111827"/><rect x="339" y="368" width="61" height="14" rx="5" fill="#111827"/><rect x="420" y="368" width="61" height="14" rx="5" fill="#111827"/></g>
  </g>

  <text x="845.0" y="512.0" text-anchor="middle" dominant-baseline="middle" font-size="47" fill="#f97316" opacity="0.75">⟡</text><text x="762.4" y="680.9" text-anchor="middle" dominant-baseline="middle" font-size="41" fill="#0ea5e9" opacity="0.75">⬟</text><text x="594.0" y="840.9" text-anchor="middle" dominant-baseline="middle" font-size="42" fill="#f97316" opacity="0.75">⬢</text><text x="431.0" y="837.0" text-anchor="middle" dominant-baseline="middle" font-size="35" fill="#0ea5e9" opacity="0.75">✪</text><text x="341.0" y="796.6" text-anchor="middle" dominant-baseline="middle" font-size="25" fill="#f97316" opacity="0.75">✺</text><text x="223.8" y="605.6" text-anchor="middle" dominant-baseline="middle" font-size="22" fill="#0ea5e9" opacity="0.75">⟡</text><text x="192.4" y="438.2" text-anchor="middle" dominant-baseline="middle" font-size="42" fill="#f97316" opacity="0.75">⬟</text><text x="256.4" y="326.3" text-anchor="middle" dominant-baseline="middle" font-size="25" fill="#0ea5e9" opacity="0.75">⬢</text><text x="437.0" y="211.2" text-anchor="middle" dominant-baseline="middle" font-size="25" fill="#f97316" opacity="0.75">✪</text><text x="584.3" y="221.9" text-anchor="middle" dominant-baseline="middle" font-size="30" fill="#0ea5e9" opacity="0.75">✺</text><text x="696.6" y="227.7" text-anchor="middle" dominant-baseline="middle" font-size="30" fill="#f97316" opacity="0.75">⟡</text><text x="834.3" y="413.5" text-anchor="middle" dominant-baseline="middle" font-size="20" fill="#0ea5e9" opacity="0.75">⬟</text>

  <text x="512" y="900" text-anchor="middle" font-size="38" font-family="Inter, Arial, sans-serif" fill="#ecfeff">March 1st Spirit #95</text>
  <text x="512" y="942" text-anchor="middle" font-size="22" font-family="Inter, Arial, sans-serif" fill="#f8fafc">대한독립 만세 · Unique Edition</text>
</svg>