<?xml version="1.0" encoding="UTF-8"?>
<svg xmlns="http://www.w3.org/2000/svg" width="1024" height="1024" viewBox="0 0 1024 1024">
  
      <defs>
        <radialGradient id="g" cx="50%" cy="45%" r="70%">
          <stop offset="0%" stop-color="#ffffff"/>
          <stop offset="65%" stop-color="#38bdf8"/>
          <stop offset="100%" stop-color="#172554"/>
        </radialGradient>
      </defs>
      <rect width="1024" height="1024" fill="url(#g)"/>
    
  <circle cx="512" cy="512" r="330" fill="#ffffff" stroke="#e2e8f0" stroke-width="6"/>

  <g transform="translate(512 515) rotate(215)">
    <circle cx="0" cy="0" r="139" fill="#ffffff" opacity="0.22"/>
    <path d="M0 -129 A 129 129 0 1 1 0 129 A 64.5 64.5 0 1 0 0 -129" fill="#dc2626"/>
    <path d="M0 129 A 129 129 0 1 1 0 -129 A 64.5 64.5 0 1 0 0 129" fill="#38bdf8"/>
  </g>

  <g opacity="0.94">
    <g transform="rotate(-23 512 512)"><rect x="315" y="304" width="61" height="14" rx="5" fill="#111827"/><rect x="396" y="304" width="61" height="14" rx="5" fill="#111827"/><rect x="315" y="340" width="61" height="14" rx="5" fill="#111827"/><rect x="396" y="340" width="61" height="14" rx="5" fill="#111827"/><rect x="315" y="376" width="142" height="14" rx="5" fill="#111827"/></g>
    <g transform="translate(380 0) rotate(23 512 512)"><rect x="331" y="312" width="130" height="14" rx="5" fill="#111827"/><rect x="331" y="348" width="55" height="14" rx="5" fill="#111827"/><rect x="406" y="348" width="55" height="14" rx="5" fill="#111827"/><rect x="331" y="384" width="55" height="14" rx="5" fill="#111827"/><rect x="406" y="384" width="55" height="14" rx="5" fill="#111827"/></g>
    <g transform="translate(0 380) rotate(23 512 512)"><rect x="331" y="296" width="61" height="14" rx="5" fill="#111827"/><rect x="412" y="296" width="61" height="14" rx="5" fill="#111827"/><rect x="331" y="332" width="61" height="14" rx="5" fill="#111827"/><rect x="412" y="332" width="61" height="14" rx="5" fill="#111827"/><rect x="331" y="368" width="142" height="14" rx="5" fill="#111827"/></g>
    <g transform="translate(380 380) rotate(-23 512 512)"><rect x="347" y="288" width="61" height="14" rx="5" fill="#111827"/><rect x="428" y="288" width="61" height="14" rx="5" fill="#111827"/><rect x="347" y="324" width="61" height="14" rx="5" fill="#111827"/><rect x="428" y="324" width="61" height="14" rx="5" fill="#111827"/><rect x="347" y="360" width="142" height="14" rx="5" fill="#111827"/></g>
  </g>

  <text x="758.7" y="524.9" text-anchor="middle" dominant-baseline="middle" font-size="40" fill="#dc2626" opacity="0.75">▤</text><text x="715.7" y="675.2" text-anchor="middle" dominant-baseline="middle" font-size="37" fill="#38bdf8" opacity="0.75">▥</text><text x="662.0" y="737.7" text-anchor="middle" dominant-baseline="middle" font-size="46" fill="#dc2626" opacity="0.75">▦</text><text x="537.8" y="760.7" text-anchor="middle" dominant-baseline="middle" font-size="42" fill="#38bdf8" opacity="0.75">▧</text><text x="378.0" y="705.0" text-anchor="middle" dominant-baseline="middle" font-size="21" fill="#dc2626" opacity="0.75">▣</text><text x="305.5" y="665.0" text-anchor="middle" dominant-baseline="middle" font-size="43" fill="#38bdf8" opacity="0.75">▤</text><text x="273.3" y="544.9" text-anchor="middle" dominant-baseline="middle" font-size="35" fill="#dc2626" opacity="0.75">▥</text><text x="260.3" y="435.8" text-anchor="middle" dominant-baseline="middle" font-size="29" fill="#38bdf8" opacity="0.75">▦</text><text x="380.0" y="296.2" text-anchor="middle" dominant-baseline="middle" font-size="21" fill="#dc2626" opacity="0.75">▧</text><text x="476.5" y="281.7" text-anchor="middle" dominant-baseline="middle" font-size="29" fill="#38bdf8" opacity="0.75">▣</text><text x="605.3" y="280.1" text-anchor="middle" dominant-baseline="middle" font-size="34" fill="#dc2626" opacity="0.75">▤</text><text x="690.7" y="317.7" text-anchor="middle" dominant-baseline="middle" font-size="27" fill="#38bdf8" opacity="0.75">▥</text><text x="764.6" y="459.7" text-anchor="middle" dominant-baseline="middle" font-size="28" fill="#dc2626" opacity="0.75">▦</text>

  <text x="512" y="900" text-anchor="middle" font-size="38" font-family="Inter, Arial, sans-serif" fill="#ffffff">March 1st Spirit #96</text>
  <text x="512" y="942" text-anchor="middle" font-size="22" font-family="Inter, Arial, sans-serif" fill="#e2e8f0">대한독립 만세 · Unique Edition</text>
</svg>