<?xml version="1.0" encoding="UTF-8"?>
<svg xmlns="http://www.w3.org/2000/svg" width="1024" height="1024" viewBox="0 0 1024 1024">
  
      <defs>
        <radialGradient id="g" cx="50%" cy="45%" r="70%">
          <stop offset="0%" stop-color="#ffffff"/>
          <stop offset="65%" stop-color="#38bdf8"/>
          <stop offset="100%" stop-color="#172554"/>
        </radialGradient>
      </defs>
      <rect width="1024" height="1024" fill="url(#g)"/>
    
  <polygon points="512,170 820,512 512,854 204,512" fill="#ffffff" stroke="#e2e8f0" stroke-width="6"/>

  <g transform="translate(512 514) rotate(65)">
    <circle cx="0" cy="0" r="152" fill="#ffffff" opacity="0.22"/>
    <path d="M0 -142 A 142 142 0 1 1 0 142 A 71 71 0 1 0 0 -142" fill="#dc2626"/>
    <path d="M0 142 A 142 142 0 1 1 0 -142 A 71 71 0 1 0 0 142" fill="#38bdf8"/>
  </g>

  <g opacity="0.94">
    <g transform="rotate(-23 512 512)"><rect x="331" y="288" width="49" height="14" rx="5" fill="#111827"/><rect x="400" y="288" width="49" height="14" rx="5" fill="#111827"/><rect x="331" y="324" width="118" height="14" rx="5" fill="#111827"/><rect x="331" y="360" width="118" height="14" rx="5" fill="#111827"/></g>
    <g transform="translate(380 0) rotate(23 512 512)"><rect x="339" y="280" width="154" height="14" rx="5" fill="#111827"/><rect x="339" y="316" width="154" height="14" rx="5" fill="#111827"/><rect x="339" y="352" width="67" height="14" rx="5" fill="#111827"/><rect x="426" y="352" width="67" height="14" rx="5" fill="#111827"/></g>
    <g transform="translate(0 380) rotate(23 512 512)"><rect x="339" y="288" width="130" height="14" rx="5" fill="#111827"/><rect x="339" y="324" width="55" height="14" rx="5" fill="#111827"/><rect x="414" y="324" width="55" height="14" rx="5" fill="#111827"/><rect x="339" y="360" width="55" height="14" rx="5" fill="#111827"/><rect x="414" y="360" width="55" height="14" rx="5" fill="#111827"/></g>
    <g transform="translate(380 380) rotate(-23 512 512)"><rect x="339" y="288" width="130" height="14" rx="5" fill="#111827"/><rect x="339" y="324" width="55" height="14" rx="5" fill="#111827"/><rect x="414" y="324" width="55" height="14" rx="5" fill="#111827"/><rect x="339" y="360" width="55" height="14" rx="5" fill="#111827"/><rect x="414" y="360" width="55" height="14" rx="5" fill="#111827"/></g>
  </g>

  <text x="827.1" y="573.2" text-anchor="middle" dominant-baseline="middle" font-size="42" fill="#dc2626" opacity="0.75">⬢</text><text x="771.1" y="678.5" text-anchor="middle" dominant-baseline="middle" font-size="27" fill="#38bdf8" opacity="0.75">✪</text><text x="670.9" y="792.1" text-anchor="middle" dominant-baseline="middle" font-size="35" fill="#dc2626" opacity="0.75">✺</text><text x="544.6" y="829.3" text-anchor="middle" dominant-baseline="middle" font-size="34" fill="#38bdf8" opacity="0.75">⟡</text><text x="395.6" y="817.6" text-anchor="middle" dominant-baseline="middle" font-size="26" fill="#dc2626" opacity="0.75">⬟</text><text x="269.2" y="734.0" text-anchor="middle" dominant-baseline="middle" font-size="40" fill="#38bdf8" opacity="0.75">⬢</text><text x="222.4" y="556.4" text-anchor="middle" dominant-baseline="middle" font-size="48" fill="#dc2626" opacity="0.75">✪</text><text x="191.0" y="461.2" text-anchor="middle" dominant-baseline="middle" font-size="31" fill="#38bdf8" opacity="0.75">✺</text><text x="242.2" y="376.2" text-anchor="middle" dominant-baseline="middle" font-size="46" fill="#dc2626" opacity="0.75">⟡</text><text x="382.5" y="241.4" text-anchor="middle" dominant-baseline="middle" font-size="30" fill="#38bdf8" opacity="0.75">⬟</text><text x="530.1" y="182.5" text-anchor="middle" dominant-baseline="middle" font-size="42" fill="#dc2626" opacity="0.75">⬢</text><text x="637.9" y="213.4" text-anchor="middle" dominant-baseline="middle" font-size="43" fill="#38bdf8" opacity="0.75">✪</text><text x="775.9" y="317.2" text-anchor="middle" dominant-baseline="middle" font-size="25" fill="#dc2626" opacity="0.75">✺</text><text x="822.2" y="442.0" text-anchor="middle" dominant-baseline="middle" font-size="36" fill="#38bdf8" opacity="0.75">⟡</text>

  <text x="512" y="900" text-anchor="middle" font-size="38" font-family="Inter, Arial, sans-serif" fill="#ffffff">March 1st Spirit #97</text>
  <text x="512" y="942" text-anchor="middle" font-size="22" font-family="Inter, Arial, sans-serif" fill="#e2e8f0">대한독립 만세 · Unique Edition</text>
</svg>