<?xml version="1.0" encoding="UTF-8"?>
<svg xmlns="http://www.w3.org/2000/svg" width="1024" height="1024" viewBox="0 0 1024 1024">
  <rect width="1024" height="1024" fill="#172554"/><rect x="500" y="80" width="24" height="430" fill="#dc2626" opacity="0.23" transform="rotate(0 512 512)"/><rect x="500" y="80" width="24" height="430" fill="#38bdf8" opacity="0.23" transform="rotate(12.857142857142858 512 512)"/><rect x="500" y="80" width="24" height="430" fill="#dc2626" opacity="0.23" transform="rotate(25.714285714285715 512 512)"/><rect x="500" y="80" width="24" height="430" fill="#38bdf8" opacity="0.23" transform="rotate(38.57142857142857 512 512)"/><rect x="500" y="80" width="24" height="430" fill="#dc2626" opacity="0.23" transform="rotate(51.42857142857143 512 512)"/><rect x="500" y="80" width="24" height="430" fill="#38bdf8" opacity="0.23" transform="rotate(64.28571428571429 512 512)"/><rect x="500" y="80" width="24" height="430" fill="#dc2626" opacity="0.23" transform="rotate(77.14285714285714 512 512)"/><rect x="500" y="80" width="24" height="430" fill="#38bdf8" opacity="0.23" transform="rotate(90 512 512)"/><rect x="500" y="80" width="24" height="430" fill="#dc2626" opacity="0.23" transform="rotate(102.85714285714286 512 512)"/><rect x="500" y="80" width="24" height="430" fill="#38bdf8" opacity="0.23" transform="rotate(115.71428571428572 512 512)"/><rect x="500" y="80" width="24" height="430" fill="#dc2626" opacity="0.23" transform="rotate(128.57142857142858 512 512)"/><rect x="500" y="80" width="24" height="430" fill="#38bdf8" opacity="0.23" transform="rotate(141.42857142857144 512 512)"/><rect x="500" y="80" width="24" height="430" fill="#dc2626" opacity="0.23" transform="rotate(154.28571428571428 512 512)"/><rect x="500" y="80" width="24" height="430" fill="#38bdf8" opacity="0.23" transform="rotate(167.14285714285714 512 512)"/><rect x="500" y="80" width="24" height="430" fill="#dc2626" opacity="0.23" transform="rotate(180 512 512)"/><rect x="500" y="80" width="24" height="430" fill="#38bdf8" opacity="0.23" transform="rotate(192.85714285714286 512 512)"/><rect x="500" y="80" width="24" height="430" fill="#dc2626" opacity="0.23" transform="rotate(205.71428571428572 512 512)"/><rect x="500" y="80" width="24" height="430" fill="#38bdf8" opacity="0.23" transform="rotate(218.57142857142858 512 512)"/><rect x="500" y="80" width="24" height="430" fill="#dc2626" opacity="0.23" transform="rotate(231.42857142857144 512 512)"/><rect x="500" y="80" width="24" height="430" fill="#38bdf8" opacity="0.23" transform="rotate(244.2857142857143 512 512)"/><rect x="500" y="80" width="24" height="430" fill="#dc2626" opacity="0.23" transform="rotate(257.14285714285717 512 512)"/><rect x="500" y="80" width="24" height="430" fill="#38bdf8" opacity="0.23" transform="rotate(270 512 512)"/><rect x="500" y="80" width="24" height="430" fill="#dc2626" opacity="0.23" transform="rotate(282.8571428571429 512 512)"/><rect x="500" y="80" width="24" height="430" fill="#38bdf8" opacity="0.23" transform="rotate(295.7142857142857 512 512)"/><rect x="500" y="80" width="24" height="430" fill="#dc2626" opacity="0.23" transform="rotate(308.57142857142856 512 512)"/><rect x="500" y="80" width="24" height="430" fill="#38bdf8" opacity="0.23" transform="rotate(321.42857142857144 512 512)"/><rect x="500" y="80" width="24" height="430" fill="#dc2626" opacity="0.23" transform="rotate(334.2857142857143 512 512)"/><rect x="500" y="80" width="24" height="430" fill="#38bdf8" opacity="0.23" transform="rotate(347.14285714285717 512 512)"/><circle cx="512" cy="512" r="190" fill="#ffffff" opacity="0.2"/>
  <circle cx="512" cy="512" r="330" fill="#ffffff" stroke="#e2e8f0" stroke-width="6"/>

  <g transform="translate(512 511) rotate(230)">
    <circle cx="0" cy="0" r="178" fill="#ffffff" opacity="0.22"/>
    <path d="M0 -168 A 168 168 0 1 1 0 168 A 84 84 0 1 0 0 -168" fill="#dc2626"/>
    <path d="M0 168 A 168 168 0 1 1 0 -168 A 84 84 0 1 0 0 168" fill="#38bdf8"/>
  </g>

  <g opacity="0.94">
    <g transform="rotate(-23 512 512)"><rect x="323" y="296" width="130" height="14" rx="5" fill="#111827"/><rect x="323" y="332" width="55" height="14" rx="5" fill="#111827"/><rect x="398" y="332" width="55" height="14" rx="5" fill="#111827"/><rect x="323" y="368" width="55" height="14" rx="5" fill="#111827"/><rect x="398" y="368" width="55" height="14" rx="5" fill="#111827"/></g>
    <g transform="translate(380 0) rotate(23 512 512)"><rect x="347" y="296" width="154" height="14" rx="5" fill="#111827"/><rect x="347" y="332" width="154" height="14" rx="5" fill="#111827"/><rect x="347" y="368" width="67" height="14" rx="5" fill="#111827"/><rect x="434" y="368" width="67" height="14" rx="5" fill="#111827"/></g>
    <g transform="translate(0 380) rotate(23 512 512)"><rect x="315" y="296" width="49" height="14" rx="5" fill="#111827"/><rect x="384" y="296" width="49" height="14" rx="5" fill="#111827"/><rect x="315" y="332" width="118" height="14" rx="5" fill="#111827"/><rect x="315" y="368" width="118" height="14" rx="5" fill="#111827"/></g>
    <g transform="translate(380 380) rotate(-23 512 512)"><rect x="323" y="304" width="67" height="14" rx="5" fill="#111827"/><rect x="410" y="304" width="67" height="14" rx="5" fill="#111827"/><rect x="323" y="340" width="67" height="14" rx="5" fill="#111827"/><rect x="410" y="340" width="67" height="14" rx="5" fill="#111827"/><rect x="323" y="376" width="67" height="14" rx="5" fill="#111827"/><rect x="410" y="376" width="67" height="14" rx="5" fill="#111827"/></g>
  </g>

  <text x="802.9" y="537.4" text-anchor="middle" dominant-baseline="middle" font-size="40" fill="#dc2626" opacity="0.75">⬢</text><text x="726.6" y="717.3" text-anchor="middle" dominant-baseline="middle" font-size="45" fill="#38bdf8" opacity="0.75">▲</text><text x="552.6" y="818.3" text-anchor="middle" dominant-baseline="middle" font-size="22" fill="#dc2626" opacity="0.75">◆</text><text x="391.9" y="806.5" text-anchor="middle" dominant-baseline="middle" font-size="20" fill="#38bdf8" opacity="0.75">●</text><text x="281.0" y="706.5" text-anchor="middle" dominant-baseline="middle" font-size="36" fill="#dc2626" opacity="0.75">■</text><text x="207.8" y="589.9" text-anchor="middle" dominant-baseline="middle" font-size="44" fill="#38bdf8" opacity="0.75">⬢</text><text x="229.6" y="384.1" text-anchor="middle" dominant-baseline="middle" font-size="43" fill="#dc2626" opacity="0.75">▲</text><text x="326.8" y="236.5" text-anchor="middle" dominant-baseline="middle" font-size="23" fill="#38bdf8" opacity="0.75">◆</text><text x="494.8" y="203.5" text-anchor="middle" dominant-baseline="middle" font-size="45" fill="#dc2626" opacity="0.75">●</text><text x="689.5" y="233.8" text-anchor="middle" dominant-baseline="middle" font-size="24" fill="#38bdf8" opacity="0.75">■</text><text x="803.2" y="358.9" text-anchor="middle" dominant-baseline="middle" font-size="41" fill="#dc2626" opacity="0.75">⬢</text>

  <text x="512" y="900" text-anchor="middle" font-size="38" font-family="Inter, Arial, sans-serif" fill="#ffffff">March 1st Spirit #99</text>
  <text x="512" y="942" text-anchor="middle" font-size="22" font-family="Inter, Arial, sans-serif" fill="#e2e8f0">대한독립 만세 · Unique Edition</text>
</svg>